M48
;Layer_Color=6321
;FILE_FORMAT=4:4
METRIC,LZ
;TYPE=PLATED
T1F00S00C0.2000
T2F00S00C0.3000
T3F00S00C0.4000
T4F00S00C0.5000
T5F00S00C0.7000
T6F00S00C1.0000
T7F00S00C1.7000
T9F00S00C3.5000
T10F00S00C5.0000
%
T01
X0054341Y0116302
Y0117602
Y0118902
X0055641
Y0117602
Y0116302
X0095859Y0120904
X0097469
Y0122514
X0095859
T02
X0006975Y00340782
X00186494Y0025475
X00286316
X00386138
X003048Y0037973
X0029083
X0027686
Y003937
X0029083
X003048
X0026289
Y0037973
X0040767Y0034036
Y0032639
Y0031242
Y0029845
X0042164
X0043561
Y0031242
Y0032639
Y0034036
X0042164
Y0032639
Y0031242
X0048596Y0027126
X00585782
X00685604Y0025475
X00785426
X00885248
X0098507Y0027253
X01084892Y002738
X01184714Y0025475
X01284536
X0128045Y0034642
Y0035531
X01384358Y0025475
X0148418
X0160025Y00340782
Y00440604
Y00540426
Y00640248
Y0074007
X0122174Y0073025
X0120904Y0070866
X011811Y00758588
X0116713
X0115316
X0113919
X0112522
X0111125
X0109728
Y00772558
Y00786528
X0111125
Y00772558
X0112522
X0113919
Y00786528
X0115316
X0116713
X011811
Y00772558
X0116713
X0115316
X0112522Y00786528
X0112522Y0056515
X0113919
X0115316
X0116713
X011811
Y0055118
Y0053721
Y0052324
Y0050927
Y004953
X0116713
X0115316
Y0050927
X0116713
Y0052324
Y0053721
Y0055118
X0115316
X0113919
Y0053721
X0115316
Y0052324
X0113919
Y0050927
X0112522
Y004953
X0111125
X0109728
Y0050927
Y0052324
X0111125
X0112522
Y0053721
Y0055118
X0111125
Y0056515
X0109728
Y0055118
Y0053721
X0111125
Y0050927
X0113919Y004953
X0099822Y0049127
X0098425
X0097028
X0095631
X0094234
X0092837
Y0050524
Y0051921
X0094234
Y0050524
X0095631
X0097028
X0098425
X0099822
Y0051921
Y0053318
X0098425
Y0051921
X0097028
X0095631
Y0053318
X0097028
Y0054715
X0098425
Y0056112
X0099822
Y0054715
Y0057509
X0098425
X0097028
X0095631
Y0056112
Y0054715
X0094234
X0092837
Y0056112
Y0057509
X0094234
Y0056112
Y0053318
X0092837
X0097028Y0056112
X0051181Y005604
Y0057437
X0049784
X0048387
Y0058834
X0049784
X0051181
Y0060231
Y0061628
Y0063025
X0049784
Y0061628
X0048387
Y0063025
X004699
X0045593
Y0061628
X0044196
Y0063025
X0042799
Y0061628
Y0060231
Y0058834
X0044196
X0045593
Y0057437
X0044196
X0042799
Y005604
X0044196
X0045593
X004699
Y0057437
Y0058834
Y0060231
Y0061628
X0048387Y0060231
X0049784
Y005604
X0048387
X0045593Y0060231
X0044196
Y0072213
Y007361
X0045593
Y0075007
X0044196
X0042799
Y007361
Y0072213
X0045593
X004699
Y007361
X0048387
X0049784
Y0075007
X0048387
X004699
Y0076404
Y0077801
X0048387
Y0079198
X0049784
Y0077801
X0051181
Y0079198
Y0076404
Y0075007
Y007361
Y0072213
X0049784
X0048387
Y0076404
X0049784
X0045593
Y0077801
Y0079198
X0044196
Y0077801
X0042799
Y0079198
Y0076404
X0044196
X004699Y0079198
X0047498Y0048387
X0046101
X0044704
Y004699
X0046101
X0047498
X0048895
Y0048387
X0050292
X0051689
X0053086
Y004699
X0051689
X0050292
X0033655Y0050292
X0032258
X0030861
X0029464
X0028067
X002667
X0025273
Y0051689
Y0053086
X002667
Y0051689
X0028067
X0029464
Y0053086
X0028067
X0030861
X0032258
X0033655
Y0051689
X0032258
X0030861
X003048Y0040767
X0029083
X0027686
X0026289
X0006975Y00440604
Y00540426
Y00640248
Y0074007
Y00839892
X0008753Y00939714
X0006975Y01039536
X0008753Y01139358
X0030226Y0102235
X0031623
Y0100838
Y0099441
X003302
Y0100838
Y0102235
Y0098044
Y0096647
X0031623
Y009525
X003302
Y0093853
X0031623
X0030226
Y009525
Y0096647
Y0098044
X0031623
X0030226Y0099441
Y0100838
X0042578Y0101044
Y0102441
Y0103838
X0043975
X0045372
X0046769
Y0102441
Y0101044
Y0099647
Y009825
Y0096853
Y0095456
X0048166
X0049563
Y0096853
X0048166
Y009825
Y0099647
X0049563
Y0101044
Y0102441
Y0103838
X0048166
Y0102441
Y0101044
X0045372
Y0099647
X0043975
X0042578
Y009825
Y0096853
Y0095456
X0043975
X0045372
Y0096853
Y009825
X0043975
Y0096853
Y0101044
Y0102441
X0045372
X0049563Y009825
X0056736Y0097672
Y0099069
X0058133
X005953
Y0097672
Y0096275
Y0094878
X0058133
X0056736
Y0096275
X0058133
Y0097672
X0060927
Y0099069
Y0100466
X005953
Y0101863
X0060927
X005953Y010326
X0058133
X0056736
Y0101863
X0058133
Y0100466
X0056736
X0062324
Y0099069
X0063721
Y0097672
X0062324
X0068453Y010033
Y0101346
Y0102362
X0068072Y0103378
X0067042Y01033812
X0068453Y0107442
X0068326Y0111379
X00652004Y01112265
X0061849Y0111379
Y0107376
X0058928Y0113919
X005461Y0112649
X0053975Y0109347
X0046609Y0110871
X0043434Y01112838
Y0108966
Y01136015
Y01159193
Y0118237
X0046609Y0116855
X0046482Y0114427
X005969Y0118745
X0072771Y0118491
X0076073Y0115316
X00757932Y01117015
X00790142Y01115481
X007841Y0116967
X00791388Y01052301
X00764094Y01003432
X0071882Y010668
X0072771Y0091567
X0080224Y0090591
X0081788Y010033
X00851864Y01049571
X00862498Y0107315
X0087122
X00879941
X0088011Y01106122
X00871388
X00862667
X0089789Y0110998
X00914736Y01147216
Y01160789
X0089535Y0116586
X00885549Y01186262
X0087503Y0118618
X0084681Y0118138
X0085344Y0116332
X0083058Y0115062
X0083312Y0112776
X0080899Y0110363
X0079756Y010795
Y011557
X008001Y0117602
X0094742Y01164659
X0095504Y01156335
X0100059Y01166617
X01013919Y0118186
X0102235Y01187168
X01043987Y01177601
X0106025Y0117749
X0106934Y011557
X0107696Y0113411
X0104521Y0114173
X0100584Y0113919
X0105029Y011049
X0104775Y0105537
X010033Y010541
X00988133Y01037869
X0096901Y0100457
X0095631Y009779
X00952447Y00903099
X0093345Y0092202
X0089114Y0093305
X00884623Y00985492
X0091186Y0103505
X0093218Y0106807
X011176Y0106172
X0112735Y0108585
X0114935Y0109685
X0114211Y0113627
X0111252Y0110744
X0110871Y0099949
X0109474
Y0098552
Y0097155
X0110871
X0112268
X0113665
X0115062
X0116459
X0117856
Y0098552
Y0099949
X0116459
Y0098552
X0115062
X0113665
Y0099949
X0112268
Y0098552
X0110871
Y0095758
X0109474
Y0094361
Y0092964
X0110871
X0112268
X0113665
X0115062
X0116459
X0117856
Y0094361
Y0095758
X0116459
X0115062
X0113665
Y0094361
X0112268
X0110871
X0112268Y0095758
X0115062Y0094361
X0116459
X0115062Y0099949
X0115316Y00828438
X0113919
Y00814468
Y00800498
X0115316
X0116713
X011811
Y00814468
Y00828438
X0116713
Y00814468
X0115316
X0112522
X0111125
X0109728
Y00800498
X0111125
X0112522
Y00828438
X0111125
X0109728
X0091059Y00889
X0123698Y0090678
X01304Y0093755
X01316065
X0129257Y0097692
X0127606
X0136242Y0091977
X0122113Y0114366
X012065Y0116459
X0160025Y01139358
Y01039536
Y00939714
Y00839892
Y0123918
X01483506Y0135525
X01383684Y0135779
X01283862
X0127127Y0129286
X0125095Y012954
X01243484Y01259234
X012065Y0128016
X0119126Y0126873
X012065Y0120015
X0127254Y0120269
Y0122428
X0117856Y0125603
X0116459Y01193165
X0111887Y0122301
X0105664
X01059381Y01235589
X0104521Y0123825
X0104267Y0125476
X01024755Y01254619
X01030033Y01210611
X0104267Y0120904
X01038251Y01217728
X0101642Y01207187
X0104902Y011938
X0107823Y0120015
X01076885Y0128237
X01084218Y0135779
X00984396
X0096901Y0131699
X0096774Y0130302
X00972185Y01292225
X0096774Y0127762
X00972306Y01268884
X0090678Y0127127
X00906991Y0125262
X0089789Y0125857
X00892983Y01279924
X00895452Y01227462
X00901046Y01211585
X0091469Y01202035
X0083566Y0123317
X0082042Y0127254
X0080137Y0119634
X009271Y0131191
Y0132207
X00884574Y0135779
X0118404
X00784752
X0068493Y0135525
X00585108
X00485286
X0048768Y0123698
X0044831Y012192
Y0125857
X0052197Y0121158
X00725611Y01231817
X0076073Y0122047
X0078994Y0119253
X0074168Y0128397
X00385464Y0135525
X00285642
X0018582
X0006975Y0123918
T03
X011448Y0036904
X012192Y0034036
X0123698Y0033909
X0122301Y0062865
X0120904Y00635
X0066548Y0061468
X00663308Y005461
X00636638Y00527439
X00623938Y00533488
X00610478Y00533852
X0059953Y0063861
X0060198Y0065532
X0036203Y0108458
X0032131Y0109982
X0030861
X0029591
X0028321
X0050252Y0090591
X00546366Y00926966
X00579Y0090055
X00699755Y00889563
X007239Y0089281
X00713774Y00930944
X00747145Y00924175
X00669844Y00954486
X0073787Y01116282
X008382Y01053465
X0083312Y0096139
X0082931Y0092583
X0082891Y0090718
X0100076Y0088646
X0091948Y0108966
X0128143Y0100203
Y0098933
X0143891Y0120904
X0144018Y0126238
X006745Y01243826
X00676019Y01210155
X00597024Y01204389
X00590694Y01295426
T04
X0063881Y003175
Y0033147
Y0034544
Y0035941
Y0037338
Y0038735
X0064897Y00381
Y0039497
X00659218Y00388021
Y00374051
Y00360081
Y00346111
Y00332141
Y00318171
X0064897Y0032512
Y0033909
Y0035306
Y0036703
X0072263Y0037719
X0073406
X0074549
Y0038862
X0075692
X0076835
X0077978
X0079121
Y0037719
X0077978
X0076835
X0075692
X0073406Y0038862
X0128045Y0042008
X0107061Y0050419
Y0051816
Y0053213
Y005461
Y0056007
Y0057404
X0102163Y0060325
X01002223
X00985463
X00966057
X00949297
X0092989
X0091313
X00944281Y00681902
X00958251
X00972221
X00986191
X01000161
X01014131
X0102108Y0069215
X0100711
X0099314
X0097917
X009652
X0095123
X0095758Y0070231
X0094361
X0097155
X0098552
X0099949
X0101346
X01097938Y00670106
X01105558Y00659946
X01119528
X01133498
X01147468
X01161438
X01175408
X01168459Y00649698
X01154489
X01140519
X01126549
X01125878Y00670106
X01139848
X01153818
X01167788
X01098609Y00649698
X00794421Y00652692
X0080137Y0066294
X0079375Y006731
Y0076962
X0080772
X0082169
X0081915Y0050038
X0083058
X0084201
X0083058Y0048895
X0081915
X0080772
Y0050038
X0079629
Y0048895
X0078486
Y0050038
X0077343
Y0048895
X00766481Y00652692
X00780451
X007874Y0066294
X0077343
X0075946
X0074549
X0073152
X0073787Y006731
X007239
X00724571Y00652692
X00738541
X00752511
X0075184Y006731
X0076581
X0077978
X0061341Y0069723
Y0070866
X0060198
X0059055
Y0069723
X0057912
X0056769
Y0070866
X0057912
X0060198Y0069723
X0060579Y0078359
X0061976
X0063373
X0056388Y0078105
X005133Y0065228
X0049933
X0048536
X0047139
X0045742
X0044345
X0044577Y0082169
X004318
Y0083566
X0044577
X0045974
Y0082169
Y0084963
X0044577
X004318
X0056388Y0080899
Y0079502
X0061849Y0086995
X0063246
X0064643
X0066802Y0107442
X006858Y0118237
X0070739
X0102489Y0099949
Y0098552
Y0097155
Y0095758
X0103886
X0105283
Y0097155
X0103886
Y0098552
X0105283
Y0099949
X0103886
X0104013Y008382
X0102616
X010541
X011102Y0085344
X0112417
X0113814
X0115211
X0116608
X0118005
X0099949Y0080264
X0098552
X0097155
X0154178Y0125476
X0152146Y0130302
X009011Y0131445
X008886
X008761
X008636
X008511
X008386
T05
X002167Y0029972
X002667
X002282Y0037632
X00839Y003302
X00889
X0086527Y00412515
Y00462515
Y0051856
Y0056856
X0084963Y0061849
Y0066849
X0087884Y0073208
Y0076708
X0073152Y0075636
Y0072136
X0075946Y0056816
Y0051816
X002282Y0042632
X0013422Y0041764
Y0046764
X0061016Y0082169
X0064516
X0069525
X0073025
X0086134Y0083312
X0089634
X0094742
X0098242
X0079863Y0124079
X0079883Y0131445
X0078633
X0077383
X0076133
X0076113Y0124079
X0077363
X0078613
T06
X0130048Y0113665
X0133858
X0137668
X0141478
Y0128905
X0137668
X0133858
X0130048
X0113673Y0125222
X0111133
X0108593
X0106053
T07
X004699Y003326
X005715
X0096607
X0106767
Y004342
X0096607
X005715
X004699
X002505Y008892
X001489
Y009908
X002505
Y010924
X001489
Y01194
X002505
T09
X00095Y0028
X01575
X0035Y0087
X014Y0105
X01575Y0133
X00095
T10
X0131286Y0061168
X0129286Y0074168
M30
