G04*
G04 #@! TF.GenerationSoftware,Altium Limited,CircuitMaker,2.2.1 (2.2.1.6)*
G04*
G04 Layer_Color=8150272*
%FSLAX44Y44*%
%MOMM*%
G71*
G04*
G04 #@! TF.SameCoordinates,19C9E3CA-E082-4F8C-9F67-3D0F94DA41C6*
G04*
G04*
G04 #@! TF.FilePolarity,Negative*
G04*
G01*
G75*
%ADD117C,2.5000*%
%ADD139R,1.2032X1.1032*%
%ADD180R,2.8032X2.3032*%
%ADD181R,2.1032X1.7032*%
%ADD183R,1.0032X1.0032*%
%ADD184R,1.3032X2.2032*%
%ADD186R,2.3032X2.8032*%
G04:AMPARAMS|DCode=191|XSize=2.2032mm|YSize=2.2032mm|CornerRadius=0.6016mm|HoleSize=0mm|Usage=FLASHONLY|Rotation=90.000|XOffset=0mm|YOffset=0mm|HoleType=Round|Shape=RoundedRectangle|*
%AMROUNDEDRECTD191*
21,1,2.2032,1.0000,0,0,90.0*
21,1,1.0000,2.2032,0,0,90.0*
1,1,1.2032,0.5000,0.5000*
1,1,1.2032,0.5000,-0.5000*
1,1,1.2032,-0.5000,-0.5000*
1,1,1.2032,-0.5000,0.5000*
%
%ADD191ROUNDEDRECTD191*%
G04:AMPARAMS|DCode=203|XSize=1.7272mm|YSize=1.7272mm|CornerRadius=0.4826mm|HoleSize=0mm|Usage=FLASHONLY|Rotation=180.000|XOffset=0mm|YOffset=0mm|HoleType=Round|Shape=RoundedRectangle|*
%AMROUNDEDRECTD203*
21,1,1.7272,0.7620,0,0,180.0*
21,1,0.7620,1.7272,0,0,180.0*
1,1,0.9652,-0.3810,0.3810*
1,1,0.9652,0.3810,0.3810*
1,1,0.9652,0.3810,-0.3810*
1,1,0.9652,-0.3810,-0.3810*
%
%ADD203ROUNDEDRECTD203*%
%ADD204C,1.7272*%
G04:AMPARAMS|DCode=205|XSize=1.7272mm|YSize=1.7272mm|CornerRadius=0.4826mm|HoleSize=0mm|Usage=FLASHONLY|Rotation=270.000|XOffset=0mm|YOffset=0mm|HoleType=Round|Shape=RoundedRectangle|*
%AMROUNDEDRECTD205*
21,1,1.7272,0.7620,0,0,270.0*
21,1,0.7620,1.7272,0,0,270.0*
1,1,0.9652,-0.3810,-0.3810*
1,1,0.9652,-0.3810,0.3810*
1,1,0.9652,0.3810,0.3810*
1,1,0.9652,0.3810,-0.3810*
%
%ADD205ROUNDEDRECTD205*%
%ADD206C,2.2032*%
%ADD207R,1.1532X1.7032*%
G04:AMPARAMS|DCode=208|XSize=1.7032mm|YSize=1.1532mm|CornerRadius=0mm|HoleSize=0mm|Usage=FLASHONLY|Rotation=270.000|XOffset=0mm|YOffset=0mm|HoleType=Round|Shape=Octagon|*
%AMOCTAGOND208*
4,1,8,-0.2883,-0.8516,0.2883,-0.8516,0.5766,-0.5633,0.5766,0.5633,0.2883,0.8516,-0.2883,0.8516,-0.5766,0.5633,-0.5766,-0.5633,-0.2883,-0.8516,0.0*
%
%ADD208OCTAGOND208*%

%ADD209O,1.1532X1.4032*%
%ADD210R,1.1532X1.4032*%
%ADD211C,3.2032*%
%ADD212C,7.2032*%
G04:AMPARAMS|DCode=213|XSize=8.2032mm|YSize=8.2032mm|CornerRadius=2.1016mm|HoleSize=0mm|Usage=FLASHONLY|Rotation=270.000|XOffset=0mm|YOffset=0mm|HoleType=Round|Shape=RoundedRectangle|*
%AMROUNDEDRECTD213*
21,1,8.2032,4.0000,0,0,270.0*
21,1,4.0000,8.2032,0,0,270.0*
1,1,4.2032,-2.0000,-2.0000*
1,1,4.2032,-2.0000,2.0000*
1,1,4.2032,2.0000,2.0000*
1,1,4.2032,2.0000,-2.0000*
%
%ADD213ROUNDEDRECTD213*%
%ADD214O,11.2032X6.7032*%
%ADD215O,6.7032X11.2032*%
%ADD216C,1.7032*%
G04:AMPARAMS|DCode=217|XSize=1.7032mm|YSize=1.7032mm|CornerRadius=0.2516mm|HoleSize=0mm|Usage=FLASHONLY|Rotation=180.000|XOffset=0mm|YOffset=0mm|HoleType=Round|Shape=RoundedRectangle|*
%AMROUNDEDRECTD217*
21,1,1.7032,1.2000,0,0,180.0*
21,1,1.2000,1.7032,0,0,180.0*
1,1,0.5032,-0.6000,0.6000*
1,1,0.5032,0.6000,0.6000*
1,1,0.5032,0.6000,-0.6000*
1,1,0.5032,-0.6000,-0.6000*
%
%ADD217ROUNDEDRECTD217*%
%ADD218C,0.7032*%
%ADD219C,0.8032*%
%ADD220C,1.0032*%
%ADD221C,1.2032*%
%ADD273R,2.0032X1.7032*%
%ADD274R,1.6532X1.5532*%
%ADD275R,1.6032X1.5032*%
%ADD276R,1.8032X1.4032*%
%ADD277R,1.9032X1.3532*%
%ADD278R,2.0032X1.5032*%
%ADD279R,1.4032X1.8032*%
%ADD280R,1.4032X1.9532*%
D117*
X1436370Y270510D02*
D03*
X224790Y1315720D02*
D03*
D139*
X579120Y1187850D02*
D03*
Y1174350D02*
D03*
D180*
X384810Y586740D02*
D03*
Y635740D02*
D03*
X570230Y598170D02*
D03*
Y647170D02*
D03*
D181*
X636380Y727950D02*
D03*
Y757950D02*
D03*
X668130Y727950D02*
D03*
Y757950D02*
D03*
X351790Y437120D02*
D03*
Y467120D02*
D03*
X384810Y437120D02*
D03*
Y467120D02*
D03*
X973100Y747960D02*
D03*
Y777960D02*
D03*
X1002310Y747960D02*
D03*
Y777960D02*
D03*
X973970Y649110D02*
D03*
Y619110D02*
D03*
X944760Y649110D02*
D03*
Y619110D02*
D03*
D183*
X1316990Y1176020D02*
D03*
D184*
Y1195020D02*
D03*
D186*
X1111780Y607060D02*
D03*
X1160780D02*
D03*
X1111780Y713740D02*
D03*
X1160780D02*
D03*
D191*
X601030Y613110D02*
D03*
X641030D02*
D03*
D203*
X982420Y833120D02*
D03*
X896340D02*
D03*
X695250Y821690D02*
D03*
X610160D02*
D03*
D204*
X947420Y833120D02*
D03*
X861340D02*
D03*
X730250Y821690D02*
D03*
X645160D02*
D03*
X731520Y721360D02*
D03*
X878840Y732080D02*
D03*
X849630Y668490D02*
D03*
Y618490D02*
D03*
X865270Y518560D02*
D03*
Y568560D02*
D03*
X759460Y568160D02*
D03*
Y518160D02*
D03*
X865270Y462515D02*
D03*
Y412515D02*
D03*
X889000Y330200D02*
D03*
X839000D02*
D03*
X228200Y376320D02*
D03*
Y426320D02*
D03*
X266700Y299720D02*
D03*
X216700D02*
D03*
X134220Y467640D02*
D03*
Y417640D02*
D03*
D205*
X731520Y756360D02*
D03*
X878840Y767080D02*
D03*
D206*
X1300480Y1289050D02*
D03*
X1338580D02*
D03*
X1376680D02*
D03*
X1414780D02*
D03*
Y1136650D02*
D03*
X1376680D02*
D03*
X1338580D02*
D03*
X1300480D02*
D03*
D207*
X798630Y1240790D02*
D03*
X798830Y1314450D02*
D03*
D208*
X786130Y1240790D02*
D03*
X773630D02*
D03*
X761130D02*
D03*
X773830Y1314450D02*
D03*
X761330D02*
D03*
X786330D02*
D03*
D209*
X838600D02*
D03*
X851100D02*
D03*
X863600D02*
D03*
X876100D02*
D03*
X888600D02*
D03*
D210*
X901100D02*
D03*
D211*
X250500Y889200D02*
D03*
X148900D02*
D03*
Y990800D02*
D03*
X250500D02*
D03*
Y1092400D02*
D03*
X148900D02*
D03*
Y1194000D02*
D03*
X250500D02*
D03*
X966070Y434200D02*
D03*
Y332600D02*
D03*
X1067670D02*
D03*
Y434200D02*
D03*
X469900D02*
D03*
Y332600D02*
D03*
X571500D02*
D03*
Y434200D02*
D03*
D212*
X1400000Y1050000D02*
D03*
X95000Y1330000D02*
D03*
X1575000Y280000D02*
D03*
Y1330000D02*
D03*
X350000Y870000D02*
D03*
X95000Y280000D02*
D03*
D213*
X1312860Y611680D02*
D03*
X1292860Y741680D02*
D03*
D214*
X1299710Y818660D02*
D03*
X1425710Y598660D02*
D03*
D215*
X130030Y594860D02*
D03*
X350030Y720860D02*
D03*
D216*
X1060530Y1252220D02*
D03*
X1085930D02*
D03*
X1111330D02*
D03*
D217*
X1136730D02*
D03*
D218*
X556410Y1163020D02*
D03*
Y1189020D02*
D03*
Y1176020D02*
D03*
X543410Y1163020D02*
D03*
Y1189020D02*
D03*
Y1176020D02*
D03*
X974690Y1209040D02*
D03*
X958590Y1225140D02*
D03*
X974690D02*
D03*
X958590Y1209040D02*
D03*
D219*
X186494Y254750D02*
D03*
X286316D02*
D03*
X386138D02*
D03*
X485960Y271260D02*
D03*
X685604Y254750D02*
D03*
X585782Y271260D02*
D03*
X1384358Y254750D02*
D03*
X1484180D02*
D03*
X1084892Y273800D02*
D03*
X1184714Y254750D02*
D03*
X1284536D02*
D03*
X985070Y272530D02*
D03*
X885248Y254750D02*
D03*
X785426D02*
D03*
X1600250Y440604D02*
D03*
Y340782D02*
D03*
Y540426D02*
D03*
Y640248D02*
D03*
Y740070D02*
D03*
Y1039536D02*
D03*
Y939714D02*
D03*
Y839892D02*
D03*
Y1239180D02*
D03*
Y1139358D02*
D03*
X1383684Y1357790D02*
D03*
X1483506Y1355250D02*
D03*
X1283862Y1357790D02*
D03*
X69750Y340782D02*
D03*
Y440604D02*
D03*
Y540426D02*
D03*
Y640248D02*
D03*
Y740070D02*
D03*
Y1039536D02*
D03*
X87530Y939714D02*
D03*
X69750Y839892D02*
D03*
Y1239180D02*
D03*
X87530Y1139358D02*
D03*
X285642Y1355250D02*
D03*
X185820D02*
D03*
X585108D02*
D03*
X485286D02*
D03*
X385464D02*
D03*
X895452Y1227462D02*
D03*
X797560Y1079500D02*
D03*
X448310Y1219200D02*
D03*
X487680Y1236980D02*
D03*
X521970Y1211580D02*
D03*
X466090Y1168550D02*
D03*
X464820Y1144270D02*
D03*
X466090Y1108710D02*
D03*
X434340Y1089660D02*
D03*
Y1112838D02*
D03*
Y1136015D02*
D03*
Y1159193D02*
D03*
Y1182370D02*
D03*
X684930Y1355250D02*
D03*
X784752Y1357790D02*
D03*
X884574D02*
D03*
X984396D02*
D03*
X1184040D02*
D03*
X1084218D02*
D03*
X1250950Y1295400D02*
D03*
X1271270Y1292860D02*
D03*
X1178560Y1256030D02*
D03*
X1191260Y1268730D02*
D03*
X1206500Y1280160D02*
D03*
X1272540Y1202690D02*
D03*
Y1224280D02*
D03*
X1206500Y1200150D02*
D03*
Y1164590D02*
D03*
X927100Y1322070D02*
D03*
Y1311910D02*
D03*
X820420Y1272540D02*
D03*
X741680Y1283970D02*
D03*
X725611Y1231817D02*
D03*
X727710Y1184910D02*
D03*
X546100Y1126490D02*
D03*
X539750Y1093470D02*
D03*
X652004Y1112265D02*
D03*
X618490Y1113790D02*
D03*
Y1073760D02*
D03*
X683260Y1113790D02*
D03*
X764094Y1003432D02*
D03*
X817880Y1003300D02*
D03*
X911860Y1035050D02*
D03*
X897890Y1109980D02*
D03*
Y1258570D02*
D03*
X892983Y1279924D02*
D03*
X835660Y1233170D02*
D03*
X833120Y1127760D02*
D03*
X830580Y1150620D02*
D03*
X800100Y1176020D02*
D03*
X797560Y1155700D02*
D03*
X1042670Y1254760D02*
D03*
X1078230Y1200150D02*
D03*
X1069340Y1155700D02*
D03*
X1149350Y1096850D02*
D03*
X684530Y1023620D02*
D03*
X680720Y1033780D02*
D03*
X684530Y1003300D02*
D03*
Y1013460D02*
D03*
X670420Y1033812D02*
D03*
X851864Y1049571D02*
D03*
X791388Y1052301D02*
D03*
X808990Y1103630D02*
D03*
X757932Y1117015D02*
D03*
X790142Y1115481D02*
D03*
X589280Y1139190D02*
D03*
X1221130Y1143660D02*
D03*
X1243484Y1259234D02*
D03*
X448310Y1258570D02*
D03*
X1047750Y1055370D02*
D03*
X1005840Y1139190D02*
D03*
X1050290Y1104900D02*
D03*
X1118870Y1223010D02*
D03*
X1164590Y1193165D02*
D03*
X784100Y1169670D02*
D03*
X846810Y1181380D02*
D03*
X972185Y1292225D02*
D03*
X972306Y1268884D02*
D03*
X967740Y1277620D02*
D03*
X789940Y1192530D02*
D03*
X760730Y1220470D02*
D03*
X895350Y1165860D02*
D03*
X801370Y1196340D02*
D03*
X853440Y1163320D02*
D03*
X1059381Y1235589D02*
D03*
X718820Y1066800D02*
D03*
X1056640Y1223010D02*
D03*
X1045210Y1238250D02*
D03*
X1030033Y1210611D02*
D03*
X1038251Y1217728D02*
D03*
X1016420Y1207187D02*
D03*
X1022350Y1187168D02*
D03*
X1013919Y1181860D02*
D03*
X1049020Y1193800D02*
D03*
X1042670Y1209040D02*
D03*
X1003300Y1054100D02*
D03*
X1024755Y1254619D02*
D03*
X1127350Y1085850D02*
D03*
X1076960Y1134110D02*
D03*
X1076885Y1282370D02*
D03*
X1043987Y1177601D02*
D03*
X988133Y1037869D02*
D03*
X955040Y1156335D02*
D03*
X947420Y1164659D02*
D03*
X914690Y1202035D02*
D03*
X901046Y1211585D02*
D03*
X914736Y1160789D02*
D03*
X969010Y1004570D02*
D03*
X914736Y1147216D02*
D03*
X1117600Y1061720D02*
D03*
X956310Y977900D02*
D03*
X884623Y985492D02*
D03*
X910590Y889000D02*
D03*
X933450Y922020D02*
D03*
X891140Y933050D02*
D03*
X802240Y905910D02*
D03*
X727710Y915670D02*
D03*
X879941Y1073150D02*
D03*
X871220D02*
D03*
X862498D02*
D03*
X862667Y1106122D02*
D03*
X871388D02*
D03*
X880110D02*
D03*
X952447Y903099D02*
D03*
D220*
X590694Y1295426D02*
D03*
X597024Y1204389D02*
D03*
X674500Y1243826D02*
D03*
X676019Y1210155D02*
D03*
X362030Y1084580D02*
D03*
X1281430Y1002030D02*
D03*
Y989330D02*
D03*
X1236980Y339090D02*
D03*
X1219200Y340360D02*
D03*
X1144800Y369040D02*
D03*
X919480Y1089660D02*
D03*
X1440180Y1262380D02*
D03*
X1438910Y1209040D02*
D03*
X601980Y655320D02*
D03*
X1236980Y906780D02*
D03*
X1221740Y730250D02*
D03*
X1209040Y708660D02*
D03*
X699755Y889563D02*
D03*
X723900Y892810D02*
D03*
X828910Y907180D02*
D03*
X579000Y900550D02*
D03*
X833120Y961390D02*
D03*
X829310Y925830D02*
D03*
X747145Y924175D02*
D03*
X1000760Y886460D02*
D03*
X713774Y930944D02*
D03*
X669844Y954486D02*
D03*
X502520Y905910D02*
D03*
X546366Y926966D02*
D03*
X599530Y638610D02*
D03*
X838200Y1053465D02*
D03*
X737870Y1116282D02*
D03*
X663308Y546100D02*
D03*
X636638Y527439D02*
D03*
X610478Y533852D02*
D03*
X623938Y533488D02*
D03*
X321310Y1099820D02*
D03*
X308610D02*
D03*
X295910D02*
D03*
X283210D02*
D03*
X1223010Y628650D02*
D03*
X1209040Y635000D02*
D03*
X665480Y614680D02*
D03*
X1280450Y355310D02*
D03*
Y346420D02*
D03*
X1316065Y937550D02*
D03*
X1304000D02*
D03*
X1362420Y919770D02*
D03*
X1292570Y976920D02*
D03*
X1276060D02*
D03*
X596900Y1187450D02*
D03*
D221*
X276860Y379730D02*
D03*
X648970Y339090D02*
D03*
Y353060D02*
D03*
Y381000D02*
D03*
Y394970D02*
D03*
Y325120D02*
D03*
Y367030D02*
D03*
X659218Y360081D02*
D03*
Y318171D02*
D03*
Y388021D02*
D03*
Y374051D02*
D03*
Y346111D02*
D03*
Y332141D02*
D03*
X638810Y359410D02*
D03*
Y317500D02*
D03*
Y387350D02*
D03*
Y373380D02*
D03*
Y345440D02*
D03*
Y331470D02*
D03*
X745490Y662940D02*
D03*
X759460D02*
D03*
X787400D02*
D03*
X801370D02*
D03*
X731520D02*
D03*
X773430D02*
D03*
X766481Y652692D02*
D03*
X724571D02*
D03*
X794421D02*
D03*
X780451D02*
D03*
X752511D02*
D03*
X738541D02*
D03*
X765810Y673100D02*
D03*
X723900D02*
D03*
X793750D02*
D03*
X779780D02*
D03*
X751840D02*
D03*
X737870D02*
D03*
X965200Y692150D02*
D03*
X979170D02*
D03*
X1007110D02*
D03*
X1021080D02*
D03*
X951230D02*
D03*
X993140D02*
D03*
X986191Y681902D02*
D03*
X944281D02*
D03*
X1014131D02*
D03*
X1000161D02*
D03*
X972221D02*
D03*
X958251D02*
D03*
X985520Y702310D02*
D03*
X943610D02*
D03*
X1013460D02*
D03*
X999490D02*
D03*
X971550D02*
D03*
X957580D02*
D03*
X1125878Y670106D02*
D03*
X1153818D02*
D03*
X1167788D02*
D03*
X1097938D02*
D03*
X1139848D02*
D03*
X1126549Y649698D02*
D03*
X1154489D02*
D03*
X1168459D02*
D03*
X1098609D02*
D03*
X1140519D02*
D03*
X595300Y976720D02*
D03*
Y962750D02*
D03*
X609270Y976720D02*
D03*
X595300Y990690D02*
D03*
X609270D02*
D03*
X595300Y1004660D02*
D03*
X609270D02*
D03*
X595300Y1018630D02*
D03*
X609270D02*
D03*
X1541780Y1254760D02*
D03*
X1521460Y1303020D02*
D03*
X1280450Y420080D02*
D03*
X707390Y1182370D02*
D03*
X685800D02*
D03*
X1147468Y659946D02*
D03*
X1105558D02*
D03*
X1175408D02*
D03*
X1161438D02*
D03*
X1133498D02*
D03*
X1119528D02*
D03*
X516890Y483870D02*
D03*
X502920D02*
D03*
X474980D02*
D03*
X461010D02*
D03*
X530860D02*
D03*
X488950D02*
D03*
X447040D02*
D03*
X516890Y469900D02*
D03*
X502920D02*
D03*
X474980D02*
D03*
X530860D02*
D03*
X488950D02*
D03*
X447040D02*
D03*
X461010D02*
D03*
X590550Y708660D02*
D03*
Y697230D02*
D03*
X579120D02*
D03*
X567690D02*
D03*
Y708660D02*
D03*
X511810Y616280D02*
D03*
Y630250D02*
D03*
X497840Y616280D02*
D03*
X483870D02*
D03*
Y630250D02*
D03*
X513300Y652280D02*
D03*
X499330D02*
D03*
X579120Y708660D02*
D03*
X601980D02*
D03*
X613410D02*
D03*
X601980Y697230D02*
D03*
X613410D02*
D03*
X668020Y1074420D02*
D03*
X407670Y326390D02*
D03*
Y340360D02*
D03*
Y298450D02*
D03*
Y312420D02*
D03*
X421640Y340360D02*
D03*
X435610D02*
D03*
Y298450D02*
D03*
X421640D02*
D03*
X435610Y326390D02*
D03*
X421640D02*
D03*
Y312420D02*
D03*
X435610D02*
D03*
X745490Y388620D02*
D03*
X756920D02*
D03*
X768350D02*
D03*
X791210D02*
D03*
X779780D02*
D03*
X791210Y377190D02*
D03*
X779780D02*
D03*
X768350D02*
D03*
X756920D02*
D03*
X745490D02*
D03*
X734060Y388620D02*
D03*
Y377190D02*
D03*
X722630D02*
D03*
X1026160Y838200D02*
D03*
X1054100D02*
D03*
X1040130D02*
D03*
X971550Y802640D02*
D03*
X999490D02*
D03*
X985520D02*
D03*
X793750Y769620D02*
D03*
X821690D02*
D03*
X807720D02*
D03*
X618490Y869950D02*
D03*
X646430D02*
D03*
X632460D02*
D03*
X563880Y808990D02*
D03*
Y781050D02*
D03*
Y795020D02*
D03*
X276860Y393700D02*
D03*
X290830D02*
D03*
Y379730D02*
D03*
X262890Y393700D02*
D03*
Y379730D02*
D03*
X304800D02*
D03*
Y393700D02*
D03*
X276860Y407670D02*
D03*
X262890D02*
D03*
X304800D02*
D03*
X290830D02*
D03*
X431800Y835660D02*
D03*
Y821690D02*
D03*
X445770Y835660D02*
D03*
Y821690D02*
D03*
X459740Y835660D02*
D03*
Y821690D02*
D03*
Y849630D02*
D03*
X431800D02*
D03*
X445770D02*
D03*
X471390Y652280D02*
D03*
X443450D02*
D03*
X457420D02*
D03*
X485360D02*
D03*
X842010Y500380D02*
D03*
X830580D02*
D03*
Y488950D02*
D03*
X819150Y500380D02*
D03*
X807720D02*
D03*
X796290D02*
D03*
X784860D02*
D03*
X773430D02*
D03*
X784860Y488950D02*
D03*
X773430D02*
D03*
X796290D02*
D03*
X807720D02*
D03*
X819150D02*
D03*
X1021630Y603250D02*
D03*
X985463D02*
D03*
X1002223D02*
D03*
X949297D02*
D03*
X966057D02*
D03*
X929890D02*
D03*
X913130D02*
D03*
X1180050Y853440D02*
D03*
X1138140D02*
D03*
X1110200D02*
D03*
X1124170D02*
D03*
X1152110D02*
D03*
X1166080D02*
D03*
X266700Y502920D02*
D03*
X252730D02*
D03*
X294640D02*
D03*
X336550D02*
D03*
X280670D02*
D03*
X308610D02*
D03*
X322580D02*
D03*
X252730Y516890D02*
D03*
Y530860D02*
D03*
X294640D02*
D03*
Y516890D02*
D03*
X336550D02*
D03*
Y530860D02*
D03*
X266700D02*
D03*
Y516890D02*
D03*
X280670D02*
D03*
Y530860D02*
D03*
X322580D02*
D03*
X308610Y516890D02*
D03*
Y530860D02*
D03*
X322580Y516890D02*
D03*
X316230Y952500D02*
D03*
X330200Y966470D02*
D03*
X316230D02*
D03*
X330200Y952500D02*
D03*
Y994410D02*
D03*
X316230D02*
D03*
Y1008380D02*
D03*
X330200D02*
D03*
Y938530D02*
D03*
X316230D02*
D03*
Y980440D02*
D03*
X330200D02*
D03*
Y1022350D02*
D03*
X316230D02*
D03*
X302260Y952500D02*
D03*
Y966470D02*
D03*
Y994410D02*
D03*
Y938530D02*
D03*
Y980440D02*
D03*
Y1022350D02*
D03*
Y1008380D02*
D03*
X595300Y948780D02*
D03*
Y1032600D02*
D03*
X637210Y990690D02*
D03*
Y976720D02*
D03*
X567360Y948780D02*
D03*
X581330D02*
D03*
Y990690D02*
D03*
X567360D02*
D03*
Y1032600D02*
D03*
X581330D02*
D03*
X623240Y990690D02*
D03*
X581330Y962750D02*
D03*
X567360D02*
D03*
Y976720D02*
D03*
X581330D02*
D03*
Y1018630D02*
D03*
X567360D02*
D03*
Y1004660D02*
D03*
X581330D02*
D03*
X623240Y976720D02*
D03*
Y1004660D02*
D03*
X425780Y1024410D02*
D03*
X467690Y1038380D02*
D03*
Y996470D02*
D03*
Y954560D02*
D03*
X425780Y1038380D02*
D03*
Y996470D02*
D03*
Y954560D02*
D03*
X467690Y1024410D02*
D03*
Y1010440D02*
D03*
Y982500D02*
D03*
Y968530D02*
D03*
X425780Y1010440D02*
D03*
Y982500D02*
D03*
Y968530D02*
D03*
X495630Y1038380D02*
D03*
X481660D02*
D03*
Y996470D02*
D03*
X495630D02*
D03*
Y954560D02*
D03*
X481660D02*
D03*
X439750Y1038380D02*
D03*
X453720D02*
D03*
Y996470D02*
D03*
X439750D02*
D03*
Y954560D02*
D03*
X453720D02*
D03*
X481660Y1024410D02*
D03*
X495630D02*
D03*
Y1010440D02*
D03*
X481660D02*
D03*
Y968530D02*
D03*
X495630D02*
D03*
Y982500D02*
D03*
X481660D02*
D03*
X453720Y1024410D02*
D03*
X439750D02*
D03*
Y1010440D02*
D03*
X453720D02*
D03*
Y968530D02*
D03*
X439750Y982500D02*
D03*
X453720D02*
D03*
X439750Y968530D02*
D03*
X497840Y574370D02*
D03*
X483870Y588340D02*
D03*
Y574370D02*
D03*
X497840Y588340D02*
D03*
X455930D02*
D03*
Y574370D02*
D03*
X441960D02*
D03*
Y588340D02*
D03*
X497840Y630250D02*
D03*
X455930Y616280D02*
D03*
Y630250D02*
D03*
X441960D02*
D03*
Y616280D02*
D03*
X511810Y588340D02*
D03*
Y574370D02*
D03*
X469900D02*
D03*
Y588340D02*
D03*
X427990D02*
D03*
Y574370D02*
D03*
X469900Y630250D02*
D03*
Y616280D02*
D03*
X427990D02*
D03*
Y630250D02*
D03*
X497840Y560400D02*
D03*
X483870D02*
D03*
X455930D02*
D03*
X497840Y602310D02*
D03*
X483870D02*
D03*
X455930D02*
D03*
X441960D02*
D03*
X511810Y560400D02*
D03*
X469900D02*
D03*
X427990D02*
D03*
X511810Y602310D02*
D03*
X469900D02*
D03*
X427990D02*
D03*
X441960Y560400D02*
D03*
X497840Y736100D02*
D03*
X483870Y750070D02*
D03*
Y736100D02*
D03*
X497840Y750070D02*
D03*
X455930D02*
D03*
Y736100D02*
D03*
X441960D02*
D03*
Y750070D02*
D03*
X483870Y778010D02*
D03*
Y791980D02*
D03*
X497840D02*
D03*
Y778010D02*
D03*
X455930D02*
D03*
Y791980D02*
D03*
X441960D02*
D03*
Y778010D02*
D03*
X511810Y750070D02*
D03*
Y736100D02*
D03*
X469900D02*
D03*
Y750070D02*
D03*
X427990D02*
D03*
Y736100D02*
D03*
X511810Y778010D02*
D03*
Y791980D02*
D03*
X469900D02*
D03*
Y778010D02*
D03*
X427990D02*
D03*
Y791980D02*
D03*
X497840Y722130D02*
D03*
X483870D02*
D03*
X455930D02*
D03*
X497840Y764040D02*
D03*
X483870D02*
D03*
X455930D02*
D03*
X441960D02*
D03*
X511810Y722130D02*
D03*
X469900D02*
D03*
X427990D02*
D03*
X511810Y764040D02*
D03*
X469900D02*
D03*
X427990D02*
D03*
X441960Y722130D02*
D03*
X1108710Y929640D02*
D03*
X1052830Y957580D02*
D03*
X1038860D02*
D03*
X1024890D02*
D03*
X1052830Y971550D02*
D03*
X1038860D02*
D03*
X1024890D02*
D03*
X1052830Y985520D02*
D03*
X1038860D02*
D03*
X1024890D02*
D03*
X1052830Y999490D02*
D03*
X1038860D02*
D03*
X1024890D02*
D03*
X1070610Y560070D02*
D03*
Y546100D02*
D03*
Y518160D02*
D03*
Y504190D02*
D03*
Y532130D02*
D03*
Y574040D02*
D03*
X1097280Y758588D02*
D03*
X1139190D02*
D03*
X1181100D02*
D03*
X1111250D02*
D03*
X1167130D02*
D03*
X1153160D02*
D03*
X1125220D02*
D03*
X1094740Y971550D02*
D03*
X1136650D02*
D03*
X1178560D02*
D03*
X1094740Y929640D02*
D03*
X1136650D02*
D03*
X1178560D02*
D03*
X1097280Y800498D02*
D03*
X1139190D02*
D03*
X1181100D02*
D03*
X1108710Y971550D02*
D03*
X1122680D02*
D03*
X1150620D02*
D03*
X1164590D02*
D03*
X1122680Y929640D02*
D03*
X1150620D02*
D03*
X1164590D02*
D03*
X1097280Y786528D02*
D03*
Y828438D02*
D03*
Y814468D02*
D03*
Y772558D02*
D03*
X1139190Y828438D02*
D03*
Y786528D02*
D03*
Y814468D02*
D03*
Y772558D02*
D03*
X1181100Y786528D02*
D03*
Y828438D02*
D03*
Y814468D02*
D03*
Y772558D02*
D03*
X1094740Y999490D02*
D03*
Y985520D02*
D03*
X1136650D02*
D03*
Y999490D02*
D03*
X1178560D02*
D03*
Y985520D02*
D03*
X1094740Y943610D02*
D03*
Y957580D02*
D03*
X1136650D02*
D03*
Y943610D02*
D03*
X1178560D02*
D03*
Y957580D02*
D03*
X1111250Y800498D02*
D03*
X1167130D02*
D03*
X1153160D02*
D03*
X1108710Y985520D02*
D03*
Y999490D02*
D03*
X1122680D02*
D03*
Y985520D02*
D03*
X1164590D02*
D03*
Y999490D02*
D03*
X1150620D02*
D03*
Y985520D02*
D03*
X1108710Y957580D02*
D03*
Y943610D02*
D03*
X1122680D02*
D03*
Y957580D02*
D03*
X1164590D02*
D03*
X1150620Y943610D02*
D03*
Y957580D02*
D03*
X1164590Y943610D02*
D03*
X1111250Y828438D02*
D03*
Y786528D02*
D03*
Y814468D02*
D03*
Y772558D02*
D03*
X1153160Y786528D02*
D03*
Y828438D02*
D03*
X1167130D02*
D03*
Y786528D02*
D03*
X1153160Y814468D02*
D03*
X1167130D02*
D03*
Y772558D02*
D03*
X1153160D02*
D03*
X1125220Y800498D02*
D03*
Y786528D02*
D03*
Y828438D02*
D03*
Y814468D02*
D03*
Y772558D02*
D03*
X1181100Y509270D02*
D03*
X1167130Y523240D02*
D03*
X1181100D02*
D03*
Y537210D02*
D03*
Y565150D02*
D03*
Y551180D02*
D03*
X1167130Y565150D02*
D03*
Y551180D02*
D03*
X1139190Y565150D02*
D03*
X1153160D02*
D03*
X1139190Y551180D02*
D03*
X1153160Y537210D02*
D03*
X1139190Y523240D02*
D03*
X1153160Y509270D02*
D03*
X1125220D02*
D03*
X1111250Y523240D02*
D03*
X1125220Y537210D02*
D03*
X1111250Y551180D02*
D03*
Y565150D02*
D03*
X1125220D02*
D03*
X1097280Y509270D02*
D03*
Y523240D02*
D03*
Y537210D02*
D03*
Y551180D02*
D03*
Y565150D02*
D03*
Y495300D02*
D03*
X1125220D02*
D03*
X1111250D02*
D03*
X1153160D02*
D03*
X1139190D02*
D03*
X1181100D02*
D03*
X1167130D02*
D03*
Y537210D02*
D03*
Y509270D02*
D03*
X1153160Y551180D02*
D03*
Y523240D02*
D03*
X1139190Y537210D02*
D03*
Y509270D02*
D03*
X1125220Y551180D02*
D03*
Y523240D02*
D03*
X1111250Y537210D02*
D03*
Y509270D02*
D03*
X942340Y491270D02*
D03*
X956310Y505240D02*
D03*
Y491270D02*
D03*
X970280D02*
D03*
X998220D02*
D03*
X984250D02*
D03*
X998220Y505240D02*
D03*
X984250D02*
D03*
X998220Y533180D02*
D03*
Y519210D02*
D03*
X984250Y533180D02*
D03*
X970280Y519210D02*
D03*
X956310Y533180D02*
D03*
X942340Y519210D02*
D03*
Y547150D02*
D03*
X956310Y561120D02*
D03*
X970280Y547150D02*
D03*
X984250Y561120D02*
D03*
X998220D02*
D03*
Y547150D02*
D03*
X942340Y575090D02*
D03*
X956310D02*
D03*
X970280D02*
D03*
X984250D02*
D03*
X998220D02*
D03*
X928370D02*
D03*
Y547150D02*
D03*
Y561120D02*
D03*
Y519210D02*
D03*
Y533180D02*
D03*
Y491270D02*
D03*
Y505240D02*
D03*
X970280D02*
D03*
X942340D02*
D03*
X984250Y519210D02*
D03*
X956310D02*
D03*
X970280Y533180D02*
D03*
X942340D02*
D03*
X984250Y547150D02*
D03*
X956310D02*
D03*
X970280Y561120D02*
D03*
X942340D02*
D03*
D273*
X1291590Y1168654D02*
D03*
Y1198654D02*
D03*
D274*
Y1233810D02*
D03*
Y1250310D02*
D03*
D275*
X1316990Y1261640D02*
D03*
Y1232640D02*
D03*
D276*
X384810Y519210D02*
D03*
Y555210D02*
D03*
D277*
X584310Y756970D02*
D03*
Y731470D02*
D03*
X288290Y463600D02*
D03*
Y438100D02*
D03*
X1051450Y774750D02*
D03*
Y749250D02*
D03*
X1023500Y622250D02*
D03*
Y647750D02*
D03*
D278*
X608440Y728950D02*
D03*
Y756950D02*
D03*
X321310Y438120D02*
D03*
Y466120D02*
D03*
X1028590Y748000D02*
D03*
Y776000D02*
D03*
X1000640Y648690D02*
D03*
Y620690D02*
D03*
D279*
X1147030Y635000D02*
D03*
X1111030D02*
D03*
X1147030Y684530D02*
D03*
X1111030D02*
D03*
D280*
X1079800Y1165860D02*
D03*
X1053800D02*
D03*
M02*
