G04*
G04 #@! TF.GenerationSoftware,Altium Limited,CircuitMaker,2.2.1 (2.2.1.6)*
G04*
G04 Layer_Physical_Order=6*
G04 Layer_Color=11436288*
%FSLAX44Y44*%
%MOMM*%
G71*
G04*
G04 #@! TF.SameCoordinates,19C9E3CA-E082-4F8C-9F67-3D0F94DA41C6*
G04*
G04*
G04 #@! TF.FilePolarity,Positive*
G04*
G01*
G75*
%ADD11C,0.2500*%
%ADD13C,0.4000*%
%ADD17C,0.5000*%
%ADD18C,0.6000*%
%ADD48R,1.0000X0.9000*%
%ADD89R,2.6000X2.1000*%
%ADD90R,1.9000X1.5000*%
%ADD92R,0.8000X0.8000*%
%ADD93R,1.1000X2.0000*%
%ADD95R,2.1000X2.6000*%
G04:AMPARAMS|DCode=100|XSize=2mm|YSize=2mm|CornerRadius=0.5mm|HoleSize=0mm|Usage=FLASHONLY|Rotation=90.000|XOffset=0mm|YOffset=0mm|HoleType=Round|Shape=RoundedRectangle|*
%AMROUNDEDRECTD100*
21,1,2.0000,1.0000,0,0,90.0*
21,1,1.0000,2.0000,0,0,90.0*
1,1,1.0000,0.5000,0.5000*
1,1,1.0000,0.5000,-0.5000*
1,1,1.0000,-0.5000,-0.5000*
1,1,1.0000,-0.5000,0.5000*
%
%ADD100ROUNDEDRECTD100*%
%ADD107C,1.0000*%
%ADD223C,0.7000*%
%ADD224C,0.3000*%
%ADD226C,1.0000*%
%ADD228C,2.0000*%
G04:AMPARAMS|DCode=236|XSize=1.524mm|YSize=1.524mm|CornerRadius=0.381mm|HoleSize=0mm|Usage=FLASHONLY|Rotation=180.000|XOffset=0mm|YOffset=0mm|HoleType=Round|Shape=RoundedRectangle|*
%AMROUNDEDRECTD236*
21,1,1.5240,0.7620,0,0,180.0*
21,1,0.7620,1.5240,0,0,180.0*
1,1,0.7620,-0.3810,0.3810*
1,1,0.7620,0.3810,0.3810*
1,1,0.7620,0.3810,-0.3810*
1,1,0.7620,-0.3810,-0.3810*
%
%ADD236ROUNDEDRECTD236*%
%ADD237C,1.5240*%
G04:AMPARAMS|DCode=238|XSize=1.524mm|YSize=1.524mm|CornerRadius=0.381mm|HoleSize=0mm|Usage=FLASHONLY|Rotation=270.000|XOffset=0mm|YOffset=0mm|HoleType=Round|Shape=RoundedRectangle|*
%AMROUNDEDRECTD238*
21,1,1.5240,0.7620,0,0,270.0*
21,1,0.7620,1.5240,0,0,270.0*
1,1,0.7620,-0.3810,-0.3810*
1,1,0.7620,-0.3810,0.3810*
1,1,0.7620,0.3810,0.3810*
1,1,0.7620,0.3810,-0.3810*
%
%ADD238ROUNDEDRECTD238*%
%ADD239C,2.0000*%
%ADD240R,0.9500X1.5000*%
G04:AMPARAMS|DCode=241|XSize=1.5mm|YSize=0.95mm|CornerRadius=0mm|HoleSize=0mm|Usage=FLASHONLY|Rotation=270.000|XOffset=0mm|YOffset=0mm|HoleType=Round|Shape=Octagon|*
%AMOCTAGOND241*
4,1,8,-0.2375,-0.7500,0.2375,-0.7500,0.4750,-0.5125,0.4750,0.5125,0.2375,0.7500,-0.2375,0.7500,-0.4750,0.5125,-0.4750,-0.5125,-0.2375,-0.7500,0.0*
%
%ADD241OCTAGOND241*%

%ADD242O,0.9500X1.2000*%
%ADD243R,0.9500X1.2000*%
%ADD244C,3.0000*%
%ADD245C,7.0000*%
G04:AMPARAMS|DCode=246|XSize=8mm|YSize=8mm|CornerRadius=2mm|HoleSize=0mm|Usage=FLASHONLY|Rotation=270.000|XOffset=0mm|YOffset=0mm|HoleType=Round|Shape=RoundedRectangle|*
%AMROUNDEDRECTD246*
21,1,8.0000,4.0000,0,0,270.0*
21,1,4.0000,8.0000,0,0,270.0*
1,1,4.0000,-2.0000,-2.0000*
1,1,4.0000,-2.0000,2.0000*
1,1,4.0000,2.0000,2.0000*
1,1,4.0000,2.0000,-2.0000*
%
%ADD246ROUNDEDRECTD246*%
%ADD247O,11.0000X6.5000*%
%ADD248O,6.5000X11.0000*%
%ADD249C,1.5000*%
G04:AMPARAMS|DCode=250|XSize=1.5mm|YSize=1.5mm|CornerRadius=0.15mm|HoleSize=0mm|Usage=FLASHONLY|Rotation=180.000|XOffset=0mm|YOffset=0mm|HoleType=Round|Shape=RoundedRectangle|*
%AMROUNDEDRECTD250*
21,1,1.5000,1.2000,0,0,180.0*
21,1,1.2000,1.5000,0,0,180.0*
1,1,0.3000,-0.6000,0.6000*
1,1,0.3000,0.6000,0.6000*
1,1,0.3000,0.6000,-0.6000*
1,1,0.3000,-0.6000,-0.6000*
%
%ADD250ROUNDEDRECTD250*%
%ADD251C,0.5000*%
%ADD252C,0.6000*%
%ADD253C,0.8000*%
%ADD261R,1.8000X1.5000*%
%ADD262R,1.4500X1.3500*%
%ADD263R,1.4000X1.3000*%
%ADD264R,1.6000X1.2000*%
%ADD265R,1.7000X1.1500*%
%ADD266R,1.8000X1.3000*%
%ADD267R,1.2000X1.6000*%
%ADD268R,1.2000X1.7500*%
%ADD269R,2.2047X3.0682*%
%ADD270R,12.4061X8.7630*%
%ADD271R,10.2870X8.7630*%
%ADD272R,8.7630X10.2870*%
G36*
X1559975Y1364431D02*
X1555346Y1362073D01*
X1550570Y1358603D01*
X1546397Y1354430D01*
X1542927Y1349654D01*
X1540247Y1344395D01*
X1538423Y1338781D01*
X1537500Y1332951D01*
Y1327049D01*
X1538423Y1321219D01*
X1540247Y1315605D01*
X1542621Y1310948D01*
X1540982Y1309757D01*
X1504283Y1346457D01*
X1502629Y1347562D01*
X1500678Y1347950D01*
X743412D01*
X741461Y1347562D01*
X739807Y1346457D01*
X644375Y1251024D01*
X643270Y1249371D01*
X642882Y1247420D01*
Y1178411D01*
X524715Y1060245D01*
X523610Y1058591D01*
X523222Y1056640D01*
Y804597D01*
X522680Y804116D01*
X521222Y803315D01*
X520700Y803419D01*
X417830D01*
X416855Y803225D01*
X416028Y802672D01*
X415475Y801845D01*
X415281Y800870D01*
Y713240D01*
X415475Y712265D01*
X416028Y711438D01*
X416855Y710885D01*
X417830Y710691D01*
X520700D01*
X521222Y710795D01*
X522680Y709994D01*
X523222Y709513D01*
Y689080D01*
X523610Y687129D01*
X524715Y685475D01*
X554730Y655460D01*
Y634170D01*
X585730D01*
Y639605D01*
X587947D01*
X594236Y633316D01*
X595803Y632114D01*
X597627Y631358D01*
X599585Y631100D01*
X601543Y631358D01*
X603367Y632114D01*
X604934Y633316D01*
X606136Y634883D01*
X606892Y636707D01*
X607150Y638665D01*
X606892Y640623D01*
X606136Y642447D01*
X604934Y644014D01*
X602128Y646820D01*
X602724Y648503D01*
X602931Y648846D01*
X604489Y649263D01*
X605971Y650119D01*
X607181Y651329D01*
X608037Y652811D01*
X608480Y654464D01*
Y656176D01*
X608037Y657829D01*
X607181Y659311D01*
X605971Y660521D01*
X604489Y661377D01*
X602836Y661820D01*
X602690D01*
X596066Y668444D01*
X596831Y670292D01*
X605213D01*
X613142Y662363D01*
Y624447D01*
X612096Y623861D01*
X611142Y623641D01*
X609812Y624661D01*
X607988Y625417D01*
X606030Y625675D01*
X596030D01*
X594072Y625417D01*
X592248Y624661D01*
X590681Y623459D01*
X589479Y621892D01*
X588974Y620675D01*
X587710D01*
X585752Y620417D01*
X583928Y619661D01*
X582361Y618459D01*
X575072Y611170D01*
X554730D01*
Y585170D01*
X585730D01*
Y600432D01*
X588470Y603172D01*
X590466Y603041D01*
X590681Y602761D01*
X592248Y601559D01*
X594072Y600803D01*
X596030Y600545D01*
X606030D01*
X607988Y600803D01*
X609812Y601559D01*
X611142Y602579D01*
X612096Y602359D01*
X613142Y601773D01*
Y542283D01*
X611210Y540352D01*
X609622D01*
X607969Y539909D01*
X606487Y539053D01*
X605277Y537843D01*
X604421Y536361D01*
X603978Y534708D01*
Y532996D01*
X604421Y531343D01*
X605277Y529861D01*
X606487Y528651D01*
X607969Y527795D01*
X609622Y527352D01*
X611334D01*
X612987Y527795D01*
X614469Y528651D01*
X615679Y529861D01*
X615993Y530404D01*
X616362Y530517D01*
X618258Y530327D01*
X618737Y529497D01*
X619947Y528287D01*
X621429Y527431D01*
X623082Y526988D01*
X624794D01*
X626447Y527431D01*
X627929Y528287D01*
X629139Y529497D01*
X629995Y530979D01*
X630438Y532632D01*
Y534344D01*
X629995Y535997D01*
X629139Y537479D01*
X627929Y538689D01*
X627648Y538851D01*
Y603545D01*
X628884Y604073D01*
X629648Y604107D01*
X630681Y602761D01*
X632248Y601559D01*
X634072Y600803D01*
X636030Y600545D01*
X646030D01*
X647988Y600803D01*
X649812Y601559D01*
X651379Y602761D01*
X652581Y604328D01*
X653337Y606152D01*
X653595Y608110D01*
Y609072D01*
X662193D01*
X662971Y608623D01*
X664624Y608180D01*
X666336D01*
X667989Y608623D01*
X669471Y609479D01*
X670681Y610689D01*
X671537Y612171D01*
X671980Y613824D01*
Y615536D01*
X671537Y617189D01*
X670681Y618671D01*
X669471Y619881D01*
X667989Y620737D01*
X666336Y621180D01*
X664624D01*
X662971Y620737D01*
X662193Y620288D01*
X653246D01*
X652581Y621892D01*
X651379Y623459D01*
X649812Y624661D01*
X647988Y625417D01*
X646030Y625675D01*
X636030D01*
X634072Y625417D01*
X632248Y624661D01*
X630681Y623459D01*
X629648Y622113D01*
X628884Y622147D01*
X627648Y622675D01*
Y665480D01*
X627338Y667041D01*
X626454Y668364D01*
X626454Y668364D01*
X612064Y682754D01*
X610741Y683638D01*
X609180Y683948D01*
X609180Y683948D01*
X569118D01*
X555258Y697807D01*
Y749291D01*
X573270D01*
X573310Y749258D01*
Y748720D01*
X595310D01*
X596940Y747950D01*
Y747950D01*
X619940D01*
Y749258D01*
X619980Y749291D01*
X624340D01*
X624380Y749258D01*
Y747950D01*
X648380D01*
Y749258D01*
X648420Y749291D01*
X656090D01*
X656130Y749258D01*
Y747950D01*
X680130D01*
Y749258D01*
X680170Y749291D01*
X719402D01*
X719484Y749307D01*
X719568Y749296D01*
X719970Y749404D01*
X720377Y749485D01*
X720533Y749553D01*
X722371Y749014D01*
X722605Y748810D01*
X722616Y748799D01*
X722655Y748758D01*
X723161Y748001D01*
X725248Y746606D01*
X727710Y746116D01*
X735330D01*
X737792Y746606D01*
X739879Y748001D01*
X740385Y748758D01*
X740424Y748799D01*
X740435Y748810D01*
X740669Y749014D01*
X742507Y749553D01*
X742663Y749485D01*
X743071Y749404D01*
X743472Y749296D01*
X743556Y749307D01*
X743638Y749291D01*
X900430D01*
X901405Y749485D01*
X902232Y750038D01*
X919266Y767071D01*
X961060D01*
X962036Y767265D01*
X962862Y767818D01*
X962958Y767960D01*
X983242D01*
X983338Y767818D01*
X984165Y767265D01*
X985140Y767071D01*
X990270D01*
X991245Y767265D01*
X992072Y767818D01*
X992168Y767960D01*
X1012452D01*
X1012548Y767818D01*
X1013375Y767265D01*
X1014350Y767071D01*
X1017050D01*
X1017090Y767038D01*
Y767000D01*
X1040090D01*
X1040450Y766500D01*
Y766500D01*
X1062450D01*
Y780636D01*
X1062695Y780685D01*
X1063522Y781238D01*
X1064075Y782065D01*
X1064269Y783040D01*
Y853440D01*
X1064075Y854415D01*
X1063522Y855242D01*
X1062695Y855795D01*
X1061720Y855989D01*
X689396D01*
X667282Y878102D01*
X666456Y878655D01*
X665480Y878849D01*
X623042D01*
X622276Y880697D01*
X756961Y1015382D01*
X804161D01*
X804927Y1013534D01*
X722274Y930881D01*
X720274Y931710D01*
Y931800D01*
X719831Y933453D01*
X718975Y934935D01*
X717765Y936145D01*
X716283Y937001D01*
X714630Y937444D01*
X712918D01*
X711265Y937001D01*
X709783Y936145D01*
X708573Y934935D01*
X707717Y933453D01*
X707274Y931800D01*
Y930088D01*
X707717Y928435D01*
X708573Y926953D01*
X709783Y925743D01*
X711265Y924887D01*
X712918Y924444D01*
X713008D01*
X713837Y922444D01*
X697051Y905658D01*
X696222Y904418D01*
X695931Y902955D01*
Y894861D01*
X695764Y894764D01*
X694554Y893554D01*
X693698Y892072D01*
X693255Y890419D01*
Y888707D01*
X693698Y887054D01*
X694554Y885572D01*
X695764Y884362D01*
X697246Y883506D01*
X698899Y883063D01*
X700611D01*
X702264Y883506D01*
X703746Y884362D01*
X704956Y885572D01*
X705812Y887054D01*
X706255Y888707D01*
Y890419D01*
X705812Y892072D01*
X704956Y893554D01*
X703746Y894764D01*
X703578Y894861D01*
Y901371D01*
X720805Y918598D01*
X722500Y917465D01*
X722210Y916764D01*
Y914576D01*
X723047Y912554D01*
X724594Y911007D01*
X726616Y910170D01*
X728804D01*
X730826Y911007D01*
X732373Y912554D01*
X733210Y914576D01*
Y916764D01*
X732373Y918785D01*
X730826Y920333D01*
X728804Y921170D01*
X726616D01*
X725915Y920880D01*
X724782Y922575D01*
X811844Y1009637D01*
X963470D01*
X963933Y1009040D01*
X964392Y1007730D01*
X964347Y1007685D01*
X963510Y1005664D01*
Y1004838D01*
X907706Y949034D01*
X906822Y947711D01*
X906512Y946150D01*
X906512Y946150D01*
Y892700D01*
X905927Y892115D01*
X905090Y890094D01*
Y887906D01*
X905927Y885884D01*
X907475Y884337D01*
X909496Y883500D01*
X911684D01*
X913706Y884337D01*
X915253Y885884D01*
X916090Y887906D01*
Y890094D01*
X915253Y892115D01*
X914668Y892700D01*
Y944461D01*
X948810Y978602D01*
X950810Y977774D01*
Y976806D01*
X951647Y974784D01*
X953195Y973237D01*
X955216Y972400D01*
X957404D01*
X959426Y973237D01*
X960973Y974784D01*
X961810Y976806D01*
Y978994D01*
X960973Y981015D01*
X959426Y982563D01*
X957404Y983400D01*
X956436D01*
X955608Y985400D01*
X969278Y999070D01*
X970104D01*
X972125Y999907D01*
X973673Y1001454D01*
X974510Y1003476D01*
Y1005664D01*
X973673Y1007685D01*
X972125Y1009233D01*
X970104Y1010070D01*
X968569D01*
X967616Y1011946D01*
X988040Y1032370D01*
X989227D01*
X991248Y1033207D01*
X992795Y1034754D01*
X993633Y1036776D01*
Y1038963D01*
X992795Y1040985D01*
X991248Y1042532D01*
X989227Y1043370D01*
X987039D01*
X985017Y1042532D01*
X983470Y1040985D01*
X982633Y1038963D01*
Y1037777D01*
X962140Y1017283D01*
X925334D01*
X924569Y1019131D01*
X988404Y1082966D01*
X989288Y1084289D01*
X989598Y1085850D01*
Y1190841D01*
X1001866Y1203109D01*
X1012720D01*
X1013304Y1202524D01*
X1015325Y1201687D01*
X1017514D01*
X1019535Y1202524D01*
X1021082Y1204071D01*
X1021919Y1206093D01*
Y1208281D01*
X1021350Y1209657D01*
X1022060Y1211525D01*
X1022339Y1211874D01*
X1023105Y1212105D01*
X1024533Y1210693D01*
Y1209517D01*
X1025370Y1207496D01*
X1026918Y1205948D01*
X1028939Y1205111D01*
X1030359D01*
X1036314Y1199156D01*
X1036314Y1199156D01*
X1037637Y1198272D01*
X1039198Y1197962D01*
X1039198Y1197962D01*
X1042790D01*
X1043962Y1195962D01*
X1043520Y1194894D01*
Y1192706D01*
X1044357Y1190685D01*
X1045904Y1189137D01*
X1047926Y1188300D01*
X1048752D01*
X1050083Y1186969D01*
X1049318Y1185121D01*
X1040943D01*
X1039968Y1184927D01*
X1039141Y1184375D01*
X1038588Y1183548D01*
X1038394Y1182572D01*
Y1151890D01*
X1038588Y1150915D01*
X1039141Y1150088D01*
X1039968Y1149535D01*
X1040943Y1149341D01*
X1062990D01*
X1063965Y1149535D01*
X1064792Y1150088D01*
X1065345Y1150915D01*
X1065539Y1151890D01*
Y1175886D01*
X1065750Y1176396D01*
Y1178584D01*
X1065539Y1179094D01*
Y1182572D01*
X1066195Y1183372D01*
X1111943D01*
X1268462Y1026853D01*
Y998220D01*
X1268462Y998220D01*
X1268772Y996659D01*
X1269656Y995336D01*
X1274930Y990062D01*
Y988474D01*
X1275373Y986821D01*
X1276229Y985339D01*
X1277439Y984129D01*
X1278921Y983273D01*
X1280574Y982830D01*
X1282286D01*
X1283939Y983273D01*
X1285421Y984129D01*
X1286631Y985339D01*
X1287487Y986821D01*
X1287930Y988474D01*
Y990186D01*
X1287487Y991839D01*
X1286631Y993321D01*
X1285421Y994531D01*
X1285421Y996829D01*
X1286631Y998039D01*
X1287487Y999521D01*
X1287930Y1001174D01*
Y1002886D01*
X1287487Y1004539D01*
X1286631Y1006021D01*
X1285508Y1007144D01*
Y1027430D01*
X1285198Y1028991D01*
X1284314Y1030314D01*
X1284314Y1030314D01*
X1118794Y1195834D01*
X1117471Y1196718D01*
X1115910Y1197028D01*
X1115910Y1197028D01*
X1085055D01*
X1083718Y1199028D01*
X1083730Y1199056D01*
Y1201244D01*
X1083018Y1202962D01*
X1083496Y1204170D01*
X1084025Y1204962D01*
X1117181D01*
X1230286Y1091856D01*
X1231609Y1090972D01*
X1233170Y1090662D01*
X1233170Y1090662D01*
X1427061D01*
X1533892Y983831D01*
Y499529D01*
X1368641Y334278D01*
X1247559D01*
X1243480Y338358D01*
Y339946D01*
X1243037Y341599D01*
X1242181Y343081D01*
X1240971Y344291D01*
X1239489Y345147D01*
X1237836Y345590D01*
X1236124D01*
X1234471Y345147D01*
X1232989Y344291D01*
X1231779Y343081D01*
X1230923Y341599D01*
X1230480Y339946D01*
Y338234D01*
X1230684Y337472D01*
X1228891Y336437D01*
X1225700Y339628D01*
Y341216D01*
X1225257Y342869D01*
X1224401Y344351D01*
X1223191Y345561D01*
X1221709Y346417D01*
X1220056Y346860D01*
X1218344D01*
X1216691Y346417D01*
X1215209Y345561D01*
X1213999Y344351D01*
X1213143Y342869D01*
X1212700Y341216D01*
Y339504D01*
X1213143Y337851D01*
X1213999Y336369D01*
X1215209Y335159D01*
X1216691Y334303D01*
X1218344Y333860D01*
X1219932D01*
X1232826Y320966D01*
X1232826Y320966D01*
X1234149Y320082D01*
X1235710Y319772D01*
X1235710Y319772D01*
X1372960D01*
X1372960Y319772D01*
X1374521Y320082D01*
X1375844Y320966D01*
X1547204Y492326D01*
X1547204Y492326D01*
X1548088Y493649D01*
X1548398Y495210D01*
Y988150D01*
X1548398Y988150D01*
X1548088Y989711D01*
X1547204Y991034D01*
X1547204Y991034D01*
X1435114Y1103124D01*
X1433791Y1104008D01*
X1432230Y1104318D01*
X1432230Y1104318D01*
X1238340D01*
X1124384Y1218274D01*
X1123533Y1219894D01*
X1124370Y1221916D01*
Y1224104D01*
X1123533Y1226125D01*
X1121985Y1227673D01*
X1119964Y1228510D01*
X1117776D01*
X1115754Y1227673D01*
X1114207Y1226125D01*
X1113370Y1224104D01*
Y1221916D01*
X1113555Y1221468D01*
X1112219Y1219468D01*
X1063291D01*
X1061955Y1221468D01*
X1062140Y1221916D01*
Y1224104D01*
X1061303Y1226125D01*
X1059755Y1227673D01*
X1058801Y1228068D01*
X1058749Y1228089D01*
X1059069Y1229694D01*
X1059069D01*
X1059147Y1230089D01*
X1059227Y1230089D01*
X1060475D01*
X1062496Y1230927D01*
X1064043Y1232474D01*
X1064881Y1234495D01*
Y1236683D01*
X1064043Y1238705D01*
X1062496Y1240252D01*
X1062391Y1240295D01*
X1062530Y1242403D01*
X1064390Y1242902D01*
X1066670Y1244218D01*
X1068532Y1246080D01*
X1069848Y1248360D01*
X1070530Y1250903D01*
Y1253537D01*
X1069848Y1256080D01*
X1068532Y1258360D01*
X1066670Y1260222D01*
X1064390Y1261538D01*
X1061846Y1262220D01*
X1059213D01*
X1056670Y1261538D01*
X1054390Y1260222D01*
X1052528Y1258360D01*
X1051211Y1256080D01*
X1050530Y1253537D01*
Y1251432D01*
X1049343Y1250052D01*
X1048784Y1249693D01*
X1030436D01*
X1029832Y1250767D01*
X1029497Y1251693D01*
X1030255Y1253525D01*
Y1255713D01*
X1029418Y1257734D01*
X1027871Y1259281D01*
X1025849Y1260119D01*
X1023661D01*
X1021640Y1259281D01*
X1020093Y1257734D01*
X1019255Y1255713D01*
Y1253525D01*
X1020014Y1251693D01*
X1019678Y1250767D01*
X1019074Y1249693D01*
X964344D01*
X963578Y1251541D01*
X975113Y1263076D01*
X975942Y1264317D01*
X976048Y1264848D01*
X976969Y1265769D01*
X977806Y1267790D01*
Y1269978D01*
X976969Y1272000D01*
X975422Y1273547D01*
X974213Y1274047D01*
X973400Y1274384D01*
X973181Y1276384D01*
X973240Y1276526D01*
Y1277573D01*
X974434Y1278457D01*
X975210Y1278785D01*
X976411Y1278547D01*
X1072930D01*
X1073770Y1277707D01*
X1075791Y1276870D01*
X1077979D01*
X1080001Y1277707D01*
X1081548Y1279255D01*
X1082385Y1281276D01*
Y1283464D01*
X1081548Y1285486D01*
X1080001Y1287033D01*
X1077979Y1287870D01*
X1075791D01*
X1073770Y1287033D01*
X1072930Y1286193D01*
X977995D01*
X977115Y1287074D01*
X976848Y1289109D01*
X977685Y1291131D01*
Y1293319D01*
X976848Y1295341D01*
X975301Y1296888D01*
X973279Y1297725D01*
X973052D01*
X972223Y1299725D01*
X972403Y1299904D01*
X973240Y1301926D01*
Y1304114D01*
X972403Y1306136D01*
X970855Y1307683D01*
X968834Y1308520D01*
X966646D01*
X964624Y1307683D01*
X963077Y1306136D01*
X962240Y1304114D01*
Y1302927D01*
X914178Y1254866D01*
X911819Y1255335D01*
X911653Y1255735D01*
X910106Y1257283D01*
X908085Y1258120D01*
X905897D01*
X903875Y1257283D01*
X902328Y1255735D01*
X901491Y1253714D01*
Y1251526D01*
X902328Y1249504D01*
X903875Y1247957D01*
X904276Y1247791D01*
X904745Y1245432D01*
X902576Y1243263D01*
X886989D01*
X885526Y1242972D01*
X884286Y1242144D01*
X835263Y1193121D01*
X808154D01*
X806818Y1195121D01*
X806870Y1195246D01*
Y1197434D01*
X806033Y1199455D01*
X804485Y1201003D01*
X802464Y1201840D01*
X800276D01*
X798254Y1201003D01*
X796707Y1199455D01*
X795870Y1197434D01*
Y1197207D01*
X793870Y1196378D01*
X793055Y1197193D01*
X791034Y1198030D01*
X788846D01*
X786824Y1197193D01*
X785277Y1195646D01*
X784902Y1194739D01*
X782592Y1194221D01*
X764553Y1212259D01*
Y1216515D01*
X765393Y1217355D01*
X766230Y1219376D01*
Y1221564D01*
X765393Y1223586D01*
X763846Y1225133D01*
X761824Y1225970D01*
X759636D01*
X757615Y1225133D01*
X756067Y1223586D01*
X755230Y1221564D01*
Y1219376D01*
X756067Y1217355D01*
X756907Y1216515D01*
Y1210676D01*
X757198Y1209212D01*
X758026Y1207972D01*
X785062Y1180936D01*
X786302Y1180108D01*
X787766Y1179817D01*
X839255D01*
X840718Y1180108D01*
X842020Y1178572D01*
X842147Y1178264D01*
X843695Y1176717D01*
X845716Y1175880D01*
X847904D01*
X849926Y1176717D01*
X851473Y1178264D01*
X852310Y1180286D01*
Y1181473D01*
X867164Y1196327D01*
X877156D01*
X877922Y1194479D01*
X875123Y1191680D01*
X873936D01*
X871915Y1190843D01*
X870367Y1189296D01*
X869530Y1187274D01*
Y1185086D01*
X870367Y1183064D01*
X871915Y1181517D01*
X873936Y1180680D01*
X876124D01*
X878146Y1181517D01*
X879693Y1183064D01*
X880530Y1185086D01*
Y1186273D01*
X884234Y1189977D01*
X891126D01*
X891892Y1188129D01*
X870906Y1167143D01*
X857395D01*
X856555Y1167983D01*
X854534Y1168820D01*
X852346D01*
X850324Y1167983D01*
X849485Y1167143D01*
X792034D01*
X789600Y1169577D01*
Y1170764D01*
X788763Y1172785D01*
X787215Y1174333D01*
X785194Y1175170D01*
X783006D01*
X780984Y1174333D01*
X779437Y1172785D01*
X778600Y1170764D01*
Y1168576D01*
X779437Y1166554D01*
X780984Y1165007D01*
X783006Y1164170D01*
X784193D01*
X787746Y1160616D01*
X788987Y1159788D01*
X790450Y1159497D01*
X849485D01*
X850324Y1158657D01*
X852346Y1157820D01*
X854534D01*
X856555Y1158657D01*
X857395Y1159497D01*
X868266D01*
X869032Y1157649D01*
X854396Y1143013D01*
X791210D01*
X789747Y1142722D01*
X788506Y1141894D01*
X718913Y1072300D01*
X717726D01*
X715704Y1071463D01*
X714157Y1069915D01*
X713320Y1067894D01*
Y1065706D01*
X714157Y1063684D01*
X715704Y1062137D01*
X717726Y1061300D01*
X719914D01*
X721936Y1062137D01*
X723483Y1063684D01*
X724320Y1065706D01*
Y1066893D01*
X792794Y1135367D01*
X855980D01*
X857443Y1135658D01*
X858684Y1136486D01*
X887850Y1165653D01*
X889850Y1164824D01*
Y1164766D01*
X890687Y1162745D01*
X892234Y1161197D01*
X894256Y1160360D01*
X896444D01*
X898465Y1161197D01*
X900013Y1162745D01*
X900850Y1164766D01*
Y1165953D01*
X902014Y1167117D01*
X910673D01*
X910911Y1166697D01*
X911286Y1165117D01*
X910073Y1163904D01*
X909236Y1161883D01*
Y1159695D01*
X910073Y1157673D01*
X911621Y1156126D01*
X913642Y1155289D01*
X915830D01*
X917852Y1156126D01*
X919399Y1157673D01*
X920236Y1159695D01*
Y1161883D01*
X919399Y1163904D01*
X918187Y1165117D01*
X918561Y1166697D01*
X918800Y1167117D01*
X939556D01*
X941920Y1164752D01*
Y1163565D01*
X942757Y1161544D01*
X944305Y1159997D01*
X946326Y1159159D01*
X948092D01*
X949146Y1158094D01*
X949540Y1157429D01*
Y1155241D01*
X950377Y1153220D01*
X951925Y1151672D01*
X953946Y1150835D01*
X956134D01*
X958156Y1151672D01*
X959703Y1153220D01*
X960540Y1155241D01*
Y1157429D01*
X959703Y1159451D01*
X958156Y1160998D01*
X956134Y1161835D01*
X954368D01*
X953314Y1162901D01*
X952920Y1163565D01*
Y1165753D01*
X952083Y1167775D01*
X950536Y1169322D01*
X948514Y1170159D01*
X947327D01*
X943843Y1173644D01*
X942603Y1174472D01*
X941139Y1174763D01*
X900430D01*
X899630Y1174604D01*
X898645Y1176448D01*
X902014Y1179817D01*
X920317D01*
X921780Y1180108D01*
X923021Y1180936D01*
X936154Y1194069D01*
X936982Y1195310D01*
X937273Y1196773D01*
Y1209996D01*
X963044Y1235767D01*
X1040285D01*
X1040547Y1235135D01*
X1042094Y1233587D01*
X1044116Y1232750D01*
X1046304D01*
X1048326Y1233587D01*
X1049873Y1235135D01*
X1050355Y1236299D01*
X1052558Y1236925D01*
X1053881Y1235602D01*
Y1234495D01*
X1054718Y1232474D01*
X1055516Y1231676D01*
X1055350Y1229371D01*
X1055297Y1229281D01*
X1054950Y1229092D01*
X1054558Y1229171D01*
X1054558Y1229171D01*
X1032052D01*
X1032052Y1229171D01*
X1030491Y1228860D01*
X1029168Y1227976D01*
X1021931Y1220738D01*
X1001575D01*
X1000014Y1220428D01*
X998691Y1219544D01*
X998691Y1219544D01*
X976926Y1197779D01*
X976042Y1196456D01*
X975732Y1194895D01*
X975732Y1194895D01*
Y1142202D01*
X975732Y1142202D01*
X975942Y1141146D01*
Y1089818D01*
X915163Y1029038D01*
X752994D01*
X751433Y1028728D01*
X750110Y1027844D01*
X750110Y1027844D01*
X678244Y955978D01*
X676013Y956575D01*
X675901Y956995D01*
X675045Y958477D01*
X673835Y959688D01*
X672353Y960543D01*
X670699Y960986D01*
X668988D01*
X667335Y960543D01*
X665853Y959688D01*
X664642Y958477D01*
X663787Y956995D01*
X663344Y955342D01*
Y953631D01*
X663787Y951977D01*
X664642Y950495D01*
X665853Y949285D01*
X667335Y948429D01*
X667755Y948317D01*
X668352Y946086D01*
X544156Y821889D01*
X542308Y822655D01*
Y919494D01*
X542989Y920116D01*
X544308Y920788D01*
X545511Y920466D01*
X547222D01*
X548875Y920909D01*
X550358Y921765D01*
X551568Y922975D01*
X552424Y924457D01*
X552866Y926110D01*
Y927822D01*
X552424Y929475D01*
X551568Y930957D01*
X550358Y932167D01*
X548875Y933023D01*
X547222Y933466D01*
X545511D01*
X544308Y933144D01*
X542989Y933816D01*
X542308Y934438D01*
Y1050718D01*
X660609Y1169019D01*
X661714Y1170673D01*
X662102Y1172624D01*
Y1242902D01*
X748872Y1329672D01*
X1487598D01*
X1513960Y1303310D01*
Y1302033D01*
X1514471Y1300125D01*
X1515459Y1298415D01*
X1516855Y1297018D01*
X1518565Y1296031D01*
X1520473Y1295520D01*
X1522447D01*
X1524355Y1296031D01*
X1526065Y1297018D01*
X1527462Y1298415D01*
X1528449Y1300125D01*
X1528960Y1302033D01*
Y1304007D01*
X1528768Y1304724D01*
X1530561Y1305759D01*
X1536682Y1299638D01*
Y1260269D01*
X1535779Y1259365D01*
X1534791Y1257655D01*
X1534280Y1255747D01*
Y1253773D01*
X1534791Y1251865D01*
X1535779Y1250155D01*
X1537175Y1248758D01*
X1538885Y1247771D01*
X1540793Y1247260D01*
X1542767D01*
X1544675Y1247771D01*
X1546385Y1248758D01*
X1547782Y1250155D01*
X1548769Y1251865D01*
X1549280Y1253773D01*
Y1255747D01*
X1548769Y1257655D01*
X1547782Y1259365D01*
X1546878Y1260269D01*
Y1301750D01*
X1546751Y1302387D01*
X1548594Y1303373D01*
X1550570Y1301397D01*
X1555346Y1297927D01*
X1560605Y1295247D01*
X1566219Y1293423D01*
X1572049Y1292500D01*
X1577951D01*
X1583781Y1293423D01*
X1589395Y1295247D01*
X1594654Y1297927D01*
X1599430Y1301397D01*
X1603603Y1305570D01*
X1607073Y1310346D01*
X1609431Y1314975D01*
X1611431Y1314494D01*
Y295506D01*
X1609431Y295025D01*
X1607073Y299654D01*
X1603603Y304430D01*
X1599430Y308603D01*
X1594654Y312073D01*
X1589395Y314753D01*
X1583781Y316577D01*
X1577951Y317500D01*
X1572049D01*
X1566219Y316577D01*
X1560605Y314753D01*
X1555346Y312073D01*
X1550570Y308603D01*
X1546397Y304430D01*
X1542927Y299654D01*
X1540247Y294395D01*
X1538423Y288781D01*
X1537500Y282951D01*
Y277049D01*
X1538423Y271219D01*
X1540247Y265605D01*
X1542927Y260346D01*
X1546397Y255570D01*
X1550570Y251397D01*
X1555346Y247927D01*
X1559975Y245569D01*
X1559494Y243569D01*
X110594D01*
X110113Y245569D01*
X114675Y247893D01*
X119456Y251366D01*
X123634Y255544D01*
X127107Y260325D01*
X129790Y265590D01*
X131616Y271209D01*
X132540Y277045D01*
Y278730D01*
X95000D01*
Y280000D01*
X93730D01*
Y317540D01*
X92045D01*
X86209Y316616D01*
X80590Y314790D01*
X75325Y312107D01*
X70544Y308634D01*
X66366Y304456D01*
X62893Y299675D01*
X60569Y295114D01*
X58569Y295594D01*
Y1314406D01*
X60569Y1314886D01*
X62893Y1310325D01*
X66366Y1305544D01*
X70544Y1301366D01*
X75325Y1297893D01*
X80590Y1295210D01*
X86209Y1293384D01*
X92045Y1292460D01*
X93730D01*
Y1330000D01*
X95000D01*
Y1331270D01*
X132540D01*
Y1332955D01*
X131616Y1338791D01*
X129790Y1344410D01*
X127107Y1349675D01*
X123634Y1354456D01*
X119456Y1358634D01*
X114675Y1362107D01*
X110113Y1364431D01*
X110594Y1366431D01*
X1559494D01*
X1559975Y1364431D01*
D02*
G37*
G36*
X951217Y1270564D02*
Y1267162D01*
X901139Y1217085D01*
X899952D01*
X897930Y1216247D01*
X896383Y1214700D01*
X895546Y1212679D01*
Y1210491D01*
X896383Y1208469D01*
X897930Y1206922D01*
X897773Y1205004D01*
X896880Y1203973D01*
X867824D01*
X866995Y1205973D01*
X891639Y1230617D01*
X907073D01*
X908536Y1230908D01*
X909776Y1231736D01*
X949369Y1271329D01*
X951217Y1270564D01*
D02*
G37*
G36*
X688340Y853440D02*
X1061720D01*
Y783040D01*
X1052720D01*
Y774750D01*
X1050180D01*
Y783040D01*
X1040410D01*
X1040130Y784194D01*
Y785040D01*
X1029860D01*
Y776000D01*
X1028590D01*
Y774730D01*
X1017050D01*
Y769620D01*
X1014350D01*
Y776690D01*
X1002310D01*
Y777960D01*
D01*
Y776690D01*
X990270D01*
Y769620D01*
X985140D01*
Y776690D01*
X973100D01*
X961060D01*
Y769620D01*
X918210D01*
X900430Y751840D01*
X743638D01*
X743016Y752550D01*
Y760170D01*
X742754Y762159D01*
X742477Y762827D01*
X733765Y754115D01*
X731520Y756360D01*
X729275Y754115D01*
X720563Y762827D01*
X720286Y762159D01*
X720024Y760170D01*
Y752550D01*
X719402Y751840D01*
X680170D01*
Y756680D01*
X668130D01*
X656090D01*
Y751840D01*
X648420D01*
Y756680D01*
X636380D01*
X624340D01*
Y751840D01*
X619980D01*
Y755680D01*
X608440D01*
X596900D01*
Y751840D01*
X595350D01*
Y755700D01*
X573270D01*
Y751840D01*
X555258D01*
Y813679D01*
X617880Y876300D01*
X665480D01*
X688340Y853440D01*
D02*
G37*
%LPC*%
G36*
X888600Y1323013D02*
X886707Y1322763D01*
X884944Y1322033D01*
X883429Y1320871D01*
X883350Y1320768D01*
X881350D01*
X881271Y1320871D01*
X879756Y1322033D01*
X877993Y1322763D01*
X876100Y1323013D01*
X874207Y1322763D01*
X872444Y1322033D01*
X870929Y1320871D01*
X870850Y1320768D01*
X868850D01*
X868771Y1320871D01*
X867256Y1322033D01*
X865493Y1322763D01*
X863600Y1323013D01*
X861707Y1322763D01*
X859944Y1322033D01*
X858429Y1320871D01*
X858350Y1320768D01*
X856350D01*
X856271Y1320871D01*
X854756Y1322033D01*
X852993Y1322763D01*
X851100Y1323013D01*
X849207Y1322763D01*
X847444Y1322033D01*
X846189Y1321070D01*
X845244Y1320800D01*
X843875D01*
X843799Y1320899D01*
X842277Y1322068D01*
X840503Y1322802D01*
X839870Y1322886D01*
Y1314450D01*
Y1306014D01*
X840503Y1306098D01*
X842276Y1306832D01*
X843799Y1308001D01*
X843875Y1308100D01*
X845244D01*
X846189Y1307830D01*
X847444Y1306867D01*
X849207Y1306137D01*
X851100Y1305887D01*
X852993Y1306137D01*
X854756Y1306867D01*
X856271Y1308029D01*
X856350Y1308132D01*
X858350D01*
X858429Y1308029D01*
X859944Y1306867D01*
X861707Y1306137D01*
X863600Y1305887D01*
X865493Y1306137D01*
X867256Y1306867D01*
X868771Y1308029D01*
X868850Y1308132D01*
X870850D01*
X870929Y1308029D01*
X872444Y1306867D01*
X874207Y1306137D01*
X876100Y1305887D01*
X877993Y1306137D01*
X879756Y1306867D01*
X881271Y1308029D01*
X881350Y1308132D01*
X883350D01*
X883429Y1308029D01*
X884944Y1306867D01*
X886707Y1306137D01*
X888600Y1305887D01*
X890493Y1306137D01*
X891850Y1306699D01*
X893850Y1305950D01*
Y1305950D01*
X908350D01*
Y1322950D01*
X893850D01*
X893850Y1322950D01*
X891850Y1322201D01*
X890493Y1322763D01*
X888600Y1323013D01*
D02*
G37*
G36*
X760060Y1324490D02*
X757685D01*
X754040Y1320845D01*
Y1315720D01*
X760060D01*
Y1324490D01*
D02*
G37*
G36*
X837330Y1322886D02*
X836697Y1322802D01*
X834924Y1322068D01*
X833401Y1320899D01*
X832232Y1319377D01*
X831498Y1317603D01*
X831250Y1315720D01*
X837330D01*
Y1322886D01*
D02*
G37*
G36*
X970104Y1322490D02*
X967916D01*
X965894Y1321653D01*
X964347Y1320105D01*
X963510Y1318084D01*
Y1315896D01*
X964347Y1313875D01*
X965894Y1312327D01*
X967916Y1311490D01*
X970104D01*
X972125Y1312327D01*
X973673Y1313875D01*
X974510Y1315896D01*
Y1318084D01*
X973673Y1320105D01*
X972125Y1321653D01*
X970104Y1322490D01*
D02*
G37*
G36*
X837330Y1313180D02*
X831250D01*
X831498Y1311297D01*
X832232Y1309524D01*
X833401Y1308001D01*
X834923Y1306832D01*
X836697Y1306098D01*
X837330Y1306014D01*
Y1313180D01*
D02*
G37*
G36*
X764975Y1324490D02*
X762600D01*
Y1314450D01*
Y1304410D01*
X764975D01*
X767610Y1307045D01*
X770205Y1304450D01*
X777455D01*
X780080Y1307075D01*
X782705Y1304450D01*
X789580D01*
X789955Y1304450D01*
X791580Y1304450D01*
Y1304450D01*
X806080D01*
Y1324450D01*
X791580D01*
Y1324450D01*
X789955Y1324450D01*
X789580Y1324450D01*
X782705D01*
X780080Y1321825D01*
X777455Y1324450D01*
X770205D01*
X767610Y1321855D01*
X764975Y1324490D01*
D02*
G37*
G36*
X760060Y1313180D02*
X754040D01*
Y1308055D01*
X757685Y1304410D01*
X760060D01*
Y1313180D01*
D02*
G37*
G36*
X226041Y1328420D02*
X223539D01*
X221085Y1327932D01*
X218774Y1326975D01*
X216694Y1325585D01*
X214925Y1323816D01*
X213535Y1321736D01*
X212578Y1319424D01*
X212090Y1316971D01*
Y1314469D01*
X212578Y1312016D01*
X213535Y1309704D01*
X214925Y1307624D01*
X216694Y1305855D01*
X218774Y1304465D01*
X221085Y1303508D01*
X223539Y1303020D01*
X226041D01*
X228494Y1303508D01*
X230806Y1304465D01*
X232886Y1305855D01*
X234655Y1307624D01*
X236045Y1309704D01*
X237002Y1312016D01*
X237490Y1314469D01*
Y1316971D01*
X237002Y1319424D01*
X236045Y1321736D01*
X234655Y1323816D01*
X232886Y1325585D01*
X230806Y1326975D01*
X228494Y1327932D01*
X226041Y1328420D01*
D02*
G37*
G36*
X132540Y1328730D02*
X96270D01*
Y1292460D01*
X97954D01*
X103791Y1293384D01*
X109410Y1295210D01*
X114675Y1297893D01*
X119456Y1301366D01*
X123634Y1305544D01*
X127107Y1310325D01*
X129790Y1315590D01*
X131616Y1321209D01*
X132540Y1327046D01*
Y1328730D01*
D02*
G37*
G36*
X1416426Y1301550D02*
X1413134D01*
X1409955Y1300698D01*
X1407105Y1299052D01*
X1404778Y1296725D01*
X1403132Y1293875D01*
X1402280Y1290696D01*
Y1287404D01*
X1403132Y1284225D01*
X1404778Y1281375D01*
X1407105Y1279047D01*
X1409955Y1277402D01*
X1413134Y1276550D01*
X1416426D01*
X1419605Y1277402D01*
X1422455Y1279047D01*
X1424783Y1281375D01*
X1426428Y1284225D01*
X1427280Y1287404D01*
Y1290696D01*
X1426428Y1293875D01*
X1424783Y1296725D01*
X1422455Y1299052D01*
X1419605Y1300698D01*
X1416426Y1301550D01*
D02*
G37*
G36*
X1378326D02*
X1375034D01*
X1371855Y1300698D01*
X1369005Y1299052D01*
X1366678Y1296725D01*
X1365032Y1293875D01*
X1364180Y1290696D01*
Y1287404D01*
X1365032Y1284225D01*
X1366678Y1281375D01*
X1369005Y1279047D01*
X1371855Y1277402D01*
X1375034Y1276550D01*
X1378326D01*
X1381505Y1277402D01*
X1384355Y1279047D01*
X1386682Y1281375D01*
X1388328Y1284225D01*
X1389180Y1287404D01*
Y1290696D01*
X1388328Y1293875D01*
X1386682Y1296725D01*
X1384355Y1299052D01*
X1381505Y1300698D01*
X1378326Y1301550D01*
D02*
G37*
G36*
X1340226D02*
X1336934D01*
X1333755Y1300698D01*
X1330905Y1299052D01*
X1328578Y1296725D01*
X1326932Y1293875D01*
X1326080Y1290696D01*
Y1287404D01*
X1326932Y1284225D01*
X1328578Y1281375D01*
X1330905Y1279047D01*
X1333755Y1277402D01*
X1336934Y1276550D01*
X1340226D01*
X1343405Y1277402D01*
X1346255Y1279047D01*
X1348582Y1281375D01*
X1350228Y1284225D01*
X1351080Y1287404D01*
Y1290696D01*
X1350228Y1293875D01*
X1348582Y1296725D01*
X1346255Y1299052D01*
X1343405Y1300698D01*
X1340226Y1301550D01*
D02*
G37*
G36*
X907874Y1276770D02*
X905686D01*
X903664Y1275933D01*
X902117Y1274386D01*
X901280Y1272364D01*
Y1270176D01*
X902117Y1268155D01*
X903664Y1266607D01*
X905686Y1265770D01*
X907874D01*
X909895Y1266607D01*
X911443Y1268155D01*
X912280Y1270176D01*
Y1272364D01*
X911443Y1274386D01*
X909895Y1275933D01*
X907874Y1276770D01*
D02*
G37*
G36*
X1441036Y1268880D02*
X1439324D01*
X1437671Y1268437D01*
X1436189Y1267581D01*
X1434979Y1266371D01*
X1434123Y1264889D01*
X1433680Y1263236D01*
Y1261524D01*
X1434123Y1259871D01*
X1434979Y1258389D01*
X1436189Y1257179D01*
X1437671Y1256323D01*
X1439324Y1255880D01*
X1441036D01*
X1442689Y1256323D01*
X1444171Y1257179D01*
X1445381Y1258389D01*
X1446237Y1259871D01*
X1446680Y1261524D01*
Y1263236D01*
X1446237Y1264889D01*
X1445381Y1266371D01*
X1444171Y1267581D01*
X1442689Y1268437D01*
X1441036Y1268880D01*
D02*
G37*
G36*
X1244578Y1264734D02*
X1242390D01*
X1240368Y1263896D01*
X1238821Y1262349D01*
X1237984Y1260328D01*
Y1258140D01*
X1238821Y1256118D01*
X1240368Y1254571D01*
X1242390Y1253734D01*
X1244578D01*
X1246599Y1254571D01*
X1248147Y1256118D01*
X1248984Y1258140D01*
Y1260328D01*
X1248147Y1262349D01*
X1246599Y1263896D01*
X1244578Y1264734D01*
D02*
G37*
G36*
X1087252Y1262260D02*
X1087200D01*
Y1253490D01*
X1095970D01*
Y1253542D01*
X1095286Y1256095D01*
X1093964Y1258385D01*
X1092095Y1260254D01*
X1089805Y1261576D01*
X1087252Y1262260D01*
D02*
G37*
G36*
X1084660D02*
X1084608D01*
X1082055Y1261576D01*
X1079765Y1260254D01*
X1077896Y1258385D01*
X1076574Y1256095D01*
X1075890Y1253542D01*
Y1253490D01*
X1084660D01*
Y1262260D01*
D02*
G37*
G36*
X449404Y1264070D02*
X447216D01*
X445195Y1263233D01*
X443647Y1261685D01*
X442810Y1259664D01*
Y1257476D01*
X443647Y1255454D01*
X445195Y1253907D01*
X447216Y1253070D01*
X449404D01*
X451426Y1253907D01*
X452973Y1255454D01*
X453810Y1257476D01*
Y1259664D01*
X452973Y1261685D01*
X451426Y1263233D01*
X449404Y1264070D01*
D02*
G37*
G36*
X1112646Y1262220D02*
X1110014D01*
X1107470Y1261538D01*
X1105190Y1260222D01*
X1103328Y1258360D01*
X1102011Y1256080D01*
X1101330Y1253537D01*
Y1250903D01*
X1102011Y1248360D01*
X1103328Y1246080D01*
X1105190Y1244218D01*
X1107470Y1242902D01*
X1110014Y1242220D01*
X1112646D01*
X1115190Y1242902D01*
X1117470Y1244218D01*
X1119332Y1246080D01*
X1120648Y1248360D01*
X1121330Y1250903D01*
Y1253537D01*
X1120648Y1256080D01*
X1119332Y1258360D01*
X1117470Y1260222D01*
X1115190Y1261538D01*
X1112646Y1262220D01*
D02*
G37*
G36*
X1095970Y1250950D02*
X1087200D01*
Y1242180D01*
X1087252D01*
X1089805Y1242864D01*
X1092095Y1244186D01*
X1093964Y1246055D01*
X1095286Y1248345D01*
X1095970Y1250898D01*
Y1250950D01*
D02*
G37*
G36*
X1084660D02*
X1075890D01*
Y1250898D01*
X1076574Y1248345D01*
X1077896Y1246055D01*
X1079765Y1244186D01*
X1082055Y1242864D01*
X1084608Y1242180D01*
X1084660D01*
Y1250950D01*
D02*
G37*
G36*
X1142730Y1262298D02*
X1130730D01*
X1129169Y1261988D01*
X1127846Y1261104D01*
X1126962Y1259781D01*
X1126652Y1258220D01*
Y1246220D01*
X1126962Y1244659D01*
X1127846Y1243336D01*
X1129169Y1242452D01*
X1130730Y1242142D01*
X1142730D01*
X1144291Y1242452D01*
X1145614Y1243336D01*
X1146498Y1244659D01*
X1146808Y1246220D01*
Y1258220D01*
X1146498Y1259781D01*
X1145614Y1261104D01*
X1144291Y1261988D01*
X1142730Y1262298D01*
D02*
G37*
G36*
X759860Y1250830D02*
X757485D01*
X753840Y1247185D01*
Y1242060D01*
X759860D01*
Y1250830D01*
D02*
G37*
G36*
X764775D02*
X762400D01*
Y1240790D01*
Y1230750D01*
X764775D01*
X767410Y1233385D01*
X770005Y1230790D01*
X777255D01*
X779880Y1233415D01*
X782505Y1230790D01*
X789380D01*
X789755Y1230790D01*
X791380Y1230790D01*
Y1230790D01*
X805880D01*
Y1250790D01*
X791380D01*
Y1250790D01*
X789755Y1250790D01*
X789380Y1250790D01*
X782505D01*
X779880Y1248165D01*
X777255Y1250790D01*
X770005D01*
X767410Y1248195D01*
X764775Y1250830D01*
D02*
G37*
G36*
X759860Y1239520D02*
X753840D01*
Y1234395D01*
X757485Y1230750D01*
X759860D01*
Y1239520D01*
D02*
G37*
G36*
X1439766Y1215540D02*
X1438054D01*
X1436401Y1215097D01*
X1434919Y1214241D01*
X1433709Y1213031D01*
X1432853Y1211549D01*
X1432410Y1209896D01*
Y1208184D01*
X1432853Y1206531D01*
X1433709Y1205049D01*
X1434919Y1203839D01*
X1436401Y1202983D01*
X1438054Y1202540D01*
X1439766D01*
X1441419Y1202983D01*
X1442901Y1203839D01*
X1444111Y1205049D01*
X1444967Y1206531D01*
X1445410Y1208184D01*
Y1209896D01*
X1444967Y1211549D01*
X1444111Y1213031D01*
X1442901Y1214241D01*
X1441419Y1215097D01*
X1439766Y1215540D01*
D02*
G37*
G36*
X1302126Y1301550D02*
X1298834D01*
X1295655Y1300698D01*
X1292805Y1299052D01*
X1291842Y1298090D01*
X1291646Y1297959D01*
X1282617Y1288930D01*
X1282065Y1288103D01*
X1281871Y1287128D01*
Y1259560D01*
X1281840D01*
Y1241060D01*
Y1224560D01*
X1284025D01*
Y1208654D01*
X1280090D01*
Y1188654D01*
X1303090D01*
Y1208654D01*
X1299155D01*
Y1224560D01*
X1301340D01*
Y1241888D01*
X1312092Y1252640D01*
X1326490D01*
Y1267909D01*
X1326536Y1268140D01*
X1326490Y1268371D01*
Y1270640D01*
X1325092D01*
X1313021Y1282711D01*
Y1288917D01*
X1312980Y1289121D01*
Y1290696D01*
X1312128Y1293875D01*
X1310482Y1296725D01*
X1308155Y1299052D01*
X1305305Y1300698D01*
X1302126Y1301550D01*
D02*
G37*
G36*
X1165684Y1198665D02*
X1163496D01*
X1161475Y1197828D01*
X1159927Y1196281D01*
X1159090Y1194259D01*
Y1192071D01*
X1159927Y1190050D01*
X1161475Y1188502D01*
X1163496Y1187665D01*
X1165684D01*
X1167706Y1188502D01*
X1169253Y1190050D01*
X1170090Y1192071D01*
Y1194259D01*
X1169253Y1196281D01*
X1167706Y1197828D01*
X1165684Y1198665D01*
D02*
G37*
G36*
X1023444Y1192667D02*
X1021256D01*
X1019234Y1191830D01*
X1017687Y1190283D01*
X1017028Y1188690D01*
X1015228Y1187271D01*
X1015013Y1187360D01*
X1012825D01*
X1010803Y1186522D01*
X1009256Y1184975D01*
X1008419Y1182954D01*
Y1180766D01*
X1009256Y1178744D01*
X1010803Y1177197D01*
X1012825Y1176360D01*
X1015013D01*
X1017034Y1177197D01*
X1018581Y1178744D01*
X1019241Y1180337D01*
X1021041Y1181757D01*
X1021256Y1181667D01*
X1023444D01*
X1025465Y1182505D01*
X1027013Y1184052D01*
X1027850Y1186074D01*
Y1188261D01*
X1027013Y1190283D01*
X1025465Y1191830D01*
X1023444Y1192667D01*
D02*
G37*
G36*
X586620Y1194850D02*
X571620D01*
Y1181390D01*
X571580D01*
Y1175620D01*
X586660D01*
Y1181390D01*
X588261Y1182352D01*
X592806D01*
X592909Y1182249D01*
X594391Y1181393D01*
X596044Y1180950D01*
X597756D01*
X599409Y1181393D01*
X600891Y1182249D01*
X602101Y1183459D01*
X602957Y1184941D01*
X603400Y1186594D01*
Y1188306D01*
X602957Y1189959D01*
X602101Y1191441D01*
X600891Y1192651D01*
X599409Y1193507D01*
X597756Y1193950D01*
X596044D01*
X594391Y1193507D01*
X592909Y1192651D01*
X592806Y1192548D01*
X586620D01*
Y1194850D01*
D02*
G37*
G36*
X1326490Y1241640D02*
X1307490D01*
Y1223640D01*
X1309425D01*
Y1207520D01*
X1308990D01*
Y1182520D01*
X1309083D01*
X1309907Y1180520D01*
X1307956Y1178569D01*
X1303175Y1178569D01*
X1303090Y1178654D01*
Y1178654D01*
X1280090D01*
Y1158654D01*
X1287950D01*
Y1136574D01*
X1287980Y1136423D01*
Y1135004D01*
X1288832Y1131825D01*
X1290477Y1128975D01*
X1292805Y1126647D01*
X1295655Y1125002D01*
X1298834Y1124150D01*
X1302126D01*
X1305305Y1125002D01*
X1308155Y1126647D01*
X1310482Y1128975D01*
X1312128Y1131825D01*
X1312980Y1135004D01*
Y1136273D01*
X1313040Y1136574D01*
Y1160471D01*
X1322089Y1169520D01*
X1323490D01*
Y1171770D01*
X1323541Y1172028D01*
X1323541Y1172028D01*
X1323541Y1172028D01*
X1323490Y1172286D01*
Y1182520D01*
X1324990D01*
Y1207520D01*
X1324555D01*
Y1223640D01*
X1326490D01*
Y1241640D01*
D02*
G37*
G36*
X252224Y1211500D02*
X248776D01*
X245395Y1210827D01*
X242211Y1209508D01*
X239344Y1207593D01*
X236907Y1205156D01*
X234992Y1202289D01*
X233673Y1199105D01*
X233000Y1195724D01*
Y1192276D01*
X233673Y1188895D01*
X234992Y1185711D01*
X236907Y1182844D01*
X239344Y1180407D01*
X242211Y1178492D01*
X245395Y1177172D01*
X248776Y1176500D01*
X252224D01*
X255605Y1177172D01*
X258789Y1178492D01*
X261656Y1180407D01*
X264093Y1182844D01*
X266008Y1185711D01*
X267327Y1188895D01*
X268000Y1192276D01*
Y1195724D01*
X267327Y1199105D01*
X266008Y1202289D01*
X264093Y1205156D01*
X261656Y1207593D01*
X258789Y1209508D01*
X255605Y1210827D01*
X252224Y1211500D01*
D02*
G37*
G36*
X150624D02*
X147176D01*
X143795Y1210827D01*
X140611Y1209508D01*
X137744Y1207593D01*
X135307Y1205156D01*
X133392Y1202289D01*
X132072Y1199105D01*
X131400Y1195724D01*
Y1192276D01*
X132072Y1188895D01*
X133392Y1185711D01*
X135307Y1182844D01*
X137744Y1180407D01*
X140611Y1178492D01*
X143795Y1177172D01*
X147176Y1176500D01*
X150624D01*
X154005Y1177172D01*
X157189Y1178492D01*
X160056Y1180407D01*
X162493Y1182844D01*
X164408Y1185711D01*
X165728Y1188895D01*
X166400Y1192276D01*
Y1195724D01*
X165728Y1199105D01*
X164408Y1202289D01*
X162493Y1205156D01*
X160056Y1207593D01*
X157189Y1209508D01*
X154005Y1210827D01*
X150624Y1211500D01*
D02*
G37*
G36*
X708377Y1189870D02*
X706403D01*
X704495Y1189359D01*
X702785Y1188372D01*
X701388Y1186975D01*
X700401Y1185265D01*
X699890Y1183357D01*
Y1181383D01*
X700401Y1179475D01*
X701388Y1177765D01*
X702785Y1176368D01*
X704495Y1175381D01*
X706403Y1174870D01*
X708377D01*
X710285Y1175381D01*
X711995Y1176368D01*
X713391Y1177765D01*
X714379Y1179475D01*
X714890Y1181383D01*
Y1183357D01*
X714379Y1185265D01*
X713391Y1186975D01*
X711995Y1188372D01*
X710285Y1189359D01*
X708377Y1189870D01*
D02*
G37*
G36*
X686787D02*
X684813D01*
X682905Y1189359D01*
X681195Y1188372D01*
X679799Y1186975D01*
X678811Y1185265D01*
X678300Y1183357D01*
Y1181383D01*
X678811Y1179475D01*
X679799Y1177765D01*
X681195Y1176368D01*
X682905Y1175381D01*
X684813Y1174870D01*
X686787D01*
X688695Y1175381D01*
X690405Y1176368D01*
X691802Y1177765D01*
X692789Y1179475D01*
X693300Y1181383D01*
Y1183357D01*
X692789Y1185265D01*
X691802Y1186975D01*
X690405Y1188372D01*
X688695Y1189359D01*
X686787Y1189870D01*
D02*
G37*
G36*
X586660Y1173080D02*
X580390D01*
Y1167310D01*
X586660D01*
Y1173080D01*
D02*
G37*
G36*
X577850D02*
X571580D01*
Y1167310D01*
X577850D01*
Y1173080D01*
D02*
G37*
G36*
X1088340Y1177150D02*
X1081070D01*
Y1167130D01*
X1088340D01*
Y1177150D01*
D02*
G37*
G36*
X1078530D02*
X1071260D01*
Y1167130D01*
X1078530D01*
Y1177150D01*
D02*
G37*
G36*
X1001684Y1172117D02*
X999496D01*
X997474Y1171280D01*
X995927Y1169733D01*
X995090Y1167711D01*
Y1165523D01*
X995927Y1163502D01*
X997474Y1161955D01*
X999496Y1161117D01*
X1001684D01*
X1003705Y1161955D01*
X1005252Y1163502D01*
X1006090Y1165523D01*
Y1167711D01*
X1005252Y1169733D01*
X1003705Y1171280D01*
X1001684Y1172117D01*
D02*
G37*
G36*
X1088340Y1164590D02*
X1081070D01*
Y1154570D01*
X1088340D01*
Y1164590D01*
D02*
G37*
G36*
X1078530D02*
X1071260D01*
Y1154570D01*
X1078530D01*
Y1164590D01*
D02*
G37*
G36*
X761824Y1158660D02*
X759636D01*
X757615Y1157823D01*
X756067Y1156275D01*
X755230Y1154254D01*
Y1152066D01*
X756067Y1150044D01*
X757615Y1148497D01*
X759636Y1147660D01*
X761824D01*
X763846Y1148497D01*
X765393Y1150044D01*
X766230Y1152066D01*
Y1154254D01*
X765393Y1156275D01*
X763846Y1157823D01*
X761824Y1158660D01*
D02*
G37*
G36*
X915830Y1152716D02*
X913642D01*
X911621Y1151878D01*
X910073Y1150331D01*
X909236Y1148310D01*
Y1146122D01*
X910073Y1144100D01*
X911621Y1142553D01*
X913642Y1141716D01*
X915830D01*
X917852Y1142553D01*
X919399Y1144100D01*
X920236Y1146122D01*
Y1148310D01*
X919399Y1150331D01*
X917852Y1151878D01*
X915830Y1152716D01*
D02*
G37*
G36*
X1222224Y1149160D02*
X1220036D01*
X1218015Y1148323D01*
X1216467Y1146776D01*
X1215630Y1144754D01*
Y1142566D01*
X1216467Y1140545D01*
X1218015Y1138997D01*
X1220036Y1138160D01*
X1222224D01*
X1224246Y1138997D01*
X1225793Y1140545D01*
X1226630Y1142566D01*
Y1144754D01*
X1225793Y1146776D01*
X1224246Y1148323D01*
X1222224Y1149160D01*
D02*
G37*
G36*
X1046304Y1147230D02*
X1044116D01*
X1042094Y1146393D01*
X1040547Y1144846D01*
X1039710Y1142824D01*
Y1140636D01*
X1040547Y1138615D01*
X1042094Y1137067D01*
X1044116Y1136230D01*
X1046304D01*
X1048326Y1137067D01*
X1049873Y1138615D01*
X1050710Y1140636D01*
Y1142824D01*
X1049873Y1144846D01*
X1048326Y1146393D01*
X1046304Y1147230D01*
D02*
G37*
G36*
X1006934Y1144690D02*
X1004746D01*
X1002725Y1143853D01*
X1001177Y1142306D01*
X1000340Y1140284D01*
Y1138096D01*
X1001177Y1136075D01*
X1002725Y1134527D01*
X1004746Y1133690D01*
X1006934D01*
X1008956Y1134527D01*
X1010503Y1136075D01*
X1011340Y1138096D01*
Y1140284D01*
X1010503Y1142306D01*
X1008956Y1143853D01*
X1006934Y1144690D01*
D02*
G37*
G36*
X590374D02*
X588186D01*
X586165Y1143853D01*
X584617Y1142306D01*
X583780Y1140284D01*
Y1138096D01*
X584617Y1136075D01*
X586165Y1134527D01*
X588186Y1133690D01*
X590374D01*
X592396Y1134527D01*
X593943Y1136075D01*
X594780Y1138096D01*
Y1140284D01*
X593943Y1142306D01*
X592396Y1143853D01*
X590374Y1144690D01*
D02*
G37*
G36*
X1143204Y1141770D02*
X1141016D01*
X1138995Y1140933D01*
X1137447Y1139386D01*
X1136610Y1137364D01*
Y1135176D01*
X1137447Y1133155D01*
X1138995Y1131607D01*
X1141016Y1130770D01*
X1143204D01*
X1145226Y1131607D01*
X1146773Y1133155D01*
X1147610Y1135176D01*
Y1137364D01*
X1146773Y1139386D01*
X1145226Y1140933D01*
X1143204Y1141770D01*
D02*
G37*
G36*
X1078054Y1139610D02*
X1075866D01*
X1073845Y1138773D01*
X1072297Y1137225D01*
X1071460Y1135204D01*
Y1133016D01*
X1072297Y1130994D01*
X1073845Y1129447D01*
X1075866Y1128610D01*
X1078054D01*
X1080076Y1129447D01*
X1081623Y1130994D01*
X1082460Y1133016D01*
Y1135204D01*
X1081623Y1137225D01*
X1080076Y1138773D01*
X1078054Y1139610D01*
D02*
G37*
G36*
X1416426Y1149150D02*
X1413134D01*
X1409955Y1148298D01*
X1407105Y1146653D01*
X1404778Y1144325D01*
X1403132Y1141475D01*
X1402280Y1138296D01*
Y1135004D01*
X1403132Y1131825D01*
X1404778Y1128975D01*
X1407105Y1126647D01*
X1409955Y1125002D01*
X1413134Y1124150D01*
X1416426D01*
X1419605Y1125002D01*
X1422455Y1126647D01*
X1424783Y1128975D01*
X1426428Y1131825D01*
X1427280Y1135004D01*
Y1138296D01*
X1426428Y1141475D01*
X1424783Y1144325D01*
X1422455Y1146653D01*
X1419605Y1148298D01*
X1416426Y1149150D01*
D02*
G37*
G36*
X1378326D02*
X1375034D01*
X1371855Y1148298D01*
X1369005Y1146653D01*
X1366678Y1144325D01*
X1365032Y1141475D01*
X1364180Y1138296D01*
Y1135004D01*
X1365032Y1131825D01*
X1366678Y1128975D01*
X1369005Y1126647D01*
X1371855Y1125002D01*
X1375034Y1124150D01*
X1378326D01*
X1381505Y1125002D01*
X1384355Y1126647D01*
X1386682Y1128975D01*
X1388328Y1131825D01*
X1389180Y1135004D01*
Y1138296D01*
X1388328Y1141475D01*
X1386682Y1144325D01*
X1384355Y1146653D01*
X1381505Y1148298D01*
X1378326Y1149150D01*
D02*
G37*
G36*
X1340226D02*
X1336934D01*
X1333755Y1148298D01*
X1330905Y1146653D01*
X1328578Y1144325D01*
X1326932Y1141475D01*
X1326080Y1138296D01*
Y1135004D01*
X1326932Y1131825D01*
X1328578Y1128975D01*
X1330905Y1126647D01*
X1333755Y1125002D01*
X1336934Y1124150D01*
X1340226D01*
X1343405Y1125002D01*
X1346255Y1126647D01*
X1348582Y1128975D01*
X1350228Y1131825D01*
X1351080Y1135004D01*
Y1138296D01*
X1350228Y1141475D01*
X1348582Y1144325D01*
X1346255Y1146653D01*
X1343405Y1148298D01*
X1340226Y1149150D01*
D02*
G37*
G36*
X738726Y1122782D02*
X737014D01*
X735361Y1122339D01*
X733879Y1121484D01*
X732669Y1120273D01*
X731813Y1118791D01*
X731370Y1117138D01*
Y1115427D01*
X731813Y1113773D01*
X732669Y1112291D01*
X733879Y1111081D01*
X735361Y1110225D01*
X737014Y1109782D01*
X738726D01*
X740379Y1110225D01*
X741861Y1111081D01*
X743071Y1112291D01*
X743927Y1113773D01*
X744370Y1115427D01*
Y1117138D01*
X743927Y1118791D01*
X743071Y1120273D01*
X741861Y1121484D01*
X740379Y1122339D01*
X738726Y1122782D01*
D02*
G37*
G36*
X881204Y1111622D02*
X879016D01*
X876994Y1110785D01*
X875749Y1109540D01*
X874504Y1110785D01*
X872483Y1111622D01*
X870294D01*
X868273Y1110785D01*
X867028Y1109540D01*
X865782Y1110785D01*
X863761Y1111622D01*
X861573D01*
X859551Y1110785D01*
X858004Y1109238D01*
X857167Y1107216D01*
Y1105028D01*
X858004Y1103007D01*
X859551Y1101460D01*
X861573Y1100622D01*
X863761D01*
X865782Y1101460D01*
X867028Y1102705D01*
X868273Y1101460D01*
X870294Y1100622D01*
X872483D01*
X874504Y1101460D01*
X875749Y1102705D01*
X876994Y1101460D01*
X879016Y1100622D01*
X881204D01*
X883225Y1101460D01*
X884773Y1103007D01*
X885610Y1105028D01*
Y1107216D01*
X884773Y1109238D01*
X883225Y1110785D01*
X881204Y1111622D01*
D02*
G37*
G36*
X1113614Y1112940D02*
X1111426D01*
X1109405Y1112103D01*
X1107857Y1110555D01*
X1107020Y1108534D01*
Y1106346D01*
X1107857Y1104324D01*
X1109405Y1102777D01*
X1111426Y1101940D01*
X1113614D01*
X1115636Y1102777D01*
X1117183Y1104324D01*
X1118020Y1106346D01*
Y1108534D01*
X1117183Y1110555D01*
X1115636Y1112103D01*
X1113614Y1112940D01*
D02*
G37*
G36*
X1051384Y1110400D02*
X1049196D01*
X1047175Y1109563D01*
X1045627Y1108016D01*
X1044790Y1105994D01*
Y1103806D01*
X1045627Y1101785D01*
X1047175Y1100237D01*
X1049196Y1099400D01*
X1051384D01*
X1053406Y1100237D01*
X1054953Y1101785D01*
X1055790Y1103806D01*
Y1105994D01*
X1054953Y1108016D01*
X1053406Y1109563D01*
X1051384Y1110400D01*
D02*
G37*
G36*
X1150444Y1102350D02*
X1148256D01*
X1146235Y1101513D01*
X1144687Y1099966D01*
X1143850Y1097944D01*
Y1095756D01*
X1144687Y1093735D01*
X1146235Y1092187D01*
X1148256Y1091350D01*
X1150444D01*
X1152466Y1092187D01*
X1154013Y1093735D01*
X1154850Y1095756D01*
Y1097944D01*
X1154013Y1099966D01*
X1152466Y1101513D01*
X1150444Y1102350D01*
D02*
G37*
G36*
X920336Y1096160D02*
X918624D01*
X916971Y1095717D01*
X915489Y1094861D01*
X914279Y1093651D01*
X913423Y1092169D01*
X912980Y1090516D01*
Y1088804D01*
X913423Y1087151D01*
X914279Y1085669D01*
X915489Y1084459D01*
X916971Y1083603D01*
X918624Y1083160D01*
X920336D01*
X921989Y1083603D01*
X923471Y1084459D01*
X924681Y1085669D01*
X925537Y1087151D01*
X925980Y1088804D01*
Y1090516D01*
X925537Y1092169D01*
X924681Y1093651D01*
X923471Y1094861D01*
X921989Y1095717D01*
X920336Y1096160D01*
D02*
G37*
G36*
X881036Y1078650D02*
X878848D01*
X876826Y1077813D01*
X875581Y1076567D01*
X874335Y1077813D01*
X872314Y1078650D01*
X870126D01*
X868104Y1077813D01*
X866859Y1076567D01*
X865614Y1077813D01*
X863593Y1078650D01*
X861404D01*
X859383Y1077813D01*
X857836Y1076265D01*
X856999Y1074244D01*
Y1072056D01*
X857836Y1070034D01*
X859383Y1068487D01*
X861404Y1067650D01*
X863593D01*
X865614Y1068487D01*
X866859Y1069733D01*
X868104Y1068487D01*
X870126Y1067650D01*
X872314D01*
X874335Y1068487D01*
X875581Y1069733D01*
X876826Y1068487D01*
X878848Y1067650D01*
X881036D01*
X883057Y1068487D01*
X884604Y1070034D01*
X885442Y1072056D01*
Y1074244D01*
X884604Y1076265D01*
X883057Y1077813D01*
X881036Y1078650D01*
D02*
G37*
G36*
X669007Y1081920D02*
X667033D01*
X665125Y1081409D01*
X663415Y1080422D01*
X662019Y1079025D01*
X661031Y1077315D01*
X660520Y1075407D01*
Y1073433D01*
X661031Y1071525D01*
X662019Y1069815D01*
X663415Y1068419D01*
X665125Y1067431D01*
X667033Y1066920D01*
X669007D01*
X670915Y1067431D01*
X672625Y1068419D01*
X674022Y1069815D01*
X675009Y1071525D01*
X675520Y1073433D01*
Y1075407D01*
X675009Y1077315D01*
X674022Y1079025D01*
X672625Y1080422D01*
X670915Y1081409D01*
X669007Y1081920D01*
D02*
G37*
G36*
X1128444Y1091350D02*
X1126256D01*
X1124234Y1090513D01*
X1122687Y1088966D01*
X1121850Y1086944D01*
Y1084756D01*
X1122687Y1082735D01*
X1124234Y1081187D01*
X1126256Y1080350D01*
X1128444D01*
X1130465Y1081187D01*
X1131050Y1081772D01*
X1142581D01*
X1156554Y1067798D01*
X1155725Y1065798D01*
X1121300D01*
X1120715Y1066383D01*
X1118694Y1067220D01*
X1116506D01*
X1114484Y1066383D01*
X1112937Y1064836D01*
X1112100Y1062814D01*
Y1060626D01*
X1112937Y1058605D01*
X1114484Y1057057D01*
X1116506Y1056220D01*
X1118694D01*
X1120715Y1057057D01*
X1121300Y1057642D01*
X1156551D01*
X1197342Y1016851D01*
Y739559D01*
X1191819Y734037D01*
X1190935Y732714D01*
X1190625Y731153D01*
X1190625Y731153D01*
Y577110D01*
X1189990Y576589D01*
X1173388D01*
Y591560D01*
X1173780D01*
Y622560D01*
X1155811D01*
X1155570Y624460D01*
X1155570Y624560D01*
Y633730D01*
X1138490D01*
Y624460D01*
X1147539D01*
X1147780Y622560D01*
X1147780Y622460D01*
Y591560D01*
X1148172D01*
Y576589D01*
X1077692D01*
X1077599Y576935D01*
X1076611Y578645D01*
X1075215Y580042D01*
X1073505Y581029D01*
X1071597Y581540D01*
X1069623D01*
X1067715Y581029D01*
X1066005Y580042D01*
X1064609Y578645D01*
X1063621Y576935D01*
X1063110Y575027D01*
Y573053D01*
X1063380Y572044D01*
Y562066D01*
X1063110Y561057D01*
Y559083D01*
X1063380Y558074D01*
Y548096D01*
X1063110Y547087D01*
Y545113D01*
X1063380Y544104D01*
Y534126D01*
X1063110Y533117D01*
Y531143D01*
X1063380Y530134D01*
Y520156D01*
X1063110Y519147D01*
Y517173D01*
X1063380Y516164D01*
Y506186D01*
X1063110Y505177D01*
Y503203D01*
X1063380Y502194D01*
Y486410D01*
X1063574Y485435D01*
X1064127Y484608D01*
X1064954Y484055D01*
X1065929Y483861D01*
X1189005D01*
X1189833Y481861D01*
X1180245Y472273D01*
X1066385D01*
X1051828Y486829D01*
Y609600D01*
X1051828Y609600D01*
X1051518Y611161D01*
X1050634Y612484D01*
X1050634Y612484D01*
X1037934Y625184D01*
X1036611Y626068D01*
X1035050Y626378D01*
X1034500Y628233D01*
Y630500D01*
X1012500D01*
X1012140Y629690D01*
X989140D01*
Y626152D01*
X989100Y626119D01*
X986010D01*
X985970Y626152D01*
Y629110D01*
X961970D01*
Y626152D01*
X961930Y626119D01*
X956800D01*
X956760Y626152D01*
Y629110D01*
X932760D01*
Y626152D01*
X932720Y626119D01*
X861247D01*
X860971Y626064D01*
X860690Y626057D01*
X860488Y625968D01*
X860272Y625925D01*
X860038Y625769D01*
X859781Y625655D01*
X859628Y625495D01*
X859594Y625472D01*
X859294Y625348D01*
X858210Y625176D01*
X858001Y625184D01*
X857026Y625406D01*
X855844Y626588D01*
X853536Y627920D01*
X850962Y628610D01*
X848298D01*
X845724Y627920D01*
X843416Y626588D01*
X841532Y624704D01*
X840200Y622396D01*
X839840Y621053D01*
X838686Y620050D01*
X838211Y619800D01*
X838131Y619798D01*
X837511Y619825D01*
X837249Y619898D01*
X837156Y619886D01*
X837065Y619904D01*
X836666Y619825D01*
X836262Y619774D01*
X836181Y619728D01*
X836090Y619710D01*
X835751Y619484D01*
X835397Y619283D01*
X835340Y619209D01*
X835263Y619158D01*
X781788Y565682D01*
X734798Y518692D01*
X734245Y517865D01*
X734051Y516890D01*
X734051Y480060D01*
X734245Y479085D01*
X734798Y478258D01*
X747498Y465558D01*
X748325Y465005D01*
X749300Y464811D01*
X820420D01*
X821395Y465005D01*
X822222Y465558D01*
X835446Y478781D01*
X1007110D01*
X1008085Y478975D01*
X1008912Y479528D01*
X1011452Y482068D01*
X1012005Y482895D01*
X1012199Y483870D01*
Y571714D01*
X1033042Y592558D01*
X1033595Y593385D01*
X1033789Y594360D01*
Y613960D01*
X1033822Y614000D01*
X1034500D01*
Y614469D01*
X1036348Y615235D01*
X1043672Y607911D01*
Y485140D01*
X1043672Y485140D01*
X1043982Y483579D01*
X1044866Y482256D01*
X1061812Y465310D01*
X1061812Y465310D01*
X1063135Y464426D01*
X1064696Y464116D01*
X1177253D01*
X1178018Y462268D01*
X1122336Y406586D01*
X1121452Y405263D01*
X1121142Y403702D01*
X1121142Y403702D01*
Y340779D01*
X1080351Y299988D01*
X547789D01*
X409774Y438004D01*
X408451Y438888D01*
X406890Y439198D01*
X406890Y439198D01*
X396810D01*
Y447120D01*
X372810D01*
Y439429D01*
X363790D01*
Y447120D01*
X339790D01*
Y439429D01*
X332810D01*
Y447120D01*
X309810D01*
Y439429D01*
X299290D01*
Y446350D01*
X277290D01*
Y439429D01*
X257810D01*
X256835Y439235D01*
X256008Y438682D01*
X250928Y433602D01*
X250375Y432775D01*
X250181Y431800D01*
Y372110D01*
X250375Y371135D01*
X250928Y370308D01*
X253468Y367768D01*
X254294Y367215D01*
X255270Y367021D01*
X358140D01*
X359115Y367215D01*
X359942Y367768D01*
X399312Y407138D01*
X399865Y407965D01*
X400059Y408940D01*
Y431042D01*
X405201D01*
X543216Y293026D01*
X544539Y292142D01*
X546100Y291832D01*
X546100Y291832D01*
X1082040D01*
X1082040Y291832D01*
X1083601Y292142D01*
X1084924Y293026D01*
X1128104Y336206D01*
X1128988Y337529D01*
X1129298Y339090D01*
X1129298Y339090D01*
Y402012D01*
X1201075Y473789D01*
X1202923Y473023D01*
Y464814D01*
X1140474Y402366D01*
X1139148Y400381D01*
X1138682Y398040D01*
Y371323D01*
X1138300Y369896D01*
Y368184D01*
X1138743Y366531D01*
X1139599Y365049D01*
X1140809Y363839D01*
X1142291Y362983D01*
X1143944Y362540D01*
X1145656D01*
X1147309Y362983D01*
X1148791Y363839D01*
X1150001Y365049D01*
X1150857Y366531D01*
X1151300Y368184D01*
Y369896D01*
X1150918Y371323D01*
Y395506D01*
X1213366Y457954D01*
X1214692Y459939D01*
X1215157Y462280D01*
Y632717D01*
X1215540Y634144D01*
Y635856D01*
X1215097Y637509D01*
X1214241Y638991D01*
X1213031Y640201D01*
X1211549Y641057D01*
X1209896Y641500D01*
X1208184D01*
X1206531Y641057D01*
X1206282Y640913D01*
X1204281Y642068D01*
Y724804D01*
X1211488Y732010D01*
X1212372Y733334D01*
X1212683Y734894D01*
X1212683Y734894D01*
Y1021516D01*
X1212683Y1021516D01*
X1212372Y1023076D01*
X1211488Y1024400D01*
X1147154Y1088734D01*
X1145831Y1089618D01*
X1144270Y1089928D01*
X1144270Y1089928D01*
X1131050D01*
X1130465Y1090513D01*
X1128444Y1091350D01*
D02*
G37*
G36*
X1402954Y1087540D02*
X1401270D01*
Y1051270D01*
X1437540D01*
Y1052954D01*
X1436616Y1058791D01*
X1434790Y1064410D01*
X1432107Y1069675D01*
X1428634Y1074456D01*
X1424456Y1078634D01*
X1419675Y1082107D01*
X1414410Y1084790D01*
X1408791Y1086616D01*
X1402954Y1087540D01*
D02*
G37*
G36*
X1398730D02*
X1397045D01*
X1391209Y1086616D01*
X1385590Y1084790D01*
X1380325Y1082107D01*
X1375544Y1078634D01*
X1371366Y1074456D01*
X1367893Y1069675D01*
X1365210Y1064410D01*
X1363384Y1058791D01*
X1362460Y1052954D01*
Y1051270D01*
X1398730D01*
Y1087540D01*
D02*
G37*
G36*
X1048844Y1060870D02*
X1046656D01*
X1044634Y1060033D01*
X1043087Y1058485D01*
X1042250Y1056464D01*
Y1054276D01*
X1043087Y1052254D01*
X1044634Y1050707D01*
X1046656Y1049870D01*
X1048844D01*
X1050865Y1050707D01*
X1052413Y1052254D01*
X1053250Y1054276D01*
Y1056464D01*
X1052413Y1058485D01*
X1050865Y1060033D01*
X1048844Y1060870D01*
D02*
G37*
G36*
X1004394Y1059600D02*
X1002206D01*
X1000184Y1058763D01*
X998637Y1057215D01*
X997800Y1055194D01*
Y1053006D01*
X998637Y1050984D01*
X1000184Y1049437D01*
X1002206Y1048600D01*
X1004394D01*
X1006415Y1049437D01*
X1007963Y1050984D01*
X1008800Y1053006D01*
Y1055194D01*
X1007963Y1057215D01*
X1006415Y1058763D01*
X1004394Y1059600D01*
D02*
G37*
G36*
X839056Y1059965D02*
X837344D01*
X835691Y1059522D01*
X834209Y1058666D01*
X832999Y1057456D01*
X832143Y1055974D01*
X831700Y1054321D01*
Y1052609D01*
X832143Y1050956D01*
X832999Y1049474D01*
X834209Y1048264D01*
X835691Y1047408D01*
X837344Y1046965D01*
X839056D01*
X840709Y1047408D01*
X842191Y1048264D01*
X843401Y1049474D01*
X844257Y1050956D01*
X844700Y1052609D01*
Y1054321D01*
X844257Y1055974D01*
X843401Y1057456D01*
X842191Y1058666D01*
X840709Y1059522D01*
X839056Y1059965D01*
D02*
G37*
G36*
X596287Y1040100D02*
X594313D01*
X592405Y1039589D01*
X590695Y1038602D01*
X589516Y1037422D01*
X588315Y1037303D01*
X587114Y1037422D01*
X585935Y1038602D01*
X584225Y1039589D01*
X582317Y1040100D01*
X580343D01*
X578435Y1039589D01*
X576725Y1038602D01*
X575546Y1037422D01*
X574345Y1037303D01*
X573144Y1037422D01*
X571965Y1038602D01*
X570255Y1039589D01*
X568347Y1040100D01*
X566373D01*
X564465Y1039589D01*
X562755Y1038602D01*
X561358Y1037205D01*
X560371Y1035495D01*
X559860Y1033587D01*
Y1031613D01*
X560371Y1029705D01*
X561358Y1027995D01*
X562538Y1026816D01*
X562657Y1025615D01*
X562538Y1024414D01*
X561358Y1023235D01*
X560371Y1021525D01*
X559860Y1019617D01*
Y1017643D01*
X560371Y1015735D01*
X561358Y1014025D01*
X562538Y1012846D01*
X562657Y1011645D01*
X562538Y1010444D01*
X561358Y1009265D01*
X560371Y1007555D01*
X559860Y1005647D01*
Y1003673D01*
X560371Y1001765D01*
X561358Y1000055D01*
X562538Y998876D01*
X562657Y997675D01*
X562538Y996474D01*
X561358Y995295D01*
X560371Y993585D01*
X559860Y991677D01*
Y989703D01*
X560371Y987795D01*
X561358Y986085D01*
X562538Y984906D01*
X562657Y983705D01*
X562538Y982504D01*
X561358Y981325D01*
X560371Y979615D01*
X559860Y977707D01*
Y975733D01*
X560371Y973825D01*
X561358Y972115D01*
X562538Y970936D01*
X562657Y969735D01*
X562538Y968534D01*
X561358Y967355D01*
X560371Y965645D01*
X559860Y963737D01*
Y961763D01*
X560371Y959855D01*
X561358Y958145D01*
X562538Y956966D01*
X562657Y955765D01*
X562538Y954564D01*
X561358Y953385D01*
X560371Y951675D01*
X559860Y949767D01*
Y947793D01*
X560371Y945885D01*
X561358Y944175D01*
X562755Y942778D01*
X564465Y941791D01*
X566373Y941280D01*
X568347D01*
X570255Y941791D01*
X571965Y942778D01*
X573144Y943958D01*
X574345Y944077D01*
X575546Y943958D01*
X576725Y942778D01*
X578435Y941791D01*
X580343Y941280D01*
X582317D01*
X584225Y941791D01*
X585935Y942778D01*
X587114Y943958D01*
X588315Y944077D01*
X589516Y943958D01*
X590695Y942778D01*
X592405Y941791D01*
X594313Y941280D01*
X596287D01*
X598195Y941791D01*
X599905Y942778D01*
X601301Y944175D01*
X602289Y945885D01*
X602800Y947793D01*
Y949767D01*
X602289Y951675D01*
X601301Y953385D01*
X600122Y954564D01*
X600003Y955765D01*
X600122Y956966D01*
X601301Y958145D01*
X602289Y959855D01*
X602800Y961763D01*
Y963737D01*
X602289Y965645D01*
X601301Y967355D01*
X600122Y968534D01*
X600003Y969735D01*
X600122Y970936D01*
X601084Y971898D01*
X602285Y972017D01*
X603486Y971898D01*
X604665Y970719D01*
X606375Y969731D01*
X608283Y969220D01*
X610257D01*
X612165Y969731D01*
X613875Y970719D01*
X615054Y971898D01*
X616255Y972017D01*
X617456Y971898D01*
X618635Y970719D01*
X620345Y969731D01*
X622253Y969220D01*
X624227D01*
X626135Y969731D01*
X627845Y970719D01*
X629024Y971898D01*
X630225Y972017D01*
X631426Y971898D01*
X632605Y970719D01*
X634315Y969731D01*
X636223Y969220D01*
X638197D01*
X640105Y969731D01*
X641815Y970719D01*
X643212Y972115D01*
X644199Y973825D01*
X644710Y975733D01*
Y977707D01*
X644199Y979615D01*
X643212Y981325D01*
X642032Y982504D01*
X641913Y983705D01*
X642032Y984906D01*
X643212Y986085D01*
X644199Y987795D01*
X644710Y989703D01*
Y991677D01*
X644199Y993585D01*
X643212Y995295D01*
X641815Y996692D01*
X640105Y997679D01*
X638197Y998190D01*
X636223D01*
X634315Y997679D01*
X632605Y996692D01*
X631426Y995512D01*
X630225Y995393D01*
X629024Y995512D01*
X628062Y996474D01*
X627943Y997675D01*
X628062Y998876D01*
X629241Y1000055D01*
X630229Y1001765D01*
X630740Y1003673D01*
Y1005647D01*
X630229Y1007555D01*
X629241Y1009265D01*
X627845Y1010661D01*
X626135Y1011649D01*
X624227Y1012160D01*
X622253D01*
X620345Y1011649D01*
X618635Y1010661D01*
X617456Y1009482D01*
X616255Y1009363D01*
X615054Y1009482D01*
X614092Y1010444D01*
X613973Y1011645D01*
X614092Y1012846D01*
X615271Y1014025D01*
X616259Y1015735D01*
X616770Y1017643D01*
Y1019617D01*
X616259Y1021525D01*
X615271Y1023235D01*
X613875Y1024632D01*
X612165Y1025619D01*
X610257Y1026130D01*
X608283D01*
X606375Y1025619D01*
X604665Y1024632D01*
X603486Y1023452D01*
X602285Y1023333D01*
X601084Y1023452D01*
X600122Y1024414D01*
X600003Y1025615D01*
X600122Y1026816D01*
X601301Y1027995D01*
X602289Y1029705D01*
X602800Y1031613D01*
Y1033587D01*
X602289Y1035495D01*
X601301Y1037205D01*
X599905Y1038602D01*
X598195Y1039589D01*
X596287Y1040100D01*
D02*
G37*
G36*
X331187Y1029850D02*
X329213D01*
X327305Y1029339D01*
X325595Y1028352D01*
X324416Y1027172D01*
X323215Y1027053D01*
X322014Y1027172D01*
X320835Y1028352D01*
X319125Y1029339D01*
X317217Y1029850D01*
X315243D01*
X313335Y1029339D01*
X311625Y1028352D01*
X310446Y1027172D01*
X309245Y1027053D01*
X308044Y1027172D01*
X306865Y1028352D01*
X305155Y1029339D01*
X303247Y1029850D01*
X301273D01*
X299365Y1029339D01*
X297655Y1028352D01*
X296259Y1026955D01*
X295271Y1025245D01*
X294760Y1023337D01*
Y1021363D01*
X295271Y1019455D01*
X296259Y1017745D01*
X297438Y1016566D01*
X297557Y1015365D01*
X297438Y1014164D01*
X296259Y1012985D01*
X295271Y1011275D01*
X294760Y1009367D01*
Y1007393D01*
X295271Y1005485D01*
X296259Y1003775D01*
X297438Y1002596D01*
X297557Y1001395D01*
X297438Y1000194D01*
X296259Y999015D01*
X295271Y997305D01*
X294760Y995397D01*
Y993423D01*
X295271Y991515D01*
X296259Y989805D01*
X297438Y988626D01*
X297557Y987425D01*
X297438Y986224D01*
X296259Y985045D01*
X295271Y983335D01*
X294760Y981427D01*
Y979453D01*
X295271Y977545D01*
X296259Y975835D01*
X297438Y974656D01*
X297557Y973455D01*
X297438Y972254D01*
X296259Y971075D01*
X295271Y969365D01*
X294760Y967457D01*
Y965483D01*
X295271Y963575D01*
X296259Y961865D01*
X297438Y960686D01*
X297557Y959485D01*
X297438Y958284D01*
X296259Y957105D01*
X295271Y955395D01*
X294760Y953487D01*
Y951513D01*
X295271Y949605D01*
X296259Y947895D01*
X297438Y946716D01*
X297557Y945515D01*
X297438Y944314D01*
X296259Y943135D01*
X295271Y941425D01*
X294760Y939517D01*
Y937543D01*
X295271Y935635D01*
X296259Y933925D01*
X297655Y932529D01*
X299365Y931541D01*
X301273Y931030D01*
X303247D01*
X305155Y931541D01*
X306865Y932529D01*
X308044Y933708D01*
X309245Y933827D01*
X310446Y933708D01*
X311625Y932529D01*
X313335Y931541D01*
X315243Y931030D01*
X317217D01*
X319125Y931541D01*
X320835Y932529D01*
X322014Y933708D01*
X323215Y933827D01*
X324416Y933708D01*
X325595Y932529D01*
X327305Y931541D01*
X329213Y931030D01*
X331187D01*
X333095Y931541D01*
X334805Y932529D01*
X336202Y933925D01*
X337189Y935635D01*
X337700Y937543D01*
Y939517D01*
X337189Y941425D01*
X336202Y943135D01*
X335022Y944314D01*
X334903Y945515D01*
X335022Y946716D01*
X336202Y947895D01*
X337189Y949605D01*
X337700Y951513D01*
Y953487D01*
X337189Y955395D01*
X336202Y957105D01*
X335022Y958284D01*
X334903Y959485D01*
X335022Y960686D01*
X336202Y961865D01*
X337189Y963575D01*
X337700Y965483D01*
Y967457D01*
X337189Y969365D01*
X336202Y971075D01*
X335022Y972254D01*
X334903Y973455D01*
X335022Y974656D01*
X336202Y975835D01*
X337189Y977545D01*
X337700Y979453D01*
Y981427D01*
X337189Y983335D01*
X336202Y985045D01*
X335022Y986224D01*
X334903Y987425D01*
X335022Y988626D01*
X336202Y989805D01*
X337189Y991515D01*
X337700Y993423D01*
Y995397D01*
X337189Y997305D01*
X336202Y999015D01*
X335022Y1000194D01*
X334903Y1001395D01*
X335022Y1002596D01*
X336202Y1003775D01*
X337189Y1005485D01*
X337700Y1007393D01*
Y1009367D01*
X337189Y1011275D01*
X336202Y1012985D01*
X335022Y1014164D01*
X334903Y1015365D01*
X335022Y1016566D01*
X336202Y1017745D01*
X337189Y1019455D01*
X337700Y1021363D01*
Y1023337D01*
X337189Y1025245D01*
X336202Y1026955D01*
X334805Y1028352D01*
X333095Y1029339D01*
X331187Y1029850D01*
D02*
G37*
G36*
X1437540Y1048730D02*
X1401270D01*
Y1012460D01*
X1402954D01*
X1408791Y1013384D01*
X1414410Y1015210D01*
X1419675Y1017893D01*
X1424456Y1021366D01*
X1428634Y1025544D01*
X1432107Y1030325D01*
X1434790Y1035590D01*
X1436616Y1041209D01*
X1437540Y1047046D01*
Y1048730D01*
D02*
G37*
G36*
X1398730D02*
X1362460D01*
Y1047046D01*
X1363384Y1041209D01*
X1365210Y1035590D01*
X1367893Y1030325D01*
X1371366Y1025544D01*
X1375544Y1021366D01*
X1380325Y1017893D01*
X1385590Y1015210D01*
X1391209Y1013384D01*
X1397045Y1012460D01*
X1398730D01*
Y1048730D01*
D02*
G37*
G36*
X1053817Y1006990D02*
X1051843D01*
X1049935Y1006479D01*
X1048225Y1005491D01*
X1047046Y1004312D01*
X1045845Y1004193D01*
X1044644Y1004312D01*
X1043465Y1005491D01*
X1041755Y1006479D01*
X1039847Y1006990D01*
X1037873D01*
X1035965Y1006479D01*
X1034255Y1005491D01*
X1033076Y1004312D01*
X1031875Y1004193D01*
X1030674Y1004312D01*
X1029495Y1005491D01*
X1027785Y1006479D01*
X1025877Y1006990D01*
X1023903D01*
X1021995Y1006479D01*
X1020285Y1005491D01*
X1018888Y1004095D01*
X1017901Y1002385D01*
X1017390Y1000477D01*
Y998503D01*
X1017901Y996595D01*
X1018888Y994885D01*
X1020068Y993706D01*
X1020187Y992505D01*
X1020068Y991304D01*
X1018888Y990125D01*
X1017901Y988415D01*
X1017390Y986507D01*
Y984533D01*
X1017901Y982625D01*
X1018888Y980915D01*
X1020068Y979736D01*
X1020187Y978535D01*
X1020068Y977334D01*
X1018888Y976155D01*
X1017901Y974445D01*
X1017390Y972537D01*
Y970563D01*
X1017901Y968655D01*
X1018888Y966945D01*
X1020068Y965766D01*
X1020187Y964565D01*
X1020068Y963364D01*
X1018888Y962185D01*
X1017901Y960475D01*
X1017390Y958567D01*
Y956593D01*
X1017901Y954685D01*
X1018888Y952975D01*
X1020285Y951579D01*
X1021995Y950591D01*
X1023903Y950080D01*
X1025877D01*
X1027785Y950591D01*
X1029495Y951579D01*
X1030674Y952758D01*
X1031875Y952877D01*
X1033076Y952758D01*
X1034255Y951579D01*
X1035965Y950591D01*
X1037873Y950080D01*
X1039847D01*
X1041755Y950591D01*
X1043465Y951579D01*
X1044644Y952758D01*
X1045845Y952877D01*
X1047046Y952758D01*
X1048225Y951579D01*
X1049935Y950591D01*
X1051843Y950080D01*
X1053817D01*
X1055725Y950591D01*
X1057435Y951579D01*
X1058831Y952975D01*
X1059819Y954685D01*
X1060330Y956593D01*
Y958567D01*
X1059819Y960475D01*
X1058831Y962185D01*
X1057652Y963364D01*
X1057533Y964565D01*
X1057652Y965766D01*
X1058831Y966945D01*
X1059819Y968655D01*
X1060330Y970563D01*
Y972537D01*
X1059819Y974445D01*
X1058831Y976155D01*
X1057652Y977334D01*
X1057533Y978535D01*
X1057652Y979736D01*
X1058831Y980915D01*
X1059819Y982625D01*
X1060330Y984533D01*
Y986507D01*
X1059819Y988415D01*
X1058831Y990125D01*
X1057652Y991304D01*
X1057533Y992505D01*
X1057652Y993706D01*
X1058831Y994885D01*
X1059819Y996595D01*
X1060330Y998503D01*
Y1000477D01*
X1059819Y1002385D01*
X1058831Y1004095D01*
X1057435Y1005491D01*
X1055725Y1006479D01*
X1053817Y1006990D01*
D02*
G37*
G36*
X885717Y990992D02*
X883529D01*
X881508Y990155D01*
X879961Y988607D01*
X879123Y986586D01*
Y984398D01*
X879961Y982377D01*
X881508Y980829D01*
X883529Y979992D01*
X885717D01*
X887739Y980829D01*
X889286Y982377D01*
X890123Y984398D01*
Y986586D01*
X889286Y988607D01*
X887739Y990155D01*
X885717Y990992D01*
D02*
G37*
G36*
X252224Y1008300D02*
X248776D01*
X245395Y1007627D01*
X242211Y1006308D01*
X239344Y1004393D01*
X236907Y1001956D01*
X234992Y999089D01*
X233673Y995905D01*
X233000Y992524D01*
Y989076D01*
X233673Y985695D01*
X234992Y982511D01*
X236907Y979644D01*
X239344Y977207D01*
X242211Y975292D01*
X245395Y973972D01*
X248776Y973300D01*
X252224D01*
X255605Y973972D01*
X258789Y975292D01*
X261656Y977207D01*
X264093Y979644D01*
X266008Y982511D01*
X267327Y985695D01*
X268000Y989076D01*
Y992524D01*
X267327Y995905D01*
X266008Y999089D01*
X264093Y1001956D01*
X261656Y1004393D01*
X258789Y1006308D01*
X255605Y1007627D01*
X252224Y1008300D01*
D02*
G37*
G36*
X150624D02*
X147176D01*
X143795Y1007627D01*
X140611Y1006308D01*
X137744Y1004393D01*
X135307Y1001956D01*
X133392Y999089D01*
X132072Y995905D01*
X131400Y992524D01*
Y989076D01*
X132072Y985695D01*
X133392Y982511D01*
X135307Y979644D01*
X137744Y977207D01*
X140611Y975292D01*
X143795Y973972D01*
X147176Y973300D01*
X150624D01*
X154005Y973972D01*
X157189Y975292D01*
X160056Y977207D01*
X162493Y979644D01*
X164408Y982511D01*
X165728Y985695D01*
X166400Y989076D01*
Y992524D01*
X165728Y995905D01*
X164408Y999089D01*
X162493Y1001956D01*
X160056Y1004393D01*
X157189Y1006308D01*
X154005Y1007627D01*
X150624Y1008300D01*
D02*
G37*
G36*
X833976Y967890D02*
X832264D01*
X830611Y967447D01*
X829129Y966591D01*
X827919Y965381D01*
X827063Y963899D01*
X826620Y962246D01*
Y960534D01*
X827063Y958881D01*
X827919Y957399D01*
X829129Y956189D01*
X830611Y955333D01*
X832264Y954890D01*
X833976D01*
X835629Y955333D01*
X837111Y956189D01*
X838321Y957399D01*
X839177Y958881D01*
X839620Y960534D01*
Y962246D01*
X839177Y963899D01*
X838321Y965381D01*
X837111Y966591D01*
X835629Y967447D01*
X833976Y967890D01*
D02*
G37*
G36*
X504520Y1051089D02*
X416890D01*
X415915Y1050895D01*
X415088Y1050342D01*
X414535Y1049516D01*
X414341Y1048540D01*
Y945670D01*
X414535Y944695D01*
X415088Y943868D01*
X415915Y943315D01*
X416890Y943121D01*
X504520D01*
X505495Y943315D01*
X506322Y943868D01*
X506875Y944695D01*
X507069Y945670D01*
Y1048540D01*
X506875Y1049516D01*
X506322Y1050342D01*
X505495Y1050895D01*
X504520Y1051089D01*
D02*
G37*
G36*
X892234Y938550D02*
X890046D01*
X888025Y937713D01*
X886477Y936165D01*
X885640Y934144D01*
Y931956D01*
X886477Y929934D01*
X888025Y928387D01*
X890046Y927550D01*
X892234D01*
X894256Y928387D01*
X895803Y929934D01*
X896640Y931956D01*
Y934144D01*
X895803Y936165D01*
X894256Y937713D01*
X892234Y938550D01*
D02*
G37*
G36*
X830166Y932330D02*
X828454D01*
X826801Y931887D01*
X825319Y931031D01*
X824109Y929821D01*
X823253Y928339D01*
X822810Y926686D01*
Y924974D01*
X823253Y923321D01*
X824109Y921839D01*
X825319Y920629D01*
X826801Y919773D01*
X828454Y919330D01*
X830166D01*
X831819Y919773D01*
X833301Y920629D01*
X834511Y921839D01*
X835367Y923321D01*
X835810Y924974D01*
Y926686D01*
X835367Y928339D01*
X834511Y929821D01*
X833301Y931031D01*
X831819Y931887D01*
X830166Y932330D01*
D02*
G37*
G36*
X1188720Y1010929D02*
X1085850D01*
X1084875Y1010735D01*
X1084048Y1010182D01*
X1083495Y1009355D01*
X1083301Y1008380D01*
Y920750D01*
X1083495Y919775D01*
X1084048Y918948D01*
X1084875Y918395D01*
X1085850Y918201D01*
X1188720D01*
X1189695Y918395D01*
X1190522Y918948D01*
X1191075Y919775D01*
X1191269Y920750D01*
Y1008380D01*
X1191075Y1009355D01*
X1190522Y1010182D01*
X1189695Y1010735D01*
X1188720Y1010929D01*
D02*
G37*
G36*
X748001Y930675D02*
X746289D01*
X744636Y930232D01*
X743154Y929376D01*
X741944Y928166D01*
X741088Y926684D01*
X740645Y925031D01*
Y923319D01*
X741088Y921666D01*
X741944Y920184D01*
X743154Y918974D01*
X744636Y918118D01*
X746289Y917675D01*
X748001D01*
X749654Y918118D01*
X751136Y918974D01*
X752346Y920184D01*
X753202Y921666D01*
X753645Y923319D01*
Y925031D01*
X753202Y926684D01*
X752346Y928166D01*
X751136Y929376D01*
X749654Y930232D01*
X748001Y930675D01*
D02*
G37*
G36*
X934544Y927520D02*
X932356D01*
X930334Y926683D01*
X928787Y925135D01*
X927950Y923114D01*
Y920926D01*
X928787Y918904D01*
X930334Y917357D01*
X932356Y916520D01*
X934544D01*
X936565Y917357D01*
X938113Y918904D01*
X938950Y920926D01*
Y923114D01*
X938113Y925135D01*
X936565Y926683D01*
X934544Y927520D01*
D02*
G37*
G36*
X1363276Y926270D02*
X1361564D01*
X1359911Y925827D01*
X1358429Y924971D01*
X1357219Y923761D01*
X1356363Y922279D01*
X1355920Y920626D01*
Y918914D01*
X1356363Y917261D01*
X1357219Y915779D01*
X1358429Y914569D01*
X1359911Y913713D01*
X1361564Y913270D01*
X1363276D01*
X1364929Y913713D01*
X1366411Y914569D01*
X1367621Y915779D01*
X1368477Y917261D01*
X1368920Y918914D01*
Y920626D01*
X1368477Y922279D01*
X1367621Y923761D01*
X1366411Y924971D01*
X1364929Y925827D01*
X1363276Y926270D01*
D02*
G37*
G36*
X829766Y913680D02*
X828054D01*
X826401Y913237D01*
X824919Y912381D01*
X823709Y911171D01*
X822853Y909689D01*
X822410Y908036D01*
Y906324D01*
X822853Y904671D01*
X823709Y903189D01*
X824919Y901979D01*
X826401Y901123D01*
X828054Y900680D01*
X829766D01*
X831419Y901123D01*
X832901Y901979D01*
X834111Y903189D01*
X834967Y904671D01*
X835410Y906324D01*
Y908036D01*
X834967Y909689D01*
X834111Y911171D01*
X832901Y912381D01*
X831419Y913237D01*
X829766Y913680D01*
D02*
G37*
G36*
X803334Y911410D02*
X801146D01*
X799125Y910573D01*
X797577Y909025D01*
X796740Y907004D01*
Y904816D01*
X797577Y902794D01*
X799125Y901247D01*
X801146Y900410D01*
X803334D01*
X805356Y901247D01*
X806903Y902794D01*
X807740Y904816D01*
Y907004D01*
X806903Y909025D01*
X805356Y910573D01*
X803334Y911410D01*
D02*
G37*
G36*
X503376Y912410D02*
X501664D01*
X500011Y911967D01*
X498529Y911111D01*
X497319Y909901D01*
X496463Y908419D01*
X496020Y906766D01*
Y905054D01*
X496463Y903401D01*
X497319Y901919D01*
X498529Y900709D01*
X500011Y899853D01*
X501664Y899410D01*
X503376D01*
X505029Y899853D01*
X506511Y900709D01*
X507721Y901919D01*
X508577Y903401D01*
X509020Y905054D01*
Y906766D01*
X508577Y908419D01*
X507721Y909901D01*
X506511Y911111D01*
X505029Y911967D01*
X503376Y912410D01*
D02*
G37*
G36*
X953541Y908598D02*
X951353D01*
X949332Y907761D01*
X947784Y906214D01*
X946947Y904193D01*
Y902004D01*
X947784Y899983D01*
X949332Y898436D01*
X951353Y897598D01*
X953541D01*
X955563Y898436D01*
X957110Y899983D01*
X957947Y902004D01*
Y904193D01*
X957110Y906214D01*
X955563Y907761D01*
X953541Y908598D01*
D02*
G37*
G36*
X579856Y907050D02*
X578144D01*
X576491Y906607D01*
X575009Y905751D01*
X573799Y904541D01*
X572943Y903059D01*
X572500Y901406D01*
Y899694D01*
X572943Y898041D01*
X573799Y896559D01*
X575009Y895349D01*
X576491Y894493D01*
X578144Y894050D01*
X579856D01*
X581509Y894493D01*
X582991Y895349D01*
X584201Y896559D01*
X585057Y898041D01*
X585500Y899694D01*
Y901406D01*
X585057Y903059D01*
X584201Y904541D01*
X582991Y905751D01*
X581509Y906607D01*
X579856Y907050D01*
D02*
G37*
G36*
X724756Y899310D02*
X723044D01*
X721391Y898867D01*
X719909Y898011D01*
X718699Y896801D01*
X717843Y895319D01*
X717400Y893666D01*
Y891954D01*
X717843Y890301D01*
X718699Y888819D01*
X719909Y887609D01*
X721391Y886753D01*
X723044Y886310D01*
X724756D01*
X726409Y886753D01*
X727891Y887609D01*
X729101Y888819D01*
X729957Y890301D01*
X730400Y891954D01*
Y893666D01*
X729957Y895319D01*
X729101Y896801D01*
X727891Y898011D01*
X726409Y898867D01*
X724756Y899310D01*
D02*
G37*
G36*
X1001616Y892960D02*
X999904D01*
X998251Y892517D01*
X996769Y891661D01*
X995559Y890451D01*
X994703Y888969D01*
X994260Y887316D01*
Y885604D01*
X994703Y883951D01*
X995559Y882469D01*
X996769Y881259D01*
X998251Y880403D01*
X999904Y879960D01*
X1001616D01*
X1003269Y880403D01*
X1004751Y881259D01*
X1005961Y882469D01*
X1006817Y883951D01*
X1007260Y885604D01*
Y887316D01*
X1006817Y888969D01*
X1005961Y890451D01*
X1004751Y891661D01*
X1003269Y892517D01*
X1001616Y892960D01*
D02*
G37*
G36*
X352954Y907540D02*
X351270D01*
Y871270D01*
X387540D01*
Y872954D01*
X386616Y878791D01*
X384790Y884410D01*
X382107Y889675D01*
X378634Y894456D01*
X374456Y898634D01*
X369675Y902107D01*
X364410Y904790D01*
X358791Y906616D01*
X352954Y907540D01*
D02*
G37*
G36*
X348730D02*
X347046D01*
X341209Y906616D01*
X335590Y904790D01*
X330325Y902107D01*
X325544Y898634D01*
X321366Y894456D01*
X317893Y889675D01*
X315210Y884410D01*
X313384Y878791D01*
X312460Y872954D01*
Y871270D01*
X348730D01*
Y907540D01*
D02*
G37*
G36*
X1181037Y860940D02*
X1179063D01*
X1177155Y860429D01*
X1175445Y859442D01*
X1174266Y858262D01*
X1173065Y858143D01*
X1171864Y858262D01*
X1170685Y859442D01*
X1168975Y860429D01*
X1167067Y860940D01*
X1165093D01*
X1163185Y860429D01*
X1161475Y859442D01*
X1160296Y858262D01*
X1159095Y858143D01*
X1157894Y858262D01*
X1156715Y859442D01*
X1155005Y860429D01*
X1153097Y860940D01*
X1151123D01*
X1149215Y860429D01*
X1147505Y859442D01*
X1146326Y858262D01*
X1145125Y858143D01*
X1143924Y858262D01*
X1142745Y859442D01*
X1141035Y860429D01*
X1139127Y860940D01*
X1137153D01*
X1135245Y860429D01*
X1133535Y859442D01*
X1132356Y858262D01*
X1131155Y858143D01*
X1129954Y858262D01*
X1128775Y859442D01*
X1127065Y860429D01*
X1125157Y860940D01*
X1123183D01*
X1121275Y860429D01*
X1119565Y859442D01*
X1118386Y858262D01*
X1117185Y858143D01*
X1115984Y858262D01*
X1114805Y859442D01*
X1113095Y860429D01*
X1111187Y860940D01*
X1109213D01*
X1107305Y860429D01*
X1105595Y859442D01*
X1104199Y858045D01*
X1103211Y856335D01*
X1102700Y854427D01*
Y852453D01*
X1103211Y850545D01*
X1104199Y848835D01*
X1105595Y847439D01*
X1107305Y846451D01*
X1109213Y845940D01*
X1111187D01*
X1113095Y846451D01*
X1114805Y847439D01*
X1115984Y848618D01*
X1117185Y848737D01*
X1118386Y848618D01*
X1119565Y847439D01*
X1121275Y846451D01*
X1123183Y845940D01*
X1125157D01*
X1127065Y846451D01*
X1128775Y847439D01*
X1129954Y848618D01*
X1131155Y848737D01*
X1132356Y848618D01*
X1133535Y847439D01*
X1135245Y846451D01*
X1137153Y845940D01*
X1139127D01*
X1141035Y846451D01*
X1142745Y847439D01*
X1143924Y848618D01*
X1145125Y848737D01*
X1146326Y848618D01*
X1147505Y847439D01*
X1149215Y846451D01*
X1151123Y845940D01*
X1153097D01*
X1155005Y846451D01*
X1156715Y847439D01*
X1157894Y848618D01*
X1159095Y848737D01*
X1160296Y848618D01*
X1161475Y847439D01*
X1163185Y846451D01*
X1165093Y845940D01*
X1167067D01*
X1168975Y846451D01*
X1170685Y847439D01*
X1171864Y848618D01*
X1173065Y848737D01*
X1174266Y848618D01*
X1175445Y847439D01*
X1177155Y846451D01*
X1179063Y845940D01*
X1181037D01*
X1182945Y846451D01*
X1184655Y847439D01*
X1186051Y848835D01*
X1187039Y850545D01*
X1187550Y852453D01*
Y854427D01*
X1187039Y856335D01*
X1186051Y858045D01*
X1184655Y859442D01*
X1182945Y860429D01*
X1181037Y860940D01*
D02*
G37*
G36*
X460727Y857130D02*
X458753D01*
X456845Y856619D01*
X455135Y855631D01*
X453956Y854452D01*
X452755Y854333D01*
X451554Y854452D01*
X450375Y855631D01*
X448665Y856619D01*
X446757Y857130D01*
X444783D01*
X442875Y856619D01*
X441165Y855631D01*
X439986Y854452D01*
X438785Y854333D01*
X437584Y854452D01*
X436405Y855631D01*
X434695Y856619D01*
X432787Y857130D01*
X430813D01*
X428905Y856619D01*
X427195Y855631D01*
X425798Y854235D01*
X424811Y852525D01*
X424300Y850617D01*
Y848643D01*
X424811Y846735D01*
X425798Y845025D01*
X426978Y843846D01*
X427097Y842645D01*
X426978Y841444D01*
X425798Y840265D01*
X424811Y838555D01*
X424300Y836647D01*
Y834673D01*
X424811Y832765D01*
X425798Y831055D01*
X426978Y829876D01*
X427097Y828675D01*
X426978Y827474D01*
X425798Y826295D01*
X424811Y824585D01*
X424300Y822677D01*
Y820703D01*
X424811Y818795D01*
X425798Y817085D01*
X427195Y815688D01*
X428905Y814701D01*
X430813Y814190D01*
X432787D01*
X434695Y814701D01*
X436405Y815688D01*
X437584Y816868D01*
X438785Y816987D01*
X439986Y816868D01*
X441165Y815688D01*
X442875Y814701D01*
X444783Y814190D01*
X446757D01*
X448665Y814701D01*
X450375Y815688D01*
X451554Y816868D01*
X452755Y816987D01*
X453956Y816868D01*
X455135Y815688D01*
X456845Y814701D01*
X458753Y814190D01*
X460727D01*
X462635Y814701D01*
X464345Y815688D01*
X465742Y817085D01*
X466729Y818795D01*
X467240Y820703D01*
Y822677D01*
X466729Y824585D01*
X465742Y826295D01*
X464562Y827474D01*
X464443Y828675D01*
X464562Y829876D01*
X465742Y831055D01*
X466729Y832765D01*
X467240Y834673D01*
Y836647D01*
X466729Y838555D01*
X465742Y840265D01*
X464562Y841444D01*
X464443Y842645D01*
X464562Y843846D01*
X465742Y845025D01*
X466729Y846735D01*
X467240Y848643D01*
Y850617D01*
X466729Y852525D01*
X465742Y854235D01*
X464345Y855631D01*
X462635Y856619D01*
X460727Y857130D01*
D02*
G37*
G36*
X387540Y868730D02*
X351270D01*
Y832460D01*
X352954D01*
X358791Y833384D01*
X364410Y835210D01*
X369675Y837893D01*
X374456Y841366D01*
X378634Y845544D01*
X382107Y850325D01*
X384790Y855590D01*
X386616Y861209D01*
X387540Y867046D01*
Y868730D01*
D02*
G37*
G36*
X348730D02*
X312460D01*
Y867046D01*
X313384Y861209D01*
X315210Y855590D01*
X317893Y850325D01*
X321366Y845544D01*
X325544Y841366D01*
X330325Y837893D01*
X335590Y835210D01*
X341209Y833384D01*
X347046Y832460D01*
X348730D01*
Y868730D01*
D02*
G37*
G36*
X1052720Y757540D02*
Y750520D01*
X1062490D01*
Y757540D01*
X1052720D01*
D02*
G37*
G36*
X1027320Y757040D02*
X1017050D01*
Y749270D01*
X1027320D01*
Y757040D01*
D02*
G37*
G36*
X1014350Y758000D02*
X1003580D01*
Y749230D01*
X1014350D01*
Y758000D01*
D02*
G37*
G36*
X985140D02*
X974370D01*
Y749230D01*
X985140D01*
Y758000D01*
D02*
G37*
G36*
X971830D02*
X961060D01*
Y749230D01*
X971830D01*
Y758000D01*
D02*
G37*
G36*
X1001040D02*
X990270D01*
Y749230D01*
X1001040D01*
Y758000D01*
D02*
G37*
G36*
X1062490Y747980D02*
X1052720D01*
Y740960D01*
X1062490D01*
Y747980D01*
D02*
G37*
G36*
X1040410Y757540D02*
X1038617Y757040D01*
X1029860D01*
Y748000D01*
Y738960D01*
X1040130D01*
Y739076D01*
X1040410Y740960D01*
X1042130Y740960D01*
X1050180D01*
Y749250D01*
Y757540D01*
X1040911Y757540D01*
X1040410D01*
D02*
G37*
G36*
X1027320Y746730D02*
X1017050D01*
Y738960D01*
X1027320D01*
Y746730D01*
D02*
G37*
G36*
X1014350Y746690D02*
X1003580D01*
Y737920D01*
X1014350D01*
Y746690D01*
D02*
G37*
G36*
X1001040D02*
X990270D01*
Y737920D01*
X1001040D01*
Y746690D01*
D02*
G37*
G36*
X985140D02*
X974370D01*
Y737920D01*
X985140D01*
Y746690D01*
D02*
G37*
G36*
X971830D02*
X961060D01*
Y737920D01*
X971830D01*
Y746690D01*
D02*
G37*
G36*
X880345Y743510D02*
X877335D01*
X874428Y742731D01*
X873319Y742091D01*
X878840Y736570D01*
X884361Y742091D01*
X883252Y742731D01*
X880345Y743510D01*
D02*
G37*
G36*
X583040Y739760D02*
X573270D01*
Y732740D01*
X583040D01*
Y739760D01*
D02*
G37*
G36*
X609710Y737990D02*
Y730220D01*
X619980D01*
Y737990D01*
X609710D01*
D02*
G37*
G36*
X680170D02*
X669400D01*
Y729220D01*
X680170D01*
Y737990D01*
D02*
G37*
G36*
X648420D02*
X637650D01*
Y729220D01*
X648420D01*
Y737990D01*
D02*
G37*
G36*
X666860D02*
X656090D01*
Y729220D01*
X666860D01*
Y737990D01*
D02*
G37*
G36*
X635110D02*
X624340D01*
Y729220D01*
X635110D01*
Y737990D01*
D02*
G37*
G36*
X868829Y737601D02*
X868189Y736492D01*
X867410Y733585D01*
Y730575D01*
X868189Y727668D01*
X868829Y726559D01*
X874350Y732080D01*
X868829Y737601D01*
D02*
G37*
G36*
X888851Y737601D02*
X883330Y732080D01*
X888851Y726559D01*
X889491Y727668D01*
X890270Y730575D01*
Y733585D01*
X889491Y736492D01*
X888851Y737601D01*
D02*
G37*
G36*
X733025Y732790D02*
X730015D01*
X727108Y732011D01*
X725999Y731371D01*
X731520Y725850D01*
X737041Y731371D01*
X735932Y732011D01*
X733025Y732790D01*
D02*
G37*
G36*
X1237836Y913280D02*
X1236124D01*
X1234471Y912837D01*
X1232989Y911981D01*
X1231779Y910771D01*
X1231040Y909491D01*
X1217414Y895866D01*
X1216088Y893881D01*
X1215622Y891540D01*
Y732533D01*
X1215240Y731106D01*
Y729394D01*
X1215683Y727741D01*
X1216539Y726259D01*
X1217749Y725049D01*
X1219231Y724193D01*
X1220884Y723750D01*
X1222596D01*
X1224249Y724193D01*
X1225731Y725049D01*
X1226941Y726259D01*
X1227797Y727741D01*
X1228240Y729394D01*
Y731106D01*
X1227858Y732533D01*
Y889006D01*
X1239691Y900840D01*
X1240971Y901579D01*
X1242181Y902789D01*
X1243037Y904271D01*
X1243480Y905924D01*
Y907636D01*
X1243037Y909289D01*
X1242181Y910771D01*
X1240971Y911981D01*
X1239489Y912837D01*
X1237836Y913280D01*
D02*
G37*
G36*
X583040Y730200D02*
X573270D01*
Y723180D01*
X583040D01*
Y730200D01*
D02*
G37*
G36*
X878840Y727590D02*
X873319Y722069D01*
X874428Y721429D01*
X877335Y720650D01*
X880345D01*
X883252Y721429D01*
X884361Y722069D01*
X878840Y727590D01*
D02*
G37*
G36*
X619980Y727680D02*
X609710D01*
Y719910D01*
X619980D01*
Y727680D01*
D02*
G37*
G36*
X595350Y739760D02*
X585580D01*
Y731470D01*
Y723180D01*
X594900D01*
X595350Y723180D01*
X596900Y722094D01*
Y719910D01*
X607170D01*
Y728950D01*
Y737990D01*
X597350D01*
X596900Y737990D01*
X595350Y739076D01*
Y739760D01*
D02*
G37*
G36*
X680170Y726680D02*
X669400D01*
Y717910D01*
X680170D01*
Y726680D01*
D02*
G37*
G36*
X666860D02*
X656090D01*
Y717910D01*
X666860D01*
Y726680D01*
D02*
G37*
G36*
X648420D02*
X637650D01*
Y717910D01*
X648420D01*
Y726680D01*
D02*
G37*
G36*
X635110D02*
X624340D01*
Y717910D01*
X635110D01*
Y726680D01*
D02*
G37*
G36*
X741531Y726881D02*
X736010Y721360D01*
X741531Y715839D01*
X742171Y716948D01*
X742950Y719855D01*
Y722865D01*
X742171Y725772D01*
X741531Y726881D01*
D02*
G37*
G36*
X721509D02*
X720869Y725772D01*
X720090Y722865D01*
Y719855D01*
X720869Y716948D01*
X721509Y715839D01*
X727030Y721360D01*
X721509Y726881D01*
D02*
G37*
G36*
X731520Y716870D02*
X725999Y711349D01*
X727108Y710709D01*
X730015Y709930D01*
X733025D01*
X735932Y710709D01*
X737041Y711349D01*
X731520Y716870D01*
D02*
G37*
G36*
X1322210Y853768D02*
X1277210D01*
X1271718Y853336D01*
X1266361Y852050D01*
X1261271Y849942D01*
X1256574Y847063D01*
X1252385Y843485D01*
X1248807Y839296D01*
X1245928Y834599D01*
X1243820Y829509D01*
X1242534Y824152D01*
X1242102Y818660D01*
X1242534Y813168D01*
X1243820Y807811D01*
X1245928Y802721D01*
X1248807Y798024D01*
X1252385Y793835D01*
X1256574Y790257D01*
X1261271Y787378D01*
X1266304Y785294D01*
X1266360Y785148D01*
X1266347Y783217D01*
X1264208Y782568D01*
X1260299Y780479D01*
X1256873Y777667D01*
X1254061Y774241D01*
X1251972Y770332D01*
X1250686Y766091D01*
X1250251Y761680D01*
Y721680D01*
X1250686Y717269D01*
X1251972Y713028D01*
X1254061Y709119D01*
X1256873Y705693D01*
X1260299Y702881D01*
X1264208Y700792D01*
X1268449Y699506D01*
X1272860Y699071D01*
X1312860D01*
X1317271Y699506D01*
X1321512Y700792D01*
X1325421Y702881D01*
X1328847Y705693D01*
X1331659Y709119D01*
X1333748Y713028D01*
X1335034Y717269D01*
X1335469Y721680D01*
Y761680D01*
X1335034Y766091D01*
X1333748Y770332D01*
X1331659Y774241D01*
X1328847Y777667D01*
X1325421Y780479D01*
X1323269Y781629D01*
X1323695Y783669D01*
X1327702Y783984D01*
X1333059Y785270D01*
X1338149Y787378D01*
X1342846Y790257D01*
X1347035Y793835D01*
X1350613Y798024D01*
X1353492Y802721D01*
X1355600Y807811D01*
X1356886Y813168D01*
X1357318Y818660D01*
X1356886Y824152D01*
X1355600Y829509D01*
X1353492Y834599D01*
X1350613Y839296D01*
X1347035Y843485D01*
X1342846Y847063D01*
X1338149Y849942D01*
X1333059Y852050D01*
X1327702Y853336D01*
X1322210Y853768D01*
D02*
G37*
G36*
X1189990Y839877D02*
X1087120D01*
X1086144Y839683D01*
X1085318Y839131D01*
X1084765Y838304D01*
X1084571Y837328D01*
Y749698D01*
X1084765Y748723D01*
X1085318Y747896D01*
X1086144Y747343D01*
X1087120Y747149D01*
X1148172D01*
Y729240D01*
X1147780D01*
Y698240D01*
X1173780D01*
Y729240D01*
X1173388D01*
Y747149D01*
X1189990D01*
X1190965Y747343D01*
X1191792Y747896D01*
X1192345Y748723D01*
X1192539Y749698D01*
Y837328D01*
X1192345Y838304D01*
X1191792Y839131D01*
X1190965Y839683D01*
X1189990Y839877D01*
D02*
G37*
G36*
X1155570Y695070D02*
X1148300D01*
Y685800D01*
X1155570D01*
Y695070D01*
D02*
G37*
G36*
X1145760D02*
X1138490D01*
Y685800D01*
X1145760D01*
Y695070D01*
D02*
G37*
G36*
X1124780Y729240D02*
X1098780D01*
Y698240D01*
X1103465D01*
Y695030D01*
X1102530D01*
Y674030D01*
X1119530D01*
Y695030D01*
X1118595D01*
Y698240D01*
X1124780D01*
Y729240D01*
D02*
G37*
G36*
X1155570Y683260D02*
X1148300D01*
Y673990D01*
X1155570D01*
Y683260D01*
D02*
G37*
G36*
X1145760D02*
X1138490D01*
Y673990D01*
X1145760D01*
Y683260D01*
D02*
G37*
G36*
X851135Y679920D02*
X848125D01*
X845218Y679141D01*
X844109Y678501D01*
X849630Y672980D01*
X855151Y678501D01*
X854042Y679141D01*
X851135Y679920D01*
D02*
G37*
G36*
X350030Y778468D02*
X344538Y778036D01*
X339181Y776750D01*
X334091Y774642D01*
X329394Y771763D01*
X325205Y768185D01*
X321627Y763996D01*
X318748Y759299D01*
X316640Y754209D01*
X315354Y748852D01*
X314922Y743360D01*
Y698360D01*
X315354Y692868D01*
X316640Y687511D01*
X318748Y682421D01*
X321627Y677724D01*
X325205Y673535D01*
X329394Y669957D01*
X334091Y667078D01*
X339181Y664970D01*
X344538Y663684D01*
X350030Y663252D01*
X355522Y663684D01*
X360879Y664970D01*
X365969Y667078D01*
X370666Y669957D01*
X374855Y673535D01*
X378433Y677724D01*
X381312Y682421D01*
X383420Y687511D01*
X384706Y692868D01*
X385138Y698360D01*
Y743360D01*
X384706Y748852D01*
X383420Y754209D01*
X381312Y759299D01*
X378433Y763996D01*
X374855Y768185D01*
X370666Y771763D01*
X365969Y774642D01*
X360879Y776750D01*
X355522Y778036D01*
X350030Y778468D01*
D02*
G37*
G36*
X839619Y674011D02*
X838979Y672902D01*
X838200Y669995D01*
Y666985D01*
X838979Y664078D01*
X839619Y662969D01*
X845140Y668490D01*
X839619Y674011D01*
D02*
G37*
G36*
X859641Y674011D02*
X854120Y668490D01*
X859641Y662969D01*
X860281Y664078D01*
X861060Y666985D01*
Y669995D01*
X860281Y672902D01*
X859641Y674011D01*
D02*
G37*
G36*
X849630Y664000D02*
X844109Y658479D01*
X845218Y657839D01*
X848125Y657060D01*
X851135D01*
X854042Y657839D01*
X855151Y658479D01*
X849630Y664000D01*
D02*
G37*
G36*
X986010Y659150D02*
X975240D01*
Y650380D01*
X986010D01*
Y659150D01*
D02*
G37*
G36*
X972700D02*
X961930D01*
Y650380D01*
X972700D01*
Y659150D01*
D02*
G37*
G36*
X956800D02*
X946030D01*
Y650380D01*
X956800D01*
Y659150D01*
D02*
G37*
G36*
X943490D02*
X932720D01*
Y650380D01*
X943490D01*
Y659150D01*
D02*
G37*
G36*
X999370Y657730D02*
X989100D01*
Y649960D01*
X999370D01*
Y657730D01*
D02*
G37*
G36*
X1024770Y656040D02*
Y649020D01*
X1034540D01*
Y656040D01*
X1024770D01*
D02*
G37*
G36*
X999370Y647420D02*
X989100D01*
Y639650D01*
X999370D01*
Y647420D01*
D02*
G37*
G36*
X1034540Y646480D02*
X1024770D01*
Y639460D01*
X1034540D01*
Y646480D01*
D02*
G37*
G36*
X1012180Y657730D02*
X1011712Y657730D01*
X1011712Y657730D01*
X1001910D01*
Y648690D01*
Y639650D01*
X1010539D01*
X1012460Y639460D01*
X1014101Y639460D01*
X1022230D01*
Y647750D01*
Y656040D01*
X1012928Y656040D01*
X1012831Y656260D01*
X1012180Y657730D01*
D02*
G37*
G36*
X986010Y647840D02*
X975240D01*
Y639070D01*
X986010D01*
Y647840D01*
D02*
G37*
G36*
X972700D02*
X961930D01*
Y639070D01*
X972700D01*
Y647840D01*
D02*
G37*
G36*
X956800D02*
X946030D01*
Y639070D01*
X956800D01*
Y647840D01*
D02*
G37*
G36*
X943490D02*
X932720D01*
Y639070D01*
X943490D01*
Y647840D01*
D02*
G37*
G36*
X1155570Y645540D02*
X1148300D01*
Y636270D01*
X1155570D01*
Y645540D01*
D02*
G37*
G36*
X1145760D02*
X1138490D01*
Y636270D01*
X1145760D01*
Y645540D01*
D02*
G37*
G36*
X1119530Y645500D02*
X1102530D01*
Y624500D01*
X1102530D01*
X1102385Y622560D01*
X1098780D01*
Y591560D01*
X1124780D01*
Y622560D01*
X1119675D01*
X1119530Y624500D01*
X1119530D01*
Y645500D01*
D02*
G37*
G36*
X760965Y579590D02*
X757955D01*
X755048Y578811D01*
X753939Y578171D01*
X759460Y572650D01*
X764981Y578171D01*
X763872Y578811D01*
X760965Y579590D01*
D02*
G37*
G36*
X1332860Y654289D02*
X1292860D01*
X1288449Y653854D01*
X1284208Y652568D01*
X1280299Y650479D01*
X1276873Y647667D01*
X1274061Y644241D01*
X1271972Y640332D01*
X1270686Y636091D01*
X1270251Y631680D01*
Y591680D01*
X1270686Y587269D01*
X1271972Y583028D01*
X1274061Y579119D01*
X1276873Y575693D01*
X1280299Y572881D01*
X1284208Y570792D01*
X1288449Y569506D01*
X1292860Y569071D01*
X1332860D01*
X1337271Y569506D01*
X1341512Y570792D01*
X1345421Y572881D01*
X1348847Y575693D01*
X1351659Y579119D01*
X1353748Y583028D01*
X1355034Y587269D01*
X1355469Y591680D01*
Y631680D01*
X1355034Y636091D01*
X1353748Y640332D01*
X1351659Y644241D01*
X1348847Y647667D01*
X1345421Y650479D01*
X1341512Y652568D01*
X1337271Y653854D01*
X1332860Y654289D01*
D02*
G37*
G36*
X1448210Y633768D02*
X1403210D01*
X1397718Y633336D01*
X1392361Y632050D01*
X1387271Y629942D01*
X1382574Y627063D01*
X1378385Y623485D01*
X1374807Y619296D01*
X1371928Y614599D01*
X1369820Y609509D01*
X1368534Y604152D01*
X1368102Y598660D01*
X1368534Y593168D01*
X1369820Y587811D01*
X1371928Y582721D01*
X1374807Y578024D01*
X1378385Y573835D01*
X1382574Y570257D01*
X1387271Y567378D01*
X1392361Y565270D01*
X1397718Y563984D01*
X1403210Y563552D01*
X1448210D01*
X1453702Y563984D01*
X1459059Y565270D01*
X1464149Y567378D01*
X1468846Y570257D01*
X1473035Y573835D01*
X1476613Y578024D01*
X1479492Y582721D01*
X1481600Y587811D01*
X1482886Y593168D01*
X1483318Y598660D01*
X1482886Y604152D01*
X1481600Y609509D01*
X1479492Y614599D01*
X1476613Y619296D01*
X1473035Y623485D01*
X1468846Y627063D01*
X1464149Y629942D01*
X1459059Y632050D01*
X1453702Y633336D01*
X1448210Y633768D01*
D02*
G37*
G36*
X749449Y573681D02*
X748809Y572572D01*
X748030Y569665D01*
Y566655D01*
X748809Y563748D01*
X749449Y562639D01*
X754970Y568160D01*
X749449Y573681D01*
D02*
G37*
G36*
X769471Y573681D02*
X763950Y568160D01*
X769471Y562639D01*
X770111Y563748D01*
X770890Y566655D01*
Y569665D01*
X770111Y572572D01*
X769471Y573681D01*
D02*
G37*
G36*
X759460Y563670D02*
X753939Y558149D01*
X755048Y557509D01*
X757955Y556730D01*
X760965D01*
X763872Y557509D01*
X764981Y558149D01*
X759460Y563670D01*
D02*
G37*
G36*
X516890Y662949D02*
X410614D01*
X409639Y662755D01*
X408812Y662202D01*
X395350Y648740D01*
X369310D01*
Y622740D01*
X396005D01*
X416551Y602194D01*
X416551Y557530D01*
X416745Y556555D01*
X417298Y555728D01*
X422378Y550648D01*
X423204Y550095D01*
X424180Y549901D01*
X514350D01*
X515325Y550095D01*
X516152Y550648D01*
X521232Y555728D01*
X521785Y556554D01*
X521979Y557530D01*
Y657860D01*
X521785Y658835D01*
X521232Y659662D01*
X518692Y662202D01*
X517865Y662755D01*
X516890Y662949D01*
D02*
G37*
G36*
X400310Y599740D02*
X369310D01*
Y573740D01*
X372202D01*
Y555210D01*
X372632Y551947D01*
X373891Y548906D01*
X374310Y548360D01*
Y546710D01*
X375576D01*
X375895Y546295D01*
X378506Y544291D01*
X381547Y543032D01*
X384810Y542602D01*
X388073Y543032D01*
X391114Y544291D01*
X393725Y546295D01*
X394044Y546710D01*
X395310D01*
Y548360D01*
X395729Y548906D01*
X396988Y551947D01*
X397418Y555210D01*
Y573740D01*
X400310D01*
Y599740D01*
D02*
G37*
G36*
X130030Y652468D02*
X124538Y652036D01*
X119181Y650750D01*
X114091Y648642D01*
X109394Y645763D01*
X105205Y642185D01*
X101627Y637996D01*
X98748Y633299D01*
X96640Y628209D01*
X95354Y622852D01*
X94922Y617360D01*
Y572360D01*
X95354Y566868D01*
X96640Y561511D01*
X98748Y556421D01*
X101627Y551724D01*
X105205Y547535D01*
X109394Y543957D01*
X114091Y541078D01*
X119181Y538970D01*
X124538Y537684D01*
X130030Y537252D01*
X135522Y537684D01*
X140879Y538970D01*
X145969Y541078D01*
X150666Y543957D01*
X154855Y547535D01*
X158433Y551724D01*
X161312Y556421D01*
X163420Y561511D01*
X164706Y566868D01*
X165138Y572360D01*
Y617360D01*
X164706Y622852D01*
X163420Y628209D01*
X161312Y633299D01*
X158433Y637996D01*
X154855Y642185D01*
X150666Y645763D01*
X145969Y648642D01*
X140879Y650750D01*
X135522Y652036D01*
X130030Y652468D01*
D02*
G37*
G36*
X395350Y527750D02*
X386080D01*
Y520480D01*
X395350D01*
Y527750D01*
D02*
G37*
G36*
X383540D02*
X374270D01*
Y520480D01*
X383540D01*
Y527750D01*
D02*
G37*
G36*
X395350Y517940D02*
X386080D01*
Y510670D01*
X395350D01*
Y517940D01*
D02*
G37*
G36*
X383540D02*
X374270D01*
Y510670D01*
X383540D01*
Y517940D01*
D02*
G37*
G36*
X135725Y479070D02*
X132715D01*
X129808Y478291D01*
X128699Y477651D01*
X134220Y472130D01*
X139741Y477651D01*
X138632Y478291D01*
X135725Y479070D01*
D02*
G37*
G36*
X396850Y477160D02*
X386080D01*
Y468390D01*
X396850D01*
Y477160D01*
D02*
G37*
G36*
X383540D02*
X372770D01*
Y468390D01*
X383540D01*
Y477160D01*
D02*
G37*
G36*
X363830D02*
X353060D01*
Y468390D01*
X363830D01*
Y477160D01*
D02*
G37*
G36*
X350520D02*
X339750D01*
Y468390D01*
X350520D01*
Y477160D01*
D02*
G37*
G36*
X332850Y475160D02*
X322580D01*
Y467390D01*
X332850D01*
Y475160D01*
D02*
G37*
G36*
X320040D02*
X309770D01*
Y467390D01*
X320040D01*
Y475160D01*
D02*
G37*
G36*
X866775Y473945D02*
X863765D01*
X860858Y473166D01*
X859749Y472526D01*
X865270Y467005D01*
X870791Y472526D01*
X869682Y473166D01*
X866775Y473945D01*
D02*
G37*
G36*
X299330Y471890D02*
X289560D01*
Y464870D01*
X299330D01*
Y471890D01*
D02*
G37*
G36*
X287020D02*
X277250D01*
Y464870D01*
X287020D01*
Y471890D01*
D02*
G37*
G36*
X124209Y473161D02*
X123569Y472052D01*
X122790Y469145D01*
Y466135D01*
X123569Y463228D01*
X124209Y462119D01*
X129730Y467640D01*
X124209Y473161D01*
D02*
G37*
G36*
X144231Y473161D02*
X138710Y467640D01*
X144231Y462119D01*
X144871Y463228D01*
X145650Y466135D01*
Y469145D01*
X144871Y472052D01*
X144231Y473161D01*
D02*
G37*
G36*
X396850Y465850D02*
X386080D01*
Y457080D01*
X396850D01*
Y465850D01*
D02*
G37*
G36*
X383540D02*
X372770D01*
Y457080D01*
X383540D01*
Y465850D01*
D02*
G37*
G36*
X363830D02*
X353060D01*
Y457080D01*
X363830D01*
Y465850D01*
D02*
G37*
G36*
X350520D02*
X339750D01*
Y457080D01*
X350520D01*
Y465850D01*
D02*
G37*
G36*
X332850Y464850D02*
X322580D01*
Y457080D01*
X332850D01*
Y464850D01*
D02*
G37*
G36*
X320040D02*
X309770D01*
Y457080D01*
X320040D01*
Y464850D01*
D02*
G37*
G36*
X855259Y468036D02*
X854619Y466927D01*
X853840Y464020D01*
Y461010D01*
X854619Y458103D01*
X855259Y456994D01*
X860780Y462515D01*
X855259Y468036D01*
D02*
G37*
G36*
X875281Y468036D02*
X869760Y462515D01*
X875281Y456994D01*
X875921Y458103D01*
X876700Y461010D01*
Y464020D01*
X875921Y466927D01*
X875281Y468036D01*
D02*
G37*
G36*
X134220Y463150D02*
X128699Y457629D01*
X129808Y456989D01*
X132715Y456210D01*
X135725D01*
X138632Y456989D01*
X139741Y457629D01*
X134220Y463150D01*
D02*
G37*
G36*
X299330Y462330D02*
X289560D01*
Y455310D01*
X299330D01*
Y462330D01*
D02*
G37*
G36*
X287020D02*
X277250D01*
Y455310D01*
X287020D01*
Y462330D01*
D02*
G37*
G36*
X865270Y458025D02*
X859749Y452504D01*
X860858Y451864D01*
X863765Y451085D01*
X866775D01*
X869682Y451864D01*
X870791Y452504D01*
X865270Y458025D01*
D02*
G37*
G36*
X1073486Y451792D02*
X1058844D01*
X1057868Y451598D01*
X1057041Y451046D01*
X1028917Y422922D01*
X976876D01*
X976630Y422873D01*
X976379D01*
X976147Y422777D01*
X975901Y422728D01*
X975692Y422589D01*
X975460Y422493D01*
X973152Y420951D01*
X970431Y419823D01*
X967542Y419249D01*
X964597D01*
X961709Y419823D01*
X958988Y420951D01*
X956680Y422493D01*
X956448Y422589D01*
X956239Y422728D01*
X955993Y422777D01*
X955761Y422873D01*
X955510D01*
X955264Y422922D01*
X875249Y422922D01*
X874808Y422835D01*
X874365Y422764D01*
X874322Y422738D01*
X874273Y422728D01*
X873900Y422479D01*
X873517Y422244D01*
X873488Y422203D01*
X873446Y422176D01*
X873197Y421803D01*
X873166Y421759D01*
X872638Y421400D01*
X870589Y421129D01*
X869176Y421945D01*
X866602Y422635D01*
X863938D01*
X861364Y421945D01*
X859056Y420613D01*
X857172Y418729D01*
X855840Y416421D01*
X855500Y415154D01*
X854847Y414485D01*
X853807Y413902D01*
X853221Y413926D01*
X853100Y413964D01*
X853052Y413959D01*
X852709Y414027D01*
X851734Y413833D01*
X850907Y413281D01*
X838955Y401329D01*
X728980Y401329D01*
X728004Y401135D01*
X727177Y400582D01*
X713208Y386613D01*
X712655Y385786D01*
X712461Y384810D01*
X712461Y322580D01*
X712655Y321605D01*
X713208Y320778D01*
X718288Y315698D01*
X719115Y315145D01*
X720090Y314951D01*
X954982D01*
X955106Y314976D01*
X955232Y314963D01*
X955590Y315072D01*
X955957Y315145D01*
X956063Y315215D01*
X956184Y315252D01*
X956473Y315490D01*
X956784Y315698D01*
X956855Y315803D01*
X956952Y315883D01*
X957129Y316213D01*
X957337Y316525D01*
X957362Y316649D01*
X957421Y316760D01*
X957790Y317975D01*
X957802Y318101D01*
X957851Y318218D01*
Y318592D01*
X957887Y318965D01*
X957851Y319086D01*
Y319212D01*
X957707Y319559D01*
X957599Y319917D01*
X957518Y320015D01*
X957470Y320131D01*
X957205Y320396D01*
X956968Y320686D01*
X956856Y320745D01*
X956767Y320835D01*
X956539Y320987D01*
X954457Y323069D01*
X952821Y325518D01*
X951693Y328239D01*
X951119Y331128D01*
Y334072D01*
X951693Y336961D01*
X952821Y339682D01*
X954457Y342131D01*
X956539Y344213D01*
X958988Y345849D01*
X961709Y346976D01*
X964597Y347551D01*
X967542D01*
X970431Y346976D01*
X973152Y345849D01*
X975601Y344213D01*
X977683Y342131D01*
X979319Y339682D01*
X980446Y336961D01*
X981021Y334072D01*
Y331128D01*
X980446Y328239D01*
X979320Y325518D01*
X977683Y323069D01*
X975601Y320987D01*
X975373Y320835D01*
X975284Y320745D01*
X975172Y320686D01*
X974935Y320396D01*
X974670Y320131D01*
X974622Y320015D01*
X974541Y319917D01*
X974433Y319559D01*
X974289Y319212D01*
Y319086D01*
X974253Y318965D01*
X974289Y318592D01*
Y318218D01*
X974338Y318101D01*
X974350Y317975D01*
X974719Y316760D01*
X974778Y316649D01*
X974803Y316525D01*
X975011Y316213D01*
X975188Y315883D01*
X975285Y315803D01*
X975356Y315698D01*
X975667Y315490D01*
X975956Y315252D01*
X976077Y315215D01*
X976182Y315145D01*
X976550Y315072D01*
X976908Y314963D01*
X977034Y314976D01*
X977158Y314951D01*
X1073927D01*
X1074902Y315145D01*
X1075729Y315698D01*
X1084485Y324453D01*
X1085038Y325280D01*
X1085231Y326255D01*
Y440047D01*
X1085038Y441023D01*
X1084485Y441850D01*
X1081835Y444500D01*
X1081263Y445356D01*
X1078826Y447793D01*
X1077970Y448365D01*
X1075289Y451046D01*
X1074462Y451598D01*
X1073486Y451792D01*
D02*
G37*
G36*
X471624Y451700D02*
X468176D01*
X464795Y451027D01*
X461611Y449708D01*
X458744Y447793D01*
X456307Y445356D01*
X454392Y442489D01*
X453073Y439305D01*
X452400Y435924D01*
Y432476D01*
X453073Y429095D01*
X454392Y425911D01*
X456307Y423044D01*
X458744Y420607D01*
X461611Y418692D01*
X464795Y417373D01*
X468176Y416700D01*
X471624D01*
X475005Y417373D01*
X478189Y418692D01*
X481056Y420607D01*
X483493Y423044D01*
X485408Y425911D01*
X486727Y429095D01*
X487400Y432476D01*
Y435924D01*
X486727Y439305D01*
X485408Y442489D01*
X483493Y445356D01*
X481056Y447793D01*
X478189Y449708D01*
X475005Y451027D01*
X471624Y451700D01*
D02*
G37*
G36*
X229532Y436440D02*
X226868D01*
X224294Y435750D01*
X221986Y434418D01*
X220102Y432534D01*
X218770Y430226D01*
X218080Y427652D01*
Y424988D01*
X218770Y422414D01*
X220102Y420106D01*
X221986Y418222D01*
X224294Y416890D01*
X226868Y416200D01*
X229532D01*
X232106Y416890D01*
X234414Y418222D01*
X236298Y420106D01*
X237630Y422414D01*
X238320Y424988D01*
Y427652D01*
X237630Y430226D01*
X236298Y432534D01*
X234414Y434418D01*
X232106Y435750D01*
X229532Y436440D01*
D02*
G37*
G36*
X1281438Y427580D02*
X1279463D01*
X1277555Y427069D01*
X1275845Y426081D01*
X1274449Y424685D01*
X1273461Y422975D01*
X1272950Y421067D01*
Y419092D01*
X1273461Y417185D01*
X1274449Y415475D01*
X1275845Y414078D01*
X1277555Y413091D01*
X1279463Y412580D01*
X1281438D01*
X1283345Y413091D01*
X1285055Y414078D01*
X1286452Y415475D01*
X1287439Y417185D01*
X1287950Y419092D01*
Y421067D01*
X1287439Y422975D01*
X1286452Y424685D01*
X1285055Y426081D01*
X1283345Y427069D01*
X1281438Y427580D01*
D02*
G37*
G36*
X135552Y427760D02*
X132888D01*
X130314Y427070D01*
X128006Y425738D01*
X126122Y423854D01*
X124790Y421546D01*
X124100Y418972D01*
Y416308D01*
X124790Y413734D01*
X126122Y411426D01*
X128006Y409542D01*
X130314Y408210D01*
X132888Y407520D01*
X135552D01*
X138126Y408210D01*
X140434Y409542D01*
X142318Y411426D01*
X143650Y413734D01*
X144340Y416308D01*
Y418972D01*
X143650Y421546D01*
X142318Y423854D01*
X140434Y425738D01*
X138126Y427070D01*
X135552Y427760D01*
D02*
G37*
G36*
X229705Y387750D02*
X226695D01*
X223788Y386971D01*
X222679Y386331D01*
X228200Y380810D01*
X233721Y386331D01*
X232612Y386971D01*
X229705Y387750D01*
D02*
G37*
G36*
X238211Y381841D02*
X232690Y376320D01*
X238211Y370799D01*
X238851Y371908D01*
X239630Y374815D01*
Y377825D01*
X238851Y380732D01*
X238211Y381841D01*
D02*
G37*
G36*
X218189D02*
X217549Y380732D01*
X216770Y377825D01*
Y374815D01*
X217549Y371908D01*
X218189Y370799D01*
X223710Y376320D01*
X218189Y381841D01*
D02*
G37*
G36*
X228200Y371830D02*
X222679Y366309D01*
X223788Y365669D01*
X226695Y364890D01*
X229705D01*
X232612Y365669D01*
X233721Y366309D01*
X228200Y371830D01*
D02*
G37*
G36*
X436597Y347860D02*
X434623D01*
X432715Y347349D01*
X431005Y346362D01*
X429826Y345182D01*
X428625Y345063D01*
X427424Y345182D01*
X426245Y346362D01*
X424535Y347349D01*
X422627Y347860D01*
X420653D01*
X418745Y347349D01*
X417035Y346362D01*
X415856Y345182D01*
X414655Y345063D01*
X413454Y345182D01*
X412275Y346362D01*
X410565Y347349D01*
X408657Y347860D01*
X406683D01*
X404775Y347349D01*
X403065Y346362D01*
X401669Y344965D01*
X400681Y343255D01*
X400170Y341347D01*
Y339373D01*
X400681Y337465D01*
X401669Y335755D01*
X402848Y334576D01*
X402967Y333375D01*
X402848Y332174D01*
X401669Y330995D01*
X400681Y329285D01*
X400170Y327377D01*
Y325403D01*
X400681Y323495D01*
X401669Y321785D01*
X402848Y320606D01*
X402967Y319405D01*
X402848Y318204D01*
X401669Y317025D01*
X400681Y315315D01*
X400170Y313407D01*
Y311433D01*
X400681Y309525D01*
X401669Y307815D01*
X402848Y306636D01*
X402967Y305435D01*
X402848Y304234D01*
X401669Y303055D01*
X400681Y301345D01*
X400170Y299437D01*
Y297463D01*
X400681Y295555D01*
X401669Y293845D01*
X403065Y292449D01*
X404775Y291461D01*
X406683Y290950D01*
X408657D01*
X410565Y291461D01*
X412275Y292449D01*
X413454Y293628D01*
X414655Y293747D01*
X415856Y293628D01*
X417035Y292449D01*
X418745Y291461D01*
X420653Y290950D01*
X422627D01*
X424535Y291461D01*
X426245Y292449D01*
X427424Y293628D01*
X428625Y293747D01*
X429826Y293628D01*
X431005Y292449D01*
X432715Y291461D01*
X434623Y290950D01*
X436597D01*
X438505Y291461D01*
X440215Y292449D01*
X441612Y293845D01*
X442599Y295555D01*
X443110Y297463D01*
Y299437D01*
X442599Y301345D01*
X441612Y303055D01*
X440432Y304234D01*
X440313Y305435D01*
X440432Y306636D01*
X441612Y307815D01*
X442599Y309525D01*
X443110Y311433D01*
Y313407D01*
X442599Y315315D01*
X441612Y317025D01*
X440432Y318204D01*
X440313Y319405D01*
X440432Y320606D01*
X441612Y321785D01*
X442599Y323495D01*
X443110Y325403D01*
Y327377D01*
X442599Y329285D01*
X441612Y330995D01*
X440432Y332174D01*
X440313Y333375D01*
X440432Y334576D01*
X441612Y335755D01*
X442599Y337465D01*
X443110Y339373D01*
Y341347D01*
X442599Y343255D01*
X441612Y344965D01*
X440215Y346362D01*
X438505Y347349D01*
X436597Y347860D01*
D02*
G37*
G36*
X471624Y350100D02*
X468176D01*
X464795Y349427D01*
X461611Y348108D01*
X458744Y346193D01*
X456307Y343756D01*
X454392Y340889D01*
X453073Y337705D01*
X452400Y334324D01*
Y330876D01*
X453073Y327495D01*
X454392Y324311D01*
X456307Y321444D01*
X458744Y319007D01*
X461611Y317092D01*
X464795Y315772D01*
X468176Y315100D01*
X471624D01*
X475005Y315772D01*
X478189Y317092D01*
X481056Y319007D01*
X483493Y321444D01*
X485408Y324311D01*
X486727Y327495D01*
X487400Y330876D01*
Y334324D01*
X486727Y337705D01*
X485408Y340889D01*
X483493Y343756D01*
X481056Y346193D01*
X478189Y348108D01*
X475005Y349427D01*
X471624Y350100D01*
D02*
G37*
G36*
X268205Y311150D02*
X265195D01*
X262288Y310371D01*
X261179Y309731D01*
X266700Y304210D01*
X272221Y309731D01*
X271112Y310371D01*
X268205Y311150D01*
D02*
G37*
G36*
X276711Y305241D02*
X271190Y299720D01*
X276711Y294199D01*
X277351Y295308D01*
X278130Y298215D01*
Y301225D01*
X277351Y304132D01*
X276711Y305241D01*
D02*
G37*
G36*
X256689Y305241D02*
X256049Y304132D01*
X255270Y301225D01*
Y298215D01*
X256049Y295308D01*
X256689Y294199D01*
X262210Y299720D01*
X256689Y305241D01*
D02*
G37*
G36*
X218032Y309840D02*
X215368D01*
X212794Y309150D01*
X210486Y307818D01*
X208602Y305934D01*
X207270Y303626D01*
X206580Y301052D01*
Y298388D01*
X207270Y295814D01*
X208602Y293506D01*
X210486Y291622D01*
X212794Y290290D01*
X215368Y289600D01*
X218032D01*
X220606Y290290D01*
X222914Y291622D01*
X224798Y293506D01*
X226130Y295814D01*
X226820Y298388D01*
Y301052D01*
X226130Y303626D01*
X224798Y305934D01*
X222914Y307818D01*
X220606Y309150D01*
X218032Y309840D01*
D02*
G37*
G36*
X266700Y295230D02*
X261179Y289709D01*
X262288Y289069D01*
X265195Y288290D01*
X268205D01*
X271112Y289069D01*
X272221Y289709D01*
X266700Y295230D01*
D02*
G37*
G36*
X97954Y317540D02*
X96270D01*
Y281270D01*
X132540D01*
Y282955D01*
X131616Y288791D01*
X129790Y294410D01*
X127107Y299675D01*
X123634Y304456D01*
X119456Y308634D01*
X114675Y312107D01*
X109410Y314790D01*
X103791Y316616D01*
X97954Y317540D01*
D02*
G37*
G36*
X1437621Y283210D02*
X1435119D01*
X1432666Y282722D01*
X1430354Y281765D01*
X1428274Y280375D01*
X1426505Y278606D01*
X1425115Y276526D01*
X1424158Y274214D01*
X1423670Y271761D01*
Y269259D01*
X1424158Y266805D01*
X1425115Y264494D01*
X1426505Y262414D01*
X1428274Y260645D01*
X1430354Y259255D01*
X1432666Y258298D01*
X1435119Y257810D01*
X1437621D01*
X1440074Y258298D01*
X1442386Y259255D01*
X1444466Y260645D01*
X1446235Y262414D01*
X1447625Y264494D01*
X1448582Y266805D01*
X1449070Y269259D01*
Y271761D01*
X1448582Y274214D01*
X1447625Y276526D01*
X1446235Y278606D01*
X1444466Y280375D01*
X1442386Y281765D01*
X1440074Y282722D01*
X1437621Y283210D01*
D02*
G37*
%LPD*%
G36*
X1300688Y1288917D02*
X1310472D01*
Y1281655D01*
X1323987Y1268140D01*
X1299413Y1243566D01*
X1298847D01*
X1284420Y1250139D01*
Y1287128D01*
X1293449Y1296156D01*
X1300688Y1288917D01*
D02*
G37*
G36*
X1320992Y1172028D02*
X1310491Y1161527D01*
Y1136574D01*
X1290499D01*
Y1176020D01*
X1309012Y1176020D01*
X1313007Y1180015D01*
X1320992Y1172028D01*
D02*
G37*
G36*
X989100Y621960D02*
X1000640D01*
Y620690D01*
X1001910D01*
Y611650D01*
X1012180D01*
Y612806D01*
X1012460Y613960D01*
X1022230D01*
Y622250D01*
X1024770D01*
Y613960D01*
X1031240D01*
Y594360D01*
X1009650Y572770D01*
Y483870D01*
X1007110Y481330D01*
X834390D01*
X820420Y467360D01*
X749300D01*
X736600Y480060D01*
X736600Y516890D01*
X783590Y563880D01*
X837065Y617355D01*
X838261Y616755D01*
X838979Y614078D01*
X839619Y612969D01*
X847385Y620735D01*
X849630Y618490D01*
X851875Y620735D01*
X859641Y612969D01*
X860281Y614078D01*
X861060Y616985D01*
Y619995D01*
X860442Y622300D01*
X861247Y623570D01*
X932720D01*
Y620380D01*
X956800D01*
Y623570D01*
X961930D01*
Y620380D01*
X986010D01*
Y623570D01*
X989100D01*
Y621960D01*
D02*
G37*
G36*
X397510Y434340D02*
Y408940D01*
X358140Y369570D01*
X255270D01*
X252730Y372110D01*
Y431800D01*
X257810Y436880D01*
X394970D01*
X397510Y434340D01*
D02*
G37*
%LPC*%
G36*
X999370Y619420D02*
X989100D01*
Y611650D01*
X999370D01*
Y619420D01*
D02*
G37*
G36*
X986010Y617840D02*
X975240D01*
Y609070D01*
X986010D01*
Y617840D01*
D02*
G37*
G36*
X972700D02*
X961930D01*
Y609070D01*
X972700D01*
Y617840D01*
D02*
G37*
G36*
X956800D02*
X946030D01*
Y609070D01*
X956800D01*
Y617840D01*
D02*
G37*
G36*
X943490D02*
X932720D01*
Y609070D01*
X943490D01*
Y617840D01*
D02*
G37*
G36*
X849630Y614000D02*
X844109Y608479D01*
X845218Y607839D01*
X848125Y607060D01*
X851135D01*
X854042Y607839D01*
X855151Y608479D01*
X849630Y614000D01*
D02*
G37*
G36*
X866602Y578680D02*
X863938D01*
X861364Y577990D01*
X859056Y576658D01*
X857172Y574774D01*
X855840Y572466D01*
X855150Y569892D01*
Y567228D01*
X855840Y564654D01*
X857172Y562346D01*
X859056Y560462D01*
X861364Y559130D01*
X863938Y558440D01*
X866602D01*
X869176Y559130D01*
X871484Y560462D01*
X873368Y562346D01*
X874700Y564654D01*
X875390Y567228D01*
Y569892D01*
X874700Y572466D01*
X873368Y574774D01*
X871484Y576658D01*
X869176Y577990D01*
X866602Y578680D01*
D02*
G37*
G36*
X866775Y529990D02*
X863765D01*
X860858Y529211D01*
X859749Y528571D01*
X865270Y523050D01*
X870791Y528571D01*
X869682Y529211D01*
X866775Y529990D01*
D02*
G37*
G36*
X760965Y529590D02*
X757955D01*
X755048Y528811D01*
X753939Y528171D01*
X759460Y522650D01*
X764981Y528171D01*
X763872Y528811D01*
X760965Y529590D01*
D02*
G37*
G36*
X855259Y524081D02*
X854619Y522972D01*
X853840Y520065D01*
Y517055D01*
X854619Y514148D01*
X855259Y513039D01*
X860780Y518560D01*
X855259Y524081D01*
D02*
G37*
G36*
X875281Y524081D02*
X869760Y518560D01*
X875281Y513039D01*
X875921Y514148D01*
X876700Y517055D01*
Y520065D01*
X875921Y522972D01*
X875281Y524081D01*
D02*
G37*
G36*
X749449Y523681D02*
X748809Y522572D01*
X748030Y519665D01*
Y516655D01*
X748809Y513748D01*
X749449Y512639D01*
X754970Y518160D01*
X749449Y523681D01*
D02*
G37*
G36*
X769471Y523681D02*
X763950Y518160D01*
X769471Y512639D01*
X770111Y513748D01*
X770890Y516655D01*
Y519665D01*
X770111Y522572D01*
X769471Y523681D01*
D02*
G37*
G36*
X865270Y514070D02*
X859749Y508549D01*
X860858Y507909D01*
X863765Y507130D01*
X866775D01*
X869682Y507909D01*
X870791Y508549D01*
X865270Y514070D01*
D02*
G37*
G36*
X759460Y513670D02*
X753939Y508149D01*
X755048Y507509D01*
X757955Y506730D01*
X760965D01*
X763872Y507509D01*
X764981Y508149D01*
X759460Y513670D01*
D02*
G37*
%LPD*%
G36*
X519430Y657860D02*
Y557530D01*
X514350Y552450D01*
X424180D01*
X419100Y557530D01*
X419100Y603250D01*
X396240Y626110D01*
Y646026D01*
X410614Y660400D01*
X516890D01*
X519430Y657860D01*
D02*
G37*
G36*
X1082682Y440047D02*
Y326255D01*
X1073927Y317500D01*
X977158D01*
X976789Y318715D01*
X977226Y319007D01*
X979663Y321444D01*
X981578Y324311D01*
X982897Y327495D01*
X983570Y330876D01*
Y334324D01*
X982897Y337705D01*
X981578Y340889D01*
X979663Y343756D01*
X977226Y346193D01*
X974359Y348108D01*
X971175Y349427D01*
X967794Y350100D01*
X964346D01*
X960965Y349427D01*
X957781Y348108D01*
X954914Y346193D01*
X952477Y343756D01*
X950562Y340889D01*
X949242Y337705D01*
X948570Y334324D01*
Y330876D01*
X949242Y327495D01*
X950562Y324311D01*
X952477Y321444D01*
X954914Y319007D01*
X955351Y318715D01*
X954982Y317500D01*
X720090D01*
X715010Y322580D01*
X715010Y384810D01*
X728980Y398780D01*
X840011Y398780D01*
X852709Y411479D01*
X852829Y411429D01*
X853882Y410855D01*
X854619Y408103D01*
X855259Y406994D01*
X863025Y414760D01*
X865270Y412515D01*
X867515Y414760D01*
X875281Y406994D01*
X875921Y408103D01*
X876700Y411010D01*
Y414020D01*
X875921Y416927D01*
X874665Y419103D01*
X875249Y420373D01*
X955264Y420373D01*
X957781Y418692D01*
X960965Y417373D01*
X964346Y416700D01*
X967794D01*
X971175Y417373D01*
X974359Y418692D01*
X976876Y420373D01*
X1029973D01*
X1058844Y449244D01*
X1073486D01*
X1082682Y440047D01*
D02*
G37*
%LPC*%
G36*
X865270Y408025D02*
X859749Y402504D01*
X860858Y401864D01*
X863765Y401085D01*
X866775D01*
X869682Y401864D01*
X870791Y402504D01*
X865270Y408025D01*
D02*
G37*
G36*
X890505Y341630D02*
X887495D01*
X884588Y340851D01*
X883479Y340211D01*
X889000Y334690D01*
X894521Y340211D01*
X893412Y340851D01*
X890505Y341630D01*
D02*
G37*
G36*
X878989Y335721D02*
X878349Y334612D01*
X877570Y331705D01*
Y328695D01*
X878349Y325788D01*
X878989Y324679D01*
X884510Y330200D01*
X878989Y335721D01*
D02*
G37*
G36*
X899011D02*
X893490Y330200D01*
X899011Y324679D01*
X899651Y325788D01*
X900430Y328695D01*
Y331705D01*
X899651Y334612D01*
X899011Y335721D01*
D02*
G37*
G36*
X840332Y340320D02*
X837668D01*
X835094Y339630D01*
X832786Y338298D01*
X830902Y336414D01*
X829570Y334106D01*
X828880Y331532D01*
Y328868D01*
X829570Y326294D01*
X830902Y323986D01*
X832786Y322102D01*
X835094Y320770D01*
X837668Y320080D01*
X840332D01*
X842906Y320770D01*
X845214Y322102D01*
X847098Y323986D01*
X848430Y326294D01*
X849120Y328868D01*
Y331532D01*
X848430Y334106D01*
X847098Y336414D01*
X845214Y338298D01*
X842906Y339630D01*
X840332Y340320D01*
D02*
G37*
G36*
X889000Y325710D02*
X883479Y320189D01*
X884588Y319549D01*
X887495Y318770D01*
X890505D01*
X893412Y319549D01*
X894521Y320189D01*
X889000Y325710D01*
D02*
G37*
G36*
X900150Y844616D02*
X892530D01*
X890541Y844354D01*
X889873Y844077D01*
X896340Y837610D01*
X902807Y844077D01*
X902139Y844354D01*
X900150Y844616D01*
D02*
G37*
G36*
X986230D02*
X978610D01*
X976621Y844354D01*
X975953Y844077D01*
X982420Y837610D01*
X988887Y844077D01*
X988219Y844354D01*
X986230Y844616D01*
D02*
G37*
G36*
X971463Y839587D02*
X971186Y838919D01*
X970924Y836930D01*
Y829310D01*
X971186Y827321D01*
X971463Y826653D01*
X977930Y833120D01*
X971463Y839587D01*
D02*
G37*
G36*
X885383Y839587D02*
X885106Y838919D01*
X884844Y836930D01*
Y829310D01*
X885106Y827321D01*
X885383Y826653D01*
X891850Y833120D01*
X885383Y839587D01*
D02*
G37*
G36*
X907297D02*
X900830Y833120D01*
X907297Y826653D01*
X907574Y827321D01*
X907836Y829310D01*
Y836930D01*
X907574Y838919D01*
X907297Y839587D01*
D02*
G37*
G36*
X993377Y839587D02*
X986910Y833120D01*
X993377Y826653D01*
X993654Y827321D01*
X993916Y829310D01*
Y836930D01*
X993654Y838919D01*
X993377Y839587D01*
D02*
G37*
G36*
X699060Y833186D02*
X691440D01*
X689451Y832924D01*
X688783Y832647D01*
X695250Y826180D01*
X701717Y832647D01*
X701049Y832924D01*
X699060Y833186D01*
D02*
G37*
G36*
X613970D02*
X606350D01*
X604361Y832924D01*
X603693Y832647D01*
X610160Y826180D01*
X616627Y832647D01*
X615959Y832924D01*
X613970Y833186D01*
D02*
G37*
G36*
X948752Y843240D02*
X946088D01*
X943514Y842550D01*
X941206Y841218D01*
X939322Y839334D01*
X937990Y837026D01*
X937300Y834452D01*
Y831788D01*
X937990Y829214D01*
X939322Y826906D01*
X941206Y825022D01*
X943514Y823690D01*
X946088Y823000D01*
X948752D01*
X951326Y823690D01*
X953634Y825022D01*
X955518Y826906D01*
X956850Y829214D01*
X957540Y831788D01*
Y834452D01*
X956850Y837026D01*
X955518Y839334D01*
X953634Y841218D01*
X951326Y842550D01*
X948752Y843240D01*
D02*
G37*
G36*
X862672D02*
X860008D01*
X857434Y842550D01*
X855126Y841218D01*
X853242Y839334D01*
X851910Y837026D01*
X851220Y834452D01*
Y831788D01*
X851910Y829214D01*
X853242Y826906D01*
X855126Y825022D01*
X857434Y823690D01*
X860008Y823000D01*
X862672D01*
X865246Y823690D01*
X867554Y825022D01*
X869438Y826906D01*
X870770Y829214D01*
X871460Y831788D01*
Y834452D01*
X870770Y837026D01*
X869438Y839334D01*
X867554Y841218D01*
X865246Y842550D01*
X862672Y843240D01*
D02*
G37*
G36*
X982420Y828630D02*
X975953Y822163D01*
X976621Y821886D01*
X978610Y821624D01*
X986230D01*
X988219Y821886D01*
X988887Y822163D01*
X982420Y828630D01*
D02*
G37*
G36*
X896340D02*
X889873Y822163D01*
X890541Y821886D01*
X892530Y821624D01*
X900150D01*
X902139Y821886D01*
X902807Y822163D01*
X896340Y828630D01*
D02*
G37*
G36*
X706207Y828157D02*
X699740Y821690D01*
X706207Y815223D01*
X706484Y815891D01*
X706746Y817880D01*
Y825500D01*
X706484Y827489D01*
X706207Y828157D01*
D02*
G37*
G36*
X621117D02*
X614650Y821690D01*
X621117Y815223D01*
X621394Y815891D01*
X621656Y817880D01*
Y825500D01*
X621394Y827489D01*
X621117Y828157D01*
D02*
G37*
G36*
X684293Y828157D02*
X684016Y827489D01*
X683754Y825500D01*
Y817880D01*
X684016Y815891D01*
X684293Y815223D01*
X690760Y821690D01*
X684293Y828157D01*
D02*
G37*
G36*
X599203D02*
X598926Y827489D01*
X598664Y825500D01*
Y817880D01*
X598926Y815891D01*
X599203Y815223D01*
X605670Y821690D01*
X599203Y828157D01*
D02*
G37*
G36*
X731582Y831810D02*
X728918D01*
X726344Y831120D01*
X724036Y829788D01*
X722152Y827904D01*
X720820Y825596D01*
X720130Y823022D01*
Y820358D01*
X720820Y817784D01*
X722152Y815476D01*
X724036Y813592D01*
X726344Y812260D01*
X728918Y811570D01*
X731582D01*
X734156Y812260D01*
X736464Y813592D01*
X738348Y815476D01*
X739680Y817784D01*
X740370Y820358D01*
Y823022D01*
X739680Y825596D01*
X738348Y827904D01*
X736464Y829788D01*
X734156Y831120D01*
X731582Y831810D01*
D02*
G37*
G36*
X646492D02*
X643828D01*
X641254Y831120D01*
X638946Y829788D01*
X637062Y827904D01*
X635730Y825596D01*
X635040Y823022D01*
Y820358D01*
X635730Y817784D01*
X637062Y815476D01*
X638946Y813592D01*
X641254Y812260D01*
X643828Y811570D01*
X646492D01*
X649066Y812260D01*
X651374Y813592D01*
X653258Y815476D01*
X654590Y817784D01*
X655280Y820358D01*
Y823022D01*
X654590Y825596D01*
X653258Y827904D01*
X651374Y829788D01*
X649066Y831120D01*
X646492Y831810D01*
D02*
G37*
G36*
X695250Y817200D02*
X688783Y810733D01*
X689451Y810456D01*
X691440Y810194D01*
X699060D01*
X701049Y810456D01*
X701717Y810733D01*
X695250Y817200D01*
D02*
G37*
G36*
X610160D02*
X603693Y810733D01*
X604361Y810456D01*
X606350Y810194D01*
X613970D01*
X615959Y810456D01*
X616627Y810733D01*
X610160Y817200D01*
D02*
G37*
G36*
X1014350Y788000D02*
X1003580D01*
Y779230D01*
X1014350D01*
Y788000D01*
D02*
G37*
G36*
X985140D02*
X974370D01*
Y779230D01*
X985140D01*
Y788000D01*
D02*
G37*
G36*
X971830D02*
X961060D01*
Y779230D01*
X971830D01*
Y788000D01*
D02*
G37*
G36*
X1001040D02*
X990270D01*
Y779230D01*
X1001040D01*
Y788000D01*
D02*
G37*
G36*
X1027320Y785040D02*
X1017050D01*
Y777270D01*
X1027320D01*
Y785040D01*
D02*
G37*
G36*
X882650Y778576D02*
X875030D01*
X873041Y778314D01*
X872373Y778037D01*
X878840Y771570D01*
X885307Y778037D01*
X884639Y778314D01*
X882650Y778576D01*
D02*
G37*
G36*
X735330Y767856D02*
X727710D01*
X725721Y767594D01*
X725053Y767317D01*
X731520Y760850D01*
X737987Y767317D01*
X737319Y767594D01*
X735330Y767856D01*
D02*
G37*
G36*
X889797Y773547D02*
X883330Y767080D01*
X889797Y760613D01*
X890074Y761281D01*
X890336Y763270D01*
Y770890D01*
X890074Y772879D01*
X889797Y773547D01*
D02*
G37*
G36*
X867883Y773547D02*
X867606Y772879D01*
X867344Y770890D01*
Y763270D01*
X867606Y761281D01*
X867883Y760613D01*
X874350Y767080D01*
X867883Y773547D01*
D02*
G37*
G36*
X680170Y767990D02*
X669400D01*
Y759220D01*
X680170D01*
Y767990D01*
D02*
G37*
G36*
X648420D02*
X637650D01*
Y759220D01*
X648420D01*
Y767990D01*
D02*
G37*
G36*
X666860D02*
X656090D01*
Y759220D01*
X666860D01*
Y767990D01*
D02*
G37*
G36*
X635110D02*
X624340D01*
Y759220D01*
X635110D01*
Y767990D01*
D02*
G37*
G36*
X595350Y765260D02*
X585580D01*
Y758240D01*
X595350D01*
Y765260D01*
D02*
G37*
G36*
X583040D02*
X573270D01*
Y758240D01*
X583040D01*
Y765260D01*
D02*
G37*
G36*
X619980Y765990D02*
X609710D01*
Y758220D01*
X619980D01*
Y765990D01*
D02*
G37*
G36*
X607170D02*
X596900D01*
Y758220D01*
X607170D01*
Y765990D01*
D02*
G37*
G36*
X878840Y762590D02*
X872373Y756123D01*
X873041Y755846D01*
X875030Y755584D01*
X882650D01*
X884639Y755846D01*
X885307Y756123D01*
X878840Y762590D01*
D02*
G37*
%LPD*%
D11*
X836846Y1189297D02*
X886989Y1239440D01*
X904160D01*
X967740Y1303020D01*
X907073Y1234440D02*
X964858Y1292225D01*
X890055Y1234440D02*
X907073D01*
X839255Y1183640D02*
X890055Y1234440D01*
X933450Y1211580D02*
X961460Y1239590D01*
X933450Y1196773D02*
Y1211580D01*
X922640Y1216010D02*
X972410Y1265780D01*
X922640Y1200105D02*
Y1216010D01*
X916335Y1193800D02*
X922640Y1200105D01*
X960120Y1245870D02*
X1049020D01*
X927640Y1213390D02*
X960120Y1245870D01*
X927640Y1198034D02*
Y1213390D01*
X899157Y1200150D02*
X961390Y1262383D01*
X972410Y1268730D02*
X972820D01*
X972000D02*
X972410D01*
Y1265780D02*
Y1268730D01*
X901046Y1211585D02*
X955040Y1265579D01*
X961390Y1262383D02*
Y1271270D01*
X955040Y1265579D02*
Y1274478D01*
X865580Y1200150D02*
X899157D01*
X918246Y1188640D02*
X927640Y1198034D01*
X1043870Y1239590D02*
X1045210Y1238250D01*
X961460Y1239590D02*
X1043870D01*
X920317Y1183640D02*
X933450Y1196773D01*
X900430Y1183640D02*
X920317D01*
X955040Y1274478D02*
X964932Y1284370D01*
X961390Y1271270D02*
X967740Y1277620D01*
X846810Y1181380D02*
X865580Y1200150D01*
X793173Y1189297D02*
X836846D01*
X787766Y1183640D02*
X839255D01*
X760730Y1210676D02*
X787766Y1183640D01*
X760730Y1210676D02*
Y1220470D01*
X789940Y1192530D02*
X793173Y1189297D01*
X964932Y1284370D02*
X974411D01*
X964858Y1292225D02*
X972185D01*
X784100Y1169670D02*
X790450Y1163320D01*
X853440D01*
X897810Y1188640D02*
X918246D01*
X882650Y1193800D02*
X916335D01*
X872490Y1163320D02*
X897810Y1188640D01*
X855980Y1139190D02*
X900430Y1183640D01*
X875030Y1186180D02*
X882650Y1193800D01*
X976411Y1282370D02*
X1076885D01*
X974411Y1284370D02*
X976411Y1282370D01*
X853440Y1163320D02*
X872490D01*
X791210Y1139190D02*
X855980D01*
X941139Y1170940D02*
X947420Y1164659D01*
X900430Y1170940D02*
X941139D01*
X895350Y1165860D02*
X900430Y1170940D01*
X718820Y1066800D02*
X791210Y1139190D01*
X1049020Y1245870D02*
X1059301Y1235589D01*
X1059381D01*
X963723Y1013460D02*
X988133Y1037869D01*
X810260Y1013460D02*
X963723D01*
X699755Y902955D02*
X810260Y1013460D01*
X699755Y889563D02*
Y902955D01*
D13*
X579120Y1187850D02*
X579520Y1187450D01*
D17*
X647980Y1176300D02*
Y1247420D01*
X528320Y1056640D02*
X647980Y1176300D01*
X528320Y689080D02*
Y1056640D01*
X657004Y1172624D02*
Y1245014D01*
X537210Y1052830D02*
X657004Y1172624D01*
X537210Y692150D02*
Y1052830D01*
X647980Y1247420D02*
X743412Y1342852D01*
X657004Y1245014D02*
X746760Y1334770D01*
X1541780Y1254760D02*
Y1301750D01*
X1500678Y1342852D02*
X1541780Y1301750D01*
X743412Y1342852D02*
X1500678D01*
X1489710Y1334770D02*
X1521460Y1303020D01*
X746760Y1334770D02*
X1489710D01*
X579520Y1187450D02*
X596900D01*
X528320Y689080D02*
X570230Y647170D01*
X537210Y692150D02*
X562610Y666750D01*
X590550D01*
X601980Y655320D01*
D18*
X642600Y614680D02*
X665480D01*
X641030Y613110D02*
X642600Y614680D01*
D48*
X579120Y1187850D02*
D03*
Y1174350D02*
D03*
D89*
X384810Y586740D02*
D03*
Y635740D02*
D03*
X570230Y598170D02*
D03*
Y647170D02*
D03*
D90*
X636380Y727950D02*
D03*
Y757950D02*
D03*
X668130Y727950D02*
D03*
Y757950D02*
D03*
X351790Y437120D02*
D03*
Y467120D02*
D03*
X384810Y437120D02*
D03*
Y467120D02*
D03*
X973100Y747960D02*
D03*
Y777960D02*
D03*
X1002310Y747960D02*
D03*
Y777960D02*
D03*
X973970Y649110D02*
D03*
Y619110D02*
D03*
X944760Y649110D02*
D03*
Y619110D02*
D03*
D92*
X1316990Y1176020D02*
D03*
D93*
Y1195020D02*
D03*
D95*
X1111780Y607060D02*
D03*
X1160780D02*
D03*
X1111780Y713740D02*
D03*
X1160780D02*
D03*
D100*
X601030Y613110D02*
D03*
X641030D02*
D03*
D107*
X1436370Y270510D02*
D03*
X224790Y1315720D02*
D03*
X276860Y379730D02*
D03*
X648970Y339090D02*
D03*
Y353060D02*
D03*
Y381000D02*
D03*
Y394970D02*
D03*
Y325120D02*
D03*
Y367030D02*
D03*
X659218Y360081D02*
D03*
Y318171D02*
D03*
Y388021D02*
D03*
Y374051D02*
D03*
Y346111D02*
D03*
Y332141D02*
D03*
X638810Y359410D02*
D03*
Y317500D02*
D03*
Y387350D02*
D03*
Y373380D02*
D03*
Y345440D02*
D03*
Y331470D02*
D03*
X745490Y662940D02*
D03*
X759460D02*
D03*
X787400D02*
D03*
X801370D02*
D03*
X731520D02*
D03*
X773430D02*
D03*
X766481Y652692D02*
D03*
X724571D02*
D03*
X794421D02*
D03*
X780451D02*
D03*
X752511D02*
D03*
X738541D02*
D03*
X765810Y673100D02*
D03*
X723900D02*
D03*
X793750D02*
D03*
X779780D02*
D03*
X751840D02*
D03*
X737870D02*
D03*
X965200Y692150D02*
D03*
X979170D02*
D03*
X1007110D02*
D03*
X1021080D02*
D03*
X951230D02*
D03*
X993140D02*
D03*
X986191Y681902D02*
D03*
X944281D02*
D03*
X1014131D02*
D03*
X1000161D02*
D03*
X972221D02*
D03*
X958251D02*
D03*
X985520Y702310D02*
D03*
X943610D02*
D03*
X1013460D02*
D03*
X999490D02*
D03*
X971550D02*
D03*
X957580D02*
D03*
X1125878Y670106D02*
D03*
X1153818D02*
D03*
X1167788D02*
D03*
X1097938D02*
D03*
X1139848D02*
D03*
X1126549Y649698D02*
D03*
X1154489D02*
D03*
X1168459D02*
D03*
X1098609D02*
D03*
X1140519D02*
D03*
X595300Y976720D02*
D03*
Y962750D02*
D03*
X609270Y976720D02*
D03*
X595300Y990690D02*
D03*
X609270D02*
D03*
X595300Y1004660D02*
D03*
X609270D02*
D03*
X595300Y1018630D02*
D03*
X609270D02*
D03*
X1541780Y1254760D02*
D03*
X1521460Y1303020D02*
D03*
X1280450Y420080D02*
D03*
X707390Y1182370D02*
D03*
X685800D02*
D03*
X1147468Y659946D02*
D03*
X1105558D02*
D03*
X1175408D02*
D03*
X1161438D02*
D03*
X1133498D02*
D03*
X1119528D02*
D03*
X516890Y483870D02*
D03*
X502920D02*
D03*
X474980D02*
D03*
X461010D02*
D03*
X530860D02*
D03*
X488950D02*
D03*
X447040D02*
D03*
X516890Y469900D02*
D03*
X502920D02*
D03*
X474980D02*
D03*
X530860D02*
D03*
X488950D02*
D03*
X447040D02*
D03*
X461010D02*
D03*
X590550Y708660D02*
D03*
Y697230D02*
D03*
X579120D02*
D03*
X567690D02*
D03*
Y708660D02*
D03*
X511810Y616280D02*
D03*
Y630250D02*
D03*
X497840Y616280D02*
D03*
X483870D02*
D03*
Y630250D02*
D03*
X513300Y652280D02*
D03*
X499330D02*
D03*
X579120Y708660D02*
D03*
X601980D02*
D03*
X613410D02*
D03*
X601980Y697230D02*
D03*
X613410D02*
D03*
X668020Y1074420D02*
D03*
X407670Y326390D02*
D03*
Y340360D02*
D03*
Y298450D02*
D03*
Y312420D02*
D03*
X421640Y340360D02*
D03*
X435610D02*
D03*
Y298450D02*
D03*
X421640D02*
D03*
X435610Y326390D02*
D03*
X421640D02*
D03*
Y312420D02*
D03*
X435610D02*
D03*
X745490Y388620D02*
D03*
X756920D02*
D03*
X768350D02*
D03*
X791210D02*
D03*
X779780D02*
D03*
X791210Y377190D02*
D03*
X779780D02*
D03*
X768350D02*
D03*
X756920D02*
D03*
X745490D02*
D03*
X734060Y388620D02*
D03*
Y377190D02*
D03*
X722630D02*
D03*
X1026160Y838200D02*
D03*
X1054100D02*
D03*
X1040130D02*
D03*
X971550Y802640D02*
D03*
X999490D02*
D03*
X985520D02*
D03*
X793750Y769620D02*
D03*
X821690D02*
D03*
X807720D02*
D03*
X605790Y783590D02*
D03*
X633730D02*
D03*
X619760D02*
D03*
X618490Y869950D02*
D03*
X646430D02*
D03*
X632460D02*
D03*
X563880Y808990D02*
D03*
Y781050D02*
D03*
Y795020D02*
D03*
X276860Y393700D02*
D03*
X290830D02*
D03*
Y379730D02*
D03*
X262890Y393700D02*
D03*
Y379730D02*
D03*
X304800D02*
D03*
Y393700D02*
D03*
X276860Y407670D02*
D03*
X262890D02*
D03*
X304800D02*
D03*
X290830D02*
D03*
X431800Y835660D02*
D03*
Y821690D02*
D03*
X445770Y835660D02*
D03*
Y821690D02*
D03*
X459740Y835660D02*
D03*
Y821690D02*
D03*
Y849630D02*
D03*
X431800D02*
D03*
X445770D02*
D03*
X471390Y652280D02*
D03*
X443450D02*
D03*
X457420D02*
D03*
X485360D02*
D03*
X842010Y500380D02*
D03*
X830580D02*
D03*
Y488950D02*
D03*
X819150Y500380D02*
D03*
X807720D02*
D03*
X796290D02*
D03*
X784860D02*
D03*
X773430D02*
D03*
X784860Y488950D02*
D03*
X773430D02*
D03*
X796290D02*
D03*
X807720D02*
D03*
X819150D02*
D03*
X1021630Y603250D02*
D03*
X985463D02*
D03*
X1002223D02*
D03*
X949297D02*
D03*
X966057D02*
D03*
X929890D02*
D03*
X913130D02*
D03*
X1180050Y853440D02*
D03*
X1138140D02*
D03*
X1110200D02*
D03*
X1124170D02*
D03*
X1152110D02*
D03*
X1166080D02*
D03*
X266700Y502920D02*
D03*
X252730D02*
D03*
X294640D02*
D03*
X336550D02*
D03*
X280670D02*
D03*
X308610D02*
D03*
X322580D02*
D03*
X252730Y516890D02*
D03*
Y530860D02*
D03*
X294640D02*
D03*
Y516890D02*
D03*
X336550D02*
D03*
Y530860D02*
D03*
X266700D02*
D03*
Y516890D02*
D03*
X280670D02*
D03*
Y530860D02*
D03*
X322580D02*
D03*
X308610Y516890D02*
D03*
Y530860D02*
D03*
X322580Y516890D02*
D03*
X316230Y952500D02*
D03*
X330200Y966470D02*
D03*
X316230D02*
D03*
X330200Y952500D02*
D03*
Y994410D02*
D03*
X316230D02*
D03*
Y1008380D02*
D03*
X330200D02*
D03*
Y938530D02*
D03*
X316230D02*
D03*
Y980440D02*
D03*
X330200D02*
D03*
Y1022350D02*
D03*
X316230D02*
D03*
X302260Y952500D02*
D03*
Y966470D02*
D03*
Y994410D02*
D03*
Y938530D02*
D03*
Y980440D02*
D03*
Y1022350D02*
D03*
Y1008380D02*
D03*
X595300Y948780D02*
D03*
Y1032600D02*
D03*
X637210Y990690D02*
D03*
Y976720D02*
D03*
X567360Y948780D02*
D03*
X581330D02*
D03*
Y990690D02*
D03*
X567360D02*
D03*
Y1032600D02*
D03*
X581330D02*
D03*
X623240Y990690D02*
D03*
X581330Y962750D02*
D03*
X567360D02*
D03*
Y976720D02*
D03*
X581330D02*
D03*
Y1018630D02*
D03*
X567360D02*
D03*
Y1004660D02*
D03*
X581330D02*
D03*
X623240Y976720D02*
D03*
Y1004660D02*
D03*
X425780Y1024410D02*
D03*
X467690Y1038380D02*
D03*
Y996470D02*
D03*
Y954560D02*
D03*
X425780Y1038380D02*
D03*
Y996470D02*
D03*
Y954560D02*
D03*
X467690Y1024410D02*
D03*
Y1010440D02*
D03*
Y982500D02*
D03*
Y968530D02*
D03*
X425780Y1010440D02*
D03*
Y982500D02*
D03*
Y968530D02*
D03*
X495630Y1038380D02*
D03*
X481660D02*
D03*
Y996470D02*
D03*
X495630D02*
D03*
Y954560D02*
D03*
X481660D02*
D03*
X439750Y1038380D02*
D03*
X453720D02*
D03*
Y996470D02*
D03*
X439750D02*
D03*
Y954560D02*
D03*
X453720D02*
D03*
X481660Y1024410D02*
D03*
X495630D02*
D03*
Y1010440D02*
D03*
X481660D02*
D03*
Y968530D02*
D03*
X495630D02*
D03*
Y982500D02*
D03*
X481660D02*
D03*
X453720Y1024410D02*
D03*
X439750D02*
D03*
Y1010440D02*
D03*
X453720D02*
D03*
Y968530D02*
D03*
X439750Y982500D02*
D03*
X453720D02*
D03*
X439750Y968530D02*
D03*
X497840Y574370D02*
D03*
X483870Y588340D02*
D03*
Y574370D02*
D03*
X497840Y588340D02*
D03*
X455930D02*
D03*
Y574370D02*
D03*
X441960D02*
D03*
Y588340D02*
D03*
X497840Y630250D02*
D03*
X455930Y616280D02*
D03*
Y630250D02*
D03*
X441960D02*
D03*
Y616280D02*
D03*
X511810Y588340D02*
D03*
Y574370D02*
D03*
X469900D02*
D03*
Y588340D02*
D03*
X427990D02*
D03*
Y574370D02*
D03*
X469900Y630250D02*
D03*
Y616280D02*
D03*
X427990D02*
D03*
Y630250D02*
D03*
X497840Y560400D02*
D03*
X483870D02*
D03*
X455930D02*
D03*
X497840Y602310D02*
D03*
X483870D02*
D03*
X455930D02*
D03*
X441960D02*
D03*
X511810Y560400D02*
D03*
X469900D02*
D03*
X427990D02*
D03*
X511810Y602310D02*
D03*
X469900D02*
D03*
X427990D02*
D03*
X441960Y560400D02*
D03*
X497840Y736100D02*
D03*
X483870Y750070D02*
D03*
Y736100D02*
D03*
X497840Y750070D02*
D03*
X455930D02*
D03*
Y736100D02*
D03*
X441960D02*
D03*
Y750070D02*
D03*
X483870Y778010D02*
D03*
Y791980D02*
D03*
X497840D02*
D03*
Y778010D02*
D03*
X455930D02*
D03*
Y791980D02*
D03*
X441960D02*
D03*
Y778010D02*
D03*
X511810Y750070D02*
D03*
Y736100D02*
D03*
X469900D02*
D03*
Y750070D02*
D03*
X427990D02*
D03*
Y736100D02*
D03*
X511810Y778010D02*
D03*
Y791980D02*
D03*
X469900D02*
D03*
Y778010D02*
D03*
X427990D02*
D03*
Y791980D02*
D03*
X497840Y722130D02*
D03*
X483870D02*
D03*
X455930D02*
D03*
X497840Y764040D02*
D03*
X483870D02*
D03*
X455930D02*
D03*
X441960D02*
D03*
X511810Y722130D02*
D03*
X469900D02*
D03*
X427990D02*
D03*
X511810Y764040D02*
D03*
X469900D02*
D03*
X427990D02*
D03*
X441960Y722130D02*
D03*
X1108710Y929640D02*
D03*
X1052830Y957580D02*
D03*
X1038860D02*
D03*
X1024890D02*
D03*
X1052830Y971550D02*
D03*
X1038860D02*
D03*
X1024890D02*
D03*
X1052830Y985520D02*
D03*
X1038860D02*
D03*
X1024890D02*
D03*
X1052830Y999490D02*
D03*
X1038860D02*
D03*
X1024890D02*
D03*
X1070610Y560070D02*
D03*
Y546100D02*
D03*
Y518160D02*
D03*
Y504190D02*
D03*
Y532130D02*
D03*
Y574040D02*
D03*
X1097280Y758588D02*
D03*
X1139190D02*
D03*
X1181100D02*
D03*
X1111250D02*
D03*
X1167130D02*
D03*
X1153160D02*
D03*
X1125220D02*
D03*
X1094740Y971550D02*
D03*
X1136650D02*
D03*
X1178560D02*
D03*
X1094740Y929640D02*
D03*
X1136650D02*
D03*
X1178560D02*
D03*
X1097280Y800498D02*
D03*
X1139190D02*
D03*
X1181100D02*
D03*
X1108710Y971550D02*
D03*
X1122680D02*
D03*
X1150620D02*
D03*
X1164590D02*
D03*
X1122680Y929640D02*
D03*
X1150620D02*
D03*
X1164590D02*
D03*
X1097280Y786528D02*
D03*
Y828438D02*
D03*
Y814468D02*
D03*
Y772558D02*
D03*
X1139190Y828438D02*
D03*
Y786528D02*
D03*
Y814468D02*
D03*
Y772558D02*
D03*
X1181100Y786528D02*
D03*
Y828438D02*
D03*
Y814468D02*
D03*
Y772558D02*
D03*
X1094740Y999490D02*
D03*
Y985520D02*
D03*
X1136650D02*
D03*
Y999490D02*
D03*
X1178560D02*
D03*
Y985520D02*
D03*
X1094740Y943610D02*
D03*
Y957580D02*
D03*
X1136650D02*
D03*
Y943610D02*
D03*
X1178560D02*
D03*
Y957580D02*
D03*
X1111250Y800498D02*
D03*
X1167130D02*
D03*
X1153160D02*
D03*
X1108710Y985520D02*
D03*
Y999490D02*
D03*
X1122680D02*
D03*
Y985520D02*
D03*
X1164590D02*
D03*
Y999490D02*
D03*
X1150620D02*
D03*
Y985520D02*
D03*
X1108710Y957580D02*
D03*
Y943610D02*
D03*
X1122680D02*
D03*
Y957580D02*
D03*
X1164590D02*
D03*
X1150620Y943610D02*
D03*
Y957580D02*
D03*
X1164590Y943610D02*
D03*
X1111250Y828438D02*
D03*
Y786528D02*
D03*
Y814468D02*
D03*
Y772558D02*
D03*
X1153160Y786528D02*
D03*
Y828438D02*
D03*
X1167130D02*
D03*
Y786528D02*
D03*
X1153160Y814468D02*
D03*
X1167130D02*
D03*
Y772558D02*
D03*
X1153160D02*
D03*
X1125220Y800498D02*
D03*
Y786528D02*
D03*
Y828438D02*
D03*
Y814468D02*
D03*
Y772558D02*
D03*
X1181100Y509270D02*
D03*
X1167130Y523240D02*
D03*
X1181100D02*
D03*
Y537210D02*
D03*
Y565150D02*
D03*
Y551180D02*
D03*
X1167130Y565150D02*
D03*
Y551180D02*
D03*
X1139190Y565150D02*
D03*
X1153160D02*
D03*
X1139190Y551180D02*
D03*
X1153160Y537210D02*
D03*
X1139190Y523240D02*
D03*
X1153160Y509270D02*
D03*
X1125220D02*
D03*
X1111250Y523240D02*
D03*
X1125220Y537210D02*
D03*
X1111250Y551180D02*
D03*
Y565150D02*
D03*
X1125220D02*
D03*
X1097280Y509270D02*
D03*
Y523240D02*
D03*
Y537210D02*
D03*
Y551180D02*
D03*
Y565150D02*
D03*
Y495300D02*
D03*
X1125220D02*
D03*
X1111250D02*
D03*
X1153160D02*
D03*
X1139190D02*
D03*
X1181100D02*
D03*
X1167130D02*
D03*
Y537210D02*
D03*
Y509270D02*
D03*
X1153160Y551180D02*
D03*
Y523240D02*
D03*
X1139190Y537210D02*
D03*
Y509270D02*
D03*
X1125220Y551180D02*
D03*
Y523240D02*
D03*
X1111250Y537210D02*
D03*
Y509270D02*
D03*
X942340Y491270D02*
D03*
X956310Y505240D02*
D03*
Y491270D02*
D03*
X970280D02*
D03*
X998220D02*
D03*
X984250D02*
D03*
X998220Y505240D02*
D03*
X984250D02*
D03*
X998220Y533180D02*
D03*
Y519210D02*
D03*
X984250Y533180D02*
D03*
X970280Y519210D02*
D03*
X956310Y533180D02*
D03*
X942340Y519210D02*
D03*
Y547150D02*
D03*
X956310Y561120D02*
D03*
X970280Y547150D02*
D03*
X984250Y561120D02*
D03*
X998220D02*
D03*
Y547150D02*
D03*
X942340Y575090D02*
D03*
X956310D02*
D03*
X970280D02*
D03*
X984250D02*
D03*
X998220D02*
D03*
X928370D02*
D03*
Y547150D02*
D03*
Y561120D02*
D03*
Y519210D02*
D03*
Y533180D02*
D03*
Y491270D02*
D03*
Y505240D02*
D03*
X970280D02*
D03*
X942340D02*
D03*
X984250Y519210D02*
D03*
X956310D02*
D03*
X970280Y533180D02*
D03*
X942340D02*
D03*
X984250Y547150D02*
D03*
X956310D02*
D03*
X970280Y561120D02*
D03*
X942340D02*
D03*
D223*
X668130Y757950D02*
Y770450D01*
X636380Y757950D02*
Y770450D01*
X608440Y756950D02*
Y768240D01*
X584310Y756970D02*
Y768240D01*
X668130Y715450D02*
Y727950D01*
X636380Y715450D02*
Y727950D01*
X608440Y716390D02*
Y728950D01*
X584310Y721470D02*
Y731470D01*
X973100Y735460D02*
Y747960D01*
X1002310Y735460D02*
Y747960D01*
X1028590Y735440D02*
Y748000D01*
X1051450Y737980D02*
Y749250D01*
Y774750D02*
Y786020D01*
X1028590Y776000D02*
Y788560D01*
X1002310Y777960D02*
Y790460D01*
X973100Y777960D02*
Y790460D01*
X1023500Y647750D02*
Y659010D01*
X1000640Y648690D02*
Y660280D01*
X973970Y649110D02*
Y661610D01*
X944760Y649110D02*
Y661610D01*
X1023500Y609720D02*
Y622250D01*
X1000640Y608450D02*
Y620690D01*
X973970Y606610D02*
Y619110D01*
X944760Y607787D02*
X949297Y603250D01*
X944760Y607787D02*
Y619110D01*
X1144800Y369040D02*
Y398040D01*
X1209040Y462280D01*
Y635000D01*
X1221740Y891540D02*
X1236980Y906780D01*
X1221740Y730250D02*
Y891540D01*
X1280450Y346420D02*
Y355310D01*
D224*
X623570Y533488D02*
Y665480D01*
X1432230Y1100240D02*
X1544320Y988150D01*
X1236650Y1100240D02*
X1432230D01*
X1121500Y1215390D02*
X1236650Y1100240D01*
X1428750Y1094740D02*
X1537970Y985520D01*
X1233170Y1094740D02*
X1428750D01*
X1118870Y1209040D02*
X1233170Y1094740D01*
X406890Y435120D02*
X546100Y295910D01*
X1082040D02*
X1125220Y339090D01*
X546100Y295910D02*
X1082040D01*
X1125220Y339090D02*
Y403702D01*
X395460Y435120D02*
X406890D01*
X1200203Y478685D02*
Y726493D01*
X1125220Y403702D02*
X1200203Y478685D01*
X1194703Y480963D02*
Y731153D01*
X1181934Y468194D02*
X1194703Y480963D01*
X1064696Y468194D02*
X1181934D01*
X1200203Y726493D02*
X1208604Y734894D01*
X1194703Y731153D02*
X1201420Y737870D01*
X1027430Y622300D02*
X1035050D01*
X1047750Y609600D01*
Y485140D02*
Y609600D01*
Y485140D02*
X1064696Y468194D01*
X1208604Y734894D02*
Y1021516D01*
X1201420Y737870D02*
Y1018540D01*
X1144270Y1085850D02*
X1208604Y1021516D01*
X1127350Y1085850D02*
X1144270D01*
X1158240Y1061720D02*
X1201420Y1018540D01*
X1117600Y1061720D02*
X1158240D01*
X980020Y1088128D02*
Y1141992D01*
X916852Y1024960D02*
X980020Y1088128D01*
X752994Y1024960D02*
X916852D01*
X985520Y1085850D02*
Y1192530D01*
X919130Y1019460D02*
X985520Y1085850D01*
X755272Y1019460D02*
X919130D01*
X979810Y1142202D02*
X980020Y1141992D01*
X979810Y1142202D02*
Y1194895D01*
X1030033Y1211205D02*
X1039198Y1202040D01*
X1062370D02*
X1071460Y1192950D01*
X1039198Y1202040D02*
X1062370D01*
X1071460Y1192950D02*
X1115910D01*
X1281430Y1027430D01*
X1055370Y1187450D02*
X1113632D01*
X1049020Y1193800D02*
X1055370Y1187450D01*
X1113632D02*
X1272540Y1028542D01*
X1054558Y1225092D02*
X1056640Y1223010D01*
X1032052Y1225092D02*
X1054558D01*
X1023620Y1216660D02*
X1032052Y1225092D01*
X1052830Y1215390D02*
X1121500D01*
X1050492Y1217728D02*
X1052830Y1215390D01*
X1038251Y1217728D02*
X1050492D01*
X1001575Y1216660D02*
X1023620D01*
X1030033Y1210611D02*
Y1211205D01*
X1000177Y1207187D02*
X1016420D01*
X979810Y1194895D02*
X1001575Y1216660D01*
X985520Y1192530D02*
X1000177Y1207187D01*
X1042670Y1209040D02*
X1118870D01*
X1272540Y998220D02*
Y1028542D01*
Y998220D02*
X1281430Y989330D01*
Y1002030D02*
Y1027430D01*
X1544320Y495210D02*
Y988150D01*
X1537970Y497840D02*
Y985520D01*
X1372960Y323850D02*
X1544320Y495210D01*
X1370330Y330200D02*
X1537970Y497840D01*
X1235710Y323850D02*
X1372960D01*
X1219200Y340360D02*
X1235710Y323850D01*
X1245870Y330200D02*
X1370330D01*
X1236980Y339090D02*
X1245870Y330200D01*
X910590Y946150D02*
X969010Y1004570D01*
X910590Y889000D02*
Y946150D01*
X544830Y816796D02*
X752994Y1024960D01*
X551180Y815368D02*
X755272Y1019460D01*
X544830Y694690D02*
Y816796D01*
Y694690D02*
X565150Y674370D01*
X551180Y696118D02*
Y815368D01*
Y696118D02*
X567428Y679870D01*
X617220Y540594D02*
Y664052D01*
X606902Y674370D02*
X617220Y664052D01*
X565150Y674370D02*
X606902D01*
X609180Y679870D02*
X623570Y665480D01*
X567428Y679870D02*
X609180D01*
X610674Y534048D02*
X617220Y540594D01*
X623570Y533488D02*
X623938D01*
X623482D02*
X623570D01*
D226*
X591080Y647170D02*
X599585Y638665D01*
X1291590Y1198654D02*
Y1233810D01*
X1316990Y1195020D02*
Y1232640D01*
X574040Y599440D02*
X587710Y613110D01*
X570230Y647170D02*
X591080D01*
X587710Y613110D02*
X601030D01*
X1111030Y712990D02*
X1111780Y713740D01*
X1111030Y684530D02*
Y712990D01*
X1111780Y607060D02*
Y634250D01*
X1111030Y635000D02*
X1111780Y634250D01*
D228*
X1160780Y560070D02*
Y607060D01*
Y713740D02*
Y767080D01*
X384810Y555210D02*
Y586740D01*
D236*
X982420Y833120D02*
D03*
X896340D02*
D03*
X695250Y821690D02*
D03*
X610160D02*
D03*
D237*
X947420Y833120D02*
D03*
X861340D02*
D03*
X730250Y821690D02*
D03*
X645160D02*
D03*
X731520Y721360D02*
D03*
X878840Y732080D02*
D03*
X849630Y668490D02*
D03*
Y618490D02*
D03*
X865270Y518560D02*
D03*
Y568560D02*
D03*
X759460Y568160D02*
D03*
Y518160D02*
D03*
X865270Y462515D02*
D03*
Y412515D02*
D03*
X889000Y330200D02*
D03*
X839000D02*
D03*
X228200Y376320D02*
D03*
Y426320D02*
D03*
X266700Y299720D02*
D03*
X216700D02*
D03*
X134220Y467640D02*
D03*
Y417640D02*
D03*
D238*
X731520Y756360D02*
D03*
X878840Y767080D02*
D03*
D239*
X1300480Y1289050D02*
D03*
X1338580D02*
D03*
X1376680D02*
D03*
X1414780D02*
D03*
Y1136650D02*
D03*
X1376680D02*
D03*
X1338580D02*
D03*
X1300480D02*
D03*
D240*
X798630Y1240790D02*
D03*
X798830Y1314450D02*
D03*
D241*
X786130Y1240790D02*
D03*
X773630D02*
D03*
X761130D02*
D03*
X773830Y1314450D02*
D03*
X761330D02*
D03*
X786330D02*
D03*
D242*
X838600D02*
D03*
X851100D02*
D03*
X863600D02*
D03*
X876100D02*
D03*
X888600D02*
D03*
D243*
X901100D02*
D03*
D244*
X250500Y889200D02*
D03*
X148900D02*
D03*
Y990800D02*
D03*
X250500D02*
D03*
Y1092400D02*
D03*
X148900D02*
D03*
Y1194000D02*
D03*
X250500D02*
D03*
X966070Y434200D02*
D03*
Y332600D02*
D03*
X1067670D02*
D03*
Y434200D02*
D03*
X469900D02*
D03*
Y332600D02*
D03*
X571500D02*
D03*
Y434200D02*
D03*
D245*
X1400000Y1050000D02*
D03*
X95000Y1330000D02*
D03*
X1575000Y280000D02*
D03*
Y1330000D02*
D03*
X350000Y870000D02*
D03*
X95000Y280000D02*
D03*
D246*
X1312860Y611680D02*
D03*
X1292860Y741680D02*
D03*
D247*
X1299710Y818660D02*
D03*
X1425710Y598660D02*
D03*
D248*
X130030Y594860D02*
D03*
X350030Y720860D02*
D03*
D249*
X1060530Y1252220D02*
D03*
X1085930D02*
D03*
X1111330D02*
D03*
D250*
X1136730D02*
D03*
D251*
X556410Y1163020D02*
D03*
Y1189020D02*
D03*
Y1176020D02*
D03*
X543410Y1163020D02*
D03*
Y1189020D02*
D03*
Y1176020D02*
D03*
X974690Y1209040D02*
D03*
X958590Y1225140D02*
D03*
X974690D02*
D03*
X958590Y1209040D02*
D03*
D252*
X186494Y254750D02*
D03*
X286316D02*
D03*
X386138D02*
D03*
X485960Y271260D02*
D03*
X685604Y254750D02*
D03*
X585782Y271260D02*
D03*
X1384358Y254750D02*
D03*
X1484180D02*
D03*
X1084892Y273800D02*
D03*
X1184714Y254750D02*
D03*
X1284536D02*
D03*
X985070Y272530D02*
D03*
X885248Y254750D02*
D03*
X785426D02*
D03*
X1600250Y440604D02*
D03*
Y340782D02*
D03*
Y540426D02*
D03*
Y640248D02*
D03*
Y740070D02*
D03*
Y1039536D02*
D03*
Y939714D02*
D03*
Y839892D02*
D03*
Y1239180D02*
D03*
Y1139358D02*
D03*
X1383684Y1357790D02*
D03*
X1483506Y1355250D02*
D03*
X1283862Y1357790D02*
D03*
X69750Y340782D02*
D03*
Y440604D02*
D03*
Y540426D02*
D03*
Y640248D02*
D03*
Y740070D02*
D03*
Y1039536D02*
D03*
X87530Y939714D02*
D03*
X69750Y839892D02*
D03*
Y1239180D02*
D03*
X87530Y1139358D02*
D03*
X285642Y1355250D02*
D03*
X185820D02*
D03*
X585108D02*
D03*
X485286D02*
D03*
X385464D02*
D03*
X895452Y1227462D02*
D03*
X797560Y1079500D02*
D03*
X448310Y1219200D02*
D03*
X487680Y1236980D02*
D03*
X521970Y1211580D02*
D03*
X466090Y1168550D02*
D03*
X464820Y1144270D02*
D03*
X466090Y1108710D02*
D03*
X434340Y1089660D02*
D03*
Y1112838D02*
D03*
Y1136015D02*
D03*
Y1159193D02*
D03*
Y1182370D02*
D03*
X684930Y1355250D02*
D03*
X784752Y1357790D02*
D03*
X884574D02*
D03*
X984396D02*
D03*
X1184040D02*
D03*
X1084218D02*
D03*
X1250950Y1295400D02*
D03*
X1271270Y1292860D02*
D03*
X1178560Y1256030D02*
D03*
X1191260Y1268730D02*
D03*
X1206500Y1280160D02*
D03*
X1272540Y1202690D02*
D03*
Y1224280D02*
D03*
X1206500Y1200150D02*
D03*
Y1164590D02*
D03*
X927100Y1322070D02*
D03*
Y1311910D02*
D03*
X969010Y1316990D02*
D03*
X820420Y1272540D02*
D03*
X741680Y1283970D02*
D03*
X725611Y1231817D02*
D03*
X727710Y1184910D02*
D03*
X546100Y1126490D02*
D03*
X539750Y1093470D02*
D03*
X652004Y1112265D02*
D03*
X618490Y1113790D02*
D03*
Y1073760D02*
D03*
X684530Y1074420D02*
D03*
X683260Y1113790D02*
D03*
X764094Y1003432D02*
D03*
X817880Y1003300D02*
D03*
X911860Y1035050D02*
D03*
X897890Y1109980D02*
D03*
Y1258570D02*
D03*
X892983Y1279924D02*
D03*
X835660Y1233170D02*
D03*
X885549Y1186262D02*
D03*
X833120Y1127760D02*
D03*
X830580Y1150620D02*
D03*
X800100Y1176020D02*
D03*
X797560Y1155700D02*
D03*
X1042670Y1254760D02*
D03*
X1078230Y1200150D02*
D03*
X1069340Y1155700D02*
D03*
X1060250Y1177490D02*
D03*
X1112520Y1107440D02*
D03*
X1149350Y1096850D02*
D03*
X684530Y1023620D02*
D03*
X680720Y1033780D02*
D03*
X684530Y1003300D02*
D03*
Y1013460D02*
D03*
X670420Y1033812D02*
D03*
X932180Y1068070D02*
D03*
X851864Y1049571D02*
D03*
X791388Y1052301D02*
D03*
X808990Y1103630D02*
D03*
X757932Y1117015D02*
D03*
X790142Y1115481D02*
D03*
X589280Y1139190D02*
D03*
X1221130Y1143660D02*
D03*
X1243484Y1259234D02*
D03*
X448310Y1258570D02*
D03*
X1047750Y1055370D02*
D03*
X1005840Y1139190D02*
D03*
X1045210Y1141730D02*
D03*
X1050290Y1104900D02*
D03*
X1142110Y1136270D02*
D03*
X1118870Y1223010D02*
D03*
X1164590Y1193165D02*
D03*
X784100Y1169670D02*
D03*
X846810Y1181380D02*
D03*
X875030Y1186180D02*
D03*
X967740Y1303020D02*
D03*
X972185Y1292225D02*
D03*
X972306Y1268884D02*
D03*
X967740Y1277620D02*
D03*
X789940Y1192530D02*
D03*
X760730Y1220470D02*
D03*
X895350Y1165860D02*
D03*
X760730Y1153160D02*
D03*
X801370Y1196340D02*
D03*
X853440Y1163320D02*
D03*
X1059381Y1235589D02*
D03*
X718820Y1066800D02*
D03*
X1056640Y1223010D02*
D03*
X1045210Y1238250D02*
D03*
X1030033Y1210611D02*
D03*
X1038251Y1217728D02*
D03*
X1016420Y1207187D02*
D03*
X1022350Y1187168D02*
D03*
X1013919Y1181860D02*
D03*
X1049020Y1193800D02*
D03*
X1042670Y1209040D02*
D03*
X906780Y1271270D02*
D03*
X1003300Y1054100D02*
D03*
X1024755Y1254619D02*
D03*
X906991Y1252620D02*
D03*
X1127350Y1085850D02*
D03*
X1000590Y1166617D02*
D03*
X1076960Y1134110D02*
D03*
X1076885Y1282370D02*
D03*
X1043987Y1177601D02*
D03*
X988133Y1037869D02*
D03*
X955040Y1156335D02*
D03*
X947420Y1164659D02*
D03*
X914690Y1202035D02*
D03*
X901046Y1211585D02*
D03*
X914736Y1160789D02*
D03*
X969010Y1004570D02*
D03*
X914736Y1147216D02*
D03*
X1117600Y1061720D02*
D03*
X956310Y977900D02*
D03*
X884623Y985492D02*
D03*
X910590Y889000D02*
D03*
X933450Y922020D02*
D03*
X891140Y933050D02*
D03*
X802240Y905910D02*
D03*
X727710Y915670D02*
D03*
X879941Y1073150D02*
D03*
X871220D02*
D03*
X862498D02*
D03*
X862667Y1106122D02*
D03*
X871388D02*
D03*
X880110D02*
D03*
X952447Y903099D02*
D03*
D253*
X590694Y1295426D02*
D03*
X597024Y1204389D02*
D03*
X674500Y1243826D02*
D03*
X676019Y1210155D02*
D03*
X362030Y1084580D02*
D03*
X1281430Y1002030D02*
D03*
Y989330D02*
D03*
X1236980Y339090D02*
D03*
X1219200Y340360D02*
D03*
X1144800Y369040D02*
D03*
X919480Y1089660D02*
D03*
X1440180Y1262380D02*
D03*
X1438910Y1209040D02*
D03*
X601980Y655320D02*
D03*
X1236980Y906780D02*
D03*
X1221740Y730250D02*
D03*
X1209040Y708660D02*
D03*
X699755Y889563D02*
D03*
X723900Y892810D02*
D03*
X828910Y907180D02*
D03*
X579000Y900550D02*
D03*
X833120Y961390D02*
D03*
X829310Y925830D02*
D03*
X747145Y924175D02*
D03*
X1000760Y886460D02*
D03*
X713774Y930944D02*
D03*
X669844Y954486D02*
D03*
X502520Y905910D02*
D03*
X546366Y926966D02*
D03*
X599530Y638610D02*
D03*
X838200Y1053465D02*
D03*
X737870Y1116282D02*
D03*
X663308Y546100D02*
D03*
X636638Y527439D02*
D03*
X610478Y533852D02*
D03*
X623938Y533488D02*
D03*
X321310Y1099820D02*
D03*
X308610D02*
D03*
X295910D02*
D03*
X283210D02*
D03*
X1223010Y628650D02*
D03*
X1209040Y635000D02*
D03*
X665480Y614680D02*
D03*
X1280450Y355310D02*
D03*
Y346420D02*
D03*
X1316065Y937550D02*
D03*
X1304000D02*
D03*
X1362420Y919770D02*
D03*
X1292570Y976920D02*
D03*
X1276060D02*
D03*
X596900Y1187450D02*
D03*
D261*
X1291590Y1168654D02*
D03*
Y1198654D02*
D03*
D262*
Y1233810D02*
D03*
Y1250310D02*
D03*
D263*
X1316990Y1261640D02*
D03*
Y1232640D02*
D03*
D264*
X384810Y519210D02*
D03*
Y555210D02*
D03*
D265*
X584310Y756970D02*
D03*
Y731470D02*
D03*
X288290Y463600D02*
D03*
Y438100D02*
D03*
X1051450Y774750D02*
D03*
Y749250D02*
D03*
X1023500Y622250D02*
D03*
Y647750D02*
D03*
D266*
X608440Y728950D02*
D03*
Y756950D02*
D03*
X321310Y438120D02*
D03*
Y466120D02*
D03*
X1028590Y748000D02*
D03*
Y776000D02*
D03*
X1000640Y648690D02*
D03*
Y620690D02*
D03*
D267*
X1147030Y635000D02*
D03*
X1111030D02*
D03*
X1147030Y684530D02*
D03*
X1111030D02*
D03*
D268*
X1079800Y1165860D02*
D03*
X1053800D02*
D03*
D269*
X1051967Y1167231D02*
D03*
D270*
X1127960Y530225D02*
D03*
D271*
X1138555Y793513D02*
D03*
X469265Y757055D02*
D03*
X1137285Y964565D02*
D03*
D272*
X460705Y997105D02*
D03*
M02*
