G04*
G04 #@! TF.GenerationSoftware,Altium Limited,CircuitMaker,2.2.1 (2.2.1.6)*
G04*
G04 Layer_Color=20142*
%FSLAX44Y44*%
%MOMM*%
G71*
G04*
G04 #@! TF.SameCoordinates,19C9E3CA-E082-4F8C-9F67-3D0F94DA41C6*
G04*
G04*
G04 #@! TF.FilePolarity,Negative*
G04*
G01*
G75*
%ADD107C,1.0000*%
%ADD113R,3.1000X10.4000*%
%ADD114R,1.8500X10.4000*%
%ADD115R,10.4000X3.1000*%
%ADD116R,10.4000X1.8500*%
%ADD117C,2.5000*%
G04:AMPARAMS|DCode=118|XSize=5.7032mm|YSize=3.4032mm|CornerRadius=0.9016mm|HoleSize=0mm|Usage=FLASHONLY|Rotation=0.000|XOffset=0mm|YOffset=0mm|HoleType=Round|Shape=RoundedRectangle|*
%AMROUNDEDRECTD118*
21,1,5.7032,1.6000,0,0,0.0*
21,1,3.9000,3.4032,0,0,0.0*
1,1,1.8032,1.9500,-0.8000*
1,1,1.8032,-1.9500,-0.8000*
1,1,1.8032,-1.9500,0.8000*
1,1,1.8032,1.9500,0.8000*
%
%ADD118ROUNDEDRECTD118*%
%ADD119R,1.1032X1.1032*%
%ADD120R,1.2032X1.1532*%
%ADD121R,1.0032X1.2032*%
G04:AMPARAMS|DCode=122|XSize=1.1684mm|YSize=0.9906mm|CornerRadius=0.1803mm|HoleSize=0mm|Usage=FLASHONLY|Rotation=90.000|XOffset=0mm|YOffset=0mm|HoleType=Round|Shape=RoundedRectangle|*
%AMROUNDEDRECTD122*
21,1,1.1684,0.6299,0,0,90.0*
21,1,0.8077,0.9906,0,0,90.0*
1,1,0.3607,0.3150,0.4039*
1,1,0.3607,0.3150,-0.4039*
1,1,0.3607,-0.3150,-0.4039*
1,1,0.3607,-0.3150,0.4039*
%
%ADD122ROUNDEDRECTD122*%
%ADD123R,1.1532X1.2032*%
%ADD124R,1.2532X1.1032*%
%ADD125R,0.9032X1.4032*%
G04:AMPARAMS|DCode=126|XSize=0.8032mm|YSize=2.4032mm|CornerRadius=0.2516mm|HoleSize=0mm|Usage=FLASHONLY|Rotation=90.000|XOffset=0mm|YOffset=0mm|HoleType=Round|Shape=RoundedRectangle|*
%AMROUNDEDRECTD126*
21,1,0.8032,1.9000,0,0,90.0*
21,1,0.3000,2.4032,0,0,90.0*
1,1,0.5032,0.9500,0.1500*
1,1,0.5032,0.9500,-0.1500*
1,1,0.5032,-0.9500,-0.1500*
1,1,0.5032,-0.9500,0.1500*
%
%ADD126ROUNDEDRECTD126*%
%ADD127R,2.6032X3.3032*%
%ADD128R,3.2032X5.7032*%
%ADD129R,1.8532X2.5032*%
%ADD130R,1.7032X2.1032*%
%ADD131R,3.2004X2.2860*%
%ADD132R,1.1032X1.3032*%
G04:AMPARAMS|DCode=133|XSize=1.1684mm|YSize=0.9906mm|CornerRadius=0.1803mm|HoleSize=0mm|Usage=FLASHONLY|Rotation=0.000|XOffset=0mm|YOffset=0mm|HoleType=Round|Shape=RoundedRectangle|*
%AMROUNDEDRECTD133*
21,1,1.1684,0.6299,0,0,0.0*
21,1,0.8077,0.9906,0,0,0.0*
1,1,0.3607,0.4039,-0.3150*
1,1,0.3607,-0.4039,-0.3150*
1,1,0.3607,-0.4039,0.3150*
1,1,0.3607,0.4039,0.3150*
%
%ADD133ROUNDEDRECTD133*%
%ADD134R,1.3532X1.9032*%
%ADD135R,1.5032X2.0032*%
%ADD136R,1.4032X2.7032*%
%ADD137R,1.8032X3.7532*%
G04:AMPARAMS|DCode=138|XSize=0.6532mm|YSize=1.2532mm|CornerRadius=0.1241mm|HoleSize=0mm|Usage=FLASHONLY|Rotation=0.000|XOffset=0mm|YOffset=0mm|HoleType=Round|Shape=RoundedRectangle|*
%AMROUNDEDRECTD138*
21,1,0.6532,1.0050,0,0,0.0*
21,1,0.4050,1.2532,0,0,0.0*
1,1,0.2482,0.2025,-0.5025*
1,1,0.2482,-0.2025,-0.5025*
1,1,0.2482,-0.2025,0.5025*
1,1,0.2482,0.2025,0.5025*
%
%ADD138ROUNDEDRECTD138*%
%ADD139R,1.2032X1.1032*%
%ADD140R,2.5032X2.7032*%
G04:AMPARAMS|DCode=141|XSize=1.2532mm|YSize=1.1032mm|CornerRadius=0.1916mm|HoleSize=0mm|Usage=FLASHONLY|Rotation=180.000|XOffset=0mm|YOffset=0mm|HoleType=Round|Shape=RoundedRectangle|*
%AMROUNDEDRECTD141*
21,1,1.2532,0.7200,0,0,180.0*
21,1,0.8700,1.1032,0,0,180.0*
1,1,0.3832,-0.4350,0.3600*
1,1,0.3832,0.4350,0.3600*
1,1,0.3832,0.4350,-0.3600*
1,1,0.3832,-0.4350,-0.3600*
%
%ADD141ROUNDEDRECTD141*%
%ADD142R,1.1032X1.2032*%
%ADD143R,0.8032X1.1032*%
%ADD144R,1.0532X0.6032*%
%ADD145R,0.8128X1.7526*%
%ADD146R,1.9032X1.2532*%
%ADD147R,1.5532X1.4032*%
%ADD148R,1.1032X1.2532*%
%ADD149R,1.1032X0.8032*%
G04:AMPARAMS|DCode=150|XSize=1.2532mm|YSize=1.1032mm|CornerRadius=0.1916mm|HoleSize=0mm|Usage=FLASHONLY|Rotation=90.000|XOffset=0mm|YOffset=0mm|HoleType=Round|Shape=RoundedRectangle|*
%AMROUNDEDRECTD150*
21,1,1.2532,0.7200,0,0,90.0*
21,1,0.8700,1.1032,0,0,90.0*
1,1,0.3832,0.3600,0.4350*
1,1,0.3832,0.3600,-0.4350*
1,1,0.3832,-0.3600,-0.4350*
1,1,0.3832,-0.3600,0.4350*
%
%ADD150ROUNDEDRECTD150*%
%ADD151R,0.9532X1.0532*%
%ADD152R,0.9032X1.0032*%
%ADD153R,1.0532X1.1032*%
%ADD154R,1.1032X1.0532*%
%ADD155R,1.2532X1.1532*%
%ADD156R,1.1032X0.9032*%
%ADD157R,0.9032X1.1032*%
%ADD158R,1.9532X1.4032*%
%ADD159R,1.2032X0.9032*%
%ADD160R,1.1532X1.2532*%
%ADD161R,0.8032X1.0032*%
%ADD162R,1.8032X3.9032*%
%ADD163R,2.6032X1.2032*%
%ADD164R,2.6032X3.5032*%
%ADD165R,0.9032X1.0532*%
%ADD166R,1.1532X1.0532*%
%ADD167O,0.8032X2.1032*%
%ADD168R,1.2032X1.2532*%
%ADD169R,1.2532X1.2032*%
%ADD170R,1.1032X1.1032*%
%ADD171R,1.2532X1.9032*%
%ADD172R,2.1032X2.2032*%
%ADD173R,1.3032X1.1032*%
%ADD174R,2.7032X1.9032*%
%ADD175R,0.5032X0.8532*%
%ADD176R,1.7032X1.7532*%
%ADD177R,4.2032X2.3032*%
%ADD178R,2.3032X4.2032*%
%ADD179R,2.7032X1.4032*%
%ADD180R,2.8032X2.3032*%
%ADD181R,2.1032X1.7032*%
%ADD182R,0.9232X1.9832*%
%ADD183R,1.0032X1.0032*%
%ADD184R,1.3032X2.2032*%
%ADD185R,7.4032X3.9032*%
%ADD186R,2.3032X2.8032*%
%ADD187R,2.2032X1.3032*%
%ADD188R,1.0032X1.0032*%
G04:AMPARAMS|DCode=189|XSize=2.2032mm|YSize=2.2032mm|CornerRadius=0.6016mm|HoleSize=0mm|Usage=FLASHONLY|Rotation=180.000|XOffset=0mm|YOffset=0mm|HoleType=Round|Shape=RoundedRectangle|*
%AMROUNDEDRECTD189*
21,1,2.2032,1.0000,0,0,180.0*
21,1,1.0000,2.2032,0,0,180.0*
1,1,1.2032,-0.5000,0.5000*
1,1,1.2032,0.5000,0.5000*
1,1,1.2032,0.5000,-0.5000*
1,1,1.2032,-0.5000,-0.5000*
%
%ADD189ROUNDEDRECTD189*%
%ADD190R,1.9832X0.9232*%
G04:AMPARAMS|DCode=191|XSize=2.2032mm|YSize=2.2032mm|CornerRadius=0.6016mm|HoleSize=0mm|Usage=FLASHONLY|Rotation=90.000|XOffset=0mm|YOffset=0mm|HoleType=Round|Shape=RoundedRectangle|*
%AMROUNDEDRECTD191*
21,1,2.2032,1.0000,0,0,90.0*
21,1,1.0000,2.2032,0,0,90.0*
1,1,1.2032,0.5000,0.5000*
1,1,1.2032,0.5000,-0.5000*
1,1,1.2032,-0.5000,-0.5000*
1,1,1.2032,-0.5000,0.5000*
%
%ADD191ROUNDEDRECTD191*%
%ADD192R,1.1032X1.1532*%
%ADD193R,1.4532X1.3032*%
%ADD194O,0.9000X0.3500*%
%ADD195O,0.3500X0.9000*%
%ADD196R,0.9000X0.3500*%
%ADD197R,5.7000X5.7000*%
%ADD198R,3.0000X1.0000*%
%ADD199R,8.3000X9.1000*%
%ADD200R,1.0000X3.0000*%
%ADD201R,9.1000X8.3000*%
G04:AMPARAMS|DCode=202|XSize=0.46mm|YSize=1.56mm|CornerRadius=0.13mm|HoleSize=0mm|Usage=FLASHONLY|Rotation=270.000|XOffset=0mm|YOffset=0mm|HoleType=Round|Shape=RoundedRectangle|*
%AMROUNDEDRECTD202*
21,1,0.4600,1.3000,0,0,270.0*
21,1,0.2000,1.5600,0,0,270.0*
1,1,0.2600,-0.6500,-0.1000*
1,1,0.2600,-0.6500,0.1000*
1,1,0.2600,0.6500,0.1000*
1,1,0.2600,0.6500,-0.1000*
%
%ADD202ROUNDEDRECTD202*%
G04:AMPARAMS|DCode=203|XSize=1.7272mm|YSize=1.7272mm|CornerRadius=0.4826mm|HoleSize=0mm|Usage=FLASHONLY|Rotation=180.000|XOffset=0mm|YOffset=0mm|HoleType=Round|Shape=RoundedRectangle|*
%AMROUNDEDRECTD203*
21,1,1.7272,0.7620,0,0,180.0*
21,1,0.7620,1.7272,0,0,180.0*
1,1,0.9652,-0.3810,0.3810*
1,1,0.9652,0.3810,0.3810*
1,1,0.9652,0.3810,-0.3810*
1,1,0.9652,-0.3810,-0.3810*
%
%ADD203ROUNDEDRECTD203*%
%ADD204C,1.7272*%
G04:AMPARAMS|DCode=205|XSize=1.7272mm|YSize=1.7272mm|CornerRadius=0.4826mm|HoleSize=0mm|Usage=FLASHONLY|Rotation=270.000|XOffset=0mm|YOffset=0mm|HoleType=Round|Shape=RoundedRectangle|*
%AMROUNDEDRECTD205*
21,1,1.7272,0.7620,0,0,270.0*
21,1,0.7620,1.7272,0,0,270.0*
1,1,0.9652,-0.3810,-0.3810*
1,1,0.9652,-0.3810,0.3810*
1,1,0.9652,0.3810,0.3810*
1,1,0.9652,0.3810,-0.3810*
%
%ADD205ROUNDEDRECTD205*%
%ADD206C,2.2032*%
%ADD207R,1.1532X1.7032*%
G04:AMPARAMS|DCode=208|XSize=1.7032mm|YSize=1.1532mm|CornerRadius=0mm|HoleSize=0mm|Usage=FLASHONLY|Rotation=270.000|XOffset=0mm|YOffset=0mm|HoleType=Round|Shape=Octagon|*
%AMOCTAGOND208*
4,1,8,-0.2883,-0.8516,0.2883,-0.8516,0.5766,-0.5633,0.5766,0.5633,0.2883,0.8516,-0.2883,0.8516,-0.5766,0.5633,-0.5766,-0.5633,-0.2883,-0.8516,0.0*
%
%ADD208OCTAGOND208*%

%ADD209O,1.1532X1.4032*%
%ADD210R,1.1532X1.4032*%
%ADD211C,3.2032*%
%ADD212C,7.2032*%
G04:AMPARAMS|DCode=213|XSize=8.2032mm|YSize=8.2032mm|CornerRadius=2.1016mm|HoleSize=0mm|Usage=FLASHONLY|Rotation=270.000|XOffset=0mm|YOffset=0mm|HoleType=Round|Shape=RoundedRectangle|*
%AMROUNDEDRECTD213*
21,1,8.2032,4.0000,0,0,270.0*
21,1,4.0000,8.2032,0,0,270.0*
1,1,4.2032,-2.0000,-2.0000*
1,1,4.2032,-2.0000,2.0000*
1,1,4.2032,2.0000,2.0000*
1,1,4.2032,2.0000,-2.0000*
%
%ADD213ROUNDEDRECTD213*%
%ADD214O,11.2032X6.7032*%
%ADD215O,6.7032X11.2032*%
%ADD216C,1.7032*%
G04:AMPARAMS|DCode=217|XSize=1.7032mm|YSize=1.7032mm|CornerRadius=0.2516mm|HoleSize=0mm|Usage=FLASHONLY|Rotation=180.000|XOffset=0mm|YOffset=0mm|HoleType=Round|Shape=RoundedRectangle|*
%AMROUNDEDRECTD217*
21,1,1.7032,1.2000,0,0,180.0*
21,1,1.2000,1.7032,0,0,180.0*
1,1,0.5032,-0.6000,0.6000*
1,1,0.5032,0.6000,0.6000*
1,1,0.5032,0.6000,-0.6000*
1,1,0.5032,-0.6000,-0.6000*
%
%ADD217ROUNDEDRECTD217*%
%ADD218C,0.7032*%
%ADD219C,0.8032*%
%ADD220C,1.0032*%
%ADD221C,1.2032*%
D107*
X410210Y562610D02*
D03*
X720090Y905510D02*
D03*
X730250Y875030D02*
D03*
X551330Y900476D02*
D03*
X934720Y994410D02*
D03*
X899160Y880110D02*
D03*
X495300Y882650D02*
D03*
X947420Y957580D02*
D03*
X904240Y488950D02*
D03*
X1074420Y1000760D02*
D03*
X1212850Y500380D02*
D03*
X1079500Y811530D02*
D03*
D113*
X438030Y993930D02*
D03*
X988510Y533180D02*
D03*
D114*
X490269Y993924D02*
D03*
X936251Y533164D02*
D03*
D115*
X472440Y572650D02*
D03*
X472440Y734380D02*
D03*
X1139190Y770440D02*
D03*
X1139190Y941890D02*
D03*
Y555440D02*
D03*
D116*
X472448Y624891D02*
D03*
X472447Y786620D02*
D03*
X1139189Y822697D02*
D03*
X1139219Y994138D02*
D03*
X1139182Y503196D02*
D03*
D117*
X1583690Y374650D02*
D03*
X233680Y1342390D02*
D03*
D118*
X772160Y462280D02*
D03*
X716660Y348280D02*
D03*
D119*
X803910Y977900D02*
D03*
X822910D02*
D03*
X1124610Y1122680D02*
D03*
X1143610D02*
D03*
X1240130Y1154430D02*
D03*
X1221130D02*
D03*
D120*
X804800Y961390D02*
D03*
X820800D02*
D03*
X1126110Y1107440D02*
D03*
X1142110D02*
D03*
X1060070Y1145540D02*
D03*
X1076070D02*
D03*
D121*
X457320Y1207770D02*
D03*
X472320D02*
D03*
X534050Y1140460D02*
D03*
X520050D02*
D03*
D122*
X438150Y1208659D02*
D03*
Y1224661D02*
D03*
X496570D02*
D03*
Y1208659D02*
D03*
X877570Y903351D02*
D03*
Y887349D02*
D03*
X938410Y1301839D02*
D03*
Y1317841D02*
D03*
X954920D02*
D03*
Y1301839D02*
D03*
X546100Y542671D02*
D03*
Y526669D02*
D03*
X544830Y679831D02*
D03*
Y663829D02*
D03*
X1134110Y455549D02*
D03*
Y471551D02*
D03*
X1209040Y599059D02*
D03*
Y615061D02*
D03*
Y719709D02*
D03*
Y735711D02*
D03*
X1207770Y889889D02*
D03*
Y905891D02*
D03*
X1502410Y1197610D02*
D03*
Y1213612D02*
D03*
Y1140079D02*
D03*
Y1156081D02*
D03*
Y1256919D02*
D03*
Y1272921D02*
D03*
D123*
X419100Y1208660D02*
D03*
Y1224660D02*
D03*
D124*
X433070Y1245070D02*
D03*
Y1258570D02*
D03*
X962430Y935120D02*
D03*
Y921620D02*
D03*
X1078230Y1178960D02*
D03*
Y1165460D02*
D03*
D125*
X457250Y1230630D02*
D03*
X476250D02*
D03*
X466750Y1253630D02*
D03*
D126*
X578410Y1156970D02*
D03*
Y1169670D02*
D03*
Y1182370D02*
D03*
Y1195070D02*
D03*
X521410Y1156970D02*
D03*
Y1169670D02*
D03*
Y1182370D02*
D03*
Y1195070D02*
D03*
D127*
X549910Y1176020D02*
D03*
D128*
X632210Y1275080D02*
D03*
X537210D02*
D03*
D129*
X601990Y1096010D02*
D03*
X634990D02*
D03*
D130*
X668020D02*
D03*
X698020D02*
D03*
X481090Y1092200D02*
D03*
X451090D02*
D03*
X866140Y1089660D02*
D03*
X899160D02*
D03*
X1329400Y938820D02*
D03*
X1362420D02*
D03*
D131*
X697230Y1163574D02*
D03*
Y1132586D02*
D03*
X656590Y1163574D02*
D03*
Y1132586D02*
D03*
X615950Y1163574D02*
D03*
Y1132586D02*
D03*
D132*
X586620Y1123950D02*
D03*
X571620D02*
D03*
X1205110Y1230630D02*
D03*
X1190110D02*
D03*
D133*
X558419Y1140460D02*
D03*
X574421D02*
D03*
X914781Y977900D02*
D03*
X898779D02*
D03*
X762381Y875030D02*
D03*
X746379D02*
D03*
X1220012Y1183595D02*
D03*
X1236014D02*
D03*
X764159Y1107440D02*
D03*
X780161D02*
D03*
D134*
X454610Y1182450D02*
D03*
X480110D02*
D03*
D135*
X480090Y1157050D02*
D03*
X452090D02*
D03*
D136*
X451090Y1126490D02*
D03*
X481090D02*
D03*
X640320Y1013460D02*
D03*
X670320D02*
D03*
D137*
X571040Y1094740D02*
D03*
X513540D02*
D03*
D138*
X371820Y1097670D02*
D03*
X365320D02*
D03*
X358820D02*
D03*
X352320D02*
D03*
Y1071470D02*
D03*
X358820D02*
D03*
X365320D02*
D03*
X371820D02*
D03*
D139*
X338213Y1077176D02*
D03*
Y1090676D02*
D03*
X795020Y937660D02*
D03*
Y924160D02*
D03*
X792480Y905910D02*
D03*
Y892410D02*
D03*
X712470Y888130D02*
D03*
Y874630D02*
D03*
X916940Y1252620D02*
D03*
Y1239120D02*
D03*
X748030Y1059580D02*
D03*
Y1046080D02*
D03*
X1016000Y1159910D02*
D03*
Y1146410D02*
D03*
X1148080Y1180230D02*
D03*
Y1166730D02*
D03*
X1034136Y1189317D02*
D03*
Y1175817D02*
D03*
X877570Y933050D02*
D03*
Y946550D02*
D03*
D140*
X302260Y1163830D02*
D03*
Y1119630D02*
D03*
D141*
X877570Y964800D02*
D03*
Y978300D02*
D03*
X962660Y889640D02*
D03*
Y903140D02*
D03*
X815340Y907180D02*
D03*
Y893680D02*
D03*
X1078230Y1221740D02*
D03*
Y1208240D02*
D03*
D142*
X934320Y977900D02*
D03*
X947820D02*
D03*
X977500Y886460D02*
D03*
X991000D02*
D03*
X933850Y880110D02*
D03*
X920350D02*
D03*
X683344Y943158D02*
D03*
X669844D02*
D03*
X533000Y915670D02*
D03*
X546500D02*
D03*
X770490Y1150620D02*
D03*
X783990D02*
D03*
X1020402Y1244133D02*
D03*
X1033902D02*
D03*
X916540Y1271270D02*
D03*
X930040D02*
D03*
X818280Y1069340D02*
D03*
X804780D02*
D03*
X1095610Y1223010D02*
D03*
X1109110D02*
D03*
X1128630D02*
D03*
X1142130D02*
D03*
X1088550Y1282370D02*
D03*
X1102050D02*
D03*
X1190860Y1244600D02*
D03*
X1204360D02*
D03*
D143*
X978020Y932180D02*
D03*
X993020D02*
D03*
D144*
X998600Y914550D02*
D03*
Y901550D02*
D03*
X979600D02*
D03*
Y908050D02*
D03*
Y914550D02*
D03*
X683870Y912980D02*
D03*
Y919480D02*
D03*
Y925980D02*
D03*
X664870D02*
D03*
Y912980D02*
D03*
X513740Y882500D02*
D03*
Y895500D02*
D03*
X532740D02*
D03*
Y889000D02*
D03*
Y882500D02*
D03*
D145*
X895350Y904160D02*
D03*
X908050D02*
D03*
X920750D02*
D03*
X933450D02*
D03*
X895350Y958262D02*
D03*
X908050D02*
D03*
X920750D02*
D03*
X933450D02*
D03*
X774700Y951230D02*
D03*
X762000D02*
D03*
X749300D02*
D03*
X736600D02*
D03*
X774700Y897128D02*
D03*
X762000D02*
D03*
X749300D02*
D03*
X736600D02*
D03*
X1094740Y1145540D02*
D03*
X1107440D02*
D03*
X1120140D02*
D03*
X1132840D02*
D03*
X1094740Y1199642D02*
D03*
X1107440D02*
D03*
X1120140D02*
D03*
X1132840D02*
D03*
D146*
X852170Y874750D02*
D03*
Y903250D02*
D03*
Y921740D02*
D03*
Y950240D02*
D03*
X1164590Y1136930D02*
D03*
Y1108430D02*
D03*
X1188720Y1089860D02*
D03*
Y1061360D02*
D03*
D147*
X816610Y926220D02*
D03*
Y943220D02*
D03*
X1164590Y1204350D02*
D03*
Y1221350D02*
D03*
Y1181980D02*
D03*
Y1164980D02*
D03*
D148*
X773030Y977900D02*
D03*
X786530D02*
D03*
X673100Y897890D02*
D03*
X686600D02*
D03*
X566820Y882650D02*
D03*
X553320D02*
D03*
X1107840Y1122680D02*
D03*
X1094340D02*
D03*
X1051720Y1282370D02*
D03*
X1065220D02*
D03*
D149*
X701040Y919360D02*
D03*
Y904360D02*
D03*
X566420Y900550D02*
D03*
Y915550D02*
D03*
D150*
X700274Y943231D02*
D03*
X713774D02*
D03*
X516020Y915670D02*
D03*
X502520D02*
D03*
X1485030Y1169670D02*
D03*
X1471530D02*
D03*
X1485030Y1228090D02*
D03*
X1471530D02*
D03*
X1485030Y1285240D02*
D03*
X1471530D02*
D03*
D151*
X877400Y1217530D02*
D03*
X735680Y1090930D02*
D03*
X747680D02*
D03*
D152*
X877400Y1231030D02*
D03*
X887900Y1217530D02*
D03*
Y1231030D02*
D03*
D153*
X874880Y1201420D02*
D03*
X887880D02*
D03*
D154*
X859790Y1217780D02*
D03*
Y1230780D02*
D03*
D155*
X1003300Y1304660D02*
D03*
Y1319160D02*
D03*
X1022350Y1304660D02*
D03*
Y1319160D02*
D03*
X984250D02*
D03*
Y1304660D02*
D03*
D156*
Y1274930D02*
D03*
Y1287930D02*
D03*
X1003300Y1274930D02*
D03*
Y1287930D02*
D03*
X1022350Y1274930D02*
D03*
Y1287930D02*
D03*
X1220470Y1243480D02*
D03*
Y1230480D02*
D03*
D157*
X853440Y1115060D02*
D03*
X839440D02*
D03*
X1225400Y1169670D02*
D03*
X1238400D02*
D03*
D158*
X808990Y1116630D02*
D03*
Y1090630D02*
D03*
X838200Y1095040D02*
D03*
Y1069040D02*
D03*
Y1037890D02*
D03*
Y1011890D02*
D03*
X1261110Y1253190D02*
D03*
Y1279190D02*
D03*
D159*
X764970Y1070000D02*
D03*
Y1079500D02*
D03*
Y1089000D02*
D03*
X786970D02*
D03*
Y1079500D02*
D03*
Y1070000D02*
D03*
D160*
X733410Y1106170D02*
D03*
X747410D02*
D03*
D161*
X748180Y1074420D02*
D03*
X735180D02*
D03*
D162*
X806210Y1036320D02*
D03*
X776210D02*
D03*
D163*
X872700Y1060590D02*
D03*
Y1037590D02*
D03*
Y1014590D02*
D03*
D164*
X930700Y1037590D02*
D03*
D165*
X1052919Y1177490D02*
D03*
Y1160990D02*
D03*
X984850Y1104900D02*
D03*
X996350D02*
D03*
D166*
X1031240Y1159910D02*
D03*
Y1146410D02*
D03*
D167*
X1052070Y1123230D02*
D03*
X1039370D02*
D03*
X1026670D02*
D03*
X1013970D02*
D03*
X1052070Y1076230D02*
D03*
X1039370D02*
D03*
X1026670D02*
D03*
X1013970D02*
D03*
D168*
X996950Y1132720D02*
D03*
Y1117720D02*
D03*
X1220470Y1200270D02*
D03*
Y1215270D02*
D03*
D169*
X1029850Y1054100D02*
D03*
X1014850D02*
D03*
D170*
X1076960Y1123290D02*
D03*
Y1104290D02*
D03*
D171*
X1163600Y1085850D02*
D03*
X1135100D02*
D03*
X1163600Y1061720D02*
D03*
X1135100D02*
D03*
D172*
X1133470Y1310640D02*
D03*
X1053470D02*
D03*
D173*
X1255203Y1180365D02*
D03*
Y1165365D02*
D03*
D174*
X1249680Y1214120D02*
D03*
D175*
X1247180Y1228870D02*
D03*
X1242180D02*
D03*
X1237180D02*
D03*
X1252180D02*
D03*
X1257180D02*
D03*
X1262180D02*
D03*
Y1199370D02*
D03*
X1257180D02*
D03*
X1252180D02*
D03*
X1237180D02*
D03*
X1242180D02*
D03*
X1247180D02*
D03*
D176*
X1208930Y1262380D02*
D03*
X1226930D02*
D03*
X630030Y626110D02*
D03*
X612030D02*
D03*
X1236110Y430240D02*
D03*
X1218110D02*
D03*
X1383900Y969300D02*
D03*
X1401900D02*
D03*
D177*
X1041400Y860540D02*
D03*
Y922540D02*
D03*
X631190Y888480D02*
D03*
Y950480D02*
D03*
D178*
X484620Y840740D02*
D03*
X546620D02*
D03*
D179*
X671860Y760490D02*
D03*
Y730490D02*
D03*
X636723Y760490D02*
D03*
Y730490D02*
D03*
X601587Y760490D02*
D03*
Y730490D02*
D03*
X566450Y760490D02*
D03*
Y730490D02*
D03*
X921510Y644030D02*
D03*
Y614030D02*
D03*
X957677Y644030D02*
D03*
Y614030D02*
D03*
X993843Y644030D02*
D03*
Y614030D02*
D03*
X1030010Y644030D02*
D03*
Y614030D02*
D03*
X1046530Y747650D02*
D03*
Y777650D02*
D03*
X1010493Y747650D02*
D03*
Y777650D02*
D03*
X974457Y747650D02*
D03*
Y777650D02*
D03*
X938420Y747650D02*
D03*
Y777650D02*
D03*
X287020Y467120D02*
D03*
Y437120D02*
D03*
X320040Y467120D02*
D03*
Y437120D02*
D03*
X353060Y467120D02*
D03*
Y437120D02*
D03*
X386080Y467120D02*
D03*
Y437120D02*
D03*
D180*
X574040Y673840D02*
D03*
Y624840D02*
D03*
Y541020D02*
D03*
Y590020D02*
D03*
X1165860Y466830D02*
D03*
Y417830D02*
D03*
X1438910Y900960D02*
D03*
Y949960D02*
D03*
X1256447Y958762D02*
D03*
Y909762D02*
D03*
D181*
X669290Y563880D02*
D03*
Y596900D02*
D03*
X1280450Y370550D02*
D03*
Y403570D02*
D03*
X1522730Y1139190D02*
D03*
Y1172210D02*
D03*
Y1196340D02*
D03*
Y1229360D02*
D03*
Y1253490D02*
D03*
Y1286510D02*
D03*
X302260Y1084340D02*
D03*
Y1054340D02*
D03*
D182*
X610870Y548000D02*
D03*
Y595178D02*
D03*
X623570D02*
D03*
X636270D02*
D03*
X648970D02*
D03*
Y548000D02*
D03*
X636270D02*
D03*
X623570D02*
D03*
X1220760Y355940D02*
D03*
Y403118D02*
D03*
X1233460D02*
D03*
X1246160D02*
D03*
X1258860D02*
D03*
Y355940D02*
D03*
X1246160D02*
D03*
X1233460D02*
D03*
D183*
X546100Y560070D02*
D03*
Y642570D02*
D03*
X1187450Y453390D02*
D03*
X1281430Y934720D02*
D03*
D184*
X546100Y579070D02*
D03*
Y623570D02*
D03*
X1187450Y434390D02*
D03*
X1281430Y953720D02*
D03*
D185*
X356870Y392430D02*
D03*
Y311430D02*
D03*
D186*
X1144800Y350520D02*
D03*
X1193800D02*
D03*
X1291060Y459740D02*
D03*
X1242060D02*
D03*
X1337633Y896178D02*
D03*
X1288633D02*
D03*
D187*
X1191210Y326390D02*
D03*
X1306780Y920750D02*
D03*
D188*
X1172210Y326390D02*
D03*
X1287780Y920750D02*
D03*
D189*
X1330670Y459130D02*
D03*
Y419130D02*
D03*
D190*
X1314790Y995970D02*
D03*
X1361968D02*
D03*
Y983270D02*
D03*
Y970570D02*
D03*
Y957870D02*
D03*
X1314790D02*
D03*
Y970570D02*
D03*
Y983270D02*
D03*
D191*
X1406550Y900720D02*
D03*
X1366550D02*
D03*
D192*
X1456180Y1197610D02*
D03*
X1487680D02*
D03*
X1456180Y1140460D02*
D03*
X1487680D02*
D03*
X1456180Y1256030D02*
D03*
X1487680D02*
D03*
D193*
X979960Y1148325D02*
D03*
X996960D02*
D03*
D194*
X932640Y1189590D02*
D03*
Y1214590D02*
D03*
Y1209590D02*
D03*
Y1204590D02*
D03*
Y1199590D02*
D03*
Y1234590D02*
D03*
Y1229590D02*
D03*
Y1224590D02*
D03*
Y1219590D02*
D03*
X1000640Y1189590D02*
D03*
Y1199590D02*
D03*
Y1204590D02*
D03*
Y1209590D02*
D03*
Y1214590D02*
D03*
Y1219590D02*
D03*
Y1224590D02*
D03*
Y1229590D02*
D03*
Y1234590D02*
D03*
Y1244590D02*
D03*
X932640Y1194590D02*
D03*
Y1239590D02*
D03*
X1000640Y1194590D02*
D03*
Y1239590D02*
D03*
D195*
X939140Y1183090D02*
D03*
Y1251090D02*
D03*
X949140Y1183090D02*
D03*
X954140D02*
D03*
X959140D02*
D03*
X964140D02*
D03*
Y1251090D02*
D03*
X959140D02*
D03*
X954140D02*
D03*
X949140D02*
D03*
X969140Y1183090D02*
D03*
X974140D02*
D03*
X979140D02*
D03*
X984140D02*
D03*
Y1251090D02*
D03*
X979140D02*
D03*
X974140D02*
D03*
X969140D02*
D03*
X994140Y1183090D02*
D03*
Y1251090D02*
D03*
X944140Y1183090D02*
D03*
Y1251090D02*
D03*
X989140Y1183090D02*
D03*
Y1251090D02*
D03*
D196*
X932640Y1244590D02*
D03*
D197*
X966640Y1217090D02*
D03*
D198*
X379730Y951930D02*
D03*
Y963930D02*
D03*
Y975930D02*
D03*
Y987930D02*
D03*
Y999930D02*
D03*
Y1011930D02*
D03*
Y1023930D02*
D03*
Y1035930D02*
D03*
X1046810Y491180D02*
D03*
Y503180D02*
D03*
Y515180D02*
D03*
Y527180D02*
D03*
Y539180D02*
D03*
Y551180D02*
D03*
Y563180D02*
D03*
Y575180D02*
D03*
D199*
X458030Y993930D02*
D03*
X968510Y533180D02*
D03*
D200*
X514440Y514350D02*
D03*
X502440D02*
D03*
X490440D02*
D03*
X478440D02*
D03*
X466440D02*
D03*
X454440D02*
D03*
X442440D02*
D03*
X430440D02*
D03*
X514440Y676080D02*
D03*
X502440D02*
D03*
X490440D02*
D03*
X478440D02*
D03*
X466440D02*
D03*
X454440D02*
D03*
X442440D02*
D03*
X430440D02*
D03*
X1181190Y712140D02*
D03*
X1169190D02*
D03*
X1157190D02*
D03*
X1145190D02*
D03*
X1133190D02*
D03*
X1121190D02*
D03*
X1109190D02*
D03*
X1097190D02*
D03*
X1181190Y883590D02*
D03*
X1169190D02*
D03*
X1157190D02*
D03*
X1145190D02*
D03*
X1133190D02*
D03*
X1121190D02*
D03*
X1109190D02*
D03*
X1097190D02*
D03*
X1181190Y613740D02*
D03*
X1169190D02*
D03*
X1157190D02*
D03*
X1145190D02*
D03*
X1133190D02*
D03*
X1121190D02*
D03*
X1109190D02*
D03*
X1097190D02*
D03*
D201*
X472440Y592650D02*
D03*
Y754380D02*
D03*
X1139190Y790440D02*
D03*
Y961890D02*
D03*
Y535440D02*
D03*
D202*
X829100Y1163430D02*
D03*
Y1169930D02*
D03*
Y1176430D02*
D03*
Y1182930D02*
D03*
Y1189430D02*
D03*
Y1195930D02*
D03*
Y1202430D02*
D03*
X771100D02*
D03*
Y1195930D02*
D03*
Y1189430D02*
D03*
Y1182930D02*
D03*
Y1176430D02*
D03*
Y1169930D02*
D03*
X829100Y1208930D02*
D03*
X771100D02*
D03*
Y1163430D02*
D03*
D203*
X982420Y833120D02*
D03*
X896340D02*
D03*
X695250Y821690D02*
D03*
X610160D02*
D03*
D204*
X947420Y833120D02*
D03*
X861340D02*
D03*
X730250Y821690D02*
D03*
X645160D02*
D03*
X731520Y721360D02*
D03*
X878840Y732080D02*
D03*
X849630Y668490D02*
D03*
Y618490D02*
D03*
X865270Y518560D02*
D03*
Y568560D02*
D03*
X759460Y568160D02*
D03*
Y518160D02*
D03*
X865270Y462515D02*
D03*
Y412515D02*
D03*
X889000Y330200D02*
D03*
X839000D02*
D03*
X228200Y376320D02*
D03*
Y426320D02*
D03*
X266700Y299720D02*
D03*
X216700D02*
D03*
X134220Y467640D02*
D03*
Y417640D02*
D03*
D205*
X731520Y756360D02*
D03*
X878840Y767080D02*
D03*
D206*
X1300480Y1289050D02*
D03*
X1338580D02*
D03*
X1376680D02*
D03*
X1414780D02*
D03*
Y1136650D02*
D03*
X1376680D02*
D03*
X1338580D02*
D03*
X1300480D02*
D03*
D207*
X798630Y1240790D02*
D03*
X798830Y1314450D02*
D03*
D208*
X786130Y1240790D02*
D03*
X773630D02*
D03*
X761130D02*
D03*
X773830Y1314450D02*
D03*
X761330D02*
D03*
X786330D02*
D03*
D209*
X838600D02*
D03*
X851100D02*
D03*
X863600D02*
D03*
X876100D02*
D03*
X888600D02*
D03*
D210*
X901100D02*
D03*
D211*
X250500Y889200D02*
D03*
X148900D02*
D03*
Y990800D02*
D03*
X250500D02*
D03*
Y1092400D02*
D03*
X148900D02*
D03*
Y1194000D02*
D03*
X250500D02*
D03*
X966070Y434200D02*
D03*
Y332600D02*
D03*
X1067670D02*
D03*
Y434200D02*
D03*
X469900D02*
D03*
Y332600D02*
D03*
X571500D02*
D03*
Y434200D02*
D03*
D212*
X1400000Y1050000D02*
D03*
X95000Y1330000D02*
D03*
X1575000Y280000D02*
D03*
Y1330000D02*
D03*
X350000Y870000D02*
D03*
X95000Y280000D02*
D03*
D213*
X1312860Y611680D02*
D03*
X1292860Y741680D02*
D03*
D214*
X1299710Y818660D02*
D03*
X1425710Y598660D02*
D03*
D215*
X130030Y594860D02*
D03*
X350030Y720860D02*
D03*
D216*
X1060530Y1252220D02*
D03*
X1085930D02*
D03*
X1111330D02*
D03*
D217*
X1136730D02*
D03*
D218*
X556410Y1163020D02*
D03*
Y1189020D02*
D03*
Y1176020D02*
D03*
X543410Y1163020D02*
D03*
Y1189020D02*
D03*
Y1176020D02*
D03*
X974690Y1209040D02*
D03*
X958590Y1225140D02*
D03*
X974690D02*
D03*
X958590Y1209040D02*
D03*
D219*
X186494Y254750D02*
D03*
X286316D02*
D03*
X386138D02*
D03*
X485960Y271260D02*
D03*
X685604Y254750D02*
D03*
X585782Y271260D02*
D03*
X1384358Y254750D02*
D03*
X1484180D02*
D03*
X1084892Y273800D02*
D03*
X1184714Y254750D02*
D03*
X1284536D02*
D03*
X985070Y272530D02*
D03*
X885248Y254750D02*
D03*
X785426D02*
D03*
X1600250Y440604D02*
D03*
Y340782D02*
D03*
Y540426D02*
D03*
Y640248D02*
D03*
Y740070D02*
D03*
Y1039536D02*
D03*
Y939714D02*
D03*
Y839892D02*
D03*
Y1239180D02*
D03*
Y1139358D02*
D03*
X1383684Y1357790D02*
D03*
X1483506Y1355250D02*
D03*
X1283862Y1357790D02*
D03*
X69750Y340782D02*
D03*
Y440604D02*
D03*
Y540426D02*
D03*
Y640248D02*
D03*
Y740070D02*
D03*
Y1039536D02*
D03*
X87530Y939714D02*
D03*
X69750Y839892D02*
D03*
Y1239180D02*
D03*
X87530Y1139358D02*
D03*
X285642Y1355250D02*
D03*
X185820D02*
D03*
X585108D02*
D03*
X485286D02*
D03*
X385464D02*
D03*
X895452Y1227462D02*
D03*
X797560Y1079500D02*
D03*
X448310Y1219200D02*
D03*
X487680Y1236980D02*
D03*
X521970Y1211580D02*
D03*
X466090Y1168550D02*
D03*
X464820Y1144270D02*
D03*
X466090Y1108710D02*
D03*
X434340Y1089660D02*
D03*
Y1112838D02*
D03*
Y1136015D02*
D03*
Y1159193D02*
D03*
Y1182370D02*
D03*
X684930Y1355250D02*
D03*
X784752Y1357790D02*
D03*
X884574D02*
D03*
X984396D02*
D03*
X1184040D02*
D03*
X1084218D02*
D03*
X1250950Y1295400D02*
D03*
X1271270Y1292860D02*
D03*
X1178560Y1256030D02*
D03*
X1191260Y1268730D02*
D03*
X1206500Y1280160D02*
D03*
X1272540Y1202690D02*
D03*
Y1224280D02*
D03*
X1206500Y1200150D02*
D03*
Y1164590D02*
D03*
X927100Y1322070D02*
D03*
Y1311910D02*
D03*
X820420Y1272540D02*
D03*
X741680Y1283970D02*
D03*
X725611Y1231817D02*
D03*
X727710Y1184910D02*
D03*
X546100Y1126490D02*
D03*
X539750Y1093470D02*
D03*
X652004Y1112265D02*
D03*
X618490Y1113790D02*
D03*
Y1073760D02*
D03*
X683260Y1113790D02*
D03*
X764094Y1003432D02*
D03*
X817880Y1003300D02*
D03*
X911860Y1035050D02*
D03*
X897890Y1109980D02*
D03*
Y1258570D02*
D03*
X892983Y1279924D02*
D03*
X835660Y1233170D02*
D03*
X833120Y1127760D02*
D03*
X830580Y1150620D02*
D03*
X800100Y1176020D02*
D03*
X797560Y1155700D02*
D03*
X1042670Y1254760D02*
D03*
X1078230Y1200150D02*
D03*
X1069340Y1155700D02*
D03*
X1149350Y1096850D02*
D03*
X684530Y1023620D02*
D03*
X680720Y1033780D02*
D03*
X684530Y1003300D02*
D03*
Y1013460D02*
D03*
X670420Y1033812D02*
D03*
X851864Y1049571D02*
D03*
X791388Y1052301D02*
D03*
X808990Y1103630D02*
D03*
X757932Y1117015D02*
D03*
X790142Y1115481D02*
D03*
X589280Y1139190D02*
D03*
X1221130Y1143660D02*
D03*
X1243484Y1259234D02*
D03*
X448310Y1258570D02*
D03*
X1047750Y1055370D02*
D03*
X1005840Y1139190D02*
D03*
X1050290Y1104900D02*
D03*
X1118870Y1223010D02*
D03*
X1164590Y1193165D02*
D03*
X784100Y1169670D02*
D03*
X846810Y1181380D02*
D03*
X972185Y1292225D02*
D03*
X972306Y1268884D02*
D03*
X967740Y1277620D02*
D03*
X789940Y1192530D02*
D03*
X760730Y1220470D02*
D03*
X895350Y1165860D02*
D03*
X801370Y1196340D02*
D03*
X853440Y1163320D02*
D03*
X1059381Y1235589D02*
D03*
X718820Y1066800D02*
D03*
X1056640Y1223010D02*
D03*
X1045210Y1238250D02*
D03*
X1030033Y1210611D02*
D03*
X1038251Y1217728D02*
D03*
X1016420Y1207187D02*
D03*
X1022350Y1187168D02*
D03*
X1013919Y1181860D02*
D03*
X1049020Y1193800D02*
D03*
X1042670Y1209040D02*
D03*
X1003300Y1054100D02*
D03*
X1024755Y1254619D02*
D03*
X1127350Y1085850D02*
D03*
X1076960Y1134110D02*
D03*
X1076885Y1282370D02*
D03*
X1043987Y1177601D02*
D03*
X988133Y1037869D02*
D03*
X955040Y1156335D02*
D03*
X947420Y1164659D02*
D03*
X914690Y1202035D02*
D03*
X901046Y1211585D02*
D03*
X914736Y1160789D02*
D03*
X969010Y1004570D02*
D03*
X914736Y1147216D02*
D03*
X1117600Y1061720D02*
D03*
X956310Y977900D02*
D03*
X884623Y985492D02*
D03*
X910590Y889000D02*
D03*
X933450Y922020D02*
D03*
X891140Y933050D02*
D03*
X802240Y905910D02*
D03*
X727710Y915670D02*
D03*
X879941Y1073150D02*
D03*
X871220D02*
D03*
X862498D02*
D03*
X862667Y1106122D02*
D03*
X871388D02*
D03*
X880110D02*
D03*
X952447Y903099D02*
D03*
D220*
X590694Y1295426D02*
D03*
X597024Y1204389D02*
D03*
X674500Y1243826D02*
D03*
X676019Y1210155D02*
D03*
X362030Y1084580D02*
D03*
X1281430Y1002030D02*
D03*
Y989330D02*
D03*
X1236980Y339090D02*
D03*
X1219200Y340360D02*
D03*
X1144800Y369040D02*
D03*
X919480Y1089660D02*
D03*
X1440180Y1262380D02*
D03*
X1438910Y1209040D02*
D03*
X601980Y655320D02*
D03*
X1236980Y906780D02*
D03*
X1221740Y730250D02*
D03*
X1209040Y708660D02*
D03*
X699755Y889563D02*
D03*
X723900Y892810D02*
D03*
X828910Y907180D02*
D03*
X579000Y900550D02*
D03*
X833120Y961390D02*
D03*
X829310Y925830D02*
D03*
X747145Y924175D02*
D03*
X1000760Y886460D02*
D03*
X713774Y930944D02*
D03*
X669844Y954486D02*
D03*
X502520Y905910D02*
D03*
X546366Y926966D02*
D03*
X599530Y638610D02*
D03*
X838200Y1053465D02*
D03*
X737870Y1116282D02*
D03*
X663308Y546100D02*
D03*
X636638Y527439D02*
D03*
X610478Y533852D02*
D03*
X623938Y533488D02*
D03*
X321310Y1099820D02*
D03*
X308610D02*
D03*
X295910D02*
D03*
X283210D02*
D03*
X1223010Y628650D02*
D03*
X1209040Y635000D02*
D03*
X665480Y614680D02*
D03*
X1280450Y355310D02*
D03*
Y346420D02*
D03*
X1316065Y937550D02*
D03*
X1304000D02*
D03*
X1362420Y919770D02*
D03*
X1292570Y976920D02*
D03*
X1276060D02*
D03*
X596900Y1187450D02*
D03*
D221*
X276860Y379730D02*
D03*
X648970Y339090D02*
D03*
Y353060D02*
D03*
Y381000D02*
D03*
Y394970D02*
D03*
Y325120D02*
D03*
Y367030D02*
D03*
X659218Y360081D02*
D03*
Y318171D02*
D03*
Y388021D02*
D03*
Y374051D02*
D03*
Y346111D02*
D03*
Y332141D02*
D03*
X638810Y359410D02*
D03*
Y317500D02*
D03*
Y387350D02*
D03*
Y373380D02*
D03*
Y345440D02*
D03*
Y331470D02*
D03*
X745490Y662940D02*
D03*
X759460D02*
D03*
X787400D02*
D03*
X801370D02*
D03*
X731520D02*
D03*
X773430D02*
D03*
X766481Y652692D02*
D03*
X724571D02*
D03*
X794421D02*
D03*
X780451D02*
D03*
X752511D02*
D03*
X738541D02*
D03*
X765810Y673100D02*
D03*
X723900D02*
D03*
X793750D02*
D03*
X779780D02*
D03*
X751840D02*
D03*
X737870D02*
D03*
X965200Y692150D02*
D03*
X979170D02*
D03*
X1007110D02*
D03*
X1021080D02*
D03*
X951230D02*
D03*
X993140D02*
D03*
X986191Y681902D02*
D03*
X944281D02*
D03*
X1014131D02*
D03*
X1000161D02*
D03*
X972221D02*
D03*
X958251D02*
D03*
X985520Y702310D02*
D03*
X943610D02*
D03*
X1013460D02*
D03*
X999490D02*
D03*
X971550D02*
D03*
X957580D02*
D03*
X1125878Y670106D02*
D03*
X1153818D02*
D03*
X1167788D02*
D03*
X1097938D02*
D03*
X1139848D02*
D03*
X1126549Y649698D02*
D03*
X1154489D02*
D03*
X1168459D02*
D03*
X1098609D02*
D03*
X1140519D02*
D03*
X595300Y976720D02*
D03*
Y962750D02*
D03*
X609270Y976720D02*
D03*
X595300Y990690D02*
D03*
X609270D02*
D03*
X595300Y1004660D02*
D03*
X609270D02*
D03*
X595300Y1018630D02*
D03*
X609270D02*
D03*
X1541780Y1254760D02*
D03*
X1521460Y1303020D02*
D03*
X1280450Y420080D02*
D03*
X707390Y1182370D02*
D03*
X685800D02*
D03*
X1147468Y659946D02*
D03*
X1105558D02*
D03*
X1175408D02*
D03*
X1161438D02*
D03*
X1133498D02*
D03*
X1119528D02*
D03*
X516890Y483870D02*
D03*
X502920D02*
D03*
X474980D02*
D03*
X461010D02*
D03*
X530860D02*
D03*
X488950D02*
D03*
X447040D02*
D03*
X516890Y469900D02*
D03*
X502920D02*
D03*
X474980D02*
D03*
X530860D02*
D03*
X488950D02*
D03*
X447040D02*
D03*
X461010D02*
D03*
X590550Y708660D02*
D03*
Y697230D02*
D03*
X579120D02*
D03*
X567690D02*
D03*
Y708660D02*
D03*
X511810Y616280D02*
D03*
Y630250D02*
D03*
X497840Y616280D02*
D03*
X483870D02*
D03*
Y630250D02*
D03*
X513300Y652280D02*
D03*
X499330D02*
D03*
X579120Y708660D02*
D03*
X601980D02*
D03*
X613410D02*
D03*
X601980Y697230D02*
D03*
X613410D02*
D03*
X668020Y1074420D02*
D03*
X407670Y326390D02*
D03*
Y340360D02*
D03*
Y298450D02*
D03*
Y312420D02*
D03*
X421640Y340360D02*
D03*
X435610D02*
D03*
Y298450D02*
D03*
X421640D02*
D03*
X435610Y326390D02*
D03*
X421640D02*
D03*
Y312420D02*
D03*
X435610D02*
D03*
X745490Y388620D02*
D03*
X756920D02*
D03*
X768350D02*
D03*
X791210D02*
D03*
X779780D02*
D03*
X791210Y377190D02*
D03*
X779780D02*
D03*
X768350D02*
D03*
X756920D02*
D03*
X745490D02*
D03*
X734060Y388620D02*
D03*
Y377190D02*
D03*
X722630D02*
D03*
X1026160Y838200D02*
D03*
X1054100D02*
D03*
X1040130D02*
D03*
X971550Y802640D02*
D03*
X999490D02*
D03*
X985520D02*
D03*
X793750Y769620D02*
D03*
X821690D02*
D03*
X807720D02*
D03*
X618490Y869950D02*
D03*
X646430D02*
D03*
X632460D02*
D03*
X563880Y808990D02*
D03*
Y781050D02*
D03*
Y795020D02*
D03*
X276860Y393700D02*
D03*
X290830D02*
D03*
Y379730D02*
D03*
X262890Y393700D02*
D03*
Y379730D02*
D03*
X304800D02*
D03*
Y393700D02*
D03*
X276860Y407670D02*
D03*
X262890D02*
D03*
X304800D02*
D03*
X290830D02*
D03*
X431800Y835660D02*
D03*
Y821690D02*
D03*
X445770Y835660D02*
D03*
Y821690D02*
D03*
X459740Y835660D02*
D03*
Y821690D02*
D03*
Y849630D02*
D03*
X431800D02*
D03*
X445770D02*
D03*
X471390Y652280D02*
D03*
X443450D02*
D03*
X457420D02*
D03*
X485360D02*
D03*
X842010Y500380D02*
D03*
X830580D02*
D03*
Y488950D02*
D03*
X819150Y500380D02*
D03*
X807720D02*
D03*
X796290D02*
D03*
X784860D02*
D03*
X773430D02*
D03*
X784860Y488950D02*
D03*
X773430D02*
D03*
X796290D02*
D03*
X807720D02*
D03*
X819150D02*
D03*
X1021630Y603250D02*
D03*
X985463D02*
D03*
X1002223D02*
D03*
X949297D02*
D03*
X966057D02*
D03*
X929890D02*
D03*
X913130D02*
D03*
X1180050Y853440D02*
D03*
X1138140D02*
D03*
X1110200D02*
D03*
X1124170D02*
D03*
X1152110D02*
D03*
X1166080D02*
D03*
X266700Y502920D02*
D03*
X252730D02*
D03*
X294640D02*
D03*
X336550D02*
D03*
X280670D02*
D03*
X308610D02*
D03*
X322580D02*
D03*
X252730Y516890D02*
D03*
Y530860D02*
D03*
X294640D02*
D03*
Y516890D02*
D03*
X336550D02*
D03*
Y530860D02*
D03*
X266700D02*
D03*
Y516890D02*
D03*
X280670D02*
D03*
Y530860D02*
D03*
X322580D02*
D03*
X308610Y516890D02*
D03*
Y530860D02*
D03*
X322580Y516890D02*
D03*
X316230Y952500D02*
D03*
X330200Y966470D02*
D03*
X316230D02*
D03*
X330200Y952500D02*
D03*
Y994410D02*
D03*
X316230D02*
D03*
Y1008380D02*
D03*
X330200D02*
D03*
Y938530D02*
D03*
X316230D02*
D03*
Y980440D02*
D03*
X330200D02*
D03*
Y1022350D02*
D03*
X316230D02*
D03*
X302260Y952500D02*
D03*
Y966470D02*
D03*
Y994410D02*
D03*
Y938530D02*
D03*
Y980440D02*
D03*
Y1022350D02*
D03*
Y1008380D02*
D03*
X595300Y948780D02*
D03*
Y1032600D02*
D03*
X637210Y990690D02*
D03*
Y976720D02*
D03*
X567360Y948780D02*
D03*
X581330D02*
D03*
Y990690D02*
D03*
X567360D02*
D03*
Y1032600D02*
D03*
X581330D02*
D03*
X623240Y990690D02*
D03*
X581330Y962750D02*
D03*
X567360D02*
D03*
Y976720D02*
D03*
X581330D02*
D03*
Y1018630D02*
D03*
X567360D02*
D03*
Y1004660D02*
D03*
X581330D02*
D03*
X623240Y976720D02*
D03*
Y1004660D02*
D03*
X425780Y1024410D02*
D03*
X467690Y1038380D02*
D03*
Y996470D02*
D03*
Y954560D02*
D03*
X425780Y1038380D02*
D03*
Y996470D02*
D03*
Y954560D02*
D03*
X467690Y1024410D02*
D03*
Y1010440D02*
D03*
Y982500D02*
D03*
Y968530D02*
D03*
X425780Y1010440D02*
D03*
Y982500D02*
D03*
Y968530D02*
D03*
X495630Y1038380D02*
D03*
X481660D02*
D03*
Y996470D02*
D03*
X495630D02*
D03*
Y954560D02*
D03*
X481660D02*
D03*
X439750Y1038380D02*
D03*
X453720D02*
D03*
Y996470D02*
D03*
X439750D02*
D03*
Y954560D02*
D03*
X453720D02*
D03*
X481660Y1024410D02*
D03*
X495630D02*
D03*
Y1010440D02*
D03*
X481660D02*
D03*
Y968530D02*
D03*
X495630D02*
D03*
Y982500D02*
D03*
X481660D02*
D03*
X453720Y1024410D02*
D03*
X439750D02*
D03*
Y1010440D02*
D03*
X453720D02*
D03*
Y968530D02*
D03*
X439750Y982500D02*
D03*
X453720D02*
D03*
X439750Y968530D02*
D03*
X497840Y574370D02*
D03*
X483870Y588340D02*
D03*
Y574370D02*
D03*
X497840Y588340D02*
D03*
X455930D02*
D03*
Y574370D02*
D03*
X441960D02*
D03*
Y588340D02*
D03*
X497840Y630250D02*
D03*
X455930Y616280D02*
D03*
Y630250D02*
D03*
X441960D02*
D03*
Y616280D02*
D03*
X511810Y588340D02*
D03*
Y574370D02*
D03*
X469900D02*
D03*
Y588340D02*
D03*
X427990D02*
D03*
Y574370D02*
D03*
X469900Y630250D02*
D03*
Y616280D02*
D03*
X427990D02*
D03*
Y630250D02*
D03*
X497840Y560400D02*
D03*
X483870D02*
D03*
X455930D02*
D03*
X497840Y602310D02*
D03*
X483870D02*
D03*
X455930D02*
D03*
X441960D02*
D03*
X511810Y560400D02*
D03*
X469900D02*
D03*
X427990D02*
D03*
X511810Y602310D02*
D03*
X469900D02*
D03*
X427990D02*
D03*
X441960Y560400D02*
D03*
X497840Y736100D02*
D03*
X483870Y750070D02*
D03*
Y736100D02*
D03*
X497840Y750070D02*
D03*
X455930D02*
D03*
Y736100D02*
D03*
X441960D02*
D03*
Y750070D02*
D03*
X483870Y778010D02*
D03*
Y791980D02*
D03*
X497840D02*
D03*
Y778010D02*
D03*
X455930D02*
D03*
Y791980D02*
D03*
X441960D02*
D03*
Y778010D02*
D03*
X511810Y750070D02*
D03*
Y736100D02*
D03*
X469900D02*
D03*
Y750070D02*
D03*
X427990D02*
D03*
Y736100D02*
D03*
X511810Y778010D02*
D03*
Y791980D02*
D03*
X469900D02*
D03*
Y778010D02*
D03*
X427990D02*
D03*
Y791980D02*
D03*
X497840Y722130D02*
D03*
X483870D02*
D03*
X455930D02*
D03*
X497840Y764040D02*
D03*
X483870D02*
D03*
X455930D02*
D03*
X441960D02*
D03*
X511810Y722130D02*
D03*
X469900D02*
D03*
X427990D02*
D03*
X511810Y764040D02*
D03*
X469900D02*
D03*
X427990D02*
D03*
X441960Y722130D02*
D03*
X1108710Y929640D02*
D03*
X1052830Y957580D02*
D03*
X1038860D02*
D03*
X1024890D02*
D03*
X1052830Y971550D02*
D03*
X1038860D02*
D03*
X1024890D02*
D03*
X1052830Y985520D02*
D03*
X1038860D02*
D03*
X1024890D02*
D03*
X1052830Y999490D02*
D03*
X1038860D02*
D03*
X1024890D02*
D03*
X1070610Y560070D02*
D03*
Y546100D02*
D03*
Y518160D02*
D03*
Y504190D02*
D03*
Y532130D02*
D03*
Y574040D02*
D03*
X1097280Y758588D02*
D03*
X1139190D02*
D03*
X1181100D02*
D03*
X1111250D02*
D03*
X1167130D02*
D03*
X1153160D02*
D03*
X1125220D02*
D03*
X1094740Y971550D02*
D03*
X1136650D02*
D03*
X1178560D02*
D03*
X1094740Y929640D02*
D03*
X1136650D02*
D03*
X1178560D02*
D03*
X1097280Y800498D02*
D03*
X1139190D02*
D03*
X1181100D02*
D03*
X1108710Y971550D02*
D03*
X1122680D02*
D03*
X1150620D02*
D03*
X1164590D02*
D03*
X1122680Y929640D02*
D03*
X1150620D02*
D03*
X1164590D02*
D03*
X1097280Y786528D02*
D03*
Y828438D02*
D03*
Y814468D02*
D03*
Y772558D02*
D03*
X1139190Y828438D02*
D03*
Y786528D02*
D03*
Y814468D02*
D03*
Y772558D02*
D03*
X1181100Y786528D02*
D03*
Y828438D02*
D03*
Y814468D02*
D03*
Y772558D02*
D03*
X1094740Y999490D02*
D03*
Y985520D02*
D03*
X1136650D02*
D03*
Y999490D02*
D03*
X1178560D02*
D03*
Y985520D02*
D03*
X1094740Y943610D02*
D03*
Y957580D02*
D03*
X1136650D02*
D03*
Y943610D02*
D03*
X1178560D02*
D03*
Y957580D02*
D03*
X1111250Y800498D02*
D03*
X1167130D02*
D03*
X1153160D02*
D03*
X1108710Y985520D02*
D03*
Y999490D02*
D03*
X1122680D02*
D03*
Y985520D02*
D03*
X1164590D02*
D03*
Y999490D02*
D03*
X1150620D02*
D03*
Y985520D02*
D03*
X1108710Y957580D02*
D03*
Y943610D02*
D03*
X1122680D02*
D03*
Y957580D02*
D03*
X1164590D02*
D03*
X1150620Y943610D02*
D03*
Y957580D02*
D03*
X1164590Y943610D02*
D03*
X1111250Y828438D02*
D03*
Y786528D02*
D03*
Y814468D02*
D03*
Y772558D02*
D03*
X1153160Y786528D02*
D03*
Y828438D02*
D03*
X1167130D02*
D03*
Y786528D02*
D03*
X1153160Y814468D02*
D03*
X1167130D02*
D03*
Y772558D02*
D03*
X1153160D02*
D03*
X1125220Y800498D02*
D03*
Y786528D02*
D03*
Y828438D02*
D03*
Y814468D02*
D03*
Y772558D02*
D03*
X1181100Y509270D02*
D03*
X1167130Y523240D02*
D03*
X1181100D02*
D03*
Y537210D02*
D03*
Y565150D02*
D03*
Y551180D02*
D03*
X1167130Y565150D02*
D03*
Y551180D02*
D03*
X1139190Y565150D02*
D03*
X1153160D02*
D03*
X1139190Y551180D02*
D03*
X1153160Y537210D02*
D03*
X1139190Y523240D02*
D03*
X1153160Y509270D02*
D03*
X1125220D02*
D03*
X1111250Y523240D02*
D03*
X1125220Y537210D02*
D03*
X1111250Y551180D02*
D03*
Y565150D02*
D03*
X1125220D02*
D03*
X1097280Y509270D02*
D03*
Y523240D02*
D03*
Y537210D02*
D03*
Y551180D02*
D03*
Y565150D02*
D03*
Y495300D02*
D03*
X1125220D02*
D03*
X1111250D02*
D03*
X1153160D02*
D03*
X1139190D02*
D03*
X1181100D02*
D03*
X1167130D02*
D03*
Y537210D02*
D03*
Y509270D02*
D03*
X1153160Y551180D02*
D03*
Y523240D02*
D03*
X1139190Y537210D02*
D03*
Y509270D02*
D03*
X1125220Y551180D02*
D03*
Y523240D02*
D03*
X1111250Y537210D02*
D03*
Y509270D02*
D03*
X942340Y491270D02*
D03*
X956310Y505240D02*
D03*
Y491270D02*
D03*
X970280D02*
D03*
X998220D02*
D03*
X984250D02*
D03*
X998220Y505240D02*
D03*
X984250D02*
D03*
X998220Y533180D02*
D03*
Y519210D02*
D03*
X984250Y533180D02*
D03*
X970280Y519210D02*
D03*
X956310Y533180D02*
D03*
X942340Y519210D02*
D03*
Y547150D02*
D03*
X956310Y561120D02*
D03*
X970280Y547150D02*
D03*
X984250Y561120D02*
D03*
X998220D02*
D03*
Y547150D02*
D03*
X942340Y575090D02*
D03*
X956310D02*
D03*
X970280D02*
D03*
X984250D02*
D03*
X998220D02*
D03*
X928370D02*
D03*
Y547150D02*
D03*
Y561120D02*
D03*
Y519210D02*
D03*
Y533180D02*
D03*
Y491270D02*
D03*
Y505240D02*
D03*
X970280D02*
D03*
X942340D02*
D03*
X984250Y519210D02*
D03*
X956310D02*
D03*
X970280Y533180D02*
D03*
X942340D02*
D03*
X984250Y547150D02*
D03*
X956310D02*
D03*
X970280Y561120D02*
D03*
X942340D02*
D03*
M02*
