G04*
G04 #@! TF.GenerationSoftware,Altium Limited,CircuitMaker,2.2.1 (2.2.1.6)*
G04*
G04 Layer_Color=13813960*
%FSLAX44Y44*%
%MOMM*%
G71*
G04*
G04 #@! TF.SameCoordinates,19C9E3CA-E082-4F8C-9F67-3D0F94DA41C6*
G04*
G04*
G04 #@! TF.FilePolarity,Positive*
G04*
G01*
G75*
%ADD10C,0.2000*%
%ADD11C,0.2500*%
%ADD12C,0.2540*%
%ADD20C,0.1000*%
%ADD21C,0.1270*%
%ADD24R,0.7778X2.6000*%
D10*
X1312070Y1208990D02*
X1322070D01*
X576810Y741220D02*
Y747220D01*
X591810Y741220D02*
Y747220D01*
X616440Y739450D02*
Y746450D01*
X600440Y739450D02*
Y746450D01*
X644880Y739450D02*
Y746450D01*
X627880Y739450D02*
Y746450D01*
X676630Y739450D02*
Y746450D01*
X659630Y739450D02*
Y746450D01*
X627030Y600110D02*
Y626110D01*
X613670Y600110D02*
X627030D01*
X627030Y626110D02*
X627030Y626110D01*
X613670Y626110D02*
X627030D01*
X329310Y448620D02*
Y455620D01*
X313310Y448620D02*
Y455620D01*
X360290Y448620D02*
Y455620D01*
X343290Y448620D02*
Y455620D01*
X280790Y447850D02*
Y453850D01*
X295790Y447850D02*
Y453850D01*
X393310Y448620D02*
Y455620D01*
X376310Y448620D02*
Y455620D01*
X981600Y759460D02*
Y766460D01*
X964600Y759460D02*
Y766460D01*
X1010810Y759460D02*
Y766460D01*
X993810Y759460D02*
Y766460D01*
X1036590Y758500D02*
Y765500D01*
X1020590Y758500D02*
Y765500D01*
X1043950Y759000D02*
Y765000D01*
X1058950Y759000D02*
Y765000D01*
X1063800Y1173610D02*
X1069800D01*
X1063800Y1158110D02*
X1069800D01*
X992640Y631190D02*
Y638190D01*
X1008640Y631190D02*
Y638190D01*
X1031000Y632000D02*
Y638000D01*
X1016000Y632000D02*
Y638000D01*
X965470Y630610D02*
Y637610D01*
X982470Y630610D02*
Y637610D01*
X936260Y630610D02*
Y637610D01*
X953260Y630610D02*
Y637610D01*
D11*
X657780Y613110D02*
G03*
X657780Y613110I-1250J0D01*
G01*
D12*
X1635440Y427530D02*
X1710370Y502460D01*
X1568130Y427530D02*
X1710370Y569770D01*
X1500820Y427530D02*
X1710370Y637080D01*
X1433510Y427530D02*
X1710370Y704390D01*
X1366200Y427530D02*
X1710370Y771700D01*
X1298890Y427530D02*
X1710370Y839010D01*
X1231580Y427530D02*
X1710370Y906320D01*
X1359215Y622475D02*
X1663380Y926640D01*
X1324925Y655495D02*
X1596070Y926640D01*
X1338260Y736140D02*
X1528760Y926640D01*
X1321750Y786940D02*
X1461450Y926640D01*
X1211260Y743760D02*
X1394140Y926640D01*
X1212530Y812340D02*
X1326830Y926640D01*
X1211260Y878380D02*
X1259520Y926640D01*
X1211260Y426680D02*
X1711260D01*
Y926680D01*
X1211260D02*
X1711260D01*
X1211260Y426680D02*
Y926680D01*
Y477060D02*
X1302065Y567865D01*
X1211895Y545005D02*
X1267775Y600885D01*
X1211260Y611680D02*
X1296985Y697405D01*
X1211260Y678990D02*
X1249360Y717090D01*
X1211260Y676680D02*
Y678990D01*
D20*
X572313Y1172355D02*
Y1189855D01*
X585927Y1172345D02*
Y1189845D01*
D21*
X1323240Y1242140D02*
Y1252140D01*
X1310740Y1242140D02*
X1323240D01*
X1310740D02*
Y1252140D01*
D24*
X622870Y613111D02*
D03*
M02*
