G04*
G04 #@! TF.GenerationSoftware,Altium Limited,CircuitMaker,2.2.1 (2.2.1.6)*
G04*
G04 Layer_Physical_Order=4*
G04 Layer_Color=16765976*
%FSLAX44Y44*%
%MOMM*%
G71*
G04*
G04 #@! TF.SameCoordinates,19C9E3CA-E082-4F8C-9F67-3D0F94DA41C6*
G04*
G04*
G04 #@! TF.FilePolarity,Positive*
G04*
G01*
G75*
%ADD107C,1.0000*%
%ADD222C,0.8000*%
%ADD225C,1.5000*%
G04:AMPARAMS|DCode=236|XSize=1.524mm|YSize=1.524mm|CornerRadius=0.381mm|HoleSize=0mm|Usage=FLASHONLY|Rotation=180.000|XOffset=0mm|YOffset=0mm|HoleType=Round|Shape=RoundedRectangle|*
%AMROUNDEDRECTD236*
21,1,1.5240,0.7620,0,0,180.0*
21,1,0.7620,1.5240,0,0,180.0*
1,1,0.7620,-0.3810,0.3810*
1,1,0.7620,0.3810,0.3810*
1,1,0.7620,0.3810,-0.3810*
1,1,0.7620,-0.3810,-0.3810*
%
%ADD236ROUNDEDRECTD236*%
%ADD237C,1.5240*%
G04:AMPARAMS|DCode=238|XSize=1.524mm|YSize=1.524mm|CornerRadius=0.381mm|HoleSize=0mm|Usage=FLASHONLY|Rotation=270.000|XOffset=0mm|YOffset=0mm|HoleType=Round|Shape=RoundedRectangle|*
%AMROUNDEDRECTD238*
21,1,1.5240,0.7620,0,0,270.0*
21,1,0.7620,1.5240,0,0,270.0*
1,1,0.7620,-0.3810,-0.3810*
1,1,0.7620,-0.3810,0.3810*
1,1,0.7620,0.3810,0.3810*
1,1,0.7620,0.3810,-0.3810*
%
%ADD238ROUNDEDRECTD238*%
%ADD243R,0.9500X1.2000*%
%ADD244C,3.0000*%
%ADD245C,7.0000*%
G04:AMPARAMS|DCode=246|XSize=8mm|YSize=8mm|CornerRadius=2mm|HoleSize=0mm|Usage=FLASHONLY|Rotation=270.000|XOffset=0mm|YOffset=0mm|HoleType=Round|Shape=RoundedRectangle|*
%AMROUNDEDRECTD246*
21,1,8.0000,4.0000,0,0,270.0*
21,1,4.0000,8.0000,0,0,270.0*
1,1,4.0000,-2.0000,-2.0000*
1,1,4.0000,-2.0000,2.0000*
1,1,4.0000,2.0000,2.0000*
1,1,4.0000,2.0000,-2.0000*
%
%ADD246ROUNDEDRECTD246*%
%ADD247O,11.0000X6.5000*%
%ADD248O,6.5000X11.0000*%
G04:AMPARAMS|DCode=250|XSize=1.5mm|YSize=1.5mm|CornerRadius=0.15mm|HoleSize=0mm|Usage=FLASHONLY|Rotation=180.000|XOffset=0mm|YOffset=0mm|HoleType=Round|Shape=RoundedRectangle|*
%AMROUNDEDRECTD250*
21,1,1.5000,1.2000,0,0,180.0*
21,1,1.2000,1.5000,0,0,180.0*
1,1,0.3000,-0.6000,0.6000*
1,1,0.3000,0.6000,0.6000*
1,1,0.3000,0.6000,-0.6000*
1,1,0.3000,-0.6000,-0.6000*
%
%ADD250ROUNDEDRECTD250*%
%ADD251C,0.5000*%
%ADD252C,0.6000*%
%ADD253C,0.8000*%
%ADD257R,8.3820X6.9850*%
%ADD260R,6.8580X8.2770*%
G36*
X1553990Y1364586D02*
X1554463Y1361431D01*
X1550570Y1358603D01*
X1546397Y1354430D01*
X1542927Y1349654D01*
X1540247Y1344395D01*
X1538423Y1338781D01*
X1537500Y1332951D01*
Y1327049D01*
X1538423Y1321219D01*
X1540247Y1315605D01*
X1542927Y1310346D01*
X1546397Y1305570D01*
X1550570Y1301397D01*
X1555346Y1297927D01*
X1560605Y1295247D01*
X1566219Y1293423D01*
X1572049Y1292500D01*
X1577951D01*
X1583781Y1293423D01*
X1589395Y1295247D01*
X1594654Y1297927D01*
X1599430Y1301397D01*
X1603603Y1305570D01*
X1606431Y1309463D01*
X1609586Y1308990D01*
X1611431Y1307993D01*
Y302007D01*
X1609586Y301010D01*
X1606431Y300537D01*
X1603603Y304430D01*
X1599430Y308603D01*
X1594654Y312073D01*
X1589395Y314753D01*
X1583781Y316577D01*
X1577951Y317500D01*
X1572049D01*
X1566219Y316577D01*
X1560605Y314753D01*
X1555346Y312073D01*
X1550570Y308603D01*
X1546397Y304430D01*
X1542927Y299654D01*
X1540247Y294395D01*
X1538423Y288781D01*
X1537500Y282951D01*
Y277049D01*
X1538423Y271219D01*
X1540247Y265605D01*
X1542927Y260346D01*
X1546397Y255570D01*
X1550570Y251397D01*
X1554463Y248569D01*
X1553990Y245414D01*
X1552993Y243569D01*
X117057D01*
X116182Y245156D01*
X115605Y248569D01*
X119456Y251366D01*
X123634Y255544D01*
X127107Y260325D01*
X129790Y265590D01*
X131616Y271209D01*
X132540Y277045D01*
Y278730D01*
X95000D01*
Y280000D01*
X93730D01*
Y317540D01*
X92045D01*
X86209Y316616D01*
X80590Y314790D01*
X75325Y312107D01*
X70544Y308634D01*
X66366Y304456D01*
X63569Y300605D01*
X60156Y301182D01*
X58569Y302057D01*
Y1307943D01*
X60156Y1308817D01*
X63569Y1309395D01*
X66366Y1305544D01*
X70544Y1301366D01*
X75325Y1297893D01*
X80590Y1295210D01*
X86209Y1293384D01*
X92045Y1292460D01*
X93730D01*
Y1330000D01*
X95000D01*
Y1331270D01*
X132540D01*
Y1332955D01*
X131616Y1338791D01*
X129790Y1344410D01*
X127107Y1349675D01*
X123634Y1354456D01*
X119456Y1358634D01*
X115605Y1361431D01*
X116182Y1364844D01*
X117057Y1366431D01*
X1552993D01*
X1553990Y1364586D01*
D02*
G37*
%LPC*%
G36*
X1522447Y1310520D02*
X1520473D01*
X1518565Y1310009D01*
X1516855Y1309021D01*
X1515459Y1307625D01*
X1514471Y1305915D01*
X1513960Y1304007D01*
Y1302033D01*
X1514471Y1300125D01*
X1515459Y1298415D01*
X1516855Y1297018D01*
X1518565Y1296031D01*
X1520473Y1295520D01*
X1522447D01*
X1524355Y1296031D01*
X1526065Y1297018D01*
X1527462Y1298415D01*
X1528449Y1300125D01*
X1528960Y1302033D01*
Y1304007D01*
X1528449Y1305915D01*
X1527462Y1307625D01*
X1526065Y1309021D01*
X1524355Y1310009D01*
X1522447Y1310520D01*
D02*
G37*
G36*
X132540Y1328730D02*
X96270D01*
Y1292460D01*
X97954D01*
X103791Y1293384D01*
X109410Y1295210D01*
X114675Y1297893D01*
X119456Y1301366D01*
X123634Y1305544D01*
X127107Y1310325D01*
X129790Y1315590D01*
X131616Y1321209D01*
X132540Y1327046D01*
Y1328730D01*
D02*
G37*
G36*
X1416426Y1301550D02*
X1413134D01*
X1409955Y1300698D01*
X1407105Y1299052D01*
X1404778Y1296725D01*
X1403132Y1293875D01*
X1402280Y1290696D01*
Y1287404D01*
X1403132Y1284225D01*
X1404778Y1281375D01*
X1407105Y1279047D01*
X1409955Y1277402D01*
X1413134Y1276550D01*
X1416426D01*
X1419605Y1277402D01*
X1422455Y1279047D01*
X1424783Y1281375D01*
X1426428Y1284225D01*
X1427280Y1287404D01*
Y1290696D01*
X1426428Y1293875D01*
X1424783Y1296725D01*
X1422455Y1299052D01*
X1419605Y1300698D01*
X1416426Y1301550D01*
D02*
G37*
G36*
X1378326D02*
X1375034D01*
X1371855Y1300698D01*
X1369005Y1299052D01*
X1366678Y1296725D01*
X1365032Y1293875D01*
X1364180Y1290696D01*
Y1287404D01*
X1365032Y1284225D01*
X1366678Y1281375D01*
X1369005Y1279047D01*
X1371855Y1277402D01*
X1375034Y1276550D01*
X1378326D01*
X1381505Y1277402D01*
X1384355Y1279047D01*
X1386682Y1281375D01*
X1388328Y1284225D01*
X1389180Y1287404D01*
Y1290696D01*
X1388328Y1293875D01*
X1386682Y1296725D01*
X1384355Y1299052D01*
X1381505Y1300698D01*
X1378326Y1301550D01*
D02*
G37*
G36*
X1340226D02*
X1336934D01*
X1333755Y1300698D01*
X1330905Y1299052D01*
X1328578Y1296725D01*
X1326932Y1293875D01*
X1326080Y1290696D01*
Y1287404D01*
X1326932Y1284225D01*
X1328578Y1281375D01*
X1330905Y1279047D01*
X1333755Y1277402D01*
X1336934Y1276550D01*
X1340226D01*
X1343405Y1277402D01*
X1346255Y1279047D01*
X1348582Y1281375D01*
X1350228Y1284225D01*
X1351080Y1287404D01*
Y1290696D01*
X1350228Y1293875D01*
X1348582Y1296725D01*
X1346255Y1299052D01*
X1343405Y1300698D01*
X1340226Y1301550D01*
D02*
G37*
G36*
X1302126D02*
X1298834D01*
X1295655Y1300698D01*
X1292805Y1299052D01*
X1290477Y1296725D01*
X1288832Y1293875D01*
X1287980Y1290696D01*
Y1287404D01*
X1288832Y1284225D01*
X1290477Y1281375D01*
X1292805Y1279047D01*
X1295655Y1277402D01*
X1298834Y1276550D01*
X1302126D01*
X1305305Y1277402D01*
X1308155Y1279047D01*
X1310482Y1281375D01*
X1312128Y1284225D01*
X1312980Y1287404D01*
Y1290696D01*
X1312128Y1293875D01*
X1310482Y1296725D01*
X1308155Y1299052D01*
X1305305Y1300698D01*
X1302126Y1301550D01*
D02*
G37*
G36*
X1441036Y1268880D02*
X1439324D01*
X1437671Y1268437D01*
X1436189Y1267581D01*
X1434979Y1266371D01*
X1434123Y1264889D01*
X1433680Y1263236D01*
Y1261524D01*
X1434123Y1259871D01*
X1434979Y1258389D01*
X1436189Y1257179D01*
X1437671Y1256323D01*
X1439324Y1255880D01*
X1441036D01*
X1442689Y1256323D01*
X1444171Y1257179D01*
X1445381Y1258389D01*
X1446237Y1259871D01*
X1446680Y1261524D01*
Y1263236D01*
X1446237Y1264889D01*
X1445381Y1266371D01*
X1444171Y1267581D01*
X1442689Y1268437D01*
X1441036Y1268880D01*
D02*
G37*
G36*
X1244578Y1264734D02*
X1242390D01*
X1240368Y1263896D01*
X1238821Y1262349D01*
X1237984Y1260328D01*
Y1258140D01*
X1238821Y1256118D01*
X1240368Y1254571D01*
X1242390Y1253734D01*
X1244578D01*
X1246599Y1254571D01*
X1248147Y1256118D01*
X1248984Y1258140D01*
Y1260328D01*
X1248147Y1262349D01*
X1246599Y1263896D01*
X1244578Y1264734D01*
D02*
G37*
G36*
X449404Y1264070D02*
X447216D01*
X445195Y1263233D01*
X443647Y1261685D01*
X442810Y1259664D01*
Y1257476D01*
X443647Y1255454D01*
X445195Y1253907D01*
X447216Y1253070D01*
X449404D01*
X451426Y1253907D01*
X452973Y1255454D01*
X453810Y1257476D01*
Y1259664D01*
X452973Y1261685D01*
X451426Y1263233D01*
X449404Y1264070D01*
D02*
G37*
G36*
X1542767Y1262260D02*
X1540793D01*
X1538885Y1261749D01*
X1537175Y1260761D01*
X1535779Y1259365D01*
X1534791Y1257655D01*
X1534280Y1255747D01*
Y1253773D01*
X1534791Y1251865D01*
X1535779Y1250155D01*
X1537175Y1248758D01*
X1538885Y1247771D01*
X1540793Y1247260D01*
X1542767D01*
X1544675Y1247771D01*
X1546385Y1248758D01*
X1547782Y1250155D01*
X1548769Y1251865D01*
X1549280Y1253773D01*
Y1255747D01*
X1548769Y1257655D01*
X1547782Y1259365D01*
X1546385Y1260761D01*
X1544675Y1261749D01*
X1542767Y1262260D01*
D02*
G37*
G36*
X1439766Y1215540D02*
X1438054D01*
X1436401Y1215097D01*
X1434919Y1214241D01*
X1433709Y1213031D01*
X1432853Y1211549D01*
X1432410Y1209896D01*
Y1208184D01*
X1432853Y1206531D01*
X1433709Y1205049D01*
X1434919Y1203839D01*
X1436401Y1202983D01*
X1438054Y1202540D01*
X1439766D01*
X1441419Y1202983D01*
X1442901Y1203839D01*
X1444111Y1205049D01*
X1444967Y1206531D01*
X1445410Y1208184D01*
Y1209896D01*
X1444967Y1211549D01*
X1444111Y1213031D01*
X1442901Y1214241D01*
X1441419Y1215097D01*
X1439766Y1215540D01*
D02*
G37*
G36*
X597756Y1193950D02*
X596044D01*
X594391Y1193507D01*
X592909Y1192651D01*
X591699Y1191441D01*
X590843Y1189959D01*
X590400Y1188306D01*
Y1186594D01*
X590843Y1184941D01*
X591699Y1183459D01*
X592909Y1182249D01*
X594391Y1181393D01*
X596044Y1180950D01*
X597756D01*
X599409Y1181393D01*
X600891Y1182249D01*
X602101Y1183459D01*
X602957Y1184941D01*
X603400Y1186594D01*
Y1188306D01*
X602957Y1189959D01*
X602101Y1191441D01*
X600891Y1192651D01*
X599409Y1193507D01*
X597756Y1193950D01*
D02*
G37*
G36*
X1222224Y1149160D02*
X1220036D01*
X1218015Y1148323D01*
X1216467Y1146776D01*
X1215630Y1144754D01*
Y1142566D01*
X1216467Y1140545D01*
X1218015Y1138997D01*
X1220036Y1138160D01*
X1222224D01*
X1224246Y1138997D01*
X1225793Y1140545D01*
X1226630Y1142566D01*
Y1144754D01*
X1225793Y1146776D01*
X1224246Y1148323D01*
X1222224Y1149160D01*
D02*
G37*
G36*
X590374Y1144690D02*
X588186D01*
X586165Y1143853D01*
X584617Y1142306D01*
X583780Y1140284D01*
Y1138096D01*
X584617Y1136075D01*
X586165Y1134527D01*
X588186Y1133690D01*
X590374D01*
X592396Y1134527D01*
X593943Y1136075D01*
X594780Y1138096D01*
Y1140284D01*
X593943Y1142306D01*
X592396Y1143853D01*
X590374Y1144690D01*
D02*
G37*
G36*
X1416426Y1149150D02*
X1413134D01*
X1409955Y1148298D01*
X1407105Y1146653D01*
X1404778Y1144325D01*
X1403132Y1141475D01*
X1402280Y1138296D01*
Y1135004D01*
X1403132Y1131825D01*
X1404778Y1128975D01*
X1407105Y1126647D01*
X1409955Y1125002D01*
X1413134Y1124150D01*
X1416426D01*
X1419605Y1125002D01*
X1422455Y1126647D01*
X1424783Y1128975D01*
X1426428Y1131825D01*
X1427280Y1135004D01*
Y1138296D01*
X1426428Y1141475D01*
X1424783Y1144325D01*
X1422455Y1146653D01*
X1419605Y1148298D01*
X1416426Y1149150D01*
D02*
G37*
G36*
X1378326D02*
X1375034D01*
X1371855Y1148298D01*
X1369005Y1146653D01*
X1366678Y1144325D01*
X1365032Y1141475D01*
X1364180Y1138296D01*
Y1135004D01*
X1365032Y1131825D01*
X1366678Y1128975D01*
X1369005Y1126647D01*
X1371855Y1125002D01*
X1375034Y1124150D01*
X1378326D01*
X1381505Y1125002D01*
X1384355Y1126647D01*
X1386682Y1128975D01*
X1388328Y1131825D01*
X1389180Y1135004D01*
Y1138296D01*
X1388328Y1141475D01*
X1386682Y1144325D01*
X1384355Y1146653D01*
X1381505Y1148298D01*
X1378326Y1149150D01*
D02*
G37*
G36*
X1340226D02*
X1336934D01*
X1333755Y1148298D01*
X1330905Y1146653D01*
X1328578Y1144325D01*
X1326932Y1141475D01*
X1326080Y1138296D01*
Y1135004D01*
X1326932Y1131825D01*
X1328578Y1128975D01*
X1330905Y1126647D01*
X1333755Y1125002D01*
X1336934Y1124150D01*
X1340226D01*
X1343405Y1125002D01*
X1346255Y1126647D01*
X1348582Y1128975D01*
X1350228Y1131825D01*
X1351080Y1135004D01*
Y1138296D01*
X1350228Y1141475D01*
X1348582Y1144325D01*
X1346255Y1146653D01*
X1343405Y1148298D01*
X1340226Y1149150D01*
D02*
G37*
G36*
X1302126D02*
X1298834D01*
X1295655Y1148298D01*
X1292805Y1146653D01*
X1290477Y1144325D01*
X1288832Y1141475D01*
X1287980Y1138296D01*
Y1135004D01*
X1288832Y1131825D01*
X1290477Y1128975D01*
X1292805Y1126647D01*
X1295655Y1125002D01*
X1298834Y1124150D01*
X1302126D01*
X1305305Y1125002D01*
X1308155Y1126647D01*
X1310482Y1128975D01*
X1312128Y1131825D01*
X1312980Y1135004D01*
Y1138296D01*
X1312128Y1141475D01*
X1310482Y1144325D01*
X1308155Y1146653D01*
X1305305Y1148298D01*
X1302126Y1149150D01*
D02*
G37*
G36*
X259080Y1212859D02*
X142240D01*
X141264Y1212665D01*
X140438Y1212112D01*
X130278Y1201952D01*
X129725Y1201125D01*
X129531Y1200150D01*
Y1103201D01*
X129531Y1101664D01*
X129531Y1101664D01*
X129531Y1100778D01*
X129531Y1100777D01*
X129580Y1100531D01*
X129580Y1100280D01*
X129580Y1100280D01*
X129676Y1100048D01*
X129725Y1099802D01*
X129725Y1099802D01*
X129865Y1099593D01*
X129961Y1099361D01*
X129961Y1099361D01*
X130084Y1099238D01*
X130138Y1099184D01*
X130278Y1098975D01*
X130278Y1098975D01*
X130445Y1098863D01*
X130486Y1098836D01*
X130664Y1098658D01*
X130664D01*
X130896Y1098562D01*
X131104Y1098422D01*
X131105Y1098422D01*
X131351Y1098374D01*
X131583Y1098278D01*
X131583Y1098278D01*
X132828Y1098030D01*
X132828Y1098030D01*
X133080Y1098030D01*
X133326Y1097981D01*
X133326Y1097981D01*
X133572Y1098030D01*
X133823Y1098030D01*
X133823Y1098030D01*
X134055Y1098126D01*
X134301Y1098175D01*
X134301Y1098175D01*
X134510Y1098314D01*
X134742Y1098410D01*
X134742Y1098410D01*
X134919Y1098588D01*
X135128Y1098727D01*
X135128Y1098727D01*
X135268Y1098936D01*
X135445Y1099113D01*
X135445Y1099114D01*
X135511Y1099273D01*
X137287Y1101931D01*
X139369Y1104013D01*
X141818Y1105649D01*
X144539Y1106777D01*
X147428Y1107351D01*
X150372D01*
X153261Y1106777D01*
X155982Y1105649D01*
X158431Y1104013D01*
X160513Y1101931D01*
X162149Y1099482D01*
X163277Y1096761D01*
X163851Y1093873D01*
Y1090928D01*
X163277Y1088039D01*
X162150Y1085318D01*
X160513Y1082869D01*
X158431Y1080787D01*
X155982Y1079151D01*
X153261Y1078024D01*
X150372Y1077449D01*
X147428D01*
X144539Y1078024D01*
X141818Y1079150D01*
X139369Y1080787D01*
X137287Y1082869D01*
X135801Y1085092D01*
X135801Y1085092D01*
X135511Y1085527D01*
X135445Y1085686D01*
X135445Y1085686D01*
X135267Y1085864D01*
X135128Y1086073D01*
X135128Y1086073D01*
X134919Y1086212D01*
X134742Y1086390D01*
X134742Y1086390D01*
X134580Y1086457D01*
X134510Y1086486D01*
X134301Y1086625D01*
X134301Y1086625D01*
X134055Y1086674D01*
X133823Y1086770D01*
X133823Y1086770D01*
X133572Y1086770D01*
X133326Y1086819D01*
X133326Y1086819D01*
X133080Y1086770D01*
X132828Y1086770D01*
X132828Y1086770D01*
X131583Y1086523D01*
X131583Y1086523D01*
X131351Y1086426D01*
X131105Y1086377D01*
X131105Y1086377D01*
X130896Y1086238D01*
X130664Y1086142D01*
X130664Y1086142D01*
X130486Y1085964D01*
X130278Y1085825D01*
X130278Y1085825D01*
X130138Y1085616D01*
X129961Y1085439D01*
X129961Y1085439D01*
X129865Y1085207D01*
X129725Y1084998D01*
X129725Y1084998D01*
X129676Y1084752D01*
X129580Y1084520D01*
X129580Y1084520D01*
Y1084269D01*
X129531Y1084023D01*
X129531Y1084023D01*
X129531Y1083136D01*
X129531Y1083136D01*
X129531Y1081599D01*
Y985520D01*
X129725Y984545D01*
X130278Y983718D01*
X182348Y931648D01*
X183174Y931095D01*
X184150Y930901D01*
X346210D01*
X347185Y931095D01*
X348012Y931648D01*
X348565Y932475D01*
X348759Y933450D01*
Y1027930D01*
X348565Y1028905D01*
X348012Y1029732D01*
X312542Y1065202D01*
X311714Y1065754D01*
X310739Y1065948D01*
X269249D01*
Y1080829D01*
X269249Y1082860D01*
X269249Y1082860D01*
X269224Y1082984D01*
X269237Y1083110D01*
X269237Y1083110D01*
X269128Y1083468D01*
X269055Y1083835D01*
X269055Y1083835D01*
X268985Y1083940D01*
X268948Y1084062D01*
X268948Y1084062D01*
X268710Y1084351D01*
X268502Y1084662D01*
X268502Y1084662D01*
X268397Y1084733D01*
X268317Y1084830D01*
X268317Y1084830D01*
X267987Y1085007D01*
X267675Y1085215D01*
X267675Y1085215D01*
X267551Y1085239D01*
X267440Y1085299D01*
X267440Y1085299D01*
X266170Y1085684D01*
X266170Y1085684D01*
X266044Y1085697D01*
X265928Y1085745D01*
X265927Y1085745D01*
X265553Y1085745D01*
X265180Y1085782D01*
X265180Y1085782D01*
X265059Y1085745D01*
X264933D01*
X264933Y1085745D01*
X264587Y1085602D01*
X264229Y1085493D01*
X264228Y1085493D01*
X264131Y1085413D01*
X264014Y1085365D01*
X264014Y1085365D01*
X263749Y1085100D01*
X263460Y1084862D01*
X263460Y1084862D01*
X263400Y1084751D01*
X263311Y1084661D01*
X263311Y1084661D01*
X262113Y1082869D01*
X260031Y1080787D01*
X257582Y1079151D01*
X254861Y1078024D01*
X251973Y1077449D01*
X249028D01*
X246139Y1078024D01*
X243418Y1079150D01*
X240969Y1080787D01*
X238887Y1082869D01*
X237251Y1085318D01*
X236124Y1088039D01*
X235549Y1090928D01*
Y1093873D01*
X236124Y1096761D01*
X237251Y1099482D01*
X238887Y1101931D01*
X240969Y1104013D01*
X243418Y1105649D01*
X246139Y1106777D01*
X249028Y1107351D01*
X251973D01*
X254861Y1106777D01*
X257582Y1105649D01*
X260031Y1104013D01*
X262113Y1101931D01*
X262900Y1100753D01*
X262900Y1100753D01*
X263311Y1100139D01*
X263311Y1100139D01*
X263400Y1100049D01*
X263460Y1099938D01*
X263460Y1099938D01*
X263749Y1099700D01*
X264014Y1099435D01*
X264014Y1099435D01*
X264131Y1099387D01*
X264228Y1099307D01*
X264229Y1099307D01*
X264587Y1099198D01*
X264933Y1099055D01*
X264933Y1099055D01*
X265059D01*
X265180Y1099018D01*
X265180Y1099018D01*
X265553Y1099055D01*
X265927Y1099055D01*
X265928Y1099055D01*
X266044Y1099103D01*
X266170Y1099116D01*
X266170Y1099116D01*
X267440Y1099501D01*
X267440Y1099501D01*
X267551Y1099560D01*
X267675Y1099585D01*
X267675Y1099585D01*
X267987Y1099793D01*
X268317Y1099970D01*
X268317Y1099970D01*
X268397Y1100068D01*
X268502Y1100138D01*
X268502Y1100138D01*
X268710Y1100449D01*
X268948Y1100739D01*
X268948Y1100739D01*
X268985Y1100860D01*
X269055Y1100965D01*
X269055Y1100965D01*
X269128Y1101332D01*
X269237Y1101690D01*
X269237Y1101690D01*
X269224Y1101816D01*
X269249Y1101940D01*
X269249Y1101940D01*
X269249Y1103971D01*
Y1202690D01*
X269055Y1203665D01*
X268502Y1204492D01*
X260882Y1212112D01*
X260056Y1212665D01*
X259080Y1212859D01*
D02*
G37*
G36*
X1402954Y1087540D02*
X1401270D01*
Y1051270D01*
X1437540D01*
Y1052954D01*
X1436616Y1058791D01*
X1434790Y1064410D01*
X1432107Y1069675D01*
X1428634Y1074456D01*
X1424456Y1078634D01*
X1419675Y1082107D01*
X1414410Y1084790D01*
X1408791Y1086616D01*
X1402954Y1087540D01*
D02*
G37*
G36*
X1398730D02*
X1397045D01*
X1391209Y1086616D01*
X1385590Y1084790D01*
X1380325Y1082107D01*
X1375544Y1078634D01*
X1371366Y1074456D01*
X1367893Y1069675D01*
X1365210Y1064410D01*
X1363384Y1058791D01*
X1362460Y1052954D01*
Y1051270D01*
X1398730D01*
Y1087540D01*
D02*
G37*
G36*
X1437540Y1048730D02*
X1401270D01*
Y1012460D01*
X1402954D01*
X1408791Y1013384D01*
X1414410Y1015210D01*
X1419675Y1017893D01*
X1424456Y1021366D01*
X1428634Y1025544D01*
X1432107Y1030325D01*
X1434790Y1035590D01*
X1436616Y1041209D01*
X1437540Y1047046D01*
Y1048730D01*
D02*
G37*
G36*
X1398730D02*
X1362460D01*
Y1047046D01*
X1363384Y1041209D01*
X1365210Y1035590D01*
X1367893Y1030325D01*
X1371366Y1025544D01*
X1375544Y1021366D01*
X1380325Y1017893D01*
X1385590Y1015210D01*
X1391209Y1013384D01*
X1397045Y1012460D01*
X1398730D01*
Y1048730D01*
D02*
G37*
G36*
X1282286Y1008530D02*
X1280574D01*
X1278921Y1008087D01*
X1277439Y1007231D01*
X1276229Y1006021D01*
X1275373Y1004539D01*
X1274930Y1002886D01*
Y1001174D01*
X1275373Y999521D01*
X1276229Y998039D01*
X1277043Y995680D01*
X1276229Y993321D01*
X1275373Y991839D01*
X1274930Y990186D01*
Y988474D01*
X1275373Y986821D01*
X1276229Y985339D01*
X1277439Y984129D01*
X1278921Y983273D01*
X1280574Y982830D01*
X1282286D01*
X1283939Y983273D01*
X1285421Y984129D01*
X1286631Y985339D01*
X1287487Y986821D01*
X1287930Y988474D01*
Y990186D01*
X1287487Y991839D01*
X1286631Y993321D01*
X1285817Y995680D01*
X1286631Y998039D01*
X1287487Y999521D01*
X1287930Y1001174D01*
Y1002886D01*
X1287487Y1004539D01*
X1286631Y1006021D01*
X1285421Y1007231D01*
X1283939Y1008087D01*
X1282286Y1008530D01*
D02*
G37*
G36*
X1187450Y1014739D02*
X1027430D01*
X1026455Y1014545D01*
X1025628Y1013992D01*
X1016738Y1005102D01*
X1016185Y1004276D01*
X1015991Y1003300D01*
Y929640D01*
X1016185Y928665D01*
X1016738Y927838D01*
X1025628Y918948D01*
X1026454Y918395D01*
X1027430Y918201D01*
X1183640D01*
X1184615Y918395D01*
X1185442Y918948D01*
X1194332Y927838D01*
X1194885Y928664D01*
X1195079Y929640D01*
Y1007110D01*
X1194885Y1008085D01*
X1194332Y1008912D01*
X1189252Y1013992D01*
X1188426Y1014545D01*
X1187450Y1014739D01*
D02*
G37*
G36*
X1237836Y913280D02*
X1236124D01*
X1234471Y912837D01*
X1232989Y911981D01*
X1231779Y910771D01*
X1230923Y909289D01*
X1230480Y907636D01*
Y905924D01*
X1230923Y904271D01*
X1231779Y902789D01*
X1232989Y901579D01*
X1234471Y900723D01*
X1236124Y900280D01*
X1237836D01*
X1239489Y900723D01*
X1240971Y901579D01*
X1242181Y902789D01*
X1243037Y904271D01*
X1243480Y905924D01*
Y907636D01*
X1243037Y909289D01*
X1242181Y910771D01*
X1240971Y911981D01*
X1239489Y912837D01*
X1237836Y913280D01*
D02*
G37*
G36*
X1001616Y892960D02*
X999904D01*
X998251Y892517D01*
X996769Y891661D01*
X995559Y890451D01*
X994703Y888969D01*
X994260Y887316D01*
Y885604D01*
X994703Y883951D01*
X995559Y882469D01*
X996769Y881259D01*
X998251Y880403D01*
X999904Y879960D01*
X1001616D01*
X1003269Y880403D01*
X1004751Y881259D01*
X1005961Y882469D01*
X1006817Y883951D01*
X1007260Y885604D01*
Y887316D01*
X1006817Y888969D01*
X1005961Y890451D01*
X1004751Y891661D01*
X1003269Y892517D01*
X1001616Y892960D01*
D02*
G37*
G36*
X352954Y907540D02*
X351270D01*
Y871270D01*
X387540D01*
Y872954D01*
X386616Y878791D01*
X384790Y884410D01*
X382107Y889675D01*
X378634Y894456D01*
X374456Y898634D01*
X369675Y902107D01*
X364410Y904790D01*
X358791Y906616D01*
X352954Y907540D01*
D02*
G37*
G36*
X348730D02*
X347046D01*
X341209Y906616D01*
X335590Y904790D01*
X330325Y902107D01*
X325544Y898634D01*
X321366Y894456D01*
X317893Y889675D01*
X315210Y884410D01*
X313384Y878791D01*
X312460Y872954D01*
Y871270D01*
X348730D01*
Y907540D01*
D02*
G37*
G36*
X387540Y868730D02*
X351270D01*
Y832460D01*
X352954D01*
X358791Y833384D01*
X364410Y835210D01*
X369675Y837893D01*
X374456Y841366D01*
X378634Y845544D01*
X382107Y850325D01*
X384790Y855590D01*
X386616Y861209D01*
X387540Y867046D01*
Y868730D01*
D02*
G37*
G36*
X348730D02*
X312460D01*
Y867046D01*
X313384Y861209D01*
X315210Y855590D01*
X317893Y850325D01*
X321366Y845544D01*
X325544Y841366D01*
X330325Y837893D01*
X335590Y835210D01*
X341209Y833384D01*
X347046Y832460D01*
X348730D01*
Y868730D01*
D02*
G37*
G36*
X880345Y743510D02*
X877335D01*
X874428Y742731D01*
X873319Y742091D01*
X878840Y736570D01*
X884361Y742091D01*
X883252Y742731D01*
X880345Y743510D01*
D02*
G37*
G36*
X1192530Y863609D02*
X1098550D01*
X1097574Y863415D01*
X1096748Y862862D01*
X1085318Y851432D01*
X1084765Y850605D01*
X1084571Y849630D01*
Y755650D01*
X1084765Y754675D01*
X1085318Y753848D01*
X1091668Y747498D01*
X1092495Y746945D01*
X1093470Y746751D01*
X1220684D01*
X1226865Y740570D01*
X1224249Y736307D01*
X1222596Y736750D01*
X1220884D01*
X1219231Y736307D01*
X1217749Y735451D01*
X1216539Y734241D01*
X1215683Y732759D01*
X1215240Y731106D01*
Y729394D01*
X1215683Y727741D01*
X1216539Y726259D01*
X1217749Y725049D01*
X1219231Y724193D01*
X1220884Y723750D01*
X1222596D01*
X1224249Y724193D01*
X1225731Y725049D01*
X1226941Y726259D01*
X1227797Y727741D01*
X1228240Y729394D01*
Y731106D01*
X1227797Y732759D01*
X1232060Y735375D01*
X1250912Y716523D01*
X1251972Y713028D01*
X1254061Y709119D01*
X1256873Y705693D01*
X1260299Y702881D01*
X1264208Y700792D01*
X1268449Y699506D01*
X1272860Y699071D01*
X1312860D01*
X1317271Y699506D01*
X1321512Y700792D01*
X1325421Y702881D01*
X1328847Y705693D01*
X1331659Y709119D01*
X1333748Y713028D01*
X1335034Y717269D01*
X1335469Y721680D01*
Y761680D01*
X1335034Y766091D01*
X1334779Y766933D01*
Y785983D01*
X1338149Y787378D01*
X1342846Y790257D01*
X1347035Y793835D01*
X1350613Y798024D01*
X1353492Y802721D01*
X1355600Y807811D01*
X1356886Y813168D01*
X1357318Y818660D01*
X1356886Y824152D01*
X1355600Y829509D01*
X1353492Y834599D01*
X1350613Y839296D01*
X1347035Y843485D01*
X1342846Y847063D01*
X1338149Y849942D01*
X1333059Y852050D01*
X1327702Y853336D01*
X1322210Y853768D01*
X1277210D01*
X1271718Y853336D01*
X1266898Y852179D01*
X1205016D01*
X1194332Y862862D01*
X1193505Y863415D01*
X1192530Y863609D01*
D02*
G37*
G36*
X868829Y737601D02*
X868189Y736492D01*
X867410Y733585D01*
Y730575D01*
X868189Y727668D01*
X868829Y726559D01*
X874350Y732080D01*
X868829Y737601D01*
D02*
G37*
G36*
X888851Y737601D02*
X883330Y732080D01*
X888851Y726559D01*
X889491Y727668D01*
X890270Y730575D01*
Y733585D01*
X889491Y736492D01*
X888851Y737601D01*
D02*
G37*
G36*
X733025Y732790D02*
X730015D01*
X727108Y732011D01*
X725999Y731371D01*
X731520Y725850D01*
X737041Y731371D01*
X735932Y732011D01*
X733025Y732790D01*
D02*
G37*
G36*
X878840Y727590D02*
X873319Y722069D01*
X874428Y721429D01*
X877335Y720650D01*
X880345D01*
X883252Y721429D01*
X884361Y722069D01*
X878840Y727590D01*
D02*
G37*
G36*
X741531Y726881D02*
X736010Y721360D01*
X741531Y715839D01*
X742171Y716948D01*
X742950Y719855D01*
Y722865D01*
X742171Y725772D01*
X741531Y726881D01*
D02*
G37*
G36*
X721509D02*
X720869Y725772D01*
X720090Y722865D01*
Y719855D01*
X720869Y716948D01*
X721509Y715839D01*
X727030Y721360D01*
X721509Y726881D01*
D02*
G37*
G36*
X731520Y716870D02*
X725999Y711349D01*
X727108Y710709D01*
X730015Y709930D01*
X733025D01*
X735932Y710709D01*
X737041Y711349D01*
X731520Y716870D01*
D02*
G37*
G36*
X851135Y679920D02*
X848125D01*
X845218Y679141D01*
X844109Y678501D01*
X849630Y672980D01*
X855151Y678501D01*
X854042Y679141D01*
X851135Y679920D01*
D02*
G37*
G36*
X839619Y674011D02*
X838979Y672902D01*
X838200Y669995D01*
Y666985D01*
X838979Y664078D01*
X839619Y662969D01*
X845140Y668490D01*
X839619Y674011D01*
D02*
G37*
G36*
X859641Y674011D02*
X854120Y668490D01*
X859641Y662969D01*
X860281Y664078D01*
X861060Y666985D01*
Y669995D01*
X860281Y672902D01*
X859641Y674011D01*
D02*
G37*
G36*
X849630Y664000D02*
X844109Y658479D01*
X845218Y657839D01*
X848125Y657060D01*
X851135D01*
X854042Y657839D01*
X855151Y658479D01*
X849630Y664000D01*
D02*
G37*
G36*
X1209896Y641500D02*
X1208184D01*
X1206531Y641057D01*
X1205049Y640201D01*
X1203839Y638991D01*
X1202983Y637509D01*
X1202540Y635856D01*
Y634144D01*
X1202983Y632491D01*
X1203839Y631009D01*
X1205049Y629799D01*
X1206531Y628943D01*
X1208184Y628500D01*
X1209896D01*
X1211549Y628943D01*
X1213031Y629799D01*
X1214241Y631009D01*
X1215097Y632491D01*
X1215540Y634144D01*
Y635856D01*
X1215097Y637509D01*
X1214241Y638991D01*
X1213031Y640201D01*
X1211549Y641057D01*
X1209896Y641500D01*
D02*
G37*
G36*
X850962Y628610D02*
X848298D01*
X845724Y627920D01*
X843416Y626588D01*
X841532Y624704D01*
X840962Y623717D01*
X839676Y621953D01*
X837249Y619898D01*
X837065Y619904D01*
X836666Y619825D01*
X836262Y619774D01*
X836181Y619728D01*
X836090Y619710D01*
X835751Y619484D01*
X835397Y619283D01*
X835397D01*
X835340Y619209D01*
X835263Y619158D01*
X781788Y565682D01*
X734798Y518692D01*
X734245Y517865D01*
X734051Y516890D01*
X734051Y480060D01*
X734245Y479085D01*
X734798Y478258D01*
X747498Y465558D01*
X748325Y465005D01*
X749300Y464811D01*
X820420D01*
X821395Y465005D01*
X822222Y465558D01*
X835446Y478781D01*
X863369D01*
X863765Y473945D01*
X860858Y473166D01*
X859749Y472526D01*
X865270Y467005D01*
X870791Y472526D01*
X869682Y473166D01*
X866775Y473945D01*
X867171Y478781D01*
X1007110D01*
X1008085Y478975D01*
X1008912Y479528D01*
X1011452Y482068D01*
X1012005Y482895D01*
X1012199Y483870D01*
Y571714D01*
X1033042Y592558D01*
X1033595Y593385D01*
X1033789Y594360D01*
Y623570D01*
X1033595Y624545D01*
X1033042Y625372D01*
X1032215Y625925D01*
X1031240Y626119D01*
X861247D01*
X860971Y626064D01*
X860690Y626057D01*
X860488Y625968D01*
X860272Y625925D01*
X859733Y625666D01*
X855844Y626588D01*
X853536Y627920D01*
X850962Y628610D01*
D02*
G37*
G36*
X760965Y579590D02*
X757955D01*
X755048Y578811D01*
X753939Y578171D01*
X759460Y572650D01*
X764981Y578171D01*
X763872Y578811D01*
X760965Y579590D01*
D02*
G37*
G36*
X1332860Y654289D02*
X1292860D01*
X1290526Y654059D01*
X1285240D01*
X1284265Y653865D01*
X1283438Y653312D01*
X1280954Y650828D01*
X1280299Y650479D01*
X1276873Y647667D01*
X1274061Y644241D01*
X1273712Y643587D01*
X1211794Y581669D01*
X1062990D01*
X1062015Y581475D01*
X1061188Y580922D01*
X1060635Y580095D01*
X1060441Y579120D01*
Y499110D01*
X1060635Y498135D01*
X1061188Y497308D01*
X1062015Y496755D01*
X1062990Y496561D01*
X1067014D01*
X1076428Y487148D01*
X1077254Y486595D01*
X1078230Y486401D01*
X1247140D01*
X1248115Y486595D01*
X1248942Y487148D01*
X1324875Y563081D01*
X1401863Y563658D01*
X1403210Y563552D01*
X1448210D01*
X1453702Y563984D01*
X1459059Y565270D01*
X1464149Y567378D01*
X1468846Y570257D01*
X1473035Y573835D01*
X1476613Y578024D01*
X1479492Y582721D01*
X1481600Y587811D01*
X1482886Y593168D01*
X1483318Y598660D01*
X1482886Y604152D01*
X1481600Y609509D01*
X1479492Y614599D01*
X1476613Y619296D01*
X1473035Y623485D01*
X1471689Y624635D01*
X1443012Y653312D01*
X1442185Y653865D01*
X1441209Y654059D01*
X1335194D01*
X1332860Y654289D01*
D02*
G37*
G36*
X749449Y573681D02*
X748809Y572572D01*
X748030Y569665D01*
Y566655D01*
X748809Y563748D01*
X749449Y562639D01*
X754970Y568160D01*
X749449Y573681D01*
D02*
G37*
G36*
X769471Y573681D02*
X763950Y568160D01*
X769471Y562639D01*
X770111Y563748D01*
X770890Y566655D01*
Y569665D01*
X770111Y572572D01*
X769471Y573681D01*
D02*
G37*
G36*
X759460Y563670D02*
X753939Y558149D01*
X755048Y557509D01*
X757955Y556730D01*
X760965D01*
X763872Y557509D01*
X764981Y558149D01*
X759460Y563670D01*
D02*
G37*
G36*
X350030Y778468D02*
X344538Y778036D01*
X339181Y776750D01*
X334091Y774642D01*
X329394Y771763D01*
X325205Y768185D01*
X321627Y763996D01*
X318748Y759299D01*
X316640Y754209D01*
X315354Y748852D01*
X315282Y747941D01*
X315145Y747736D01*
X314951Y746760D01*
Y743732D01*
X314922Y743360D01*
Y698360D01*
X314951Y697989D01*
Y588010D01*
X315145Y587034D01*
X315698Y586208D01*
X351258Y550648D01*
X352085Y550095D01*
X353060Y549901D01*
X519430D01*
X520405Y550095D01*
X521232Y550648D01*
X527582Y556998D01*
X528135Y557825D01*
X528329Y558800D01*
Y655320D01*
X528135Y656295D01*
X527582Y657122D01*
X522502Y662202D01*
X521675Y662755D01*
X520700Y662949D01*
X416346D01*
X401329Y677966D01*
Y740410D01*
X401135Y741385D01*
X400582Y742212D01*
X376294Y766501D01*
X374855Y768185D01*
X370666Y771763D01*
X365969Y774642D01*
X360879Y776750D01*
X355522Y778036D01*
X350030Y778468D01*
D02*
G37*
G36*
X611334Y540352D02*
X609622Y540352D01*
X607969Y539909D01*
X606487Y539053D01*
X605277Y537843D01*
X604421Y536361D01*
X603978Y534708D01*
Y532996D01*
X604421Y531343D01*
X605277Y529861D01*
X606487Y528651D01*
X607969Y527795D01*
X609622Y527352D01*
X611334D01*
X612987Y527795D01*
X614161Y528473D01*
X615461Y528764D01*
X617581Y529006D01*
X619752Y528346D01*
X620012Y528250D01*
X620395Y528028D01*
X621429Y527431D01*
X623082Y526988D01*
X624794D01*
X626447Y527431D01*
X627929Y528287D01*
X629139Y529497D01*
X629995Y530979D01*
X630438Y532632D01*
Y534344D01*
X629995Y535997D01*
X629139Y537479D01*
X627929Y538689D01*
X626447Y539545D01*
X624794Y539988D01*
X624794Y539988D01*
X623082Y539988D01*
X623066Y539984D01*
X621429Y539545D01*
X619751Y539096D01*
X619264Y539000D01*
X617453Y538957D01*
X615224Y539282D01*
X613834Y539524D01*
X612987Y539909D01*
X611334Y540352D01*
X611334Y540352D01*
D02*
G37*
G36*
X855259Y468036D02*
X854619Y466927D01*
X853840Y464020D01*
Y461010D01*
X854619Y458103D01*
X855259Y456994D01*
X860780Y462515D01*
X855259Y468036D01*
D02*
G37*
G36*
X875281Y468036D02*
X869760Y462515D01*
X875281Y456994D01*
X875921Y458103D01*
X876700Y461010D01*
Y464020D01*
X875921Y466927D01*
X875281Y468036D01*
D02*
G37*
G36*
X865270Y458025D02*
X859749Y452504D01*
X860858Y451864D01*
X863765Y451085D01*
X866775D01*
X869682Y451864D01*
X870791Y452504D01*
X865270Y458025D01*
D02*
G37*
G36*
X1073486Y451792D02*
X1058844D01*
X1057868Y451598D01*
X1057041Y451046D01*
X1028917Y422922D01*
X976876D01*
X976630Y422873D01*
X976379D01*
X976147Y422777D01*
X975901Y422728D01*
X975692Y422589D01*
X975460Y422493D01*
X973152Y420951D01*
X970431Y419823D01*
X967542Y419249D01*
X964597D01*
X961709Y419823D01*
X958988Y420951D01*
X956680Y422493D01*
X956448Y422589D01*
X956239Y422728D01*
X955993Y422777D01*
X955761Y422873D01*
X955510D01*
X955264Y422922D01*
X875249Y422922D01*
X874808Y422835D01*
X874365Y422764D01*
X874322Y422738D01*
X874273Y422728D01*
X873900Y422479D01*
X873517Y422244D01*
X872574Y421487D01*
X869176Y421945D01*
X869176Y421945D01*
X868133Y422225D01*
X866602Y422635D01*
X863938D01*
X861364Y421945D01*
X859056Y420613D01*
X857172Y418729D01*
X856680Y417876D01*
X855346Y415978D01*
X853136Y413996D01*
X852709Y414027D01*
X851734Y413833D01*
X850907Y413281D01*
X838955Y401329D01*
X728980Y401329D01*
X728004Y401135D01*
X727177Y400582D01*
X713208Y386613D01*
X712655Y385786D01*
X712461Y384810D01*
X712461Y322580D01*
X712655Y321605D01*
X713208Y320778D01*
X718288Y315698D01*
X719115Y315145D01*
X720090Y314951D01*
X952652D01*
X952947Y314951D01*
X952947Y314951D01*
X954982Y314951D01*
X954982Y314951D01*
X955106Y314976D01*
X955232Y314963D01*
X955232Y314963D01*
X955590Y315072D01*
X955957Y315145D01*
X955958Y315145D01*
X956063Y315215D01*
X956184Y315252D01*
X956184Y315252D01*
X956473Y315490D01*
X956785Y315698D01*
X956785Y315698D01*
X956855Y315803D01*
X956953Y315883D01*
X956953Y315883D01*
X957129Y316213D01*
Y316213D01*
X957337Y316525D01*
X957337Y316525D01*
X957362Y316649D01*
X957421Y316760D01*
X957421Y316760D01*
X957790Y317975D01*
X957790Y317975D01*
X957802Y318101D01*
X957851Y318218D01*
X957851Y318218D01*
X957851Y318592D01*
X957851Y318592D01*
X957887Y318965D01*
X957887Y318965D01*
X957851Y319086D01*
Y319212D01*
X957851Y319212D01*
X957707Y319559D01*
X957599Y319917D01*
X957599Y319917D01*
X957518Y320015D01*
X957470Y320131D01*
X957470Y320131D01*
X957205Y320396D01*
X956968Y320686D01*
X956968Y320686D01*
X956856Y320745D01*
X956767Y320835D01*
X956767Y320835D01*
X956539Y320987D01*
X954457Y323069D01*
X952821Y325518D01*
X951693Y328239D01*
X951119Y331128D01*
Y334072D01*
X951693Y336961D01*
X952821Y339682D01*
X954457Y342131D01*
X956539Y344213D01*
X958988Y345849D01*
X961709Y346976D01*
X964597Y347551D01*
X967542D01*
X970431Y346976D01*
X973152Y345849D01*
X975601Y344213D01*
X977683Y342131D01*
X979319Y339682D01*
X980446Y336961D01*
X981021Y334072D01*
Y331128D01*
X980446Y328239D01*
X979320Y325518D01*
X977683Y323069D01*
X975601Y320987D01*
X975373Y320835D01*
X975373Y320835D01*
X975284Y320745D01*
X975172Y320686D01*
X975172Y320686D01*
X975002Y320478D01*
Y320478D01*
X974935Y320396D01*
X974670Y320131D01*
X974670Y320131D01*
X974622Y320015D01*
X974541Y319917D01*
X974541Y319917D01*
X974433Y319559D01*
X974289Y319212D01*
X974289Y319212D01*
Y319086D01*
X974252Y318965D01*
X974253Y318965D01*
X974289Y318592D01*
X974289Y318218D01*
X974289Y318218D01*
X974338Y318101D01*
X974350Y317975D01*
X974350Y317975D01*
X974719Y316760D01*
X974719Y316760D01*
X974778Y316649D01*
X974803Y316525D01*
X974803Y316525D01*
X975011Y316213D01*
Y316213D01*
X975188Y315883D01*
X975188Y315883D01*
X975285Y315803D01*
X975356Y315698D01*
X975356Y315698D01*
X975667Y315490D01*
X975956Y315252D01*
X975956Y315252D01*
X976077Y315215D01*
X976182Y315145D01*
X976182Y315145D01*
X976550Y315072D01*
X976908Y314963D01*
X976908Y314963D01*
X977034Y314976D01*
X977158Y314951D01*
X977158Y314951D01*
X979193Y314951D01*
X1073927D01*
X1074902Y315145D01*
X1075729Y315698D01*
X1084485Y324453D01*
X1085038Y325280D01*
X1085231Y326255D01*
Y440047D01*
X1085038Y441023D01*
X1084485Y441850D01*
X1081835Y444500D01*
X1081263Y445356D01*
X1078826Y447793D01*
X1077970Y448365D01*
X1075289Y451046D01*
X1074462Y451598D01*
X1073486Y451792D01*
D02*
G37*
G36*
X1435100Y1353746D02*
X748030D01*
X745419Y1353403D01*
X742987Y1352395D01*
X740898Y1350792D01*
X700258Y1310152D01*
X698655Y1308063D01*
X697647Y1305630D01*
X697304Y1303020D01*
Y1186969D01*
X695441Y1186266D01*
X692304Y1186105D01*
X691802Y1186975D01*
X690405Y1188372D01*
X688695Y1189359D01*
X686787Y1189870D01*
X684813D01*
X682905Y1189359D01*
X682156Y1188926D01*
X662940D01*
X661243Y1188703D01*
X659662Y1188048D01*
X658304Y1187006D01*
X554814Y1083516D01*
X419100D01*
X417403Y1083293D01*
X415822Y1082638D01*
X414464Y1081596D01*
X401764Y1068896D01*
X400722Y1067538D01*
X400067Y1065957D01*
X399844Y1064260D01*
Y938530D01*
X400067Y936833D01*
X400722Y935252D01*
X401764Y933894D01*
X462724Y872934D01*
X464082Y871892D01*
X465663Y871237D01*
X467360Y871014D01*
X493854D01*
X524304Y840564D01*
Y817105D01*
X521965Y815756D01*
X519304Y815261D01*
X517422Y817142D01*
X516595Y817695D01*
X515620Y817889D01*
X500166D01*
X496579Y821476D01*
Y857250D01*
X496385Y858225D01*
X495832Y859052D01*
X492022Y862862D01*
X491195Y863415D01*
X490220Y863609D01*
X425450D01*
X424475Y863415D01*
X423648Y862862D01*
X413488Y852702D01*
X412935Y851876D01*
X412741Y850900D01*
Y718820D01*
X412935Y717845D01*
X413488Y717018D01*
X418568Y711938D01*
X419394Y711385D01*
X420370Y711191D01*
X514350D01*
X515326Y711385D01*
X516152Y711938D01*
X519304Y715089D01*
X521965Y714594D01*
X524304Y713245D01*
Y688340D01*
X524527Y686643D01*
X525182Y685062D01*
X526224Y683704D01*
X599884Y610044D01*
X601242Y609002D01*
X602823Y608347D01*
X604520Y608124D01*
X665480D01*
X665906Y608180D01*
X666336D01*
X666751Y608291D01*
X667177Y608347D01*
X667574Y608512D01*
X667989Y608623D01*
X668361Y608838D01*
X668758Y609002D01*
X669099Y609264D01*
X669471Y609479D01*
X669775Y609783D01*
X670116Y610044D01*
X670377Y610385D01*
X670681Y610689D01*
X670896Y611061D01*
X671158Y611402D01*
X671322Y611799D01*
X671537Y612171D01*
X671648Y612586D01*
X671813Y612983D01*
X671869Y613409D01*
X671980Y613824D01*
Y614254D01*
X672036Y614680D01*
X671980Y615106D01*
Y615536D01*
X671869Y615951D01*
X671813Y616377D01*
X671648Y616774D01*
X671537Y617189D01*
X671322Y617561D01*
X671158Y617958D01*
X670896Y618299D01*
X670681Y618671D01*
X670377Y618975D01*
X670116Y619316D01*
X669775Y619577D01*
X669471Y619881D01*
X669099Y620096D01*
X668758Y620358D01*
X668361Y620522D01*
X667989Y620737D01*
X667574Y620848D01*
X667177Y621013D01*
X666751Y621069D01*
X666336Y621180D01*
X665906D01*
X665480Y621236D01*
X607236D01*
X601117Y627355D01*
X601592Y630030D01*
X602642Y632901D01*
X603521Y633409D01*
X604731Y634619D01*
X605587Y636101D01*
X606030Y637754D01*
Y639466D01*
X605587Y641119D01*
X604731Y642601D01*
X603521Y643811D01*
X603226Y643982D01*
X603129Y645186D01*
X603828Y649020D01*
X603858Y649094D01*
X604489Y649263D01*
X605971Y650119D01*
X607181Y651329D01*
X608037Y652811D01*
X608480Y654464D01*
Y656176D01*
X608037Y657829D01*
X607181Y659311D01*
X605971Y660521D01*
X604489Y661377D01*
X602836Y661820D01*
X601124D01*
X599471Y661377D01*
X597989Y660521D01*
X596779Y659311D01*
X595923Y657829D01*
X595480Y656176D01*
Y654464D01*
X595923Y652811D01*
X596779Y651329D01*
X597989Y650119D01*
X598284Y649948D01*
X598381Y648744D01*
X597682Y644910D01*
X597652Y644836D01*
X597021Y644667D01*
X595539Y643811D01*
X594329Y642601D01*
X593821Y641722D01*
X590950Y640672D01*
X588274Y640197D01*
X537416Y691056D01*
Y757468D01*
X542416Y759539D01*
X551918Y750038D01*
X552744Y749485D01*
X553720Y749291D01*
X719402D01*
X719485Y749308D01*
X719568Y749296D01*
X719969Y749404D01*
X720377Y749485D01*
X720532Y749552D01*
X723161Y748001D01*
X723161Y748001D01*
X725248Y746606D01*
X727710Y746116D01*
X735330D01*
X737792Y746606D01*
X739879Y748001D01*
X739879Y748001D01*
X742508Y749552D01*
X742663Y749485D01*
X743071Y749404D01*
X743472Y749296D01*
X743556Y749307D01*
X743638Y749291D01*
X900430D01*
X901405Y749485D01*
X902232Y750038D01*
X919266Y767071D01*
X1057910D01*
X1058885Y767265D01*
X1059712Y767818D01*
X1063522Y771628D01*
X1064075Y772455D01*
X1064269Y773430D01*
Y853440D01*
X1064075Y854416D01*
X1063522Y855242D01*
X1062695Y855795D01*
X1061720Y855989D01*
X689396D01*
X667282Y878102D01*
X666455Y878655D01*
X665480Y878849D01*
X596900D01*
X595924Y878655D01*
X595098Y878102D01*
X579858Y862862D01*
X542416Y825421D01*
X537416Y827492D01*
Y843280D01*
X537193Y844977D01*
X536538Y846558D01*
X535496Y847916D01*
X503231Y880181D01*
X505302Y885181D01*
X692505D01*
X692670Y885214D01*
X692838Y885203D01*
X693153Y885310D01*
X693480Y885375D01*
X694553Y885572D01*
X695764Y884362D01*
X697246Y883506D01*
X698899Y883063D01*
X700611D01*
X702264Y883506D01*
X703746Y884362D01*
X704956Y885572D01*
X706029Y885375D01*
X706356Y885310D01*
X706672Y885203D01*
X706840Y885214D01*
X707005Y885181D01*
X718190D01*
X718298Y885202D01*
X718407Y885190D01*
X718782Y885299D01*
X719166Y885375D01*
X719257Y885436D01*
X719362Y885466D01*
X719668Y885710D01*
X719993Y885928D01*
X720054Y886019D01*
X720139Y886087D01*
X721181Y886641D01*
X723044Y886310D01*
X724756D01*
X726619Y886641D01*
X727661Y886087D01*
X727746Y886019D01*
X727807Y885928D01*
X728132Y885710D01*
X728438Y885466D01*
X728543Y885436D01*
X728634Y885375D01*
X729018Y885299D01*
X729393Y885190D01*
X729502Y885202D01*
X729610Y885181D01*
X904972D01*
X905219Y885230D01*
X905470Y885230D01*
X905702Y885326D01*
X905948Y885375D01*
X906157Y885515D01*
X906256Y885556D01*
X907475Y884337D01*
X909496Y883500D01*
X911684D01*
X913706Y884337D01*
X914924Y885556D01*
X915023Y885515D01*
X915232Y885375D01*
X915478Y885326D01*
X915710Y885230D01*
X915961Y885230D01*
X916208Y885181D01*
X944880D01*
X945855Y885375D01*
X946682Y885928D01*
X959712Y898958D01*
X960265Y899784D01*
X960459Y900760D01*
Y972062D01*
X960410Y972308D01*
Y972559D01*
X960314Y972791D01*
X960265Y973037D01*
X960125Y973246D01*
X960029Y973478D01*
X959852Y973656D01*
X959849Y973660D01*
X960973Y974784D01*
X961810Y976806D01*
Y978994D01*
X960973Y981015D01*
X959882Y982106D01*
X1025948Y1048171D01*
X1042962D01*
X1043938Y1048365D01*
X1044765Y1048918D01*
X1045317Y1049744D01*
X1045323Y1049757D01*
X1050152D01*
X1050183Y1049744D01*
X1050735Y1048918D01*
X1051562Y1048365D01*
X1052538Y1048171D01*
X1149350D01*
X1150325Y1048365D01*
X1151152Y1048918D01*
X1160042Y1057808D01*
X1160595Y1058634D01*
X1160789Y1059610D01*
Y1183374D01*
X1163496Y1187665D01*
X1165684D01*
X1167706Y1188502D01*
X1169253Y1190050D01*
X1170090Y1192071D01*
Y1194259D01*
X1169253Y1196281D01*
X1167706Y1197828D01*
X1165684Y1198665D01*
X1163496D01*
X1160789Y1202956D01*
Y1308100D01*
X1160595Y1309075D01*
X1160042Y1309902D01*
X1141371Y1328574D01*
X1141542Y1330172D01*
X1143076Y1333574D01*
X1430922D01*
X1466924Y1297572D01*
Y1038538D01*
X1355288Y926902D01*
X1353685Y924813D01*
X1352677Y922381D01*
X1352334Y919770D01*
X1352677Y917160D01*
X1353685Y914727D01*
X1355288Y912638D01*
X1494864Y773062D01*
Y561708D01*
X1363322Y430166D01*
X1280450D01*
X1277840Y429823D01*
X1275407Y428815D01*
X1273318Y427212D01*
X1271715Y425123D01*
X1270707Y422690D01*
X1270364Y420080D01*
X1270707Y417469D01*
X1271715Y415037D01*
X1273318Y412948D01*
X1275407Y411345D01*
X1277840Y410337D01*
X1280450Y409994D01*
X1367500D01*
X1370110Y410337D01*
X1372543Y411345D01*
X1374632Y412948D01*
X1512082Y550398D01*
X1513685Y552487D01*
X1514693Y554920D01*
X1515036Y557530D01*
Y777240D01*
X1514693Y779850D01*
X1513685Y782283D01*
X1512082Y784372D01*
X1376684Y919770D01*
X1484142Y1027228D01*
X1485745Y1029317D01*
X1486753Y1031750D01*
X1487096Y1034360D01*
Y1301750D01*
X1486753Y1304361D01*
X1485745Y1306793D01*
X1484142Y1308882D01*
X1442232Y1350792D01*
X1440143Y1352395D01*
X1437711Y1353403D01*
X1435100Y1353746D01*
D02*
G37*
G36*
X1145656Y375540D02*
X1143944D01*
X1142291Y375097D01*
X1140809Y374241D01*
X1139599Y373031D01*
X1138743Y371549D01*
X1138300Y369896D01*
Y368184D01*
X1138743Y366531D01*
X1139599Y365049D01*
X1140809Y363839D01*
X1142291Y362983D01*
X1143944Y362540D01*
X1145656D01*
X1147309Y362983D01*
X1148791Y363839D01*
X1150001Y365049D01*
X1150857Y366531D01*
X1151300Y368184D01*
Y369896D01*
X1150857Y371549D01*
X1150001Y373031D01*
X1148791Y374241D01*
X1147309Y375097D01*
X1145656Y375540D01*
D02*
G37*
G36*
X1220056Y346860D02*
X1218344D01*
X1216691Y346417D01*
X1215209Y345561D01*
X1213999Y344351D01*
X1213143Y342869D01*
X1212700Y341216D01*
Y339504D01*
X1213143Y337851D01*
X1213999Y336369D01*
X1215209Y335159D01*
X1216691Y334303D01*
X1218344Y333860D01*
X1220056D01*
X1221709Y334303D01*
X1223191Y335159D01*
X1224401Y336369D01*
X1225257Y337851D01*
X1225446Y338020D01*
X1230582Y337248D01*
X1230923Y336581D01*
X1231083Y336304D01*
X1231779Y335099D01*
X1232989Y333889D01*
X1234471Y333033D01*
X1236124Y332590D01*
X1237836D01*
X1239489Y333033D01*
X1240971Y333889D01*
X1242181Y335099D01*
X1243037Y336581D01*
X1243480Y338234D01*
Y339946D01*
X1243037Y341599D01*
X1242181Y343081D01*
X1240971Y344291D01*
X1239489Y345147D01*
X1237836Y345590D01*
X1236124D01*
X1234471Y345147D01*
X1232989Y344291D01*
X1231779Y343081D01*
X1230923Y341599D01*
X1230734Y341430D01*
X1225598Y342202D01*
X1225257Y342869D01*
X1225097Y343146D01*
X1224401Y344351D01*
X1223191Y345561D01*
X1221709Y346417D01*
X1220056Y346860D01*
D02*
G37*
G36*
X130030Y652468D02*
X124538Y652036D01*
X119181Y650750D01*
X114091Y648642D01*
X109394Y645763D01*
X105205Y642185D01*
X101627Y637996D01*
X98748Y633299D01*
X96640Y628209D01*
X95354Y622852D01*
X94922Y617360D01*
Y572360D01*
X95241Y568303D01*
X95241Y360680D01*
X95435Y359705D01*
X95988Y358878D01*
X167108Y287758D01*
X167934Y287205D01*
X168910Y287011D01*
X209063D01*
X209208Y287040D01*
X209355Y287028D01*
X209691Y287136D01*
X210039Y287205D01*
X210161Y287287D01*
X210302Y287332D01*
X210571Y287561D01*
X210865Y287758D01*
X210947Y287880D01*
X211060Y287976D01*
X211539Y288616D01*
X215368Y289600D01*
X218032D01*
X221861Y288616D01*
X222340Y287976D01*
X222453Y287880D01*
X222535Y287758D01*
X222829Y287561D01*
X223098Y287332D01*
X223239Y287287D01*
X223361Y287205D01*
X223708Y287136D01*
X224045Y287028D01*
X224045Y287028D01*
X224192Y287040D01*
X224337Y287011D01*
X261518D01*
X261683Y287044D01*
X261850Y287033D01*
X262166Y287140D01*
X262493Y287205D01*
X262633Y287299D01*
X262792Y287353D01*
X263043Y287572D01*
X263320Y287758D01*
X263413Y287897D01*
X263540Y288008D01*
X263687Y288307D01*
X263873Y288584D01*
X263940Y288626D01*
X265195Y288290D01*
X268205D01*
X269460Y288626D01*
X269527Y288584D01*
X269713Y288307D01*
X269860Y288008D01*
X269987Y287897D01*
X270080Y287758D01*
X270357Y287572D01*
X270608Y287353D01*
X270767Y287299D01*
X270907Y287205D01*
X271234Y287140D01*
X271550Y287033D01*
X271717Y287044D01*
X271882Y287011D01*
X284480D01*
X285455Y287205D01*
X286282Y287758D01*
X301522Y302998D01*
X302075Y303825D01*
X302269Y304800D01*
X302269Y346924D01*
X321842Y366498D01*
X322395Y367324D01*
X322589Y368300D01*
Y427990D01*
X322395Y428965D01*
X321842Y429792D01*
X301522Y450112D01*
X300695Y450665D01*
X299720Y450859D01*
X238546D01*
X224799Y464606D01*
Y570230D01*
X224605Y571205D01*
X224052Y572032D01*
X158978Y637107D01*
X158433Y637996D01*
X154855Y642185D01*
X150666Y645763D01*
X145969Y648642D01*
X140879Y650750D01*
X135522Y652036D01*
X130030Y652468D01*
D02*
G37*
G36*
X501650Y452129D02*
X444500D01*
X443525Y451935D01*
X442698Y451382D01*
X418568Y427252D01*
X418015Y426426D01*
X417821Y425450D01*
X417821Y371896D01*
X396978Y351052D01*
X396425Y350225D01*
X396231Y349250D01*
Y295910D01*
X396425Y294935D01*
X396978Y294108D01*
X405868Y285218D01*
X406694Y284665D01*
X407670Y284471D01*
X497840Y284471D01*
X498815Y284665D01*
X499642Y285218D01*
X511072Y296648D01*
X511625Y297474D01*
X511819Y298450D01*
Y441960D01*
X511625Y442935D01*
X511072Y443762D01*
X503452Y451382D01*
X502626Y451935D01*
X501650Y452129D01*
D02*
G37*
G36*
X97954Y317540D02*
X96270D01*
Y281270D01*
X132540D01*
Y282955D01*
X131616Y288791D01*
X129790Y294410D01*
X127107Y299675D01*
X123634Y304456D01*
X119456Y308634D01*
X114675Y312107D01*
X109410Y314790D01*
X103791Y316616D01*
X97954Y317540D01*
D02*
G37*
%LPD*%
G36*
X266700Y1202690D02*
Y1101940D01*
X265430Y1101555D01*
X264093Y1103556D01*
X261656Y1105993D01*
X258789Y1107908D01*
X255605Y1109228D01*
X252224Y1109900D01*
X248776D01*
X245395Y1109228D01*
X242211Y1107908D01*
X239344Y1105993D01*
X236907Y1103556D01*
X234992Y1100689D01*
X233673Y1097505D01*
X233000Y1094124D01*
Y1090676D01*
X233673Y1087295D01*
X234992Y1084111D01*
X236907Y1081244D01*
X239344Y1078807D01*
X242211Y1076892D01*
X245395Y1075573D01*
X248776Y1074900D01*
X252224D01*
X255605Y1075573D01*
X258789Y1076892D01*
X261656Y1078807D01*
X264093Y1081244D01*
X265430Y1083245D01*
X266700Y1082860D01*
Y1063399D01*
X310739D01*
X346210Y1027930D01*
Y933450D01*
X184150D01*
X132080Y985520D01*
Y1084023D01*
X133326Y1084270D01*
X133392Y1084111D01*
X135307Y1081244D01*
X137744Y1078807D01*
X140611Y1076892D01*
X143795Y1075573D01*
X147176Y1074900D01*
X150624D01*
X154005Y1075573D01*
X157189Y1076892D01*
X160056Y1078807D01*
X162493Y1081244D01*
X164408Y1084111D01*
X165728Y1087295D01*
X166400Y1090676D01*
Y1094124D01*
X165728Y1097505D01*
X164408Y1100689D01*
X162493Y1103556D01*
X160056Y1105993D01*
X157189Y1107908D01*
X154005Y1109228D01*
X150624Y1109900D01*
X147176D01*
X143795Y1109228D01*
X140611Y1107908D01*
X137744Y1105993D01*
X135307Y1103556D01*
X133392Y1100689D01*
X133326Y1100530D01*
X132080Y1100778D01*
Y1200150D01*
X142240Y1210310D01*
X259080D01*
X266700Y1202690D01*
D02*
G37*
G36*
X1192530Y1007110D02*
Y929640D01*
X1183640Y920750D01*
X1027430D01*
X1018540Y929640D01*
Y1003300D01*
X1027430Y1012190D01*
X1187450D01*
X1192530Y1007110D01*
D02*
G37*
G36*
X1203960Y849630D02*
X1330960D01*
X1332230Y848360D01*
Y717550D01*
X1316990Y702310D01*
X1268730D01*
X1221740Y749300D01*
X1093470D01*
X1087120Y755650D01*
Y849630D01*
X1098550Y861060D01*
X1192530D01*
X1203960Y849630D01*
D02*
G37*
G36*
X1031240Y594360D02*
X1009650Y572770D01*
Y483870D01*
X1007110Y481330D01*
X834390D01*
X820420Y467360D01*
X749300D01*
X736600Y480060D01*
X736600Y516890D01*
X783590Y563880D01*
X837065Y617355D01*
X838261Y616755D01*
X838979Y614078D01*
X839619Y612969D01*
X847385Y620735D01*
X849630Y618490D01*
X851875Y620735D01*
X859641Y612969D01*
X860281Y614078D01*
X861060Y616985D01*
Y619995D01*
X860442Y622300D01*
X861247Y623570D01*
X1031240D01*
Y594360D01*
D02*
G37*
%LPC*%
G36*
X849630Y614000D02*
X844109Y608479D01*
X845218Y607839D01*
X848125Y607060D01*
X851135D01*
X854042Y607839D01*
X855151Y608479D01*
X849630Y614000D01*
D02*
G37*
G36*
X866602Y578680D02*
X863938D01*
X861364Y577990D01*
X859056Y576658D01*
X857172Y574774D01*
X855840Y572466D01*
X855150Y569892D01*
Y567228D01*
X855840Y564654D01*
X857172Y562346D01*
X859056Y560462D01*
X861364Y559130D01*
X863938Y558440D01*
X866602D01*
X869176Y559130D01*
X871484Y560462D01*
X873368Y562346D01*
X874700Y564654D01*
X875390Y567228D01*
Y569892D01*
X874700Y572466D01*
X873368Y574774D01*
X871484Y576658D01*
X869176Y577990D01*
X866602Y578680D01*
D02*
G37*
G36*
X866775Y529990D02*
X863765D01*
X860858Y529211D01*
X859749Y528571D01*
X865270Y523050D01*
X870791Y528571D01*
X869682Y529211D01*
X866775Y529990D01*
D02*
G37*
G36*
X760965Y529590D02*
X757955D01*
X755048Y528811D01*
X753939Y528171D01*
X759460Y522650D01*
X764981Y528171D01*
X763872Y528811D01*
X760965Y529590D01*
D02*
G37*
G36*
X855259Y524081D02*
X854619Y522972D01*
X853840Y520065D01*
Y517055D01*
X854619Y514148D01*
X855259Y513039D01*
X860780Y518560D01*
X855259Y524081D01*
D02*
G37*
G36*
X875281Y524081D02*
X869760Y518560D01*
X875281Y513039D01*
X875921Y514148D01*
X876700Y517055D01*
Y520065D01*
X875921Y522972D01*
X875281Y524081D01*
D02*
G37*
G36*
X749449Y523681D02*
X748809Y522572D01*
X748030Y519665D01*
Y516655D01*
X748809Y513748D01*
X749449Y512639D01*
X754970Y518160D01*
X749449Y523681D01*
D02*
G37*
G36*
X769471Y523681D02*
X763950Y518160D01*
X769471Y512639D01*
X770111Y513748D01*
X770890Y516655D01*
Y519665D01*
X770111Y522572D01*
X769471Y523681D01*
D02*
G37*
G36*
X865270Y514070D02*
X859749Y508549D01*
X860858Y507909D01*
X863765Y507130D01*
X866775D01*
X869682Y507909D01*
X870791Y508549D01*
X865270Y514070D01*
D02*
G37*
G36*
X759460Y513670D02*
X753939Y508149D01*
X755048Y507509D01*
X757955Y506730D01*
X760965D01*
X763872Y507509D01*
X764981Y508149D01*
X759460Y513670D01*
D02*
G37*
%LPD*%
G36*
X1470660Y622059D02*
Y584836D01*
X1452248Y566585D01*
X1323812Y565622D01*
X1247140Y488950D01*
X1078230D01*
X1068070Y499110D01*
X1062990D01*
Y579120D01*
X1212850D01*
X1285240Y651510D01*
X1441209D01*
X1470660Y622059D01*
D02*
G37*
G36*
X398780Y740410D02*
Y676910D01*
X415290Y660400D01*
X520700D01*
X525780Y655320D01*
Y558800D01*
X519430Y552450D01*
X353060D01*
X317500Y588010D01*
Y746760D01*
X337820Y767080D01*
X372110D01*
X398780Y740410D01*
D02*
G37*
G36*
X1082682Y440047D02*
Y326255D01*
X1073927Y317500D01*
X977158D01*
X976789Y318715D01*
X977226Y319007D01*
X979663Y321444D01*
X981578Y324311D01*
X982897Y327495D01*
X983570Y330876D01*
Y334324D01*
X982897Y337705D01*
X981578Y340889D01*
X979663Y343756D01*
X977226Y346193D01*
X974359Y348108D01*
X971175Y349427D01*
X967794Y350100D01*
X964346D01*
X960965Y349427D01*
X957781Y348108D01*
X954914Y346193D01*
X952477Y343756D01*
X950562Y340889D01*
X949242Y337705D01*
X948570Y334324D01*
Y330876D01*
X949242Y327495D01*
X950562Y324311D01*
X952477Y321444D01*
X954914Y319007D01*
X955351Y318715D01*
X954982Y317500D01*
X720090D01*
X715010Y322580D01*
X715010Y384810D01*
X728980Y398780D01*
X840011Y398780D01*
X852709Y411479D01*
X852829Y411429D01*
X853882Y410855D01*
X854619Y408103D01*
X855259Y406994D01*
X863025Y414760D01*
X865270Y412515D01*
X867515Y414760D01*
X875281Y406994D01*
X875921Y408103D01*
X876700Y411010D01*
Y414020D01*
X875921Y416927D01*
X874665Y419103D01*
X875249Y420373D01*
X955264Y420373D01*
X957781Y418692D01*
X960965Y417373D01*
X964346Y416700D01*
X967794D01*
X971175Y417373D01*
X974359Y418692D01*
X976876Y420373D01*
X1029973D01*
X1058844Y449244D01*
X1073486D01*
X1082682Y440047D01*
D02*
G37*
%LPC*%
G36*
X865270Y408025D02*
X859749Y402504D01*
X860858Y401864D01*
X863765Y401085D01*
X866775D01*
X869682Y401864D01*
X870791Y402504D01*
X865270Y408025D01*
D02*
G37*
G36*
X890505Y341630D02*
X887495D01*
X884588Y340851D01*
X883479Y340211D01*
X889000Y334690D01*
X894521Y340211D01*
X893412Y340851D01*
X890505Y341630D01*
D02*
G37*
G36*
X878989Y335721D02*
X878349Y334612D01*
X877570Y331705D01*
Y328695D01*
X878349Y325788D01*
X878989Y324679D01*
X884510Y330200D01*
X878989Y335721D01*
D02*
G37*
G36*
X899011D02*
X893490Y330200D01*
X899011Y324679D01*
X899651Y325788D01*
X900430Y328695D01*
Y331705D01*
X899651Y334612D01*
X899011Y335721D01*
D02*
G37*
G36*
X840332Y340320D02*
X837668D01*
X835094Y339630D01*
X832786Y338298D01*
X830902Y336414D01*
X829570Y334106D01*
X828880Y331532D01*
Y328868D01*
X829570Y326294D01*
X830902Y323986D01*
X832786Y322102D01*
X835094Y320770D01*
X837668Y320080D01*
X840332D01*
X842906Y320770D01*
X845214Y322102D01*
X847098Y323986D01*
X848430Y326294D01*
X849120Y328868D01*
Y331532D01*
X848430Y334106D01*
X847098Y336414D01*
X845214Y338298D01*
X842906Y339630D01*
X840332Y340320D01*
D02*
G37*
G36*
X889000Y325710D02*
X883479Y320189D01*
X884588Y319549D01*
X887495Y318770D01*
X890505D01*
X893412Y319549D01*
X894521Y320189D01*
X889000Y325710D01*
D02*
G37*
%LPD*%
G36*
X1158240Y1308100D02*
Y1059610D01*
X1149350Y1050720D01*
X1052538D01*
X1052051Y1051893D01*
X1052413Y1052254D01*
X1053250Y1054276D01*
Y1056464D01*
X1052413Y1058485D01*
X1050865Y1060033D01*
X1048844Y1060870D01*
X1046656D01*
X1044634Y1060033D01*
X1043087Y1058485D01*
X1042250Y1056464D01*
Y1054276D01*
X1043087Y1052254D01*
X1043448Y1051893D01*
X1042962Y1050720D01*
X1024892D01*
X957910Y983738D01*
X957404Y983400D01*
X955216D01*
X953195Y982563D01*
X951647Y981015D01*
X950810Y978994D01*
Y976806D01*
X951647Y974784D01*
X953195Y973237D01*
X955216Y972400D01*
X957404D01*
X957910Y972062D01*
Y900760D01*
X944880Y887730D01*
X916208D01*
X916090Y887906D01*
Y890094D01*
X915253Y892115D01*
X913706Y893663D01*
X911684Y894500D01*
X909496D01*
X907475Y893663D01*
X905927Y892115D01*
X905090Y890094D01*
Y887906D01*
X904972Y887730D01*
X729610D01*
X729206Y889000D01*
X729957Y890301D01*
X730400Y891954D01*
Y893666D01*
X729957Y895319D01*
X729101Y896801D01*
X727891Y898011D01*
X726409Y898867D01*
X724756Y899310D01*
X723044D01*
X721391Y898867D01*
X719909Y898011D01*
X718699Y896801D01*
X717843Y895319D01*
X717400Y893666D01*
Y891954D01*
X717843Y890301D01*
X718594Y889000D01*
X718190Y887730D01*
X707005D01*
X706255Y888707D01*
Y890419D01*
X705812Y892072D01*
X704956Y893554D01*
X703746Y894764D01*
X702264Y895620D01*
X700611Y896063D01*
X698899D01*
X697246Y895620D01*
X695764Y894764D01*
X694554Y893554D01*
X693698Y892072D01*
X693255Y890419D01*
Y888707D01*
X692505Y887730D01*
X499110D01*
X494030Y892810D01*
Y914400D01*
X497840Y918210D01*
X548640D01*
X561340Y930910D01*
X669290D01*
X692150Y953770D01*
X725170D01*
X751840Y980440D01*
Y1114032D01*
X753110Y1114284D01*
X753269Y1113900D01*
X754816Y1112353D01*
X756838Y1111515D01*
X759026D01*
X761047Y1112353D01*
X762595Y1113900D01*
X763432Y1115921D01*
Y1118109D01*
X762595Y1120131D01*
X761047Y1121678D01*
X759026Y1122515D01*
X756838D01*
X754816Y1121678D01*
X753269Y1120131D01*
X753110Y1119746D01*
X751840Y1119999D01*
Y1319530D01*
X752810Y1320500D01*
X754080Y1319974D01*
Y1308075D01*
X757705Y1304450D01*
X764955D01*
X767580Y1307075D01*
X770205Y1304450D01*
X777455D01*
X780080Y1307075D01*
X782705Y1304450D01*
X789955D01*
X790431Y1304926D01*
X791580Y1304450D01*
Y1304450D01*
X806080D01*
Y1324450D01*
X791580D01*
Y1324450D01*
X790431Y1323974D01*
X789955Y1324450D01*
X782705D01*
X780080Y1321825D01*
X777455Y1324450D01*
X770205D01*
X767580Y1321825D01*
X764955Y1324450D01*
X758556D01*
X758030Y1325720D01*
X759460Y1327150D01*
X922606D01*
X923132Y1325880D01*
X922437Y1325186D01*
X921600Y1323164D01*
Y1320976D01*
X922437Y1318954D01*
X923603Y1317789D01*
X923854Y1316990D01*
X923603Y1316191D01*
X922437Y1315025D01*
X921600Y1313004D01*
Y1310816D01*
X922437Y1308795D01*
X923985Y1307247D01*
X926006Y1306410D01*
X928194D01*
X930216Y1307247D01*
X931763Y1308795D01*
X932600Y1310816D01*
Y1313004D01*
X931763Y1315025D01*
X930597Y1316191D01*
X930347Y1316990D01*
X930597Y1317789D01*
X931763Y1318954D01*
X932600Y1320976D01*
Y1323164D01*
X931763Y1325186D01*
X931068Y1325880D01*
X931594Y1327150D01*
X1139190D01*
X1158240Y1308100D01*
D02*
G37*
G36*
X753661Y1332026D02*
X755034Y1329616D01*
X755703Y1326736D01*
X755675Y1326696D01*
X753985Y1324545D01*
X751834Y1322855D01*
X751008Y1322302D01*
X750038Y1321332D01*
X749485Y1320506D01*
X749485Y1320506D01*
X749291Y1319530D01*
Y1120201D01*
X749291Y1119999D01*
X749291Y1119999D01*
X749340Y1119753D01*
X749340Y1119529D01*
X749340Y1119502D01*
Y1117211D01*
X744370Y1117138D01*
X743927Y1118791D01*
X743071Y1120273D01*
X741861Y1121484D01*
X740379Y1122339D01*
X738726Y1122782D01*
X737014D01*
X735361Y1122339D01*
X733879Y1121484D01*
X732669Y1120273D01*
X731813Y1118791D01*
X731370Y1117138D01*
Y1115427D01*
X731813Y1113773D01*
X732669Y1112291D01*
X733879Y1111081D01*
X735361Y1110225D01*
X737014Y1109782D01*
X738726D01*
X740379Y1110225D01*
X741861Y1111081D01*
X743071Y1112291D01*
X743927Y1113773D01*
X744370Y1115427D01*
X749340Y1115354D01*
Y1114529D01*
X749291Y1114032D01*
X749291Y1113829D01*
X749291Y1113829D01*
X749291Y1109549D01*
Y981496D01*
X724114Y956319D01*
X692150D01*
X691174Y956125D01*
X690348Y955572D01*
X668234Y933459D01*
X654250D01*
X652755Y936532D01*
X652504Y938459D01*
X653312Y939268D01*
X653865Y940095D01*
X654059Y941070D01*
Y988060D01*
X653865Y989035D01*
X653312Y989862D01*
X589812Y1053362D01*
X588985Y1053915D01*
X588010Y1054109D01*
X421640D01*
X420664Y1053915D01*
X419838Y1053362D01*
X417956Y1051481D01*
X412956Y1053552D01*
Y1061544D01*
X421816Y1070404D01*
X557530D01*
X559227Y1070627D01*
X560808Y1071282D01*
X562166Y1072324D01*
X665656Y1175814D01*
X682156D01*
X682905Y1175381D01*
X684813Y1174870D01*
X686787D01*
X688695Y1175381D01*
X690405Y1176368D01*
X691802Y1177765D01*
X692669Y1179268D01*
X693867Y1179538D01*
X695931Y1179659D01*
X697887Y1179182D01*
X698655Y1177327D01*
X700258Y1175238D01*
X702347Y1173635D01*
X704780Y1172627D01*
X707390Y1172284D01*
X710001Y1172627D01*
X712433Y1173635D01*
X714522Y1175238D01*
X716125Y1177327D01*
X717133Y1179760D01*
X717476Y1182370D01*
Y1298842D01*
X750990Y1332356D01*
X753661Y1332026D01*
D02*
G37*
G36*
X651510Y988060D02*
Y941070D01*
X650240Y939800D01*
X420370D01*
X417830Y942340D01*
Y1047750D01*
X421640Y1051560D01*
X588010D01*
X651510Y988060D01*
D02*
G37*
G36*
X688340Y853440D02*
X1061720D01*
Y773430D01*
X1057910Y769620D01*
X918210D01*
X900430Y751840D01*
X743638D01*
X743016Y752550D01*
Y760170D01*
X742754Y762159D01*
X742477Y762827D01*
X733765Y754115D01*
X731520Y756360D01*
X729275Y754115D01*
X720563Y762827D01*
X720286Y762159D01*
X720024Y760170D01*
Y752550D01*
X719402Y751840D01*
X553720D01*
X542290Y763270D01*
Y821690D01*
X581660Y861060D01*
X596900Y876300D01*
X665480D01*
X688340Y853440D01*
D02*
G37*
G36*
X494030Y857250D02*
Y820420D01*
X499110Y815340D01*
X515620D01*
X518160Y812800D01*
Y717550D01*
X514350Y713740D01*
X420370D01*
X415290Y718820D01*
Y850900D01*
X425450Y861060D01*
X490220D01*
X494030Y857250D01*
D02*
G37*
%LPC*%
G36*
X888600Y1323013D02*
X886707Y1322763D01*
X884944Y1322033D01*
X883429Y1320871D01*
X882985Y1320292D01*
X881715D01*
X881271Y1320871D01*
X879756Y1322033D01*
X877993Y1322763D01*
X876100Y1323013D01*
X874207Y1322763D01*
X872444Y1322033D01*
X870929Y1320871D01*
X870485Y1320292D01*
X869215D01*
X868771Y1320871D01*
X867256Y1322033D01*
X865493Y1322763D01*
X863600Y1323013D01*
X861707Y1322763D01*
X859944Y1322033D01*
X858429Y1320871D01*
X857985Y1320292D01*
X856715D01*
X856271Y1320871D01*
X854756Y1322033D01*
X852993Y1322763D01*
X851100Y1323013D01*
X849207Y1322763D01*
X847444Y1322033D01*
X845929Y1320871D01*
X845485Y1320292D01*
X844215D01*
X843771Y1320871D01*
X842256Y1322033D01*
X840493Y1322763D01*
X838600Y1323013D01*
X836707Y1322763D01*
X834944Y1322033D01*
X833429Y1320871D01*
X832267Y1319356D01*
X831537Y1317593D01*
X831287Y1315700D01*
Y1313200D01*
X831537Y1311307D01*
X832267Y1309544D01*
X833429Y1308029D01*
X834944Y1306867D01*
X836707Y1306137D01*
X838600Y1305887D01*
X840493Y1306137D01*
X842256Y1306867D01*
X843771Y1308029D01*
X844215Y1308608D01*
X845485D01*
X845929Y1308029D01*
X847444Y1306867D01*
X849207Y1306137D01*
X851100Y1305887D01*
X852993Y1306137D01*
X854756Y1306867D01*
X856271Y1308029D01*
X856715Y1308608D01*
X857985D01*
X858429Y1308029D01*
X859944Y1306867D01*
X861707Y1306137D01*
X863600Y1305887D01*
X865493Y1306137D01*
X867256Y1306867D01*
X868771Y1308029D01*
X869215Y1308608D01*
X870485D01*
X870929Y1308029D01*
X872444Y1306867D01*
X874207Y1306137D01*
X876100Y1305887D01*
X877993Y1306137D01*
X879756Y1306867D01*
X881271Y1308029D01*
X881715Y1308608D01*
X882985D01*
X883429Y1308029D01*
X884944Y1306867D01*
X886707Y1306137D01*
X888600Y1305887D01*
X890493Y1306137D01*
X892256Y1306867D01*
X892540Y1307085D01*
X893810Y1306459D01*
Y1305910D01*
X899830D01*
Y1314450D01*
Y1322990D01*
X893810D01*
Y1322441D01*
X892540Y1321815D01*
X892256Y1322033D01*
X890493Y1322763D01*
X888600Y1323013D01*
D02*
G37*
G36*
X908390Y1322990D02*
X902370D01*
Y1315720D01*
X908390D01*
Y1322990D01*
D02*
G37*
G36*
Y1313180D02*
X902370D01*
Y1305910D01*
X908390D01*
Y1313180D01*
D02*
G37*
G36*
X968834Y1308520D02*
X966646D01*
X964624Y1307683D01*
X963077Y1306136D01*
X962240Y1304114D01*
Y1301926D01*
X963077Y1299904D01*
X964624Y1298357D01*
X966646Y1297520D01*
X967906D01*
X968432Y1296250D01*
X967522Y1295341D01*
X966685Y1293319D01*
Y1291131D01*
X967522Y1289109D01*
X969070Y1287562D01*
X971091Y1286725D01*
X973279D01*
X975301Y1287562D01*
X976848Y1289109D01*
X977685Y1291131D01*
Y1293319D01*
X976848Y1295341D01*
X975301Y1296888D01*
X973279Y1297725D01*
X972019D01*
X971493Y1298995D01*
X972403Y1299904D01*
X973240Y1301926D01*
Y1304114D01*
X972403Y1306136D01*
X970855Y1307683D01*
X968834Y1308520D01*
D02*
G37*
G36*
X1077979Y1287870D02*
X1075791D01*
X1073770Y1287033D01*
X1072222Y1285486D01*
X1071385Y1283464D01*
Y1281276D01*
X1072222Y1279255D01*
X1073770Y1277707D01*
X1075791Y1276870D01*
X1077979D01*
X1080001Y1277707D01*
X1081548Y1279255D01*
X1082385Y1281276D01*
Y1283464D01*
X1081548Y1285486D01*
X1080001Y1287033D01*
X1077979Y1287870D01*
D02*
G37*
G36*
X894077Y1285424D02*
X891889D01*
X889868Y1284587D01*
X888321Y1283040D01*
X887483Y1281018D01*
Y1278830D01*
X888321Y1276809D01*
X889868Y1275262D01*
X891889Y1274424D01*
X894077D01*
X896099Y1275262D01*
X897646Y1276809D01*
X898483Y1278830D01*
Y1281018D01*
X897646Y1283040D01*
X896099Y1284587D01*
X894077Y1285424D01*
D02*
G37*
G36*
X821514Y1278040D02*
X819326D01*
X817305Y1277203D01*
X815757Y1275656D01*
X814920Y1273634D01*
Y1271446D01*
X815757Y1269425D01*
X817305Y1267877D01*
X819326Y1267040D01*
X821514D01*
X823536Y1267877D01*
X825083Y1269425D01*
X825920Y1271446D01*
Y1273634D01*
X825083Y1275656D01*
X823536Y1277203D01*
X821514Y1278040D01*
D02*
G37*
G36*
X968834Y1283120D02*
X966646D01*
X964624Y1282283D01*
X963077Y1280735D01*
X962240Y1278714D01*
Y1276526D01*
X963077Y1274504D01*
X964624Y1272957D01*
X966646Y1272120D01*
X967167Y1270850D01*
X966806Y1269978D01*
Y1267790D01*
X967644Y1265769D01*
X969191Y1264221D01*
X971212Y1263384D01*
X973400D01*
X975422Y1264221D01*
X976969Y1265769D01*
X977806Y1267790D01*
Y1269978D01*
X976969Y1272000D01*
X975422Y1273547D01*
X973400Y1274384D01*
X972879Y1275654D01*
X973240Y1276526D01*
Y1278714D01*
X972403Y1280735D01*
X970855Y1282283D01*
X968834Y1283120D01*
D02*
G37*
G36*
X1142730Y1262339D02*
X1138000D01*
Y1253490D01*
X1146849D01*
Y1258220D01*
X1146536Y1259796D01*
X1145643Y1261133D01*
X1144306Y1262026D01*
X1142730Y1262339D01*
D02*
G37*
G36*
X1135460D02*
X1130730D01*
X1129154Y1262026D01*
X1127817Y1261133D01*
X1126924Y1259796D01*
X1126611Y1258220D01*
Y1253490D01*
X1135460D01*
Y1262339D01*
D02*
G37*
G36*
X898984Y1264070D02*
X896796D01*
X894774Y1263233D01*
X893227Y1261685D01*
X892390Y1259664D01*
Y1257476D01*
X893227Y1255454D01*
X894774Y1253907D01*
X896796Y1253070D01*
X898984D01*
X901005Y1253907D01*
X902553Y1255454D01*
X903390Y1257476D01*
Y1259664D01*
X902553Y1261685D01*
X901005Y1263233D01*
X898984Y1264070D01*
D02*
G37*
G36*
X791380Y1250790D02*
X790231Y1250314D01*
X789755Y1250790D01*
X782505D01*
X779880Y1248165D01*
X777255Y1250790D01*
X770005D01*
X767380Y1248165D01*
X764755Y1250790D01*
X757505D01*
X753880Y1247165D01*
Y1234415D01*
X757505Y1230790D01*
X764755D01*
X767380Y1233415D01*
X770005Y1230790D01*
X777255D01*
X779880Y1233415D01*
X782505Y1230790D01*
X789755D01*
X790231Y1231266D01*
X791380Y1230790D01*
Y1230790D01*
X805880D01*
Y1250790D01*
X791380D01*
Y1250790D01*
D02*
G37*
G36*
X1043764Y1260260D02*
X1041576D01*
X1039555Y1259423D01*
X1038007Y1257876D01*
X1037170Y1255854D01*
Y1253666D01*
X1038007Y1251645D01*
X1039555Y1250097D01*
X1041576Y1249260D01*
X1043764D01*
X1045786Y1250097D01*
X1047333Y1251645D01*
X1048170Y1253666D01*
Y1255854D01*
X1047333Y1257876D01*
X1045786Y1259423D01*
X1043764Y1260260D01*
D02*
G37*
G36*
X1112646Y1262220D02*
X1110014D01*
X1107470Y1261538D01*
X1105190Y1260222D01*
X1103328Y1258360D01*
X1102011Y1256080D01*
X1101330Y1253537D01*
Y1250903D01*
X1102011Y1248360D01*
X1103328Y1246080D01*
X1105190Y1244218D01*
X1107470Y1242902D01*
X1110014Y1242220D01*
X1112646D01*
X1115190Y1242902D01*
X1117470Y1244218D01*
X1119332Y1246080D01*
X1120648Y1248360D01*
X1121330Y1250903D01*
Y1253537D01*
X1120648Y1256080D01*
X1119332Y1258360D01*
X1117470Y1260222D01*
X1115190Y1261538D01*
X1112646Y1262220D01*
D02*
G37*
G36*
X1087246D02*
X1084613D01*
X1082070Y1261538D01*
X1079790Y1260222D01*
X1077928Y1258360D01*
X1076611Y1256080D01*
X1075930Y1253537D01*
Y1250903D01*
X1076611Y1248360D01*
X1077928Y1246080D01*
X1079790Y1244218D01*
X1082070Y1242902D01*
X1084613Y1242220D01*
X1087246D01*
X1089790Y1242902D01*
X1092070Y1244218D01*
X1093932Y1246080D01*
X1095248Y1248360D01*
X1095930Y1250903D01*
Y1253537D01*
X1095248Y1256080D01*
X1093932Y1258360D01*
X1092070Y1260222D01*
X1089790Y1261538D01*
X1087246Y1262220D01*
D02*
G37*
G36*
X1146849Y1250950D02*
X1138000D01*
Y1242101D01*
X1142730D01*
X1144306Y1242414D01*
X1145643Y1243307D01*
X1146536Y1244644D01*
X1146849Y1246220D01*
Y1250950D01*
D02*
G37*
G36*
X1135460D02*
X1126611D01*
Y1246220D01*
X1126924Y1244644D01*
X1127817Y1243307D01*
X1129154Y1242414D01*
X1130730Y1242101D01*
X1135460D01*
Y1250950D01*
D02*
G37*
G36*
X1046304Y1243750D02*
X1044116D01*
X1042094Y1242913D01*
X1040547Y1241366D01*
X1039710Y1239344D01*
Y1237156D01*
X1040547Y1235135D01*
X1042094Y1233587D01*
X1044116Y1232750D01*
X1046304D01*
X1048326Y1233587D01*
X1049873Y1235135D01*
X1050710Y1237156D01*
Y1239344D01*
X1049873Y1241366D01*
X1048326Y1242913D01*
X1046304Y1243750D01*
D02*
G37*
G36*
X1061846Y1262220D02*
X1059213D01*
X1056670Y1261538D01*
X1054390Y1260222D01*
X1052528Y1258360D01*
X1051211Y1256080D01*
X1050530Y1253537D01*
Y1250903D01*
X1051211Y1248360D01*
X1052528Y1246080D01*
X1054390Y1244218D01*
X1056670Y1242902D01*
X1058693Y1242359D01*
X1058526Y1241089D01*
X1058287D01*
X1056265Y1240252D01*
X1054718Y1238705D01*
X1053881Y1236683D01*
Y1234495D01*
X1054718Y1232474D01*
X1056265Y1230927D01*
X1058287Y1230089D01*
X1060475D01*
X1062496Y1230927D01*
X1064043Y1232474D01*
X1064881Y1234495D01*
Y1236683D01*
X1064043Y1238705D01*
X1062496Y1240252D01*
X1060811Y1240950D01*
X1061064Y1242220D01*
X1061846D01*
X1064390Y1242902D01*
X1066670Y1244218D01*
X1068532Y1246080D01*
X1069848Y1248360D01*
X1070530Y1250903D01*
Y1253537D01*
X1069848Y1256080D01*
X1068532Y1258360D01*
X1066670Y1260222D01*
X1064390Y1261538D01*
X1061846Y1262220D01*
D02*
G37*
G36*
X836754Y1238670D02*
X834566D01*
X832544Y1237833D01*
X830997Y1236285D01*
X830160Y1234264D01*
Y1232076D01*
X830997Y1230054D01*
X832544Y1228507D01*
X834566Y1227670D01*
X836754D01*
X838775Y1228507D01*
X840323Y1230054D01*
X841160Y1232076D01*
Y1234264D01*
X840323Y1236285D01*
X838775Y1237833D01*
X836754Y1238670D01*
D02*
G37*
G36*
X896546Y1232962D02*
X894358D01*
X892336Y1232124D01*
X890789Y1230577D01*
X889952Y1228556D01*
Y1226368D01*
X890789Y1224346D01*
X892336Y1222799D01*
X894358Y1221962D01*
X896546D01*
X898567Y1222799D01*
X900115Y1224346D01*
X900952Y1226368D01*
Y1228556D01*
X900115Y1230577D01*
X898567Y1232124D01*
X896546Y1232962D01*
D02*
G37*
G36*
X975685Y1230140D02*
X973696D01*
X971858Y1229379D01*
X970451Y1227972D01*
X969690Y1226135D01*
Y1224145D01*
X970451Y1222308D01*
X971858Y1220901D01*
X973696Y1220140D01*
X975685D01*
X977522Y1220901D01*
X978929Y1222308D01*
X979690Y1224145D01*
Y1226135D01*
X978929Y1227972D01*
X977522Y1229379D01*
X975685Y1230140D01*
D02*
G37*
G36*
X959585D02*
X957596D01*
X955758Y1229379D01*
X954351Y1227972D01*
X953590Y1226135D01*
Y1224145D01*
X954351Y1222308D01*
X955758Y1220901D01*
X957596Y1220140D01*
X959585D01*
X961422Y1220901D01*
X962829Y1222308D01*
X963590Y1224145D01*
Y1226135D01*
X962829Y1227972D01*
X961422Y1229379D01*
X959585Y1230140D01*
D02*
G37*
G36*
X1119964Y1228510D02*
X1117776D01*
X1115754Y1227673D01*
X1114207Y1226125D01*
X1113370Y1224104D01*
Y1221916D01*
X1114207Y1219894D01*
X1115754Y1218347D01*
X1117776Y1217510D01*
X1119964D01*
X1121985Y1218347D01*
X1123533Y1219894D01*
X1124370Y1221916D01*
Y1224104D01*
X1123533Y1226125D01*
X1121985Y1227673D01*
X1119964Y1228510D01*
D02*
G37*
G36*
X1057734D02*
X1055546D01*
X1053524Y1227673D01*
X1051977Y1226125D01*
X1051140Y1224104D01*
Y1221916D01*
X1051977Y1219894D01*
X1053524Y1218347D01*
X1055546Y1217510D01*
X1057734D01*
X1059755Y1218347D01*
X1061303Y1219894D01*
X1062140Y1221916D01*
Y1224104D01*
X1061303Y1226125D01*
X1059755Y1227673D01*
X1057734Y1228510D01*
D02*
G37*
G36*
X1039345Y1223228D02*
X1037157D01*
X1035135Y1222391D01*
X1033588Y1220844D01*
X1032751Y1218822D01*
Y1216813D01*
X1032230Y1216263D01*
X1031690Y1215878D01*
X1031127Y1216111D01*
X1028939D01*
X1026918Y1215274D01*
X1025370Y1213727D01*
X1024533Y1211705D01*
Y1209517D01*
X1025370Y1207496D01*
X1026918Y1205948D01*
X1028939Y1205111D01*
X1031127D01*
X1033149Y1205948D01*
X1034696Y1207496D01*
X1035533Y1209517D01*
Y1210855D01*
X1035857Y1211288D01*
X1036696Y1211785D01*
X1037365Y1211481D01*
X1037512Y1210958D01*
X1037170Y1210134D01*
Y1207946D01*
X1038007Y1205925D01*
X1039555Y1204377D01*
X1041576Y1203540D01*
X1043764D01*
X1045786Y1204377D01*
X1047333Y1205925D01*
X1048170Y1207946D01*
Y1210134D01*
X1047333Y1212156D01*
X1045786Y1213703D01*
X1044096Y1214402D01*
X1043764Y1214540D01*
X1043409Y1215810D01*
X1043751Y1216634D01*
Y1218822D01*
X1042914Y1220844D01*
X1041366Y1222391D01*
X1039345Y1223228D01*
D02*
G37*
G36*
X761824Y1225970D02*
X759636D01*
X757615Y1225133D01*
X756067Y1223586D01*
X755230Y1221564D01*
Y1219376D01*
X756067Y1217355D01*
X757615Y1215807D01*
X759636Y1214970D01*
X761824D01*
X763846Y1215807D01*
X765393Y1217355D01*
X766230Y1219376D01*
Y1221564D01*
X765393Y1223586D01*
X763846Y1225133D01*
X761824Y1225970D01*
D02*
G37*
G36*
X902140Y1217085D02*
X899952D01*
X897930Y1216247D01*
X896383Y1214700D01*
X895546Y1212679D01*
Y1210491D01*
X896383Y1208469D01*
X897930Y1206922D01*
X899952Y1206085D01*
X902140D01*
X904161Y1206922D01*
X905709Y1208469D01*
X906546Y1210491D01*
Y1212679D01*
X905709Y1214700D01*
X904161Y1216247D01*
X902140Y1217085D01*
D02*
G37*
G36*
X975685Y1214040D02*
X973696D01*
X971858Y1213279D01*
X970451Y1211872D01*
X969690Y1210035D01*
Y1208045D01*
X970451Y1206208D01*
X971858Y1204801D01*
X973696Y1204040D01*
X975685D01*
X977522Y1204801D01*
X978929Y1206208D01*
X979690Y1208045D01*
Y1210035D01*
X978929Y1211872D01*
X977522Y1213279D01*
X975685Y1214040D01*
D02*
G37*
G36*
X959585D02*
X957596D01*
X955758Y1213279D01*
X954351Y1211872D01*
X953590Y1210035D01*
Y1208045D01*
X954351Y1206208D01*
X955758Y1204801D01*
X957596Y1204040D01*
X959585D01*
X961422Y1204801D01*
X962829Y1206208D01*
X963590Y1208045D01*
Y1210035D01*
X962829Y1211872D01*
X961422Y1213279D01*
X959585Y1214040D01*
D02*
G37*
G36*
X1017514Y1212687D02*
X1015325D01*
X1013304Y1211850D01*
X1011757Y1210302D01*
X1010919Y1208281D01*
Y1206093D01*
X1011757Y1204071D01*
X1013304Y1202524D01*
X1015325Y1201687D01*
X1017514D01*
X1019535Y1202524D01*
X1021082Y1204071D01*
X1021919Y1206093D01*
Y1208281D01*
X1021082Y1210302D01*
X1019535Y1211850D01*
X1017514Y1212687D01*
D02*
G37*
G36*
X915784Y1207535D02*
X913596D01*
X911575Y1206698D01*
X910027Y1205151D01*
X909190Y1203129D01*
Y1200941D01*
X910027Y1198920D01*
X911575Y1197372D01*
X913596Y1196535D01*
X915784D01*
X917806Y1197372D01*
X919353Y1198920D01*
X920190Y1200941D01*
Y1203129D01*
X919353Y1205151D01*
X917806Y1206698D01*
X915784Y1207535D01*
D02*
G37*
G36*
X802464Y1201840D02*
X800276D01*
X798254Y1201003D01*
X796707Y1199455D01*
X795870Y1197434D01*
Y1195904D01*
X794616Y1195648D01*
X794600Y1195648D01*
X793055Y1197193D01*
X791034Y1198030D01*
X788846D01*
X786824Y1197193D01*
X785277Y1195646D01*
X784440Y1193624D01*
Y1191436D01*
X785277Y1189415D01*
X786824Y1187867D01*
X788846Y1187030D01*
X791034D01*
X793055Y1187867D01*
X794603Y1189415D01*
X795440Y1191436D01*
Y1192965D01*
X796694Y1193222D01*
X796710Y1193222D01*
X798254Y1191677D01*
X800276Y1190840D01*
X802464D01*
X804485Y1191677D01*
X806033Y1193224D01*
X806870Y1195246D01*
Y1197434D01*
X806033Y1199455D01*
X804485Y1201003D01*
X802464Y1201840D01*
D02*
G37*
G36*
X886643Y1191762D02*
X884455D01*
X882434Y1190924D01*
X880990Y1189481D01*
X880430Y1189401D01*
X879541Y1189447D01*
X878146Y1190843D01*
X876124Y1191680D01*
X873936D01*
X871915Y1190843D01*
X870367Y1189296D01*
X869530Y1187274D01*
Y1185086D01*
X870367Y1183064D01*
X871915Y1181517D01*
X873936Y1180680D01*
X876124D01*
X878146Y1181517D01*
X879589Y1182961D01*
X880149Y1183041D01*
X881038Y1182994D01*
X882434Y1181599D01*
X884455Y1180762D01*
X886643D01*
X888664Y1181599D01*
X890212Y1183146D01*
X891049Y1185168D01*
Y1187356D01*
X890212Y1189377D01*
X888664Y1190924D01*
X886643Y1191762D01*
D02*
G37*
G36*
X1050114Y1199300D02*
X1047926D01*
X1045904Y1198463D01*
X1044357Y1196916D01*
X1043520Y1194894D01*
Y1192706D01*
X1044357Y1190685D01*
X1045904Y1189137D01*
X1047926Y1188300D01*
X1050114D01*
X1052135Y1189137D01*
X1053683Y1190685D01*
X1054520Y1192706D01*
Y1194894D01*
X1053683Y1196916D01*
X1052135Y1198463D01*
X1050114Y1199300D01*
D02*
G37*
G36*
X1023444Y1192667D02*
X1021256D01*
X1019234Y1191830D01*
X1017687Y1190283D01*
X1016850Y1188261D01*
Y1187742D01*
X1015794Y1187036D01*
X1015013Y1187360D01*
X1012825D01*
X1010803Y1186522D01*
X1009256Y1184975D01*
X1008419Y1182954D01*
Y1180766D01*
X1009256Y1178744D01*
X1010803Y1177197D01*
X1012825Y1176360D01*
X1015013D01*
X1017034Y1177197D01*
X1018581Y1178744D01*
X1019419Y1180766D01*
Y1181286D01*
X1020475Y1181991D01*
X1021256Y1181667D01*
X1023444D01*
X1025465Y1182505D01*
X1027013Y1184052D01*
X1027850Y1186074D01*
Y1188261D01*
X1027013Y1190283D01*
X1025465Y1191830D01*
X1023444Y1192667D01*
D02*
G37*
G36*
X847904Y1186880D02*
X845716D01*
X843695Y1186043D01*
X842147Y1184495D01*
X841310Y1182474D01*
Y1180286D01*
X842147Y1178264D01*
X843695Y1176717D01*
X845716Y1175880D01*
X847904D01*
X849926Y1176717D01*
X851473Y1178264D01*
X852310Y1180286D01*
Y1182474D01*
X851473Y1184495D01*
X849926Y1186043D01*
X847904Y1186880D01*
D02*
G37*
G36*
X801194Y1181520D02*
X799006D01*
X796984Y1180683D01*
X795437Y1179136D01*
X794600Y1177114D01*
Y1174926D01*
X795437Y1172905D01*
X796984Y1171357D01*
X799006Y1170520D01*
X801194D01*
X803215Y1171357D01*
X804763Y1172905D01*
X805600Y1174926D01*
Y1177114D01*
X804763Y1179136D01*
X803215Y1180683D01*
X801194Y1181520D01*
D02*
G37*
G36*
X785194Y1175170D02*
X783006D01*
X780984Y1174333D01*
X779437Y1172785D01*
X778600Y1170764D01*
Y1168576D01*
X779437Y1166554D01*
X780984Y1165007D01*
X783006Y1164170D01*
X785194D01*
X787215Y1165007D01*
X788763Y1166554D01*
X789600Y1168576D01*
Y1170764D01*
X788763Y1172785D01*
X787215Y1174333D01*
X785194Y1175170D01*
D02*
G37*
G36*
X1001684Y1172117D02*
X999496D01*
X997474Y1171280D01*
X995927Y1169733D01*
X995090Y1167711D01*
Y1165523D01*
X995927Y1163502D01*
X997474Y1161955D01*
X999496Y1161117D01*
X1001684D01*
X1003705Y1161955D01*
X1005252Y1163502D01*
X1006090Y1165523D01*
Y1167711D01*
X1005252Y1169733D01*
X1003705Y1171280D01*
X1001684Y1172117D01*
D02*
G37*
G36*
X896444Y1171360D02*
X894256D01*
X892234Y1170523D01*
X890687Y1168976D01*
X889850Y1166954D01*
Y1164766D01*
X890687Y1162745D01*
X892234Y1161197D01*
X894256Y1160360D01*
X896444D01*
X898465Y1161197D01*
X900013Y1162745D01*
X900850Y1164766D01*
Y1166954D01*
X900013Y1168976D01*
X898465Y1170523D01*
X896444Y1171360D01*
D02*
G37*
G36*
X854534Y1168820D02*
X852346D01*
X850324Y1167983D01*
X848777Y1166435D01*
X847940Y1164414D01*
Y1162226D01*
X848777Y1160204D01*
X850324Y1158657D01*
X852346Y1157820D01*
X854534D01*
X856555Y1158657D01*
X858103Y1160204D01*
X858940Y1162226D01*
Y1164414D01*
X858103Y1166435D01*
X856555Y1167983D01*
X854534Y1168820D01*
D02*
G37*
G36*
X915830Y1166289D02*
X913642D01*
X911621Y1165452D01*
X910073Y1163904D01*
X909236Y1161883D01*
Y1159695D01*
X910073Y1157673D01*
X911621Y1156126D01*
X913642Y1155289D01*
X915830D01*
X917852Y1156126D01*
X919399Y1157673D01*
X920236Y1159695D01*
Y1161883D01*
X919399Y1163904D01*
X917852Y1165452D01*
X915830Y1166289D01*
D02*
G37*
G36*
X948514Y1170159D02*
X946326D01*
X944305Y1169322D01*
X942757Y1167775D01*
X941920Y1165753D01*
Y1163565D01*
X942757Y1161544D01*
X944305Y1159997D01*
X946326Y1159159D01*
X948514D01*
X948958Y1159343D01*
X949930Y1158371D01*
X949540Y1157429D01*
Y1155241D01*
X950377Y1153220D01*
X951925Y1151672D01*
X953946Y1150835D01*
X956134D01*
X958156Y1151672D01*
X959703Y1153220D01*
X960540Y1155241D01*
Y1157429D01*
X959703Y1159451D01*
X958156Y1160998D01*
X956134Y1161835D01*
X953946D01*
X953502Y1161651D01*
X952530Y1162623D01*
X952920Y1163565D01*
Y1165753D01*
X952083Y1167775D01*
X950536Y1169322D01*
X948514Y1170159D01*
D02*
G37*
G36*
X1070434Y1161200D02*
X1068246D01*
X1066225Y1160363D01*
X1064677Y1158816D01*
X1063840Y1156794D01*
Y1154606D01*
X1064677Y1152585D01*
X1066225Y1151037D01*
X1068246Y1150200D01*
X1070434D01*
X1072456Y1151037D01*
X1074003Y1152585D01*
X1074840Y1154606D01*
Y1156794D01*
X1074003Y1158816D01*
X1072456Y1160363D01*
X1070434Y1161200D01*
D02*
G37*
G36*
X798654D02*
X796466D01*
X794445Y1160363D01*
X792897Y1158816D01*
X792060Y1156794D01*
Y1154606D01*
X792897Y1152585D01*
X794445Y1151037D01*
X796466Y1150200D01*
X798654D01*
X800676Y1151037D01*
X802223Y1152585D01*
X803060Y1154606D01*
Y1156794D01*
X802223Y1158816D01*
X800676Y1160363D01*
X798654Y1161200D01*
D02*
G37*
G36*
X831674Y1156120D02*
X829486D01*
X827465Y1155283D01*
X825917Y1153736D01*
X825080Y1151714D01*
Y1149526D01*
X825917Y1147505D01*
X827465Y1145957D01*
X829486Y1145120D01*
X831674D01*
X833696Y1145957D01*
X835243Y1147505D01*
X836080Y1149526D01*
Y1151714D01*
X835243Y1153736D01*
X833696Y1155283D01*
X831674Y1156120D01*
D02*
G37*
G36*
X915830Y1152716D02*
X913642D01*
X911621Y1151878D01*
X910073Y1150331D01*
X909236Y1148310D01*
Y1146122D01*
X910073Y1144100D01*
X911621Y1142553D01*
X913642Y1141716D01*
X915830D01*
X917852Y1142553D01*
X919399Y1144100D01*
X920236Y1146122D01*
Y1148310D01*
X919399Y1150331D01*
X917852Y1151878D01*
X915830Y1152716D01*
D02*
G37*
G36*
X1046304Y1147230D02*
X1044116D01*
X1042094Y1146393D01*
X1040547Y1144846D01*
X1039710Y1142824D01*
Y1140636D01*
X1040547Y1138615D01*
X1042094Y1137067D01*
X1044116Y1136230D01*
X1046304D01*
X1048326Y1137067D01*
X1049873Y1138615D01*
X1050710Y1140636D01*
Y1142824D01*
X1049873Y1144846D01*
X1048326Y1146393D01*
X1046304Y1147230D01*
D02*
G37*
G36*
X1006934Y1144690D02*
X1004746D01*
X1002725Y1143853D01*
X1001177Y1142306D01*
X1000340Y1140284D01*
Y1138096D01*
X1001177Y1136075D01*
X1002725Y1134527D01*
X1004746Y1133690D01*
X1006934D01*
X1008956Y1134527D01*
X1010503Y1136075D01*
X1011340Y1138096D01*
Y1140284D01*
X1010503Y1142306D01*
X1008956Y1143853D01*
X1006934Y1144690D01*
D02*
G37*
G36*
X1143204Y1141770D02*
X1141016D01*
X1138995Y1140933D01*
X1137447Y1139386D01*
X1136610Y1137364D01*
Y1135176D01*
X1137447Y1133155D01*
X1138995Y1131607D01*
X1141016Y1130770D01*
X1143204D01*
X1145226Y1131607D01*
X1146773Y1133155D01*
X1147610Y1135176D01*
Y1137364D01*
X1146773Y1139386D01*
X1145226Y1140933D01*
X1143204Y1141770D01*
D02*
G37*
G36*
X1078054Y1139610D02*
X1075866D01*
X1073845Y1138773D01*
X1072297Y1137225D01*
X1071460Y1135204D01*
Y1133016D01*
X1072297Y1130994D01*
X1073845Y1129447D01*
X1075866Y1128610D01*
X1078054D01*
X1080076Y1129447D01*
X1081623Y1130994D01*
X1082460Y1133016D01*
Y1135204D01*
X1081623Y1137225D01*
X1080076Y1138773D01*
X1078054Y1139610D01*
D02*
G37*
G36*
X834214Y1133260D02*
X832026D01*
X830005Y1132423D01*
X828457Y1130875D01*
X827620Y1128854D01*
Y1126666D01*
X828457Y1124644D01*
X830005Y1123097D01*
X832026Y1122260D01*
X834214D01*
X836236Y1123097D01*
X837783Y1124644D01*
X838620Y1126666D01*
Y1128854D01*
X837783Y1130875D01*
X836236Y1132423D01*
X834214Y1133260D01*
D02*
G37*
G36*
X791236Y1120981D02*
X789047D01*
X787026Y1120144D01*
X785479Y1118597D01*
X784641Y1116575D01*
Y1114387D01*
X785479Y1112366D01*
X787026Y1110819D01*
X789047Y1109981D01*
X791236D01*
X793257Y1110819D01*
X794804Y1112366D01*
X795641Y1114387D01*
Y1116575D01*
X794804Y1118597D01*
X793257Y1120144D01*
X791236Y1120981D01*
D02*
G37*
G36*
X881204Y1111622D02*
X879016D01*
X876994Y1110785D01*
X875749Y1109540D01*
X874504Y1110785D01*
X872483Y1111622D01*
X870294D01*
X868273Y1110785D01*
X867028Y1109540D01*
X865782Y1110785D01*
X863761Y1111622D01*
X861573D01*
X859551Y1110785D01*
X858004Y1109238D01*
X857167Y1107216D01*
Y1105028D01*
X858004Y1103007D01*
X859551Y1101460D01*
X861573Y1100622D01*
X863761D01*
X865782Y1101460D01*
X867028Y1102705D01*
X868273Y1101460D01*
X870294Y1100622D01*
X872483D01*
X874504Y1101460D01*
X875749Y1102705D01*
X876994Y1101460D01*
X879016Y1100622D01*
X881204D01*
X883225Y1101460D01*
X884773Y1103007D01*
X885610Y1105028D01*
Y1107216D01*
X884773Y1109238D01*
X883225Y1110785D01*
X881204Y1111622D01*
D02*
G37*
G36*
X898984Y1115480D02*
X896796D01*
X894774Y1114643D01*
X893227Y1113095D01*
X892390Y1111074D01*
Y1108886D01*
X893227Y1106864D01*
X894774Y1105317D01*
X896796Y1104480D01*
X898984D01*
X901005Y1105317D01*
X902553Y1106864D01*
X903390Y1108886D01*
Y1111074D01*
X902553Y1113095D01*
X901005Y1114643D01*
X898984Y1115480D01*
D02*
G37*
G36*
X1113614Y1112940D02*
X1111426D01*
X1109405Y1112103D01*
X1107857Y1110555D01*
X1107020Y1108534D01*
Y1106346D01*
X1107857Y1104324D01*
X1109405Y1102777D01*
X1111426Y1101940D01*
X1113614D01*
X1115636Y1102777D01*
X1117183Y1104324D01*
X1118020Y1106346D01*
Y1108534D01*
X1117183Y1110555D01*
X1115636Y1112103D01*
X1113614Y1112940D01*
D02*
G37*
G36*
X1051384Y1110400D02*
X1049196D01*
X1047175Y1109563D01*
X1045627Y1108016D01*
X1044790Y1105994D01*
Y1103806D01*
X1045627Y1101785D01*
X1047175Y1100237D01*
X1049196Y1099400D01*
X1051384D01*
X1053406Y1100237D01*
X1054953Y1101785D01*
X1055790Y1103806D01*
Y1105994D01*
X1054953Y1108016D01*
X1053406Y1109563D01*
X1051384Y1110400D01*
D02*
G37*
G36*
X810084Y1109130D02*
X807896D01*
X805874Y1108293D01*
X804327Y1106746D01*
X803490Y1104724D01*
Y1102536D01*
X804327Y1100515D01*
X805874Y1098967D01*
X807896Y1098130D01*
X810084D01*
X812105Y1098967D01*
X813653Y1100515D01*
X814490Y1102536D01*
Y1104724D01*
X813653Y1106746D01*
X812105Y1108293D01*
X810084Y1109130D01*
D02*
G37*
G36*
X1150444Y1102350D02*
X1148256D01*
X1146235Y1101513D01*
X1144687Y1099966D01*
X1143850Y1097944D01*
Y1095756D01*
X1144687Y1093735D01*
X1146235Y1092187D01*
X1148256Y1091350D01*
X1150444D01*
X1152466Y1092187D01*
X1154013Y1093735D01*
X1154850Y1095756D01*
Y1097944D01*
X1154013Y1099966D01*
X1152466Y1101513D01*
X1150444Y1102350D01*
D02*
G37*
G36*
X1128444Y1091350D02*
X1126256D01*
X1124234Y1090513D01*
X1122687Y1088966D01*
X1121850Y1086944D01*
Y1084756D01*
X1122687Y1082735D01*
X1124234Y1081187D01*
X1126256Y1080350D01*
X1128444D01*
X1130465Y1081187D01*
X1132013Y1082735D01*
X1132850Y1084756D01*
Y1086944D01*
X1132013Y1088966D01*
X1130465Y1090513D01*
X1128444Y1091350D01*
D02*
G37*
G36*
X881036Y1078650D02*
X878848D01*
X876826Y1077813D01*
X875581Y1076567D01*
X874335Y1077813D01*
X872314Y1078650D01*
X870126D01*
X868104Y1077813D01*
X866859Y1076567D01*
X865614Y1077813D01*
X863593Y1078650D01*
X861404D01*
X859383Y1077813D01*
X857836Y1076265D01*
X856999Y1074244D01*
Y1072056D01*
X857836Y1070034D01*
X859383Y1068487D01*
X861404Y1067650D01*
X863593D01*
X865614Y1068487D01*
X866859Y1069733D01*
X868104Y1068487D01*
X870126Y1067650D01*
X872314D01*
X874335Y1068487D01*
X875581Y1069733D01*
X876826Y1068487D01*
X878848Y1067650D01*
X881036D01*
X883057Y1068487D01*
X884604Y1070034D01*
X885442Y1072056D01*
Y1074244D01*
X884604Y1076265D01*
X883057Y1077813D01*
X881036Y1078650D01*
D02*
G37*
G36*
X798654Y1085000D02*
X796466D01*
X794445Y1084163D01*
X792897Y1082616D01*
X792060Y1080594D01*
Y1078406D01*
X792897Y1076385D01*
X794445Y1074837D01*
X796466Y1074000D01*
X798654D01*
X800676Y1074837D01*
X802223Y1076385D01*
X803060Y1078406D01*
Y1080594D01*
X802223Y1082616D01*
X800676Y1084163D01*
X798654Y1085000D01*
D02*
G37*
G36*
X933274Y1073570D02*
X931086D01*
X929064Y1072733D01*
X927517Y1071186D01*
X926680Y1069164D01*
Y1066976D01*
X927517Y1064955D01*
X929064Y1063407D01*
X931086Y1062570D01*
X933274D01*
X935295Y1063407D01*
X936843Y1064955D01*
X937680Y1066976D01*
Y1069164D01*
X936843Y1071186D01*
X935295Y1072733D01*
X933274Y1073570D01*
D02*
G37*
G36*
X1118694Y1067220D02*
X1116506D01*
X1114484Y1066383D01*
X1112937Y1064836D01*
X1112100Y1062814D01*
Y1060626D01*
X1112937Y1058605D01*
X1114484Y1057057D01*
X1116506Y1056220D01*
X1118694D01*
X1120715Y1057057D01*
X1122263Y1058605D01*
X1123100Y1060626D01*
Y1062814D01*
X1122263Y1064836D01*
X1120715Y1066383D01*
X1118694Y1067220D01*
D02*
G37*
G36*
X1004394Y1059600D02*
X1002206D01*
X1000184Y1058763D01*
X998637Y1057215D01*
X997800Y1055194D01*
Y1053006D01*
X998637Y1050984D01*
X1000184Y1049437D01*
X1002206Y1048600D01*
X1004394D01*
X1006415Y1049437D01*
X1007963Y1050984D01*
X1008800Y1053006D01*
Y1055194D01*
X1007963Y1057215D01*
X1006415Y1058763D01*
X1004394Y1059600D01*
D02*
G37*
G36*
X839056Y1059965D02*
X837344D01*
X835691Y1059522D01*
X834209Y1058666D01*
X832999Y1057456D01*
X832143Y1055974D01*
X831700Y1054321D01*
Y1052609D01*
X832143Y1050956D01*
X832999Y1049474D01*
X834209Y1048264D01*
X835691Y1047408D01*
X837344Y1046965D01*
X839056D01*
X840709Y1047408D01*
X842191Y1048264D01*
X843401Y1049474D01*
X844257Y1050956D01*
X844700Y1052609D01*
Y1054321D01*
X844257Y1055974D01*
X843401Y1057456D01*
X842191Y1058666D01*
X840709Y1059522D01*
X839056Y1059965D01*
D02*
G37*
G36*
X792482Y1057801D02*
X790294D01*
X788273Y1056964D01*
X786725Y1055416D01*
X785888Y1053395D01*
Y1051207D01*
X786725Y1049185D01*
X788273Y1047638D01*
X790294Y1046801D01*
X792482D01*
X794503Y1047638D01*
X796051Y1049185D01*
X796888Y1051207D01*
Y1053395D01*
X796051Y1055416D01*
X794503Y1056964D01*
X792482Y1057801D01*
D02*
G37*
G36*
X852958Y1055071D02*
X850770D01*
X848748Y1054233D01*
X847201Y1052686D01*
X846364Y1050665D01*
Y1048477D01*
X847201Y1046455D01*
X848748Y1044908D01*
X850770Y1044071D01*
X852958D01*
X854979Y1044908D01*
X856526Y1046455D01*
X857364Y1048477D01*
Y1050665D01*
X856526Y1052686D01*
X854979Y1054233D01*
X852958Y1055071D01*
D02*
G37*
G36*
X989227Y1043370D02*
X987039D01*
X985017Y1042532D01*
X983470Y1040985D01*
X982633Y1038963D01*
Y1036776D01*
X983470Y1034754D01*
X985017Y1033207D01*
X987039Y1032370D01*
X989227D01*
X991248Y1033207D01*
X992795Y1034754D01*
X993633Y1036776D01*
Y1038963D01*
X992795Y1040985D01*
X991248Y1042532D01*
X989227Y1043370D01*
D02*
G37*
G36*
X912954Y1040550D02*
X910766D01*
X908745Y1039713D01*
X907197Y1038166D01*
X906360Y1036144D01*
Y1033956D01*
X907197Y1031935D01*
X908745Y1030387D01*
X910766Y1029550D01*
X912954D01*
X914976Y1030387D01*
X916523Y1031935D01*
X917360Y1033956D01*
Y1036144D01*
X916523Y1038166D01*
X914976Y1039713D01*
X912954Y1040550D01*
D02*
G37*
G36*
X970104Y1010070D02*
X967916D01*
X965894Y1009233D01*
X964347Y1007685D01*
X963510Y1005664D01*
Y1003476D01*
X964347Y1001454D01*
X965894Y999907D01*
X967916Y999070D01*
X970104D01*
X972125Y999907D01*
X973673Y1001454D01*
X974510Y1003476D01*
Y1005664D01*
X973673Y1007685D01*
X972125Y1009233D01*
X970104Y1010070D01*
D02*
G37*
G36*
X765188Y1008932D02*
X763000D01*
X760979Y1008095D01*
X759432Y1006548D01*
X758594Y1004526D01*
Y1002338D01*
X759432Y1000317D01*
X760979Y998769D01*
X763000Y997932D01*
X765188D01*
X767210Y998769D01*
X768757Y1000317D01*
X769594Y1002338D01*
Y1004526D01*
X768757Y1006548D01*
X767210Y1008095D01*
X765188Y1008932D01*
D02*
G37*
G36*
X818974Y1008800D02*
X816786D01*
X814764Y1007963D01*
X813217Y1006415D01*
X812380Y1004394D01*
Y1002206D01*
X813217Y1000184D01*
X814764Y998637D01*
X816786Y997800D01*
X818974D01*
X820995Y998637D01*
X822543Y1000184D01*
X823380Y1002206D01*
Y1004394D01*
X822543Y1006415D01*
X820995Y1007963D01*
X818974Y1008800D01*
D02*
G37*
G36*
X833976Y967890D02*
X832264D01*
X830611Y967447D01*
X829129Y966591D01*
X827919Y965381D01*
X827063Y963899D01*
X826620Y962246D01*
Y960534D01*
X827063Y958881D01*
X827919Y957399D01*
X829129Y956189D01*
X830611Y955333D01*
X832264Y954890D01*
X833976D01*
X835629Y955333D01*
X837111Y956189D01*
X838321Y957399D01*
X839177Y958881D01*
X839620Y960534D01*
Y962246D01*
X839177Y963899D01*
X838321Y965381D01*
X837111Y966591D01*
X835629Y967447D01*
X833976Y967890D01*
D02*
G37*
G36*
X892234Y938550D02*
X890046D01*
X888025Y937713D01*
X886477Y936165D01*
X885640Y934144D01*
Y931956D01*
X886477Y929934D01*
X888025Y928387D01*
X890046Y927550D01*
X892234D01*
X894256Y928387D01*
X895803Y929934D01*
X896640Y931956D01*
Y934144D01*
X895803Y936165D01*
X894256Y937713D01*
X892234Y938550D01*
D02*
G37*
G36*
X830166Y932330D02*
X828454D01*
X826801Y931887D01*
X825319Y931031D01*
X824109Y929821D01*
X823253Y928339D01*
X822810Y926686D01*
Y924974D01*
X823253Y923321D01*
X824109Y921839D01*
X825319Y920629D01*
X826801Y919773D01*
X828454Y919330D01*
X830166D01*
X831819Y919773D01*
X833301Y920629D01*
X834511Y921839D01*
X835367Y923321D01*
X835810Y924974D01*
Y926686D01*
X835367Y928339D01*
X834511Y929821D01*
X833301Y931031D01*
X831819Y931887D01*
X830166Y932330D01*
D02*
G37*
G36*
X748001Y930675D02*
X746289D01*
X744636Y930232D01*
X743154Y929376D01*
X741944Y928166D01*
X741088Y926684D01*
X740645Y925031D01*
Y923319D01*
X741088Y921666D01*
X741944Y920184D01*
X743154Y918974D01*
X744636Y918118D01*
X746289Y917675D01*
X748001D01*
X749654Y918118D01*
X751136Y918974D01*
X752346Y920184D01*
X753202Y921666D01*
X753645Y923319D01*
Y925031D01*
X753202Y926684D01*
X752346Y928166D01*
X751136Y929376D01*
X749654Y930232D01*
X748001Y930675D01*
D02*
G37*
G36*
X934544Y927520D02*
X932356D01*
X930334Y926683D01*
X928787Y925135D01*
X927950Y923114D01*
Y920926D01*
X928787Y918904D01*
X930334Y917357D01*
X932356Y916520D01*
X934544D01*
X936565Y917357D01*
X938113Y918904D01*
X938950Y920926D01*
Y923114D01*
X938113Y925135D01*
X936565Y926683D01*
X934544Y927520D01*
D02*
G37*
G36*
X728804Y921170D02*
X726616D01*
X724594Y920333D01*
X723047Y918785D01*
X722210Y916764D01*
Y914576D01*
X723047Y912554D01*
X724594Y911007D01*
X726616Y910170D01*
X728804D01*
X730826Y911007D01*
X732373Y912554D01*
X733210Y914576D01*
Y916764D01*
X732373Y918785D01*
X730826Y920333D01*
X728804Y921170D01*
D02*
G37*
G36*
X803334Y911410D02*
X801146D01*
X799125Y910573D01*
X797577Y909025D01*
X796740Y907004D01*
Y904816D01*
X797577Y902794D01*
X799125Y901247D01*
X801146Y900410D01*
X803334D01*
X805356Y901247D01*
X806903Y902794D01*
X807740Y904816D01*
Y907004D01*
X806903Y909025D01*
X805356Y910573D01*
X803334Y911410D01*
D02*
G37*
G36*
X579856Y907050D02*
X578144D01*
X576491Y906607D01*
X575009Y905751D01*
X573799Y904541D01*
X572943Y903059D01*
X572500Y901406D01*
Y899694D01*
X572943Y898041D01*
X573799Y896559D01*
X575009Y895349D01*
X576491Y894493D01*
X578144Y894050D01*
X579856D01*
X581509Y894493D01*
X582991Y895349D01*
X584201Y896559D01*
X585057Y898041D01*
X585500Y899694D01*
Y901406D01*
X585057Y903059D01*
X584201Y904541D01*
X582991Y905751D01*
X581509Y906607D01*
X579856Y907050D01*
D02*
G37*
G36*
X669007Y1081920D02*
X667033D01*
X665125Y1081409D01*
X663415Y1080422D01*
X662019Y1079025D01*
X661031Y1077315D01*
X660520Y1075407D01*
Y1073433D01*
X661031Y1071525D01*
X662019Y1069815D01*
X663415Y1068419D01*
X665125Y1067431D01*
X667033Y1066920D01*
X669007D01*
X670915Y1067431D01*
X672625Y1068419D01*
X674022Y1069815D01*
X675009Y1071525D01*
X675520Y1073433D01*
Y1075407D01*
X675009Y1077315D01*
X674022Y1079025D01*
X672625Y1080422D01*
X670915Y1081409D01*
X669007Y1081920D01*
D02*
G37*
G36*
X719914Y1072300D02*
X717726D01*
X715704Y1071463D01*
X714157Y1069915D01*
X713320Y1067894D01*
Y1065706D01*
X714157Y1063684D01*
X715704Y1062137D01*
X717726Y1061300D01*
X719914D01*
X721936Y1062137D01*
X723483Y1063684D01*
X724320Y1065706D01*
Y1067894D01*
X723483Y1069915D01*
X721936Y1071463D01*
X719914Y1072300D01*
D02*
G37*
G36*
X670699Y960986D02*
X668988D01*
X667335Y960543D01*
X665853Y959688D01*
X664642Y958477D01*
X663787Y956995D01*
X663344Y955342D01*
Y953631D01*
X663787Y951977D01*
X664642Y950495D01*
X665853Y949285D01*
X667335Y948429D01*
X668988Y947986D01*
X670699D01*
X672353Y948429D01*
X673835Y949285D01*
X675045Y950495D01*
X675901Y951977D01*
X676344Y953631D01*
Y955342D01*
X675901Y956995D01*
X675045Y958477D01*
X673835Y959688D01*
X672353Y960543D01*
X670699Y960986D01*
D02*
G37*
G36*
X900150Y844616D02*
X892530D01*
X890541Y844354D01*
X889873Y844077D01*
X896340Y837610D01*
X902807Y844077D01*
X902139Y844354D01*
X900150Y844616D01*
D02*
G37*
G36*
X986230D02*
X978610D01*
X976621Y844354D01*
X975953Y844077D01*
X982420Y837610D01*
X988887Y844077D01*
X988219Y844354D01*
X986230Y844616D01*
D02*
G37*
G36*
X971463Y839587D02*
X971186Y838919D01*
X970924Y836930D01*
Y829310D01*
X971186Y827321D01*
X971463Y826653D01*
X977930Y833120D01*
X971463Y839587D01*
D02*
G37*
G36*
X885383Y839587D02*
X885106Y838919D01*
X884844Y836930D01*
Y829310D01*
X885106Y827321D01*
X885383Y826653D01*
X891850Y833120D01*
X885383Y839587D01*
D02*
G37*
G36*
X907297D02*
X900830Y833120D01*
X907297Y826653D01*
X907574Y827321D01*
X907836Y829310D01*
Y836930D01*
X907574Y838919D01*
X907297Y839587D01*
D02*
G37*
G36*
X993377Y839587D02*
X986910Y833120D01*
X993377Y826653D01*
X993654Y827321D01*
X993916Y829310D01*
Y836930D01*
X993654Y838919D01*
X993377Y839587D01*
D02*
G37*
G36*
X699060Y833186D02*
X691440D01*
X689451Y832924D01*
X688783Y832647D01*
X695250Y826180D01*
X701717Y832647D01*
X701049Y832924D01*
X699060Y833186D01*
D02*
G37*
G36*
X613970D02*
X606350D01*
X604361Y832924D01*
X603693Y832647D01*
X610160Y826180D01*
X616627Y832647D01*
X615959Y832924D01*
X613970Y833186D01*
D02*
G37*
G36*
X948752Y843240D02*
X946088D01*
X943514Y842550D01*
X941206Y841218D01*
X939322Y839334D01*
X937990Y837026D01*
X937300Y834452D01*
Y831788D01*
X937990Y829214D01*
X939322Y826906D01*
X941206Y825022D01*
X943514Y823690D01*
X946088Y823000D01*
X948752D01*
X951326Y823690D01*
X953634Y825022D01*
X955518Y826906D01*
X956850Y829214D01*
X957540Y831788D01*
Y834452D01*
X956850Y837026D01*
X955518Y839334D01*
X953634Y841218D01*
X951326Y842550D01*
X948752Y843240D01*
D02*
G37*
G36*
X862672D02*
X860008D01*
X857434Y842550D01*
X855126Y841218D01*
X853242Y839334D01*
X851910Y837026D01*
X851220Y834452D01*
Y831788D01*
X851910Y829214D01*
X853242Y826906D01*
X855126Y825022D01*
X857434Y823690D01*
X860008Y823000D01*
X862672D01*
X865246Y823690D01*
X867554Y825022D01*
X869438Y826906D01*
X870770Y829214D01*
X871460Y831788D01*
Y834452D01*
X870770Y837026D01*
X869438Y839334D01*
X867554Y841218D01*
X865246Y842550D01*
X862672Y843240D01*
D02*
G37*
G36*
X982420Y828630D02*
X975953Y822163D01*
X976621Y821886D01*
X978610Y821624D01*
X986230D01*
X988219Y821886D01*
X988887Y822163D01*
X982420Y828630D01*
D02*
G37*
G36*
X896340D02*
X889873Y822163D01*
X890541Y821886D01*
X892530Y821624D01*
X900150D01*
X902139Y821886D01*
X902807Y822163D01*
X896340Y828630D01*
D02*
G37*
G36*
X706207Y828157D02*
X699740Y821690D01*
X706207Y815223D01*
X706484Y815891D01*
X706746Y817880D01*
Y825500D01*
X706484Y827489D01*
X706207Y828157D01*
D02*
G37*
G36*
X621117D02*
X614650Y821690D01*
X621117Y815223D01*
X621394Y815891D01*
X621656Y817880D01*
Y825500D01*
X621394Y827489D01*
X621117Y828157D01*
D02*
G37*
G36*
X684293Y828157D02*
X684016Y827489D01*
X683754Y825500D01*
Y817880D01*
X684016Y815891D01*
X684293Y815223D01*
X690760Y821690D01*
X684293Y828157D01*
D02*
G37*
G36*
X599203D02*
X598926Y827489D01*
X598664Y825500D01*
Y817880D01*
X598926Y815891D01*
X599203Y815223D01*
X605670Y821690D01*
X599203Y828157D01*
D02*
G37*
G36*
X731582Y831810D02*
X728918D01*
X726344Y831120D01*
X724036Y829788D01*
X722152Y827904D01*
X720820Y825596D01*
X720130Y823022D01*
Y820358D01*
X720820Y817784D01*
X722152Y815476D01*
X724036Y813592D01*
X726344Y812260D01*
X728918Y811570D01*
X731582D01*
X734156Y812260D01*
X736464Y813592D01*
X738348Y815476D01*
X739680Y817784D01*
X740370Y820358D01*
Y823022D01*
X739680Y825596D01*
X738348Y827904D01*
X736464Y829788D01*
X734156Y831120D01*
X731582Y831810D01*
D02*
G37*
G36*
X646492D02*
X643828D01*
X641254Y831120D01*
X638946Y829788D01*
X637062Y827904D01*
X635730Y825596D01*
X635040Y823022D01*
Y820358D01*
X635730Y817784D01*
X637062Y815476D01*
X638946Y813592D01*
X641254Y812260D01*
X643828Y811570D01*
X646492D01*
X649066Y812260D01*
X651374Y813592D01*
X653258Y815476D01*
X654590Y817784D01*
X655280Y820358D01*
Y823022D01*
X654590Y825596D01*
X653258Y827904D01*
X651374Y829788D01*
X649066Y831120D01*
X646492Y831810D01*
D02*
G37*
G36*
X695250Y817200D02*
X688783Y810733D01*
X689451Y810456D01*
X691440Y810194D01*
X699060D01*
X701049Y810456D01*
X701717Y810733D01*
X695250Y817200D01*
D02*
G37*
G36*
X610160D02*
X603693Y810733D01*
X604361Y810456D01*
X606350Y810194D01*
X613970D01*
X615959Y810456D01*
X616627Y810733D01*
X610160Y817200D01*
D02*
G37*
G36*
X882650Y778576D02*
X875030D01*
X873041Y778314D01*
X872373Y778037D01*
X878840Y771570D01*
X885307Y778037D01*
X884639Y778314D01*
X882650Y778576D01*
D02*
G37*
G36*
X735330Y767856D02*
X727710D01*
X725721Y767594D01*
X725053Y767317D01*
X731520Y760850D01*
X737987Y767317D01*
X737319Y767594D01*
X735330Y767856D01*
D02*
G37*
G36*
X889797Y773547D02*
X883330Y767080D01*
X889797Y760613D01*
X890074Y761281D01*
X890336Y763270D01*
Y770890D01*
X890074Y772879D01*
X889797Y773547D01*
D02*
G37*
G36*
X867883Y773547D02*
X867606Y772879D01*
X867344Y770890D01*
Y763270D01*
X867606Y761281D01*
X867883Y760613D01*
X874350Y767080D01*
X867883Y773547D01*
D02*
G37*
G36*
X878840Y762590D02*
X872373Y756123D01*
X873041Y755846D01*
X875030Y755584D01*
X882650D01*
X884639Y755846D01*
X885307Y756123D01*
X878840Y762590D01*
D02*
G37*
%LPD*%
G36*
X222250Y570230D02*
Y463550D01*
X237490Y448310D01*
X299720D01*
X320040Y427990D01*
Y368300D01*
X299720Y347980D01*
X299720Y304800D01*
X284480Y289560D01*
X271882D01*
X271542Y290830D01*
X272914Y291622D01*
X274798Y293506D01*
X276130Y295814D01*
X276820Y298388D01*
Y301052D01*
X276130Y303626D01*
X274798Y305934D01*
X272914Y307818D01*
X270606Y309150D01*
X268032Y309840D01*
X265368D01*
X262794Y309150D01*
X260486Y307818D01*
X258602Y305934D01*
X257270Y303626D01*
X256580Y301052D01*
Y298388D01*
X257270Y295814D01*
X258602Y293506D01*
X260486Y291622D01*
X261858Y290830D01*
X261518Y289560D01*
X224337D01*
X223974Y290830D01*
X225846Y292702D01*
X227351Y295308D01*
X228130Y298215D01*
Y301225D01*
X227351Y304132D01*
X226711Y305241D01*
X218945Y297475D01*
X216700Y299720D01*
X214455Y297475D01*
X206689Y305241D01*
X206049Y304132D01*
X205270Y301225D01*
Y298215D01*
X206049Y295308D01*
X207554Y292702D01*
X209426Y290830D01*
X209063Y289560D01*
X168910D01*
X97790Y360680D01*
X97790Y614680D01*
X153670Y638810D01*
X222250Y570230D01*
D02*
G37*
%LPC*%
G36*
X135552Y477760D02*
X132888D01*
X130314Y477070D01*
X128006Y475738D01*
X126122Y473854D01*
X124790Y471546D01*
X124100Y468972D01*
Y466308D01*
X124790Y463734D01*
X126122Y461426D01*
X128006Y459542D01*
X130314Y458210D01*
X132888Y457520D01*
X135552D01*
X138126Y458210D01*
X140434Y459542D01*
X142318Y461426D01*
X143650Y463734D01*
X144340Y466308D01*
Y468972D01*
X143650Y471546D01*
X142318Y473854D01*
X140434Y475738D01*
X138126Y477070D01*
X135552Y477760D01*
D02*
G37*
G36*
X229705Y437750D02*
X226695D01*
X223788Y436971D01*
X222679Y436331D01*
X228200Y430810D01*
X233721Y436331D01*
X232612Y436971D01*
X229705Y437750D01*
D02*
G37*
G36*
X135725Y429070D02*
X132715D01*
X129808Y428291D01*
X128699Y427651D01*
X134220Y422130D01*
X139741Y427651D01*
X138632Y428291D01*
X135725Y429070D01*
D02*
G37*
G36*
X238211Y431841D02*
X232690Y426320D01*
X238211Y420799D01*
X238851Y421908D01*
X239630Y424815D01*
Y427825D01*
X238851Y430732D01*
X238211Y431841D01*
D02*
G37*
G36*
X218189D02*
X217549Y430732D01*
X216770Y427825D01*
Y424815D01*
X217549Y421908D01*
X218189Y420799D01*
X223710Y426320D01*
X218189Y431841D01*
D02*
G37*
G36*
X228200Y421830D02*
X222679Y416309D01*
X223788Y415669D01*
X226695Y414890D01*
X229705D01*
X232612Y415669D01*
X233721Y416309D01*
X228200Y421830D01*
D02*
G37*
G36*
X124209Y423161D02*
X123569Y422052D01*
X122790Y419145D01*
Y416135D01*
X123569Y413228D01*
X124209Y412119D01*
X129730Y417640D01*
X124209Y423161D01*
D02*
G37*
G36*
X144231Y423161D02*
X138710Y417640D01*
X144231Y412119D01*
X144871Y413228D01*
X145650Y416135D01*
Y419145D01*
X144871Y422052D01*
X144231Y423161D01*
D02*
G37*
G36*
X134220Y413150D02*
X128699Y407629D01*
X129808Y406989D01*
X132715Y406210D01*
X135725D01*
X138632Y406989D01*
X139741Y407629D01*
X134220Y413150D01*
D02*
G37*
G36*
X229532Y386440D02*
X226868D01*
X224294Y385750D01*
X221986Y384418D01*
X220102Y382534D01*
X218770Y380226D01*
X218080Y377652D01*
Y374988D01*
X218770Y372414D01*
X220102Y370106D01*
X221986Y368222D01*
X224294Y366890D01*
X226868Y366200D01*
X229532D01*
X232106Y366890D01*
X234414Y368222D01*
X236298Y370106D01*
X237630Y372414D01*
X238320Y374988D01*
Y377652D01*
X237630Y380226D01*
X236298Y382534D01*
X234414Y384418D01*
X232106Y385750D01*
X229532Y386440D01*
D02*
G37*
G36*
X218205Y311150D02*
X215195D01*
X212288Y310371D01*
X211179Y309731D01*
X216700Y304210D01*
X222221Y309731D01*
X221112Y310371D01*
X218205Y311150D01*
D02*
G37*
%LPD*%
G36*
X509270Y441960D02*
Y298450D01*
X497840Y287020D01*
X407670Y287020D01*
X398780Y295910D01*
Y349250D01*
X420370Y370840D01*
X420370Y425450D01*
X444500Y449580D01*
X501650D01*
X509270Y441960D01*
D02*
G37*
D107*
X276860Y379730D02*
D03*
X648970Y339090D02*
D03*
Y353060D02*
D03*
Y381000D02*
D03*
Y394970D02*
D03*
Y325120D02*
D03*
Y367030D02*
D03*
X659218Y360081D02*
D03*
Y318171D02*
D03*
Y388021D02*
D03*
Y374051D02*
D03*
Y346111D02*
D03*
Y332141D02*
D03*
X638810Y359410D02*
D03*
Y317500D02*
D03*
Y387350D02*
D03*
Y373380D02*
D03*
Y345440D02*
D03*
Y331470D02*
D03*
X745490Y662940D02*
D03*
X759460D02*
D03*
X787400D02*
D03*
X801370D02*
D03*
X731520D02*
D03*
X773430D02*
D03*
X766481Y652692D02*
D03*
X724571D02*
D03*
X794421D02*
D03*
X780451D02*
D03*
X752511D02*
D03*
X738541D02*
D03*
X765810Y673100D02*
D03*
X723900D02*
D03*
X793750D02*
D03*
X779780D02*
D03*
X751840D02*
D03*
X737870D02*
D03*
X965200Y692150D02*
D03*
X979170D02*
D03*
X1007110D02*
D03*
X1021080D02*
D03*
X951230D02*
D03*
X993140D02*
D03*
X986191Y681902D02*
D03*
X944281D02*
D03*
X1014131D02*
D03*
X1000161D02*
D03*
X972221D02*
D03*
X958251D02*
D03*
X985520Y702310D02*
D03*
X943610D02*
D03*
X1013460D02*
D03*
X999490D02*
D03*
X971550D02*
D03*
X957580D02*
D03*
X1125878Y670106D02*
D03*
X1153818D02*
D03*
X1167788D02*
D03*
X1097938D02*
D03*
X1139848D02*
D03*
X1126549Y649698D02*
D03*
X1154489D02*
D03*
X1168459D02*
D03*
X1098609D02*
D03*
X1140519D02*
D03*
X595300Y976720D02*
D03*
Y962750D02*
D03*
X609270Y976720D02*
D03*
X595300Y990690D02*
D03*
X609270D02*
D03*
X595300Y1004660D02*
D03*
X609270D02*
D03*
X595300Y1018630D02*
D03*
X609270D02*
D03*
X1280450Y420080D02*
D03*
X707390Y1182370D02*
D03*
X685800D02*
D03*
X1147468Y659946D02*
D03*
X1105558D02*
D03*
X1175408D02*
D03*
X1161438D02*
D03*
X1133498D02*
D03*
X1119528D02*
D03*
X516890Y483870D02*
D03*
X502920D02*
D03*
X474980D02*
D03*
X461010D02*
D03*
X530860D02*
D03*
X488950D02*
D03*
X447040D02*
D03*
X516890Y469900D02*
D03*
X502920D02*
D03*
X474980D02*
D03*
X530860D02*
D03*
X488950D02*
D03*
X447040D02*
D03*
X461010D02*
D03*
X590550Y708660D02*
D03*
Y697230D02*
D03*
X579120D02*
D03*
X567690D02*
D03*
Y708660D02*
D03*
X511810Y616280D02*
D03*
Y630250D02*
D03*
X497840Y616280D02*
D03*
X483870D02*
D03*
Y630250D02*
D03*
X513300Y652280D02*
D03*
X499330D02*
D03*
X579120Y708660D02*
D03*
X601980D02*
D03*
X613410D02*
D03*
X601980Y697230D02*
D03*
X613410D02*
D03*
X407670Y326390D02*
D03*
Y340360D02*
D03*
Y298450D02*
D03*
Y312420D02*
D03*
X421640Y340360D02*
D03*
X435610D02*
D03*
Y298450D02*
D03*
X421640D02*
D03*
X435610Y326390D02*
D03*
X421640D02*
D03*
Y312420D02*
D03*
X435610D02*
D03*
X745490Y388620D02*
D03*
X756920D02*
D03*
X768350D02*
D03*
X791210D02*
D03*
X779780D02*
D03*
X791210Y377190D02*
D03*
X779780D02*
D03*
X768350D02*
D03*
X756920D02*
D03*
X745490D02*
D03*
X734060Y388620D02*
D03*
Y377190D02*
D03*
X722630D02*
D03*
X1026160Y838200D02*
D03*
X1054100D02*
D03*
X1040130D02*
D03*
X971550Y802640D02*
D03*
X999490D02*
D03*
X985520D02*
D03*
X793750Y769620D02*
D03*
X821690D02*
D03*
X807720D02*
D03*
X605790Y783590D02*
D03*
X633730D02*
D03*
X619760D02*
D03*
X618490Y869950D02*
D03*
X646430D02*
D03*
X632460D02*
D03*
X563880Y808990D02*
D03*
Y781050D02*
D03*
Y795020D02*
D03*
X276860Y393700D02*
D03*
X290830D02*
D03*
Y379730D02*
D03*
X262890Y393700D02*
D03*
Y379730D02*
D03*
X304800D02*
D03*
Y393700D02*
D03*
X276860Y407670D02*
D03*
X262890D02*
D03*
X304800D02*
D03*
X290830D02*
D03*
X431800Y835660D02*
D03*
Y821690D02*
D03*
X445770Y835660D02*
D03*
Y821690D02*
D03*
X459740Y835660D02*
D03*
Y821690D02*
D03*
Y849630D02*
D03*
X431800D02*
D03*
X445770D02*
D03*
X471390Y652280D02*
D03*
X443450D02*
D03*
X457420D02*
D03*
X485360D02*
D03*
X842010Y500380D02*
D03*
X830580D02*
D03*
Y488950D02*
D03*
X819150Y500380D02*
D03*
X807720D02*
D03*
X796290D02*
D03*
X784860D02*
D03*
X773430D02*
D03*
X784860Y488950D02*
D03*
X773430D02*
D03*
X796290D02*
D03*
X807720D02*
D03*
X819150D02*
D03*
X1021630Y603250D02*
D03*
X985463D02*
D03*
X1002223D02*
D03*
X949297D02*
D03*
X966057D02*
D03*
X929890D02*
D03*
X913130D02*
D03*
X1180050Y853440D02*
D03*
X1138140D02*
D03*
X1110200D02*
D03*
X1124170D02*
D03*
X1152110D02*
D03*
X1166080D02*
D03*
X266700Y502920D02*
D03*
X252730D02*
D03*
X294640D02*
D03*
X336550D02*
D03*
X280670D02*
D03*
X308610D02*
D03*
X322580D02*
D03*
X252730Y516890D02*
D03*
Y530860D02*
D03*
X294640D02*
D03*
Y516890D02*
D03*
X336550D02*
D03*
Y530860D02*
D03*
X266700D02*
D03*
Y516890D02*
D03*
X280670D02*
D03*
Y530860D02*
D03*
X322580D02*
D03*
X308610Y516890D02*
D03*
Y530860D02*
D03*
X322580Y516890D02*
D03*
X316230Y952500D02*
D03*
X330200Y966470D02*
D03*
X316230D02*
D03*
X330200Y952500D02*
D03*
Y994410D02*
D03*
X316230D02*
D03*
Y1008380D02*
D03*
X330200D02*
D03*
Y938530D02*
D03*
X316230D02*
D03*
Y980440D02*
D03*
X330200D02*
D03*
Y1022350D02*
D03*
X316230D02*
D03*
X302260Y952500D02*
D03*
Y966470D02*
D03*
Y994410D02*
D03*
Y938530D02*
D03*
Y980440D02*
D03*
Y1022350D02*
D03*
Y1008380D02*
D03*
X595300Y948780D02*
D03*
Y1032600D02*
D03*
X637210Y990690D02*
D03*
Y976720D02*
D03*
X567360Y948780D02*
D03*
X581330D02*
D03*
Y990690D02*
D03*
X567360D02*
D03*
Y1032600D02*
D03*
X581330D02*
D03*
X623240Y990690D02*
D03*
X581330Y962750D02*
D03*
X567360D02*
D03*
Y976720D02*
D03*
X581330D02*
D03*
Y1018630D02*
D03*
X567360D02*
D03*
Y1004660D02*
D03*
X581330D02*
D03*
X623240Y976720D02*
D03*
Y1004660D02*
D03*
X425780Y1024410D02*
D03*
X467690Y1038380D02*
D03*
Y996470D02*
D03*
Y954560D02*
D03*
X425780Y1038380D02*
D03*
Y996470D02*
D03*
Y954560D02*
D03*
X467690Y1024410D02*
D03*
Y1010440D02*
D03*
Y982500D02*
D03*
Y968530D02*
D03*
X425780Y1010440D02*
D03*
Y982500D02*
D03*
Y968530D02*
D03*
X495630Y1038380D02*
D03*
X481660D02*
D03*
Y996470D02*
D03*
X495630D02*
D03*
Y954560D02*
D03*
X481660D02*
D03*
X439750Y1038380D02*
D03*
X453720D02*
D03*
Y996470D02*
D03*
X439750D02*
D03*
Y954560D02*
D03*
X453720D02*
D03*
X481660Y1024410D02*
D03*
X495630D02*
D03*
Y1010440D02*
D03*
X481660D02*
D03*
Y968530D02*
D03*
X495630D02*
D03*
Y982500D02*
D03*
X481660D02*
D03*
X453720Y1024410D02*
D03*
X439750D02*
D03*
Y1010440D02*
D03*
X453720D02*
D03*
Y968530D02*
D03*
X439750Y982500D02*
D03*
X453720D02*
D03*
X439750Y968530D02*
D03*
X497840Y574370D02*
D03*
X483870Y588340D02*
D03*
Y574370D02*
D03*
X497840Y588340D02*
D03*
X455930D02*
D03*
Y574370D02*
D03*
X441960D02*
D03*
Y588340D02*
D03*
X497840Y630250D02*
D03*
X455930Y616280D02*
D03*
Y630250D02*
D03*
X441960D02*
D03*
Y616280D02*
D03*
X511810Y588340D02*
D03*
Y574370D02*
D03*
X469900D02*
D03*
Y588340D02*
D03*
X427990D02*
D03*
Y574370D02*
D03*
X469900Y630250D02*
D03*
Y616280D02*
D03*
X427990D02*
D03*
Y630250D02*
D03*
X497840Y560400D02*
D03*
X483870D02*
D03*
X455930D02*
D03*
X497840Y602310D02*
D03*
X483870D02*
D03*
X455930D02*
D03*
X441960D02*
D03*
X511810Y560400D02*
D03*
X469900D02*
D03*
X427990D02*
D03*
X511810Y602310D02*
D03*
X469900D02*
D03*
X427990D02*
D03*
X441960Y560400D02*
D03*
X497840Y736100D02*
D03*
X483870Y750070D02*
D03*
Y736100D02*
D03*
X497840Y750070D02*
D03*
X455930D02*
D03*
Y736100D02*
D03*
X441960D02*
D03*
Y750070D02*
D03*
X483870Y778010D02*
D03*
Y791980D02*
D03*
X497840D02*
D03*
Y778010D02*
D03*
X455930D02*
D03*
Y791980D02*
D03*
X441960D02*
D03*
Y778010D02*
D03*
X511810Y750070D02*
D03*
Y736100D02*
D03*
X469900D02*
D03*
Y750070D02*
D03*
X427990D02*
D03*
Y736100D02*
D03*
X511810Y778010D02*
D03*
Y791980D02*
D03*
X469900D02*
D03*
Y778010D02*
D03*
X427990D02*
D03*
Y791980D02*
D03*
X497840Y722130D02*
D03*
X483870D02*
D03*
X455930D02*
D03*
X497840Y764040D02*
D03*
X483870D02*
D03*
X455930D02*
D03*
X441960D02*
D03*
X511810Y722130D02*
D03*
X469900D02*
D03*
X427990D02*
D03*
X511810Y764040D02*
D03*
X469900D02*
D03*
X427990D02*
D03*
X441960Y722130D02*
D03*
X1108710Y929640D02*
D03*
X1052830Y957580D02*
D03*
X1038860D02*
D03*
X1024890D02*
D03*
X1052830Y971550D02*
D03*
X1038860D02*
D03*
X1024890D02*
D03*
X1052830Y985520D02*
D03*
X1038860D02*
D03*
X1024890D02*
D03*
X1052830Y999490D02*
D03*
X1038860D02*
D03*
X1024890D02*
D03*
X1070610Y560070D02*
D03*
Y546100D02*
D03*
Y518160D02*
D03*
Y504190D02*
D03*
Y532130D02*
D03*
Y574040D02*
D03*
X1097280Y758588D02*
D03*
X1139190D02*
D03*
X1181100D02*
D03*
X1111250D02*
D03*
X1167130D02*
D03*
X1153160D02*
D03*
X1125220D02*
D03*
X1094740Y971550D02*
D03*
X1136650D02*
D03*
X1178560D02*
D03*
X1094740Y929640D02*
D03*
X1136650D02*
D03*
X1178560D02*
D03*
X1097280Y800498D02*
D03*
X1139190D02*
D03*
X1181100D02*
D03*
X1108710Y971550D02*
D03*
X1122680D02*
D03*
X1150620D02*
D03*
X1164590D02*
D03*
X1122680Y929640D02*
D03*
X1150620D02*
D03*
X1164590D02*
D03*
X1097280Y786528D02*
D03*
Y828438D02*
D03*
Y814468D02*
D03*
Y772558D02*
D03*
X1139190Y828438D02*
D03*
Y786528D02*
D03*
Y814468D02*
D03*
Y772558D02*
D03*
X1181100Y786528D02*
D03*
Y828438D02*
D03*
Y814468D02*
D03*
Y772558D02*
D03*
X1094740Y999490D02*
D03*
Y985520D02*
D03*
X1136650D02*
D03*
Y999490D02*
D03*
X1178560D02*
D03*
Y985520D02*
D03*
X1094740Y943610D02*
D03*
Y957580D02*
D03*
X1136650D02*
D03*
Y943610D02*
D03*
X1178560D02*
D03*
Y957580D02*
D03*
X1111250Y800498D02*
D03*
X1167130D02*
D03*
X1153160D02*
D03*
X1108710Y985520D02*
D03*
Y999490D02*
D03*
X1122680D02*
D03*
Y985520D02*
D03*
X1164590D02*
D03*
Y999490D02*
D03*
X1150620D02*
D03*
Y985520D02*
D03*
X1108710Y957580D02*
D03*
Y943610D02*
D03*
X1122680D02*
D03*
Y957580D02*
D03*
X1164590D02*
D03*
X1150620Y943610D02*
D03*
Y957580D02*
D03*
X1164590Y943610D02*
D03*
X1111250Y828438D02*
D03*
Y786528D02*
D03*
Y814468D02*
D03*
Y772558D02*
D03*
X1153160Y786528D02*
D03*
Y828438D02*
D03*
X1167130D02*
D03*
Y786528D02*
D03*
X1153160Y814468D02*
D03*
X1167130D02*
D03*
Y772558D02*
D03*
X1153160D02*
D03*
X1125220Y800498D02*
D03*
Y786528D02*
D03*
Y828438D02*
D03*
Y814468D02*
D03*
Y772558D02*
D03*
X1181100Y509270D02*
D03*
X1167130Y523240D02*
D03*
X1181100D02*
D03*
Y537210D02*
D03*
Y565150D02*
D03*
Y551180D02*
D03*
X1167130Y565150D02*
D03*
Y551180D02*
D03*
X1139190Y565150D02*
D03*
X1153160D02*
D03*
X1139190Y551180D02*
D03*
X1153160Y537210D02*
D03*
X1139190Y523240D02*
D03*
X1153160Y509270D02*
D03*
X1125220D02*
D03*
X1111250Y523240D02*
D03*
X1125220Y537210D02*
D03*
X1111250Y551180D02*
D03*
Y565150D02*
D03*
X1125220D02*
D03*
X1097280Y509270D02*
D03*
Y523240D02*
D03*
Y537210D02*
D03*
Y551180D02*
D03*
Y565150D02*
D03*
Y495300D02*
D03*
X1125220D02*
D03*
X1111250D02*
D03*
X1153160D02*
D03*
X1139190D02*
D03*
X1181100D02*
D03*
X1167130D02*
D03*
Y537210D02*
D03*
Y509270D02*
D03*
X1153160Y551180D02*
D03*
Y523240D02*
D03*
X1139190Y537210D02*
D03*
Y509270D02*
D03*
X1125220Y551180D02*
D03*
Y523240D02*
D03*
X1111250Y537210D02*
D03*
Y509270D02*
D03*
X942340Y491270D02*
D03*
X956310Y505240D02*
D03*
Y491270D02*
D03*
X970280D02*
D03*
X998220D02*
D03*
X984250D02*
D03*
X998220Y505240D02*
D03*
X984250D02*
D03*
X998220Y533180D02*
D03*
Y519210D02*
D03*
X984250Y533180D02*
D03*
X970280Y519210D02*
D03*
X956310Y533180D02*
D03*
X942340Y519210D02*
D03*
Y547150D02*
D03*
X956310Y561120D02*
D03*
X970280Y547150D02*
D03*
X984250Y561120D02*
D03*
X998220D02*
D03*
Y547150D02*
D03*
X942340Y575090D02*
D03*
X956310D02*
D03*
X970280D02*
D03*
X984250D02*
D03*
X998220D02*
D03*
X928370D02*
D03*
Y547150D02*
D03*
Y561120D02*
D03*
Y519210D02*
D03*
Y533180D02*
D03*
Y491270D02*
D03*
Y505240D02*
D03*
X970280D02*
D03*
X942340D02*
D03*
X984250Y519210D02*
D03*
X956310D02*
D03*
X970280Y533180D02*
D03*
X942340D02*
D03*
X984250Y547150D02*
D03*
X956310D02*
D03*
X970280Y561120D02*
D03*
X942340D02*
D03*
D222*
X557530Y1076960D02*
X662940Y1182370D01*
X419100Y1076960D02*
X557530D01*
X406400Y1064260D02*
X419100Y1076960D01*
X406400Y938530D02*
Y1064260D01*
X662940Y1182370D02*
X685800D01*
X406400Y938530D02*
X467360Y877570D01*
X530860Y688340D02*
Y843280D01*
X496570Y877570D02*
X530860Y843280D01*
X467360Y877570D02*
X496570D01*
X530860Y688340D02*
X604520Y614680D01*
X665480D01*
D225*
X1362420Y919770D02*
X1504950Y777240D01*
Y557530D02*
Y777240D01*
X1367500Y420080D02*
X1504950Y557530D01*
X1280450Y420080D02*
X1367500D01*
X1477010Y1034360D02*
Y1301750D01*
X1435100Y1343660D02*
X1477010Y1301750D01*
X748030Y1343660D02*
X1435100D01*
X1362420Y919770D02*
X1477010Y1034360D01*
X707390Y1303020D02*
X748030Y1343660D01*
X707390Y1182370D02*
Y1303020D01*
D236*
X982420Y833120D02*
D03*
X896340D02*
D03*
X695250Y821690D02*
D03*
X610160D02*
D03*
D237*
X731520Y721360D02*
D03*
X878840Y732080D02*
D03*
X849630Y668490D02*
D03*
Y618490D02*
D03*
X865270Y518560D02*
D03*
X759460Y568160D02*
D03*
Y518160D02*
D03*
X865270Y462515D02*
D03*
Y412515D02*
D03*
X889000Y330200D02*
D03*
X228200Y426320D02*
D03*
X216700Y299720D02*
D03*
X134220Y417640D02*
D03*
D238*
X731520Y756360D02*
D03*
X878840Y767080D02*
D03*
D243*
X901100Y1314450D02*
D03*
D244*
X250500Y889200D02*
D03*
X148900D02*
D03*
Y990800D02*
D03*
X250500D02*
D03*
Y1092400D02*
D03*
X148900D02*
D03*
Y1194000D02*
D03*
X250500D02*
D03*
X966070Y434200D02*
D03*
Y332600D02*
D03*
X1067670D02*
D03*
Y434200D02*
D03*
X469900D02*
D03*
Y332600D02*
D03*
X571500D02*
D03*
Y434200D02*
D03*
D245*
X1400000Y1050000D02*
D03*
X95000Y1330000D02*
D03*
X350000Y870000D02*
D03*
X95000Y280000D02*
D03*
D246*
X1312860Y611680D02*
D03*
X1292860Y741680D02*
D03*
D247*
X1299710Y818660D02*
D03*
X1425710Y598660D02*
D03*
D248*
X130030Y594860D02*
D03*
X350030Y720860D02*
D03*
D250*
X1136730Y1252220D02*
D03*
D251*
X556410Y1163020D02*
D03*
Y1189020D02*
D03*
Y1176020D02*
D03*
X543410Y1163020D02*
D03*
Y1189020D02*
D03*
Y1176020D02*
D03*
D252*
X186494Y254750D02*
D03*
X286316D02*
D03*
X386138D02*
D03*
X485960Y271260D02*
D03*
X685604Y254750D02*
D03*
X585782Y271260D02*
D03*
X1384358Y254750D02*
D03*
X1484180D02*
D03*
X1084892Y273800D02*
D03*
X1184714Y254750D02*
D03*
X1284536D02*
D03*
X985070Y272530D02*
D03*
X885248Y254750D02*
D03*
X785426D02*
D03*
X1600250Y440604D02*
D03*
Y340782D02*
D03*
Y540426D02*
D03*
Y640248D02*
D03*
Y740070D02*
D03*
Y1039536D02*
D03*
Y939714D02*
D03*
Y839892D02*
D03*
Y1239180D02*
D03*
Y1139358D02*
D03*
X1383684Y1357790D02*
D03*
X1483506Y1355250D02*
D03*
X1283862Y1357790D02*
D03*
X69750Y340782D02*
D03*
Y440604D02*
D03*
Y540426D02*
D03*
Y640248D02*
D03*
Y740070D02*
D03*
Y1039536D02*
D03*
X87530Y939714D02*
D03*
X69750Y839892D02*
D03*
Y1239180D02*
D03*
X87530Y1139358D02*
D03*
X285642Y1355250D02*
D03*
X185820D02*
D03*
X585108D02*
D03*
X485286D02*
D03*
X385464D02*
D03*
X448310Y1219200D02*
D03*
X487680Y1236980D02*
D03*
X521970Y1211580D02*
D03*
X466090Y1168550D02*
D03*
X464820Y1144270D02*
D03*
X466090Y1108710D02*
D03*
X434340Y1089660D02*
D03*
Y1112838D02*
D03*
Y1136015D02*
D03*
Y1159193D02*
D03*
Y1182370D02*
D03*
X684930Y1355250D02*
D03*
X784752Y1357790D02*
D03*
X884574D02*
D03*
X984396D02*
D03*
X1184040D02*
D03*
X1084218D02*
D03*
X1250950Y1295400D02*
D03*
X1271270Y1292860D02*
D03*
X1178560Y1256030D02*
D03*
X1191260Y1268730D02*
D03*
X1206500Y1280160D02*
D03*
X1272540Y1202690D02*
D03*
Y1224280D02*
D03*
X1206500Y1200150D02*
D03*
Y1164590D02*
D03*
X969010Y1316990D02*
D03*
X741680Y1283970D02*
D03*
X725611Y1231817D02*
D03*
X727710Y1184910D02*
D03*
X546100Y1126490D02*
D03*
X539750Y1093470D02*
D03*
X652004Y1112265D02*
D03*
X618490Y1113790D02*
D03*
Y1073760D02*
D03*
X684530Y1074420D02*
D03*
X683260Y1113790D02*
D03*
X1078230Y1200150D02*
D03*
X1060250Y1177490D02*
D03*
X684530Y1023620D02*
D03*
X680720Y1033780D02*
D03*
X684530Y1003300D02*
D03*
Y1013460D02*
D03*
X670420Y1033812D02*
D03*
X760730Y1153160D02*
D03*
X906780Y1271270D02*
D03*
X1024755Y1254619D02*
D03*
X906991Y1252620D02*
D03*
X1043987Y1177601D02*
D03*
X884623Y985492D02*
D03*
X952447Y903099D02*
D03*
D253*
X590694Y1295426D02*
D03*
X597024Y1204389D02*
D03*
X674500Y1243826D02*
D03*
X676019Y1210155D02*
D03*
X362030Y1084580D02*
D03*
X919480Y1089660D02*
D03*
X1209040Y708660D02*
D03*
X828910Y907180D02*
D03*
X713774Y930944D02*
D03*
X502520Y905910D02*
D03*
X663308Y546100D02*
D03*
X636638Y527439D02*
D03*
X321310Y1099820D02*
D03*
X308610D02*
D03*
X295910D02*
D03*
X283210D02*
D03*
X1223010Y628650D02*
D03*
X665480Y614680D02*
D03*
X1280450Y355310D02*
D03*
Y346420D02*
D03*
X1316065Y937550D02*
D03*
X1304000D02*
D03*
X1362420Y919770D02*
D03*
X1292570Y976920D02*
D03*
X1276060D02*
D03*
D257*
X1139190Y793513D02*
D03*
X1136650Y964565D02*
D03*
D260*
X963930Y532655D02*
D03*
M02*
