G04*
G04 #@! TF.GenerationSoftware,Altium Limited,CircuitMaker,2.2.1 (2.2.1.6)*
G04*
G04 Layer_Physical_Order=1*
G04 Layer_Color=25308*
%FSLAX44Y44*%
%MOMM*%
G71*
G04*
G04 #@! TF.SameCoordinates,19C9E3CA-E082-4F8C-9F67-3D0F94DA41C6*
G04*
G04*
G04 #@! TF.FilePolarity,Positive*
G04*
G01*
G75*
%ADD11C,0.2500*%
%ADD13C,0.4000*%
%ADD17C,0.5000*%
%ADD18C,0.6000*%
G04:AMPARAMS|DCode=27|XSize=5.5mm|YSize=3.2mm|CornerRadius=0.8mm|HoleSize=0mm|Usage=FLASHONLY|Rotation=0.000|XOffset=0mm|YOffset=0mm|HoleType=Round|Shape=RoundedRectangle|*
%AMROUNDEDRECTD27*
21,1,5.5000,1.6000,0,0,0.0*
21,1,3.9000,3.2000,0,0,0.0*
1,1,1.6000,1.9500,-0.8000*
1,1,1.6000,-1.9500,-0.8000*
1,1,1.6000,-1.9500,0.8000*
1,1,1.6000,1.9500,0.8000*
%
%ADD27ROUNDEDRECTD27*%
%ADD28R,0.9000X0.9000*%
%ADD29R,1.0000X0.9500*%
%ADD30R,0.8000X1.0000*%
G04:AMPARAMS|DCode=31|XSize=0.9652mm|YSize=0.7874mm|CornerRadius=0.0787mm|HoleSize=0mm|Usage=FLASHONLY|Rotation=90.000|XOffset=0mm|YOffset=0mm|HoleType=Round|Shape=RoundedRectangle|*
%AMROUNDEDRECTD31*
21,1,0.9652,0.6299,0,0,90.0*
21,1,0.8077,0.7874,0,0,90.0*
1,1,0.1575,0.3150,0.4039*
1,1,0.1575,0.3150,-0.4039*
1,1,0.1575,-0.3150,-0.4039*
1,1,0.1575,-0.3150,0.4039*
%
%ADD31ROUNDEDRECTD31*%
%ADD32R,0.9500X1.0000*%
%ADD33R,1.0500X0.9000*%
%ADD34R,0.7000X1.2000*%
G04:AMPARAMS|DCode=35|XSize=0.6mm|YSize=2.2mm|CornerRadius=0.15mm|HoleSize=0mm|Usage=FLASHONLY|Rotation=90.000|XOffset=0mm|YOffset=0mm|HoleType=Round|Shape=RoundedRectangle|*
%AMROUNDEDRECTD35*
21,1,0.6000,1.9000,0,0,90.0*
21,1,0.3000,2.2000,0,0,90.0*
1,1,0.3000,0.9500,0.1500*
1,1,0.3000,0.9500,-0.1500*
1,1,0.3000,-0.9500,-0.1500*
1,1,0.3000,-0.9500,0.1500*
%
%ADD35ROUNDEDRECTD35*%
%ADD36R,2.4000X3.1000*%
%ADD37R,3.0000X5.5000*%
%ADD38R,1.6500X2.3000*%
%ADD39R,1.5000X1.9000*%
%ADD40R,2.9972X2.0828*%
%ADD41R,0.9000X1.1000*%
G04:AMPARAMS|DCode=42|XSize=0.9652mm|YSize=0.7874mm|CornerRadius=0.0787mm|HoleSize=0mm|Usage=FLASHONLY|Rotation=0.000|XOffset=0mm|YOffset=0mm|HoleType=Round|Shape=RoundedRectangle|*
%AMROUNDEDRECTD42*
21,1,0.9652,0.6299,0,0,0.0*
21,1,0.8077,0.7874,0,0,0.0*
1,1,0.1575,0.4039,-0.3150*
1,1,0.1575,-0.4039,-0.3150*
1,1,0.1575,-0.4039,0.3150*
1,1,0.1575,0.4039,0.3150*
%
%ADD42ROUNDEDRECTD42*%
%ADD43R,1.1500X1.7000*%
%ADD44R,1.3000X1.8000*%
%ADD45R,1.2000X2.5000*%
%ADD46R,1.6000X3.5500*%
G04:AMPARAMS|DCode=47|XSize=0.45mm|YSize=1.05mm|CornerRadius=0.0225mm|HoleSize=0mm|Usage=FLASHONLY|Rotation=0.000|XOffset=0mm|YOffset=0mm|HoleType=Round|Shape=RoundedRectangle|*
%AMROUNDEDRECTD47*
21,1,0.4500,1.0050,0,0,0.0*
21,1,0.4050,1.0500,0,0,0.0*
1,1,0.0450,0.2025,-0.5025*
1,1,0.0450,-0.2025,-0.5025*
1,1,0.0450,-0.2025,0.5025*
1,1,0.0450,0.2025,0.5025*
%
%ADD47ROUNDEDRECTD47*%
%ADD48R,1.0000X0.9000*%
%ADD49R,2.3000X2.5000*%
G04:AMPARAMS|DCode=50|XSize=1.05mm|YSize=0.9mm|CornerRadius=0.09mm|HoleSize=0mm|Usage=FLASHONLY|Rotation=180.000|XOffset=0mm|YOffset=0mm|HoleType=Round|Shape=RoundedRectangle|*
%AMROUNDEDRECTD50*
21,1,1.0500,0.7200,0,0,180.0*
21,1,0.8700,0.9000,0,0,180.0*
1,1,0.1800,-0.4350,0.3600*
1,1,0.1800,0.4350,0.3600*
1,1,0.1800,0.4350,-0.3600*
1,1,0.1800,-0.4350,-0.3600*
%
%ADD50ROUNDEDRECTD50*%
%ADD51R,0.9000X1.0000*%
%ADD52R,0.6000X0.9000*%
%ADD53R,0.8500X0.4000*%
%ADD54R,0.6096X1.5494*%
%ADD55R,1.7000X1.0500*%
%ADD56R,1.3500X1.2000*%
%ADD57R,0.9000X1.0500*%
%ADD58R,0.9000X0.6000*%
G04:AMPARAMS|DCode=59|XSize=1.05mm|YSize=0.9mm|CornerRadius=0.09mm|HoleSize=0mm|Usage=FLASHONLY|Rotation=90.000|XOffset=0mm|YOffset=0mm|HoleType=Round|Shape=RoundedRectangle|*
%AMROUNDEDRECTD59*
21,1,1.0500,0.7200,0,0,90.0*
21,1,0.8700,0.9000,0,0,90.0*
1,1,0.1800,0.3600,0.4350*
1,1,0.1800,0.3600,-0.4350*
1,1,0.1800,-0.3600,-0.4350*
1,1,0.1800,-0.3600,0.4350*
%
%ADD59ROUNDEDRECTD59*%
%ADD60R,0.7500X0.8500*%
%ADD61R,0.7000X0.8000*%
%ADD62R,0.8500X0.9000*%
%ADD63R,0.9000X0.8500*%
%ADD64R,1.0500X0.9500*%
%ADD65R,0.9000X0.7000*%
%ADD66R,0.7000X0.9000*%
%ADD67R,1.7500X1.2000*%
%ADD68R,1.0000X0.7000*%
%ADD69R,0.9500X1.0500*%
%ADD70R,0.6000X0.8000*%
%ADD71R,1.6000X3.7000*%
%ADD72R,2.4000X1.0000*%
%ADD73R,2.4000X3.3000*%
%ADD74R,0.7000X0.8500*%
%ADD75R,0.9500X0.8500*%
%ADD76O,0.6000X1.9000*%
%ADD77R,1.0000X1.0500*%
%ADD78R,1.0500X1.0000*%
%ADD79R,0.9000X0.9000*%
%ADD80R,1.0500X1.7000*%
%ADD81R,1.9000X2.0000*%
%ADD82R,1.1000X0.9000*%
%ADD83R,2.5000X1.7000*%
%ADD84R,0.3000X0.6500*%
%ADD85R,1.5000X1.5500*%
%ADD86R,4.0000X2.1000*%
%ADD87R,2.1000X4.0000*%
%ADD88R,2.5000X1.2000*%
%ADD89R,2.6000X2.1000*%
%ADD90R,1.9000X1.5000*%
%ADD91R,0.7200X1.7800*%
%ADD92R,0.8000X0.8000*%
%ADD93R,1.1000X2.0000*%
%ADD94R,7.2000X3.7000*%
%ADD95R,2.1000X2.6000*%
%ADD96R,2.0000X1.1000*%
%ADD97R,0.8000X0.8000*%
G04:AMPARAMS|DCode=98|XSize=2mm|YSize=2mm|CornerRadius=0.5mm|HoleSize=0mm|Usage=FLASHONLY|Rotation=180.000|XOffset=0mm|YOffset=0mm|HoleType=Round|Shape=RoundedRectangle|*
%AMROUNDEDRECTD98*
21,1,2.0000,1.0000,0,0,180.0*
21,1,1.0000,2.0000,0,0,180.0*
1,1,1.0000,-0.5000,0.5000*
1,1,1.0000,0.5000,0.5000*
1,1,1.0000,0.5000,-0.5000*
1,1,1.0000,-0.5000,-0.5000*
%
%ADD98ROUNDEDRECTD98*%
%ADD99R,1.7800X0.7200*%
G04:AMPARAMS|DCode=100|XSize=2mm|YSize=2mm|CornerRadius=0.5mm|HoleSize=0mm|Usage=FLASHONLY|Rotation=90.000|XOffset=0mm|YOffset=0mm|HoleType=Round|Shape=RoundedRectangle|*
%AMROUNDEDRECTD100*
21,1,2.0000,1.0000,0,0,90.0*
21,1,1.0000,2.0000,0,0,90.0*
1,1,1.0000,0.5000,0.5000*
1,1,1.0000,0.5000,-0.5000*
1,1,1.0000,-0.5000,-0.5000*
1,1,1.0000,-0.5000,0.5000*
%
%ADD100ROUNDEDRECTD100*%
%ADD101R,0.9000X0.9500*%
%ADD102R,1.2500X1.1000*%
%ADD103O,0.8000X0.2500*%
%ADD104O,0.2500X0.8000*%
%ADD105R,0.8000X0.2500*%
%ADD106R,5.6000X5.6000*%
%ADD107C,1.0000*%
%ADD108R,2.8000X0.8000*%
%ADD109R,8.1000X8.9000*%
%ADD110R,0.8000X2.8000*%
%ADD111R,8.9000X8.1000*%
G04:AMPARAMS|DCode=112|XSize=0.4mm|YSize=1.5mm|CornerRadius=0.1mm|HoleSize=0mm|Usage=FLASHONLY|Rotation=270.000|XOffset=0mm|YOffset=0mm|HoleType=Round|Shape=RoundedRectangle|*
%AMROUNDEDRECTD112*
21,1,0.4000,1.3000,0,0,270.0*
21,1,0.2000,1.5000,0,0,270.0*
1,1,0.2000,-0.6500,-0.1000*
1,1,0.2000,-0.6500,0.1000*
1,1,0.2000,0.6500,0.1000*
1,1,0.2000,0.6500,-0.1000*
%
%ADD112ROUNDEDRECTD112*%
%ADD222C,0.8000*%
%ADD223C,0.7000*%
%ADD224C,0.3000*%
%ADD225C,1.5000*%
%ADD226C,1.0000*%
%ADD227C,0.9000*%
%ADD228C,2.0000*%
%ADD229C,1.2000*%
%ADD230R,2.9210X6.4770*%
%ADD231R,2.9000X10.2000*%
%ADD232R,1.6500X10.2000*%
%ADD233R,10.2000X2.9000*%
%ADD234R,10.2000X1.6500*%
%ADD235R,9.2710X9.7790*%
G04:AMPARAMS|DCode=236|XSize=1.524mm|YSize=1.524mm|CornerRadius=0.381mm|HoleSize=0mm|Usage=FLASHONLY|Rotation=180.000|XOffset=0mm|YOffset=0mm|HoleType=Round|Shape=RoundedRectangle|*
%AMROUNDEDRECTD236*
21,1,1.5240,0.7620,0,0,180.0*
21,1,0.7620,1.5240,0,0,180.0*
1,1,0.7620,-0.3810,0.3810*
1,1,0.7620,0.3810,0.3810*
1,1,0.7620,0.3810,-0.3810*
1,1,0.7620,-0.3810,-0.3810*
%
%ADD236ROUNDEDRECTD236*%
%ADD237C,1.5240*%
G04:AMPARAMS|DCode=238|XSize=1.524mm|YSize=1.524mm|CornerRadius=0.381mm|HoleSize=0mm|Usage=FLASHONLY|Rotation=270.000|XOffset=0mm|YOffset=0mm|HoleType=Round|Shape=RoundedRectangle|*
%AMROUNDEDRECTD238*
21,1,1.5240,0.7620,0,0,270.0*
21,1,0.7620,1.5240,0,0,270.0*
1,1,0.7620,-0.3810,-0.3810*
1,1,0.7620,-0.3810,0.3810*
1,1,0.7620,0.3810,0.3810*
1,1,0.7620,0.3810,-0.3810*
%
%ADD238ROUNDEDRECTD238*%
%ADD239C,2.0000*%
%ADD240R,0.9500X1.5000*%
G04:AMPARAMS|DCode=241|XSize=1.5mm|YSize=0.95mm|CornerRadius=0mm|HoleSize=0mm|Usage=FLASHONLY|Rotation=270.000|XOffset=0mm|YOffset=0mm|HoleType=Round|Shape=Octagon|*
%AMOCTAGOND241*
4,1,8,-0.2375,-0.7500,0.2375,-0.7500,0.4750,-0.5125,0.4750,0.5125,0.2375,0.7500,-0.2375,0.7500,-0.4750,0.5125,-0.4750,-0.5125,-0.2375,-0.7500,0.0*
%
%ADD241OCTAGOND241*%

%ADD242O,0.9500X1.2000*%
%ADD243R,0.9500X1.2000*%
%ADD244C,3.0000*%
%ADD245C,7.0000*%
G04:AMPARAMS|DCode=246|XSize=8mm|YSize=8mm|CornerRadius=2mm|HoleSize=0mm|Usage=FLASHONLY|Rotation=270.000|XOffset=0mm|YOffset=0mm|HoleType=Round|Shape=RoundedRectangle|*
%AMROUNDEDRECTD246*
21,1,8.0000,4.0000,0,0,270.0*
21,1,4.0000,8.0000,0,0,270.0*
1,1,4.0000,-2.0000,-2.0000*
1,1,4.0000,-2.0000,2.0000*
1,1,4.0000,2.0000,2.0000*
1,1,4.0000,2.0000,-2.0000*
%
%ADD246ROUNDEDRECTD246*%
%ADD247O,11.0000X6.5000*%
%ADD248O,6.5000X11.0000*%
%ADD249C,1.5000*%
G04:AMPARAMS|DCode=250|XSize=1.5mm|YSize=1.5mm|CornerRadius=0.15mm|HoleSize=0mm|Usage=FLASHONLY|Rotation=180.000|XOffset=0mm|YOffset=0mm|HoleType=Round|Shape=RoundedRectangle|*
%AMROUNDEDRECTD250*
21,1,1.5000,1.2000,0,0,180.0*
21,1,1.2000,1.5000,0,0,180.0*
1,1,0.3000,-0.6000,0.6000*
1,1,0.3000,0.6000,0.6000*
1,1,0.3000,0.6000,-0.6000*
1,1,0.3000,-0.6000,-0.6000*
%
%ADD250ROUNDEDRECTD250*%
%ADD251C,0.5000*%
%ADD252C,0.6000*%
%ADD253C,0.8000*%
G36*
X1277620Y1361440D02*
Y1269795D01*
X1271484Y1263659D01*
X1253490D01*
X1252515Y1263465D01*
X1252514Y1263465D01*
X1250544Y1264527D01*
Y1270650D01*
X1259840D01*
Y1279190D01*
Y1287730D01*
X1249820D01*
Y1282713D01*
X1247820Y1281885D01*
X1243164Y1286542D01*
X1242913Y1288448D01*
X1241905Y1290880D01*
X1240302Y1292969D01*
X1185019Y1348252D01*
X1182930Y1349855D01*
X1180498Y1350863D01*
X1177887Y1351206D01*
X745490D01*
X742879Y1350863D01*
X740447Y1349855D01*
X738358Y1348252D01*
X688828Y1298722D01*
X687225Y1296633D01*
X686217Y1294200D01*
X685874Y1291590D01*
Y1189999D01*
X663996D01*
X650249Y1203746D01*
Y1303020D01*
X650055Y1303995D01*
X649710Y1304512D01*
Y1305080D01*
X649117D01*
X648675Y1305375D01*
X647700Y1305569D01*
X605790D01*
X604815Y1305375D01*
X603988Y1304822D01*
X603435Y1303995D01*
X603241Y1303020D01*
Y1193130D01*
X601241Y1192301D01*
X600891Y1192651D01*
X599409Y1193507D01*
X597756Y1193950D01*
X596044D01*
X594391Y1193507D01*
X593937Y1193245D01*
X593668Y1193290D01*
X591988Y1194429D01*
Y1196570D01*
X591829Y1197371D01*
Y1271270D01*
X591635Y1272245D01*
X591082Y1273072D01*
X559332Y1304822D01*
X558506Y1305375D01*
X557530Y1305569D01*
X525780D01*
X524804Y1305375D01*
X524363Y1305080D01*
X519710D01*
Y1300327D01*
X519615Y1300186D01*
X519421Y1299210D01*
Y1228090D01*
X519615Y1227115D01*
X520168Y1226288D01*
X549378Y1197078D01*
X550205Y1196525D01*
X551180Y1196331D01*
X558718D01*
X558899Y1196060D01*
X557830Y1194060D01*
X551180D01*
Y1176020D01*
Y1157980D01*
X562832D01*
X564450Y1157980D01*
X564832Y1156138D01*
Y1155470D01*
X565142Y1153909D01*
X566026Y1152586D01*
X567349Y1151702D01*
X568910Y1151392D01*
X573822D01*
Y1146961D01*
X570382D01*
X569100Y1146706D01*
X568012Y1145980D01*
X567554Y1145294D01*
X566662Y1145118D01*
X566181Y1145120D01*
X565333Y1145296D01*
X564856Y1146009D01*
X563756Y1146744D01*
X562458Y1147002D01*
X559689D01*
Y1140460D01*
Y1133918D01*
X562458D01*
X563756Y1134176D01*
X564856Y1134911D01*
X565032Y1135174D01*
X567032Y1134567D01*
Y1131950D01*
X564620D01*
Y1116990D01*
X564620Y1115950D01*
X563018Y1114990D01*
X560540D01*
Y1074490D01*
X581540D01*
Y1087437D01*
X591240D01*
Y1082010D01*
X612740D01*
Y1110010D01*
X591240D01*
Y1104583D01*
X581540D01*
Y1113950D01*
X581540Y1114990D01*
X583142Y1115950D01*
X593620D01*
Y1131950D01*
X590698D01*
Y1133824D01*
X592396Y1134527D01*
X593943Y1136075D01*
X594780Y1138096D01*
Y1140284D01*
X593943Y1142306D01*
X592396Y1143853D01*
X590374Y1144690D01*
X588186D01*
X586165Y1143853D01*
X584617Y1142306D01*
X582441Y1142279D01*
X582412Y1142338D01*
X582649Y1142693D01*
X582998Y1144449D01*
Y1151392D01*
X587910D01*
X589471Y1151702D01*
X589807Y1151926D01*
X590157Y1151920D01*
X591977Y1151031D01*
X592098Y1150427D01*
X592926Y1149186D01*
X596736Y1145376D01*
X597977Y1144548D01*
X598424Y1144459D01*
Y1133856D01*
X615950D01*
Y1132586D01*
D01*
Y1133856D01*
X633476D01*
Y1144257D01*
X639064D01*
Y1133856D01*
X656590D01*
X674116D01*
Y1144257D01*
X679704D01*
Y1133856D01*
X697230D01*
Y1132586D01*
X698500D01*
Y1119632D01*
X714756D01*
X714997Y1117732D01*
Y1093309D01*
X715288Y1091846D01*
X716116Y1090606D01*
X726763Y1079959D01*
X728004Y1079130D01*
X729467Y1078839D01*
X729640D01*
Y1075690D01*
X735180D01*
Y1074420D01*
X736450D01*
Y1067880D01*
X739069D01*
X740530Y1066580D01*
X740530Y1065959D01*
Y1052580D01*
Y1039080D01*
X747820D01*
X754185Y1032715D01*
X755839Y1031610D01*
X757790Y1031222D01*
X765710D01*
Y1015320D01*
X786710D01*
Y1057320D01*
X785245D01*
X781738Y1060827D01*
Y1063960D01*
X785700D01*
Y1070000D01*
X786970D01*
Y1071270D01*
X794510D01*
Y1076040D01*
X794470D01*
Y1083000D01*
Y1095000D01*
X794470Y1095000D01*
X794470D01*
X795433Y1096577D01*
X795852Y1096996D01*
X797700Y1096230D01*
Y1091900D01*
X807720D01*
Y1099170D01*
X800640D01*
X799874Y1101018D01*
X806986Y1108130D01*
X820240D01*
Y1125130D01*
X809141D01*
X803456Y1130816D01*
X801471Y1132142D01*
X799130Y1132607D01*
X753104D01*
X748546Y1137166D01*
X748546Y1137166D01*
X717812Y1167900D01*
X715827Y1169226D01*
X714716Y1169447D01*
Y1176488D01*
X714313D01*
X713809Y1178488D01*
X714379Y1179475D01*
X714890Y1181383D01*
Y1183357D01*
X714379Y1185265D01*
X713749Y1186356D01*
Y1187450D01*
X713555Y1188425D01*
X713002Y1189252D01*
X712175Y1189805D01*
X711200Y1189999D01*
X706046D01*
Y1287412D01*
X749668Y1331034D01*
X1173709D01*
X1226038Y1278705D01*
X1228127Y1277102D01*
X1230559Y1276094D01*
X1232465Y1275844D01*
X1233831Y1274478D01*
X1233066Y1272630D01*
X1218970D01*
Y1272670D01*
X1210200D01*
Y1262380D01*
X1208930D01*
Y1261110D01*
X1198890D01*
Y1253730D01*
X1197900Y1252140D01*
X1192130D01*
Y1244600D01*
X1190860D01*
Y1243330D01*
X1183820D01*
Y1238670D01*
X1183070D01*
Y1231900D01*
X1190110D01*
Y1230630D01*
X1191380D01*
Y1222590D01*
X1196127D01*
X1197150Y1222590D01*
Y1222590D01*
X1198110Y1222630D01*
Y1222630D01*
X1211108D01*
X1212110Y1222630D01*
X1212930Y1220970D01*
Y1216540D01*
X1220470D01*
X1228010D01*
Y1222687D01*
X1228010Y1223060D01*
X1228010Y1223060D01*
X1227470Y1224480D01*
X1227470Y1224480D01*
Y1232047D01*
X1233180D01*
Y1223120D01*
X1234640D01*
Y1215390D01*
X1249680D01*
X1264720D01*
Y1223120D01*
X1266180D01*
Y1230175D01*
X1266216Y1230357D01*
Y1233282D01*
X1270059Y1237125D01*
X1270611Y1237952D01*
X1270806Y1238928D01*
Y1241801D01*
X1275772Y1246768D01*
X1277620Y1246002D01*
Y1184768D01*
X1275620Y1184161D01*
X1275612Y1184172D01*
X1266199Y1193586D01*
Y1198768D01*
X1266216Y1198854D01*
X1266180Y1199036D01*
Y1205120D01*
X1264720D01*
Y1212850D01*
X1249680D01*
X1234640D01*
Y1205120D01*
X1233180D01*
Y1196988D01*
X1229159D01*
X1227970Y1198177D01*
Y1207480D01*
X1228010D01*
Y1214000D01*
X1220470D01*
X1212930D01*
Y1207480D01*
X1212970D01*
Y1192520D01*
X1221189D01*
X1221445Y1192137D01*
X1220376Y1190137D01*
X1215973D01*
X1214675Y1189879D01*
X1213574Y1189144D01*
X1212839Y1188043D01*
X1212580Y1186745D01*
Y1184865D01*
X1220012D01*
Y1182325D01*
X1212580D01*
Y1180446D01*
X1212839Y1179147D01*
X1213574Y1178047D01*
X1214675Y1177311D01*
X1215973Y1177053D01*
X1217502D01*
X1219360Y1176710D01*
X1219360Y1175053D01*
Y1170940D01*
X1225400D01*
Y1168400D01*
X1219360D01*
Y1163430D01*
X1219360Y1162630D01*
X1217857Y1161430D01*
X1214130D01*
Y1147430D01*
X1212387Y1146810D01*
X1190768D01*
Y1209040D01*
X1190419Y1210796D01*
X1189424Y1212284D01*
X1177114Y1224594D01*
X1175626Y1225589D01*
X1173870Y1225938D01*
X1173840D01*
Y1229850D01*
X1155340D01*
Y1225938D01*
X1149130D01*
Y1230510D01*
X1121630D01*
Y1229620D01*
X1119967Y1228509D01*
X1119964Y1228510D01*
X1117776D01*
X1117773Y1228509D01*
X1116110Y1229620D01*
Y1230510D01*
X1088610D01*
Y1225818D01*
X1085951D01*
X1085783Y1226667D01*
X1085031Y1227791D01*
X1083907Y1228543D01*
X1082580Y1228807D01*
X1073880D01*
X1072553Y1228543D01*
X1071429Y1227791D01*
X1070677Y1226667D01*
X1070413Y1225340D01*
Y1218140D01*
X1070677Y1216813D01*
X1070963Y1216386D01*
X1071273Y1214990D01*
X1070963Y1213594D01*
X1070677Y1213167D01*
X1070413Y1211840D01*
Y1204640D01*
X1070677Y1203313D01*
X1071429Y1202189D01*
X1072553Y1201437D01*
X1072635Y1201421D01*
X1072730Y1201244D01*
Y1199056D01*
X1073567Y1197035D01*
X1075115Y1195487D01*
X1077136Y1194650D01*
X1079324D01*
X1081346Y1195487D01*
X1082893Y1197035D01*
X1083730Y1199056D01*
Y1201244D01*
X1083825Y1201421D01*
X1083907Y1201437D01*
X1085031Y1202189D01*
X1085783Y1203313D01*
X1086047Y1204640D01*
Y1211840D01*
X1085783Y1213167D01*
X1085497Y1213594D01*
X1085187Y1214990D01*
X1085497Y1216386D01*
X1085783Y1216813D01*
X1085951Y1217662D01*
X1088610D01*
Y1215510D01*
X1090662D01*
Y1209889D01*
X1089192D01*
Y1189395D01*
X1098249D01*
X1099077Y1187395D01*
X1094721Y1183038D01*
X1085980D01*
Y1185960D01*
X1070480D01*
Y1171960D01*
Y1158460D01*
X1074152D01*
Y1152790D01*
X1068570D01*
Y1152790D01*
X1067570D01*
Y1152790D01*
X1060247D01*
X1058919Y1154240D01*
Y1167740D01*
X1046919D01*
Y1164813D01*
X1038490D01*
Y1166660D01*
X1023990D01*
X1023500Y1166910D01*
Y1166910D01*
X1008500D01*
Y1162063D01*
X1006427D01*
X1005485Y1164063D01*
X1006090Y1165523D01*
Y1167711D01*
X1005586Y1168926D01*
X1006672Y1170927D01*
X1024890D01*
X1026636Y1169235D01*
Y1168817D01*
X1041636D01*
Y1171261D01*
X1042893Y1172101D01*
X1045081D01*
X1045256Y1172173D01*
X1046919Y1171062D01*
Y1170740D01*
X1058919D01*
Y1171831D01*
X1059156Y1171990D01*
X1061344D01*
X1063366Y1172827D01*
X1064913Y1174374D01*
X1065750Y1176396D01*
Y1178584D01*
X1064913Y1180605D01*
X1063366Y1182153D01*
X1061344Y1182990D01*
X1059156D01*
X1058919Y1183149D01*
Y1184240D01*
X1046919D01*
Y1184139D01*
X1045256Y1183028D01*
X1045081Y1183101D01*
X1042893D01*
X1041676Y1183914D01*
Y1188047D01*
X1034136D01*
Y1190587D01*
X1041676D01*
Y1191932D01*
X1043676Y1192329D01*
X1044357Y1190685D01*
X1045904Y1189137D01*
X1047926Y1188300D01*
X1050114D01*
X1052135Y1189137D01*
X1053683Y1190685D01*
X1054520Y1192706D01*
Y1194894D01*
X1053683Y1196916D01*
X1052135Y1198463D01*
X1050114Y1199300D01*
X1048927D01*
X1047181Y1201046D01*
X1045940Y1201875D01*
X1045285Y1202005D01*
X1045081Y1204085D01*
X1045786Y1204377D01*
X1047333Y1205925D01*
X1048170Y1207946D01*
Y1210134D01*
X1047333Y1212156D01*
X1045786Y1213703D01*
X1043764Y1214540D01*
X1043712Y1216540D01*
X1043751Y1216634D01*
Y1218822D01*
X1043634Y1219104D01*
X1044745Y1220767D01*
X1051616D01*
X1051977Y1219894D01*
X1053524Y1218347D01*
X1055546Y1217510D01*
X1057734D01*
X1059755Y1218347D01*
X1061303Y1219894D01*
X1062140Y1221916D01*
Y1224104D01*
X1061303Y1226125D01*
X1059755Y1227673D01*
X1058749Y1228089D01*
X1059147Y1230089D01*
X1060475D01*
X1062496Y1230927D01*
X1064043Y1232474D01*
X1064881Y1234495D01*
Y1236683D01*
X1064043Y1238705D01*
X1062496Y1240252D01*
X1062391Y1240295D01*
X1062530Y1242403D01*
X1064390Y1242902D01*
X1066670Y1244218D01*
X1068532Y1246080D01*
X1069848Y1248360D01*
X1070530Y1250903D01*
Y1253537D01*
X1069848Y1256080D01*
X1068532Y1258360D01*
X1066670Y1260222D01*
X1064390Y1261538D01*
X1064024Y1261637D01*
X1064287Y1263637D01*
X1082018D01*
X1082281Y1261637D01*
X1082055Y1261576D01*
X1079765Y1260254D01*
X1077896Y1258385D01*
X1076574Y1256095D01*
X1075890Y1253542D01*
Y1253490D01*
X1085930D01*
X1095970D01*
Y1253542D01*
X1095286Y1256095D01*
X1093964Y1258385D01*
X1092095Y1260254D01*
X1089805Y1261576D01*
X1089578Y1261637D01*
X1089842Y1263637D01*
X1094506D01*
X1102030Y1256113D01*
X1102011Y1256080D01*
X1101330Y1253537D01*
Y1250903D01*
X1102011Y1248360D01*
X1103328Y1246080D01*
X1105190Y1244218D01*
X1107470Y1242902D01*
X1110014Y1242220D01*
X1112646D01*
X1115190Y1242902D01*
X1117470Y1244218D01*
X1119332Y1246080D01*
X1120648Y1248360D01*
X1121330Y1250903D01*
Y1253537D01*
X1120648Y1256080D01*
X1119332Y1258360D01*
X1117470Y1260222D01*
X1115190Y1261538D01*
X1112646Y1262220D01*
X1110014D01*
X1107470Y1261538D01*
X1107438Y1261520D01*
X1098794Y1270164D01*
X1097553Y1270992D01*
X1096090Y1271283D01*
X1029350D01*
Y1280930D01*
X1029350D01*
Y1281930D01*
X1029350D01*
Y1293930D01*
X1026173D01*
Y1297410D01*
X1030100D01*
Y1311910D01*
Y1326410D01*
X1014600D01*
Y1321664D01*
X1011050D01*
Y1326410D01*
X995550D01*
Y1321664D01*
X992000D01*
Y1326410D01*
X976500D01*
Y1321664D01*
X972097D01*
X970104Y1322490D01*
X967916D01*
X965923Y1321664D01*
X961421D01*
Y1321880D01*
X961166Y1323162D01*
X960440Y1324250D01*
X959352Y1324976D01*
X958070Y1325231D01*
X951770D01*
X950488Y1324976D01*
X949400Y1324250D01*
X948674Y1323162D01*
X948419Y1321880D01*
Y1313802D01*
X948674Y1312520D01*
X949400Y1311432D01*
X950133Y1310943D01*
X950312Y1309950D01*
Y1309730D01*
X950133Y1308737D01*
X949400Y1308248D01*
X948674Y1307160D01*
X948419Y1305878D01*
Y1305662D01*
X944911D01*
Y1305878D01*
X944656Y1307160D01*
X943930Y1308248D01*
X943244Y1308706D01*
X943068Y1309598D01*
X943071Y1310079D01*
X943246Y1310927D01*
X943959Y1311404D01*
X944694Y1312504D01*
X944952Y1313802D01*
Y1316571D01*
X938410D01*
X931868D01*
Y1313802D01*
X932126Y1312504D01*
X932861Y1311404D01*
X933575Y1310927D01*
X933749Y1310079D01*
X933752Y1309598D01*
X933576Y1308706D01*
X932890Y1308248D01*
X932164Y1307160D01*
X931909Y1305878D01*
Y1297800D01*
X932164Y1296518D01*
X932414Y1296143D01*
X931490Y1294143D01*
X904554D01*
X894747Y1303950D01*
X895576Y1305950D01*
X908350D01*
Y1322950D01*
X893850D01*
X893850Y1322950D01*
X891850Y1322201D01*
X890493Y1322763D01*
X888600Y1323013D01*
X886707Y1322763D01*
X884944Y1322033D01*
X883429Y1320871D01*
X883350Y1320768D01*
X881350D01*
X881271Y1320871D01*
X879756Y1322033D01*
X877993Y1322763D01*
X876100Y1323013D01*
X874207Y1322763D01*
X872444Y1322033D01*
X870929Y1320871D01*
X870850Y1320768D01*
X868850D01*
X868771Y1320871D01*
X867256Y1322033D01*
X865493Y1322763D01*
X863600Y1323013D01*
X861707Y1322763D01*
X859944Y1322033D01*
X858657Y1321046D01*
X857819Y1320768D01*
X856881D01*
X856043Y1321046D01*
X854756Y1322033D01*
X852993Y1322763D01*
X851100Y1323013D01*
X849207Y1322763D01*
X847444Y1322033D01*
X846189Y1321070D01*
X845244Y1320800D01*
X843875D01*
X843799Y1320899D01*
X842277Y1322068D01*
X840503Y1322802D01*
X839870Y1322886D01*
Y1314450D01*
Y1306014D01*
X840503Y1306098D01*
X842276Y1306832D01*
X843799Y1308001D01*
X843875Y1308100D01*
X845244D01*
X846189Y1307830D01*
X847444Y1306867D01*
X849207Y1306137D01*
X851100Y1305887D01*
X852993Y1306137D01*
X854756Y1306867D01*
X856271Y1308029D01*
X856350Y1308132D01*
X858350D01*
X858429Y1308029D01*
X859944Y1306867D01*
X861707Y1306137D01*
X863600Y1305887D01*
X865493Y1306137D01*
X867256Y1306867D01*
X868771Y1308029D01*
X868850Y1308132D01*
X870850D01*
X870929Y1308029D01*
X872444Y1306867D01*
X874207Y1306137D01*
X876100Y1305887D01*
X877993Y1306137D01*
X879756Y1306867D01*
X881271Y1308029D01*
X883260Y1308121D01*
X884777Y1306748D01*
Y1304690D01*
X885068Y1303227D01*
X885896Y1301986D01*
X900266Y1287616D01*
X901507Y1286788D01*
X902970Y1286497D01*
X935676D01*
X940317Y1281856D01*
Y1260994D01*
X938469Y1260228D01*
X936461Y1262236D01*
X937080Y1263730D01*
X937080D01*
Y1270000D01*
X930040D01*
Y1271270D01*
X928770D01*
Y1278810D01*
X923000D01*
Y1278770D01*
X909540D01*
Y1277880D01*
X907877Y1276769D01*
X907874Y1276770D01*
X905686D01*
X903664Y1275933D01*
X902117Y1274386D01*
X901280Y1272364D01*
Y1270176D01*
X902117Y1268155D01*
X903664Y1266607D01*
X905686Y1265770D01*
X907874D01*
X907877Y1265771D01*
X909540Y1264660D01*
Y1263770D01*
X913066D01*
X913836Y1262616D01*
X914985Y1261468D01*
X914220Y1259620D01*
X909440D01*
Y1259026D01*
X908085Y1258120D01*
X905897D01*
X903875Y1257283D01*
X902328Y1255735D01*
X901491Y1253714D01*
Y1251526D01*
X902328Y1249504D01*
X903875Y1247957D01*
X905897Y1247120D01*
X907798D01*
X908357Y1246785D01*
X909400Y1245500D01*
Y1240390D01*
X916940D01*
Y1237850D01*
X909400D01*
Y1232436D01*
X907734Y1231273D01*
X895524Y1243484D01*
X894283Y1244312D01*
X892820Y1244603D01*
X881370D01*
X879907Y1244312D01*
X878666Y1243484D01*
X874696Y1239514D01*
X873868Y1238273D01*
X873720Y1237530D01*
X871400D01*
Y1234853D01*
X866790D01*
Y1237530D01*
X852790D01*
Y1224570D01*
X852750D01*
Y1219050D01*
X866830D01*
Y1224570D01*
X866790D01*
Y1227207D01*
X869849D01*
X871247Y1225207D01*
X871110Y1224320D01*
X871110Y1224320D01*
X871110Y1224320D01*
Y1218800D01*
X877400D01*
Y1217530D01*
X878670D01*
Y1210740D01*
X881447D01*
X882295Y1208972D01*
X881670Y1208460D01*
X876150D01*
Y1201420D01*
Y1194380D01*
X881670D01*
Y1194420D01*
X894630D01*
Y1207609D01*
X895466Y1208019D01*
X896630Y1208222D01*
X897930Y1206922D01*
X899952Y1206085D01*
X902140D01*
X902957Y1205539D01*
Y1122680D01*
X903248Y1121217D01*
X904076Y1119976D01*
X951217Y1072836D01*
Y1061707D01*
X946895Y1057385D01*
X945200Y1056590D01*
Y1056590D01*
X945200Y1056590D01*
X916200D01*
Y1026690D01*
X895283Y1005773D01*
X888655D01*
X888575Y1005845D01*
X888192Y1007773D01*
X888832Y1008039D01*
X890399Y1009241D01*
X904509Y1023351D01*
X904509Y1023351D01*
X905711Y1024918D01*
X906467Y1026742D01*
X906725Y1028700D01*
X906725Y1028700D01*
Y1077660D01*
X909160D01*
Y1082095D01*
X919480D01*
X921438Y1082353D01*
X923262Y1083109D01*
X924829Y1084311D01*
X926031Y1085878D01*
X926787Y1087702D01*
X927045Y1089660D01*
X926787Y1091618D01*
X926031Y1093442D01*
X924829Y1095009D01*
X923262Y1096211D01*
X921438Y1096967D01*
X919480Y1097225D01*
X909160D01*
Y1101660D01*
X889739D01*
X889160Y1101660D01*
X887739Y1103058D01*
Y1120140D01*
X887545Y1121115D01*
X886992Y1121942D01*
X886165Y1122495D01*
X885190Y1122689D01*
X855980D01*
X855005Y1122495D01*
X854354Y1122060D01*
X847463D01*
X845480Y1122100D01*
X845457Y1122100D01*
X840710D01*
Y1115060D01*
Y1108020D01*
X845457D01*
X845480Y1108020D01*
X847463Y1108060D01*
X853431D01*
Y1055370D01*
X853625Y1054395D01*
X854178Y1053568D01*
X855005Y1053015D01*
X855980Y1052821D01*
X885190D01*
X886165Y1053015D01*
X886278Y1053090D01*
X887200D01*
Y1053878D01*
X887545Y1054395D01*
X887739Y1055370D01*
Y1076262D01*
X889160Y1077660D01*
X889595Y1077660D01*
X891595Y1077313D01*
Y1031833D01*
X888739Y1028977D01*
X887200Y1030267D01*
X887200Y1032017D01*
Y1045090D01*
X873192D01*
X872700Y1045155D01*
X849450D01*
Y1046390D01*
X845765D01*
Y1053465D01*
Y1060540D01*
X849450D01*
Y1077540D01*
X826950D01*
Y1076845D01*
X815266D01*
X815240Y1076840D01*
X811820D01*
Y1076880D01*
X806050D01*
Y1069340D01*
Y1061800D01*
X806447D01*
X807275Y1059800D01*
X804795Y1057320D01*
X795710D01*
Y1015320D01*
X816710D01*
Y1017575D01*
X823012Y1023878D01*
X823565Y1024705D01*
X823759Y1025680D01*
Y1053834D01*
X828635Y1058710D01*
X830635Y1057882D01*
Y1046390D01*
X826950D01*
Y1029390D01*
X849450D01*
Y1030025D01*
X872700D01*
X873192Y1030090D01*
X885208D01*
X887023Y1030090D01*
X888313Y1028551D01*
X881852Y1022090D01*
X858200D01*
Y1007090D01*
X873563D01*
X874170Y1005090D01*
X873516Y1004654D01*
X867323Y998460D01*
X678860D01*
Y1012190D01*
X661780D01*
Y998460D01*
X657860D01*
X654059Y1002261D01*
Y1021080D01*
X653865Y1022056D01*
X653312Y1022882D01*
X651836Y1024359D01*
X651009Y1024912D01*
X650033Y1025106D01*
X650033Y1025106D01*
X649111Y1026294D01*
X648820Y1026904D01*
Y1028460D01*
X647263D01*
X645466Y1029673D01*
X645272Y1030649D01*
X644719Y1031476D01*
X622838Y1053357D01*
X622838Y1053382D01*
X623448Y1055357D01*
X711200D01*
X712663Y1055648D01*
X713904Y1056476D01*
X718727Y1061300D01*
X719914D01*
X721936Y1062137D01*
X723483Y1063684D01*
X724320Y1065706D01*
Y1067894D01*
X723483Y1069915D01*
X721936Y1071463D01*
X719914Y1072300D01*
X717726D01*
X715704Y1071463D01*
X714157Y1069915D01*
X713320Y1067894D01*
Y1066707D01*
X709616Y1063003D01*
X403504D01*
X375816Y1090691D01*
X376412Y1091582D01*
X376623Y1092645D01*
Y1102695D01*
X376412Y1103758D01*
X375810Y1104660D01*
X374908Y1105262D01*
X373845Y1105473D01*
X369795D01*
X368732Y1105262D01*
X368606Y1105178D01*
X368424Y1105300D01*
X367345Y1105514D01*
X366590D01*
Y1097670D01*
Y1089826D01*
X367345D01*
X368257Y1087968D01*
X368288Y1087817D01*
X369116Y1086576D01*
X374513Y1081180D01*
X374055Y1079872D01*
X373591Y1079273D01*
X369795D01*
X368732Y1079062D01*
X368570Y1078954D01*
X368408Y1079062D01*
X367345Y1079273D01*
X363295D01*
X362232Y1079062D01*
X362070Y1078954D01*
X361908Y1079062D01*
X360845Y1079273D01*
X356795D01*
X355732Y1079062D01*
X355570Y1078954D01*
X355493Y1079005D01*
X354078Y1080421D01*
X352589Y1081415D01*
X350833Y1081765D01*
X345713D01*
Y1086088D01*
X349897D01*
X351653Y1086438D01*
X353141Y1087432D01*
X355564Y1089855D01*
X355719Y1090087D01*
X355732Y1090078D01*
X356795Y1089866D01*
X360845D01*
X361908Y1090078D01*
X362034Y1090162D01*
X362216Y1090040D01*
X363295Y1089826D01*
X364050D01*
Y1097670D01*
Y1105514D01*
X363295D01*
X362216Y1105300D01*
X362034Y1105178D01*
X361908Y1105262D01*
X360845Y1105473D01*
X356795D01*
X355732Y1105262D01*
X355570Y1105154D01*
X355408Y1105262D01*
X354345Y1105473D01*
X350295D01*
X349232Y1105262D01*
X348330Y1104660D01*
X347728Y1103758D01*
X347517Y1102695D01*
Y1098150D01*
X345713Y1097676D01*
Y1097676D01*
X330713D01*
Y1083676D01*
Y1070176D01*
X345713D01*
Y1070176D01*
X347517Y1069703D01*
Y1066445D01*
X347728Y1065382D01*
X347732Y1065376D01*
Y1032841D01*
X345732Y1032013D01*
X317276Y1060468D01*
X316449Y1061020D01*
X315473Y1061214D01*
X314260Y1063012D01*
Y1064340D01*
X292582D01*
X292575Y1064375D01*
X292022Y1065202D01*
X291196Y1065754D01*
X290220Y1065948D01*
X269249D01*
Y1082860D01*
X269224Y1082984D01*
X269237Y1083110D01*
X269128Y1083468D01*
X269055Y1083835D01*
X268985Y1083940D01*
X268948Y1084061D01*
X268710Y1084351D01*
X268502Y1084662D01*
X268397Y1084733D01*
X268317Y1084830D01*
X267987Y1085007D01*
X267675Y1085215D01*
X267551Y1085239D01*
X267440Y1085299D01*
X266170Y1085684D01*
X266044Y1085697D01*
X265927Y1085745D01*
X265553D01*
X265180Y1085782D01*
X265059Y1085745D01*
X264933D01*
X264587Y1085602D01*
X264228Y1085493D01*
X264131Y1085413D01*
X264014Y1085365D01*
X263749Y1085100D01*
X263460Y1084862D01*
X263400Y1084751D01*
X263311Y1084661D01*
X262113Y1082869D01*
X260031Y1080787D01*
X257582Y1079151D01*
X254861Y1078024D01*
X251973Y1077449D01*
X249028D01*
X246139Y1078024D01*
X243418Y1079150D01*
X240969Y1080787D01*
X238887Y1082869D01*
X237251Y1085318D01*
X236124Y1088039D01*
X235549Y1090928D01*
Y1093873D01*
X236124Y1096761D01*
X237251Y1099482D01*
X238887Y1101931D01*
X240969Y1104013D01*
X243418Y1105649D01*
X246139Y1106777D01*
X249028Y1107351D01*
X251973D01*
X254861Y1106777D01*
X257582Y1105649D01*
X260031Y1104013D01*
X262113Y1101931D01*
X263311Y1100139D01*
X263400Y1100049D01*
X263460Y1099938D01*
X263749Y1099700D01*
X264014Y1099436D01*
X264131Y1099387D01*
X264228Y1099307D01*
X264587Y1099198D01*
X264933Y1099055D01*
X265059D01*
X265180Y1099018D01*
X265553Y1099055D01*
X265927D01*
X266044Y1099103D01*
X266170Y1099116D01*
X267440Y1099501D01*
X267551Y1099560D01*
X267675Y1099585D01*
X267987Y1099793D01*
X268317Y1099970D01*
X268397Y1100068D01*
X268502Y1100138D01*
X268710Y1100449D01*
X268948Y1100739D01*
X268985Y1100860D01*
X269055Y1100965D01*
X269128Y1101332D01*
X269237Y1101690D01*
X269224Y1101816D01*
X269249Y1101940D01*
Y1176398D01*
X271097Y1177163D01*
X288260Y1160000D01*
Y1148830D01*
X316260D01*
Y1178830D01*
X305090D01*
X281005Y1202915D01*
X278394Y1204919D01*
X275353Y1206178D01*
X272090Y1206608D01*
X266387D01*
X260882Y1212112D01*
X260056Y1212665D01*
X259080Y1212859D01*
X142240D01*
X141264Y1212665D01*
X140438Y1212112D01*
X130278Y1201952D01*
X129725Y1201125D01*
X129531Y1200150D01*
Y1100778D01*
X129580Y1100531D01*
Y1100280D01*
X129676Y1100048D01*
X129725Y1099802D01*
X129865Y1099593D01*
X129961Y1099361D01*
X130138Y1099184D01*
X130278Y1098975D01*
X130486Y1098836D01*
X130664Y1098658D01*
X130896Y1098562D01*
X131105Y1098423D01*
X131351Y1098374D01*
X131583Y1098278D01*
X132828Y1098030D01*
X133080D01*
X133326Y1097981D01*
X133572Y1098030D01*
X133823D01*
X134055Y1098126D01*
X134301Y1098175D01*
X134510Y1098314D01*
X134742Y1098410D01*
X134919Y1098588D01*
X135128Y1098727D01*
X135267Y1098936D01*
X135445Y1099114D01*
X135511Y1099273D01*
X137287Y1101931D01*
X139369Y1104013D01*
X141818Y1105649D01*
X144539Y1106777D01*
X147428Y1107351D01*
X150372D01*
X153261Y1106777D01*
X155982Y1105649D01*
X158431Y1104013D01*
X160513Y1101931D01*
X162149Y1099482D01*
X163277Y1096761D01*
X163851Y1093873D01*
Y1090928D01*
X163277Y1088039D01*
X162150Y1085318D01*
X160513Y1082869D01*
X158431Y1080787D01*
X155982Y1079151D01*
X153261Y1078024D01*
X150372Y1077449D01*
X147428D01*
X144539Y1078024D01*
X141818Y1079150D01*
X139369Y1080787D01*
X137287Y1082869D01*
X135511Y1085527D01*
X135445Y1085686D01*
X135267Y1085864D01*
X135128Y1086072D01*
X134919Y1086212D01*
X134742Y1086390D01*
X134510Y1086486D01*
X134301Y1086625D01*
X134055Y1086674D01*
X133823Y1086770D01*
X133572D01*
X133326Y1086819D01*
X133080Y1086770D01*
X132828D01*
X131583Y1086523D01*
X131351Y1086426D01*
X131105Y1086377D01*
X130896Y1086238D01*
X130664Y1086142D01*
X130486Y1085964D01*
X130278Y1085825D01*
X130138Y1085616D01*
X129961Y1085439D01*
X129865Y1085207D01*
X129725Y1084998D01*
X129676Y1084752D01*
X129580Y1084520D01*
Y1084269D01*
X129531Y1084023D01*
Y985520D01*
X129725Y984545D01*
X130278Y983718D01*
X182348Y931648D01*
X183174Y931095D01*
X184150Y930901D01*
X381000D01*
X381975Y931095D01*
X382802Y931648D01*
X388042Y936888D01*
X389890Y936122D01*
Y850900D01*
X365760Y826770D01*
X72390D01*
X58569Y840591D01*
Y1314406D01*
X60569Y1314886D01*
X62893Y1310325D01*
X66366Y1305544D01*
X70544Y1301366D01*
X75325Y1297893D01*
X80590Y1295210D01*
X86209Y1293384D01*
X92045Y1292460D01*
X93730D01*
Y1330000D01*
X95000D01*
Y1331270D01*
X132540D01*
Y1332955D01*
X131616Y1338791D01*
X129790Y1344410D01*
X127107Y1349675D01*
X123634Y1354456D01*
X119456Y1358634D01*
X114675Y1362107D01*
X110113Y1364431D01*
X110594Y1366431D01*
X1272629D01*
X1277620Y1361440D01*
D02*
G37*
G36*
X1051230Y1256113D02*
X1051211Y1256080D01*
X1050530Y1253537D01*
Y1250903D01*
X1051211Y1248360D01*
X1052528Y1246080D01*
X1054390Y1244218D01*
X1056670Y1242902D01*
X1057135Y1242777D01*
X1057273Y1240669D01*
X1056265Y1240252D01*
X1055426Y1239413D01*
X1053979D01*
X1052710Y1239160D01*
X1052365Y1239192D01*
X1050393Y1240109D01*
X1049873Y1241366D01*
X1048326Y1242913D01*
X1046304Y1243750D01*
X1044116D01*
X1042942Y1243264D01*
X1040942Y1244373D01*
Y1251673D01*
X1035172D01*
Y1244133D01*
X1032632D01*
Y1251673D01*
X1031288D01*
X1030177Y1253336D01*
X1030255Y1253525D01*
Y1255713D01*
X1029906Y1256556D01*
X1031209Y1258557D01*
X1048786D01*
X1051230Y1256113D01*
D02*
G37*
G36*
X1306830Y1281430D02*
X1268257Y1242857D01*
Y1238928D01*
X1263667Y1234338D01*
Y1230357D01*
X1262180Y1228870D01*
X1260707Y1228946D01*
Y1234294D01*
X1256565Y1238436D01*
Y1241440D01*
X1252220Y1245785D01*
Y1259840D01*
X1253490Y1261110D01*
X1272540D01*
X1290614Y1279184D01*
Y1288884D01*
X1294995Y1293265D01*
X1306830Y1281430D01*
D02*
G37*
G36*
X589280Y1271270D02*
Y1196340D01*
X579120Y1192530D01*
X567690D01*
X561340Y1198880D01*
X551180D01*
X521970Y1228090D01*
Y1299210D01*
X525780Y1303020D01*
X557530D01*
X589280Y1271270D01*
D02*
G37*
G36*
X647700Y1202690D02*
X662940Y1187450D01*
X711200D01*
Y1154430D01*
X605790D01*
Y1303020D01*
X647700D01*
Y1202690D01*
D02*
G37*
G36*
X1263650Y1198837D02*
Y1192530D01*
X1273810Y1182370D01*
Y1168400D01*
X1295586Y1146624D01*
X1300712D01*
X1300480Y1136650D01*
X1290320D01*
X1265703Y1161267D01*
Y1184127D01*
X1261088Y1188742D01*
Y1198854D01*
X1263667D01*
X1263650Y1198837D01*
D02*
G37*
G36*
X746244Y1122164D02*
X748229Y1120838D01*
X750570Y1120372D01*
X796596D01*
X797740Y1119229D01*
Y1116187D01*
X789440Y1107887D01*
X787592Y1108652D01*
Y1110590D01*
X787334Y1111888D01*
X786599Y1112989D01*
X785498Y1113724D01*
X784200Y1113982D01*
X781431D01*
Y1107440D01*
X778891D01*
Y1113982D01*
X776122D01*
X774824Y1113724D01*
X773724Y1112989D01*
X773247Y1112276D01*
X772399Y1112101D01*
X771918Y1112098D01*
X771026Y1112274D01*
X770568Y1112960D01*
X769480Y1113686D01*
X768198Y1113941D01*
X760120D01*
X758838Y1113686D01*
X757750Y1112960D01*
X757024Y1111872D01*
X756904Y1111268D01*
X754660D01*
Y1113920D01*
X745526D01*
X744370Y1115427D01*
Y1117138D01*
X743927Y1118791D01*
X743071Y1120273D01*
X741861Y1121484D01*
X740379Y1122339D01*
X739903Y1122467D01*
X739305Y1124698D01*
X741508Y1126900D01*
X746244Y1122164D01*
D02*
G37*
G36*
X266700Y1202690D02*
Y1101940D01*
X265430Y1101555D01*
X264093Y1103556D01*
X261656Y1105993D01*
X258789Y1107908D01*
X255605Y1109228D01*
X252224Y1109900D01*
X248776D01*
X245395Y1109228D01*
X242211Y1107908D01*
X239344Y1105993D01*
X236907Y1103556D01*
X234992Y1100689D01*
X233673Y1097505D01*
X233000Y1094124D01*
Y1090676D01*
X233673Y1087295D01*
X234992Y1084111D01*
X236907Y1081244D01*
X239344Y1078807D01*
X242211Y1076892D01*
X245395Y1075573D01*
X248776Y1074900D01*
X252224D01*
X255605Y1075573D01*
X258789Y1076892D01*
X261656Y1078807D01*
X264093Y1081244D01*
X265430Y1083245D01*
X266700Y1082860D01*
Y1063399D01*
X290220D01*
Y1055610D01*
X302260D01*
X314300D01*
Y1058179D01*
X315473Y1058665D01*
X346210Y1027930D01*
X393200D01*
X393700Y1027430D01*
Y946150D01*
X381000Y933450D01*
X184150D01*
X132080Y985520D01*
Y1084023D01*
X133326Y1084270D01*
X133392Y1084111D01*
X135307Y1081244D01*
X137744Y1078807D01*
X140611Y1076892D01*
X143795Y1075573D01*
X147176Y1074900D01*
X150624D01*
X154005Y1075573D01*
X157189Y1076892D01*
X160056Y1078807D01*
X162493Y1081244D01*
X164408Y1084111D01*
X165728Y1087295D01*
X166400Y1090676D01*
Y1094124D01*
X165728Y1097505D01*
X164408Y1100689D01*
X162493Y1103556D01*
X160056Y1105993D01*
X157189Y1107908D01*
X154005Y1109228D01*
X150624Y1109900D01*
X147176D01*
X143795Y1109228D01*
X140611Y1107908D01*
X137744Y1105993D01*
X135307Y1103556D01*
X133392Y1100689D01*
X133326Y1100530D01*
X132080Y1100778D01*
Y1200150D01*
X142240Y1210310D01*
X259080D01*
X266700Y1202690D01*
D02*
G37*
G36*
X787477Y1076105D02*
X780413D01*
X779189Y1074882D01*
Y1059771D01*
X784152Y1054808D01*
Y1052167D01*
X783545Y1051560D01*
X768350D01*
Y1055283D01*
X772726Y1059659D01*
Y1076256D01*
X779448Y1082978D01*
X787406D01*
X787477Y1076105D01*
D02*
G37*
G36*
X1062990Y1148080D02*
Y1139190D01*
X1068070Y1134110D01*
Y1117600D01*
X1076960Y1108710D01*
Y1099820D01*
X1060450D01*
X1054100Y1093470D01*
Y1078230D01*
X1055370Y1076960D01*
Y1054100D01*
X1050290Y1049020D01*
X1029970D01*
X1028700Y1050290D01*
Y1057910D01*
X1029970Y1059180D01*
X1042670D01*
X1049020Y1065530D01*
Y1079500D01*
Y1089660D01*
X1035050Y1103630D01*
Y1134110D01*
X1031240Y1137920D01*
X1009650D01*
X1002030Y1130300D01*
X993140D01*
Y1148080D01*
X994410Y1149350D01*
X1061720D01*
X1062990Y1148080D01*
D02*
G37*
G36*
X830580Y1064260D02*
X821210Y1054890D01*
Y1025680D01*
X814070Y1018540D01*
X805180Y1031504D01*
Y1054100D01*
X810260Y1059180D01*
X814070Y1062990D01*
Y1073100D01*
X815266Y1074296D01*
X830456D01*
X830580Y1074420D01*
Y1064260D01*
D02*
G37*
G36*
X642917Y1029673D02*
X642431Y1028500D01*
X641590D01*
Y1014730D01*
X648860D01*
Y1022071D01*
X650033Y1022557D01*
X651510Y1021080D01*
Y941070D01*
X650240Y939800D01*
X420370D01*
X417830Y942340D01*
Y1047750D01*
X421640Y1051560D01*
X621030D01*
X642917Y1029673D01*
D02*
G37*
G36*
X1192530Y1007110D02*
Y929640D01*
X1183640Y920750D01*
X1021422D01*
X1017270Y924902D01*
Y1007110D01*
X1022350Y1012190D01*
X1187450D01*
X1192530Y1007110D01*
D02*
G37*
G36*
X674370Y943610D02*
Y932230D01*
X676910Y929690D01*
Y922020D01*
X677464Y921466D01*
X704335D01*
X704371Y921430D01*
Y919207D01*
X702666Y917503D01*
X674166D01*
X671952Y919717D01*
Y928703D01*
X665329Y935326D01*
Y943638D01*
X674370Y943610D01*
D02*
G37*
G36*
X995966Y922306D02*
X991457Y917797D01*
Y889000D01*
X987780D01*
X987094Y889686D01*
Y904300D01*
X985338Y906056D01*
X978551D01*
X977900Y906707D01*
Y909320D01*
X978617Y910037D01*
X985737D01*
X987005Y911305D01*
Y924826D01*
X989980Y927801D01*
Y933564D01*
X995966Y933580D01*
Y922306D01*
D02*
G37*
G36*
X679450Y862330D02*
X1061720D01*
Y787398D01*
X1061570Y786190D01*
X1047800D01*
Y777650D01*
X1046530D01*
Y776380D01*
X1031490D01*
Y769620D01*
X1025533D01*
Y776380D01*
X1010493D01*
X995453D01*
Y769620D01*
X989497D01*
Y776380D01*
X974457D01*
X959417D01*
Y769620D01*
X953460D01*
Y774475D01*
X938420D01*
X923380D01*
Y769620D01*
X918210D01*
X900430Y751840D01*
X743638D01*
X743016Y752550D01*
Y760170D01*
X742754Y762159D01*
X742477Y762827D01*
X733765Y754115D01*
X731520Y756360D01*
X729275Y754115D01*
X720563Y762827D01*
X720286Y762159D01*
X720024Y760170D01*
Y752550D01*
X719402Y751840D01*
X553720D01*
X542290Y763270D01*
Y861060D01*
X581660D01*
X610870Y890270D01*
X651510D01*
X679450Y862330D01*
D02*
G37*
G36*
X494030Y857250D02*
Y820420D01*
X499110Y815340D01*
X519430D01*
X523240Y811530D01*
Y716280D01*
X520700Y713740D01*
X420370D01*
X415290Y718820D01*
Y850900D01*
X425450Y861060D01*
X490220D01*
X494030Y857250D01*
D02*
G37*
G36*
X1186180Y867410D02*
X1203960Y849630D01*
X1330960D01*
X1332230Y848360D01*
Y717550D01*
X1316990Y702310D01*
X1268730D01*
X1221740Y749300D01*
X1093470D01*
X1087120Y755650D01*
Y849630D01*
X1104900Y867410D01*
Y897890D01*
X1186180D01*
Y867410D01*
D02*
G37*
G36*
X1043940Y622300D02*
Y607060D01*
X1009650Y572770D01*
Y483870D01*
X1007110Y481330D01*
X908662D01*
X908322Y482600D01*
X908870Y482916D01*
X910274Y484320D01*
X911266Y486040D01*
X911706Y487680D01*
X904240D01*
X896774D01*
X897214Y486040D01*
X898206Y484320D01*
X899610Y482916D01*
X900158Y482600D01*
X899818Y481330D01*
X834390D01*
X788670Y435610D01*
X745490D01*
X736600Y444500D01*
X736600Y516890D01*
X783590Y563880D01*
X837065Y617355D01*
X838261Y616755D01*
X838979Y614078D01*
X839619Y612969D01*
X847385Y620735D01*
X849630Y618490D01*
X851875Y620735D01*
X859641Y612969D01*
X860281Y614078D01*
X861060Y616985D01*
Y619995D01*
X860442Y622300D01*
X861247Y623570D01*
X1042670D01*
X1043940Y622300D01*
D02*
G37*
G36*
X1087120Y741680D02*
Y695960D01*
X1090930Y692150D01*
X1102360D01*
X1105205Y694995D01*
Y724438D01*
X1106104Y725335D01*
X1183640Y725170D01*
X1184910Y723900D01*
Y641350D01*
X1173480Y629920D01*
Y600710D01*
X1172210Y599440D01*
X1080770D01*
X1047750Y632460D01*
X847090D01*
X731520Y516890D01*
X731520Y421640D01*
X671897Y362017D01*
X671830Y309487D01*
X647700Y287020D01*
X525780D01*
X514350Y298450D01*
Y444500D01*
X502920Y455930D01*
X244173D01*
X233680Y466423D01*
Y530860D01*
X245110Y542290D01*
X400050D01*
X412750Y529590D01*
Y502920D01*
X419100Y496570D01*
X436880D01*
X438518Y498208D01*
Y526148D01*
X440690Y528320D01*
X520700D01*
X535940Y513080D01*
X645160D01*
X688340Y556260D01*
Y608330D01*
X607060Y689610D01*
X562610D01*
X548640Y703580D01*
Y740410D01*
X553720Y745490D01*
X904240D01*
X918210Y759460D01*
X1069340D01*
X1087120Y741680D01*
D02*
G37*
G36*
X407670Y731520D02*
Y659266D01*
X416696Y650240D01*
X431800D01*
X438632Y657072D01*
Y689106D01*
X439420Y689610D01*
X519430D01*
X525780Y683260D01*
Y558800D01*
X519430Y552450D01*
X353060D01*
X317500Y588010D01*
Y746760D01*
X337820Y767080D01*
X372110D01*
X407670Y731520D01*
D02*
G37*
G36*
X1470660Y622059D02*
Y584836D01*
X1452248Y566585D01*
X1323812Y565622D01*
X1247140Y488950D01*
X1078230D01*
X1068070Y499110D01*
X1032510D01*
Y579120D01*
X1212850D01*
X1285240Y651510D01*
X1441209D01*
X1470660Y622059D01*
D02*
G37*
G36*
X1082682Y440047D02*
Y326255D01*
X1073927Y317500D01*
X977158D01*
X976789Y318715D01*
X977226Y319007D01*
X979663Y321444D01*
X981578Y324311D01*
X982897Y327495D01*
X983570Y330876D01*
Y334324D01*
X982897Y337705D01*
X981578Y340889D01*
X979663Y343756D01*
X977226Y346193D01*
X974359Y348108D01*
X971175Y349427D01*
X967794Y350100D01*
X964346D01*
X960965Y349427D01*
X957781Y348108D01*
X954914Y346193D01*
X952477Y343756D01*
X950562Y340889D01*
X949242Y337705D01*
X948570Y334324D01*
Y330876D01*
X949242Y327495D01*
X950562Y324311D01*
X952477Y321444D01*
X954914Y319007D01*
X955351Y318715D01*
X954982Y317500D01*
X689610D01*
X680720Y326390D01*
X680720Y358140D01*
X742953Y420373D01*
X855291Y420373D01*
X855875Y419103D01*
X854619Y416927D01*
X853840Y414020D01*
Y411010D01*
X854619Y408103D01*
X855259Y406994D01*
X863025Y414760D01*
X865270Y412515D01*
X867515Y414760D01*
X875281Y406994D01*
X875921Y408103D01*
X876700Y411010D01*
Y414020D01*
X875921Y416927D01*
X874665Y419103D01*
X875249Y420373D01*
X955264Y420373D01*
X957781Y418692D01*
X960965Y417373D01*
X964346Y416700D01*
X967794D01*
X971175Y417373D01*
X974359Y418692D01*
X976876Y420373D01*
X1029973D01*
X1058844Y449244D01*
X1073486D01*
X1082682Y440047D01*
D02*
G37*
G36*
X222250Y570230D02*
Y463550D01*
X237490Y448310D01*
X400050D01*
X405130Y443230D01*
Y369570D01*
X396240Y360680D01*
X313690D01*
X299720Y346710D01*
Y304800D01*
X284480Y289560D01*
X271882D01*
X271542Y290830D01*
X272914Y291622D01*
X274798Y293506D01*
X276130Y295814D01*
X276820Y298388D01*
Y301052D01*
X276130Y303626D01*
X274798Y305934D01*
X272914Y307818D01*
X270606Y309150D01*
X268032Y309840D01*
X265368D01*
X262794Y309150D01*
X260486Y307818D01*
X258602Y305934D01*
X257270Y303626D01*
X256580Y301052D01*
Y298388D01*
X257270Y295814D01*
X258602Y293506D01*
X260486Y291622D01*
X261858Y290830D01*
X261518Y289560D01*
X224337D01*
X223974Y290830D01*
X225846Y292702D01*
X227351Y295308D01*
X228130Y298215D01*
Y301225D01*
X227351Y304132D01*
X226711Y305241D01*
X218945Y297475D01*
X216700Y299720D01*
X214455Y297475D01*
X206689Y305241D01*
X206049Y304132D01*
X205270Y301225D01*
Y298215D01*
X206049Y295308D01*
X207554Y292702D01*
X209426Y290830D01*
X209063Y289560D01*
X168910D01*
X97790Y360680D01*
X97790Y614680D01*
X153670Y638810D01*
X222250Y570230D01*
D02*
G37*
G36*
X509270Y441960D02*
Y298450D01*
X497840Y287020D01*
X322580D01*
X316230Y293370D01*
Y337820D01*
X327660Y349250D01*
X398780D01*
X420370Y370840D01*
X420370Y425450D01*
X444500Y449580D01*
X501650D01*
X509270Y441960D01*
D02*
G37*
%LPC*%
G36*
X234931Y1355090D02*
X232429D01*
X229975Y1354602D01*
X227664Y1353645D01*
X225584Y1352255D01*
X223815Y1350486D01*
X222425Y1348406D01*
X221468Y1346094D01*
X220980Y1343641D01*
Y1341139D01*
X221468Y1338685D01*
X222425Y1336374D01*
X223815Y1334294D01*
X225584Y1332525D01*
X227664Y1331135D01*
X229975Y1330178D01*
X232429Y1329690D01*
X234931D01*
X237384Y1330178D01*
X239696Y1331135D01*
X241776Y1332525D01*
X243545Y1334294D01*
X244935Y1336374D01*
X245892Y1338685D01*
X246380Y1341139D01*
Y1343641D01*
X245892Y1346094D01*
X244935Y1348406D01*
X243545Y1350486D01*
X241776Y1352255D01*
X239696Y1353645D01*
X237384Y1354602D01*
X234931Y1355090D01*
D02*
G37*
G36*
X941560Y1325272D02*
X939680D01*
Y1319111D01*
X944952D01*
Y1321880D01*
X944694Y1323178D01*
X943959Y1324279D01*
X942858Y1325014D01*
X941560Y1325272D01*
D02*
G37*
G36*
X937140D02*
X935260D01*
X933962Y1325014D01*
X932861Y1324279D01*
X932126Y1323178D01*
X931868Y1321880D01*
Y1319111D01*
X937140D01*
Y1325272D01*
D02*
G37*
G36*
X760060Y1324490D02*
X757685D01*
X754040Y1320845D01*
Y1315720D01*
X760060D01*
Y1324490D01*
D02*
G37*
G36*
X837330Y1322886D02*
X836697Y1322802D01*
X834924Y1322068D01*
X833401Y1320899D01*
X832232Y1319377D01*
X831498Y1317603D01*
X831250Y1315720D01*
X837330D01*
Y1322886D01*
D02*
G37*
G36*
X1145510Y1323180D02*
X1134740D01*
Y1311910D01*
X1145510D01*
Y1323180D01*
D02*
G37*
G36*
X1132200D02*
X1121430D01*
Y1311910D01*
X1132200D01*
Y1323180D01*
D02*
G37*
G36*
X837330Y1313180D02*
X831250D01*
X831498Y1311297D01*
X832232Y1309524D01*
X833401Y1308001D01*
X834923Y1306832D01*
X836697Y1306098D01*
X837330Y1306014D01*
Y1313180D01*
D02*
G37*
G36*
X760060D02*
X754040D01*
Y1308055D01*
X757685Y1304410D01*
X760060D01*
Y1313180D01*
D02*
G37*
G36*
X1145510Y1309370D02*
X1134740D01*
Y1298100D01*
X1145510D01*
Y1309370D01*
D02*
G37*
G36*
X1132200D02*
X1121430D01*
Y1298100D01*
X1132200D01*
Y1309370D01*
D02*
G37*
G36*
X132540Y1328730D02*
X96270D01*
Y1292460D01*
X97954D01*
X103791Y1293384D01*
X109410Y1295210D01*
X114675Y1297893D01*
X119456Y1301366D01*
X123634Y1305544D01*
X127107Y1310325D01*
X129790Y1315590D01*
X131616Y1321209D01*
X132540Y1327046D01*
Y1328730D01*
D02*
G37*
G36*
X1109090Y1289910D02*
X1103320D01*
Y1283640D01*
X1109090D01*
Y1289910D01*
D02*
G37*
G36*
X1272400Y1287730D02*
X1262380D01*
Y1280460D01*
X1272400D01*
Y1287730D01*
D02*
G37*
G36*
X1109090Y1281100D02*
X1103320D01*
Y1274830D01*
X1109090D01*
Y1281100D01*
D02*
G37*
G36*
X1065470Y1323140D02*
X1041470D01*
Y1298140D01*
X1047897D01*
Y1290120D01*
X1044720D01*
Y1274620D01*
X1072220D01*
Y1276428D01*
X1072776Y1276888D01*
X1074220Y1277521D01*
X1075791Y1276870D01*
X1077979D01*
X1079550Y1277521D01*
X1080993Y1276888D01*
X1081550Y1276428D01*
Y1274870D01*
X1095010D01*
Y1274830D01*
X1100780D01*
Y1282370D01*
Y1289910D01*
X1095010D01*
Y1289870D01*
X1081550D01*
Y1288312D01*
X1080993Y1287852D01*
X1079550Y1287219D01*
X1077979Y1287870D01*
X1075791D01*
X1074220Y1287219D01*
X1072776Y1287852D01*
X1072220Y1288312D01*
Y1290120D01*
X1055543D01*
Y1298140D01*
X1065470D01*
Y1323140D01*
D02*
G37*
G36*
X937080Y1278810D02*
X931310D01*
Y1272540D01*
X937080D01*
Y1278810D01*
D02*
G37*
G36*
X1272400Y1277920D02*
X1262380D01*
Y1270650D01*
X1272400D01*
Y1277920D01*
D02*
G37*
G36*
X1207660Y1272670D02*
X1198890D01*
Y1263650D01*
X1207660D01*
Y1272670D01*
D02*
G37*
G36*
X1189590Y1252140D02*
X1183820D01*
Y1245870D01*
X1189590D01*
Y1252140D01*
D02*
G37*
G36*
X1095970Y1250950D02*
X1087200D01*
Y1242180D01*
X1087252D01*
X1089805Y1242864D01*
X1092095Y1244186D01*
X1093964Y1246055D01*
X1095286Y1248345D01*
X1095970Y1250898D01*
Y1250950D01*
D02*
G37*
G36*
X1084660D02*
X1075890D01*
Y1250898D01*
X1076574Y1248345D01*
X1077896Y1246055D01*
X1079765Y1244186D01*
X1082055Y1242864D01*
X1084608Y1242180D01*
X1084660D01*
Y1250950D01*
D02*
G37*
G36*
X1142730Y1262298D02*
X1130730D01*
X1129169Y1261988D01*
X1127846Y1261104D01*
X1126962Y1259781D01*
X1126652Y1258220D01*
Y1246220D01*
X1126962Y1244659D01*
X1127846Y1243336D01*
X1129169Y1242452D01*
X1130730Y1242142D01*
X1142730D01*
X1144291Y1242452D01*
X1145614Y1243336D01*
X1146498Y1244659D01*
X1146808Y1246220D01*
Y1258220D01*
X1146498Y1259781D01*
X1145614Y1261104D01*
X1144291Y1261988D01*
X1142730Y1262298D01*
D02*
G37*
G36*
X482290Y1239170D02*
X477520D01*
Y1231900D01*
X482290D01*
Y1239170D01*
D02*
G37*
G36*
X440820Y1265570D02*
X425320D01*
Y1251570D01*
Y1238070D01*
X428992D01*
Y1230705D01*
X427283Y1229039D01*
X426350Y1229108D01*
Y1232160D01*
X411850D01*
Y1218183D01*
X411810Y1216200D01*
X411810Y1215177D01*
Y1209930D01*
X419100D01*
X426390D01*
Y1215176D01*
X426390Y1216199D01*
X426350Y1218183D01*
Y1220582D01*
X431657D01*
X431904Y1219340D01*
X432630Y1218252D01*
X433316Y1217794D01*
X433492Y1216902D01*
X433489Y1216421D01*
X433314Y1215573D01*
X432602Y1215097D01*
X431866Y1213996D01*
X431608Y1212698D01*
Y1209929D01*
X438150D01*
X444692D01*
Y1212698D01*
X444434Y1213996D01*
X443699Y1215097D01*
X442986Y1215573D01*
X442811Y1216421D01*
X442808Y1216902D01*
X442984Y1217794D01*
X443670Y1218252D01*
X444396Y1219340D01*
X444651Y1220622D01*
Y1225395D01*
X445808Y1226552D01*
X451250D01*
Y1222130D01*
X462206D01*
X462511Y1220594D01*
X463506Y1219106D01*
X466266Y1216346D01*
X465820Y1215270D01*
X465820D01*
Y1209103D01*
X464056Y1208160D01*
X463820Y1208318D01*
Y1215270D01*
X450820D01*
Y1200270D01*
X456941D01*
X461721Y1195490D01*
X460893Y1193490D01*
X455880D01*
Y1183720D01*
X462900D01*
Y1191483D01*
X464900Y1192311D01*
X471350Y1185861D01*
X471161Y1184910D01*
Y1168550D01*
X471090D01*
Y1145550D01*
X471161D01*
Y1104200D01*
X471090D01*
Y1080200D01*
X471161D01*
Y1079500D01*
X471355Y1078524D01*
X471908Y1077698D01*
X473665Y1075940D01*
X474492Y1075387D01*
X475468Y1075193D01*
X503040D01*
Y1074490D01*
X524040D01*
Y1075863D01*
X524089Y1075896D01*
X524642Y1076723D01*
X524836Y1077699D01*
Y1117283D01*
X524642Y1118259D01*
X524089Y1119086D01*
X509279Y1133896D01*
Y1150195D01*
X511279Y1151517D01*
X511910Y1151392D01*
X515462D01*
Y1147960D01*
X513550D01*
Y1132960D01*
X525527D01*
X527510Y1132920D01*
X528533Y1132920D01*
X532780D01*
Y1140460D01*
Y1148000D01*
X528533D01*
X527510Y1148000D01*
X526638Y1147982D01*
X524883Y1149392D01*
X525053Y1151392D01*
X530910D01*
X532471Y1151702D01*
X533794Y1152586D01*
X534678Y1153909D01*
X534988Y1155470D01*
Y1156138D01*
X535370Y1157980D01*
X536988Y1157980D01*
X548640D01*
Y1176020D01*
Y1194060D01*
X537029D01*
X535370Y1194060D01*
X535029Y1195919D01*
Y1196570D01*
X534716Y1198146D01*
X533823Y1199483D01*
X532486Y1200376D01*
X530910Y1200689D01*
X522680D01*
Y1195070D01*
X521410D01*
Y1193800D01*
X507791D01*
Y1193570D01*
X508104Y1191994D01*
X508997Y1190657D01*
X510334Y1189764D01*
X510561Y1189719D01*
X510561Y1187680D01*
X510349Y1187638D01*
X509332Y1186958D01*
X507360D01*
X501158Y1193160D01*
Y1201628D01*
X502090Y1202250D01*
X502816Y1203338D01*
X503071Y1204620D01*
Y1212698D01*
X502816Y1213980D01*
X502090Y1215068D01*
X501404Y1215526D01*
X501228Y1216418D01*
X501231Y1216899D01*
X501406Y1217747D01*
X502118Y1218223D01*
X502854Y1219324D01*
X503112Y1220622D01*
Y1223391D01*
X496570D01*
X490028D01*
Y1220622D01*
X490286Y1219324D01*
X491021Y1218223D01*
X491734Y1217747D01*
X491909Y1216899D01*
X491912Y1216418D01*
X491736Y1215526D01*
X491050Y1215068D01*
X490324Y1213980D01*
X490178Y1213247D01*
X478820D01*
Y1215270D01*
X477028D01*
Y1216660D01*
X476679Y1218416D01*
X475684Y1219904D01*
X475346Y1220242D01*
X476112Y1222090D01*
X482290D01*
Y1229360D01*
X476250D01*
Y1230630D01*
X474980D01*
Y1239170D01*
X471338D01*
Y1245130D01*
X472750D01*
Y1262130D01*
X460750D01*
Y1245130D01*
X462162D01*
Y1239130D01*
X451250D01*
Y1234708D01*
X444119D01*
X442558Y1234398D01*
X441235Y1233514D01*
X441235Y1233514D01*
X439773Y1232051D01*
X437148D01*
Y1238070D01*
X440820D01*
Y1254492D01*
X444610D01*
X445195Y1253907D01*
X447216Y1253070D01*
X449404D01*
X451426Y1253907D01*
X452973Y1255454D01*
X453810Y1257476D01*
Y1259664D01*
X452973Y1261685D01*
X451426Y1263233D01*
X449404Y1264070D01*
X447216D01*
X445195Y1263233D01*
X444610Y1262648D01*
X440820D01*
Y1265570D01*
D02*
G37*
G36*
X499720Y1232092D02*
X497840D01*
Y1225931D01*
X503112D01*
Y1228700D01*
X502854Y1229998D01*
X502118Y1231098D01*
X501018Y1231834D01*
X499720Y1232092D01*
D02*
G37*
G36*
X495300D02*
X493420D01*
X492122Y1231834D01*
X491021Y1231098D01*
X490286Y1229998D01*
X490028Y1228700D01*
Y1225931D01*
X495300D01*
Y1232092D01*
D02*
G37*
G36*
X1188840Y1229360D02*
X1183070D01*
Y1222590D01*
X1188840D01*
Y1229360D01*
D02*
G37*
G36*
X866830Y1216510D02*
X861060D01*
Y1210990D01*
X866830D01*
Y1216510D01*
D02*
G37*
G36*
X858520D02*
X852750D01*
Y1210990D01*
X858520D01*
Y1216510D01*
D02*
G37*
G36*
X876130Y1216260D02*
X871110D01*
Y1210740D01*
X876130D01*
Y1216260D01*
D02*
G37*
G36*
X835600Y1213539D02*
X830370D01*
Y1210200D01*
X839156D01*
X838935Y1211311D01*
X838152Y1212482D01*
X836981Y1213265D01*
X835600Y1213539D01*
D02*
G37*
G36*
X827830D02*
X822600D01*
X821219Y1213265D01*
X820048Y1212482D01*
X819265Y1211311D01*
X819044Y1210200D01*
X827830D01*
Y1213539D01*
D02*
G37*
G36*
X873610Y1208460D02*
X868090D01*
Y1202690D01*
X873610D01*
Y1208460D01*
D02*
G37*
G36*
X444692Y1207389D02*
X439420D01*
Y1201228D01*
X441300D01*
X442598Y1201486D01*
X443699Y1202222D01*
X444434Y1203322D01*
X444692Y1204620D01*
Y1207389D01*
D02*
G37*
G36*
X436880D02*
X431608D01*
Y1204620D01*
X431866Y1203322D01*
X432602Y1202222D01*
X433702Y1201486D01*
X435000Y1201228D01*
X436880D01*
Y1207389D01*
D02*
G37*
G36*
X426390Y1207390D02*
X420370D01*
Y1201120D01*
X426390D01*
Y1207390D01*
D02*
G37*
G36*
X417830D02*
X411810D01*
Y1201120D01*
X417830D01*
Y1207390D01*
D02*
G37*
G36*
X520140Y1200689D02*
X511910D01*
X510334Y1200376D01*
X508997Y1199483D01*
X508104Y1198146D01*
X507791Y1196570D01*
Y1196340D01*
X520140D01*
Y1200689D01*
D02*
G37*
G36*
X873610Y1200150D02*
X868090D01*
Y1194380D01*
X873610D01*
Y1200150D01*
D02*
G37*
G36*
X453340Y1193490D02*
X446320D01*
Y1183720D01*
X453340D01*
Y1193490D01*
D02*
G37*
G36*
X764975Y1324490D02*
X762600D01*
Y1314450D01*
Y1304410D01*
X764975D01*
X767610Y1307045D01*
X770205Y1304450D01*
X777455D01*
X780080Y1307075D01*
X782507Y1304648D01*
Y1302264D01*
X743427Y1263184D01*
X742598Y1261943D01*
X742307Y1260480D01*
Y1156330D01*
X742598Y1154867D01*
X743427Y1153626D01*
X758026Y1139026D01*
X759267Y1138198D01*
X760730Y1137907D01*
X799465D01*
X800928Y1138198D01*
X802169Y1139026D01*
X810424Y1147281D01*
X811252Y1148522D01*
X811543Y1149985D01*
Y1163278D01*
X817135Y1168870D01*
X818875Y1168222D01*
X819619Y1166268D01*
X819303Y1165796D01*
X819031Y1164430D01*
Y1162430D01*
X819303Y1161064D01*
X820077Y1159907D01*
X821234Y1159133D01*
X822600Y1158861D01*
X835600D01*
X836966Y1159133D01*
X837510Y1159497D01*
X849485D01*
X850324Y1158657D01*
X852346Y1157820D01*
X854534D01*
X856555Y1158657D01*
X858103Y1160204D01*
X858940Y1162226D01*
Y1164414D01*
X858103Y1166435D01*
X858980Y1168387D01*
X887416D01*
X889850Y1165953D01*
Y1164766D01*
X890687Y1162745D01*
X892234Y1161197D01*
X894256Y1160360D01*
X896444D01*
X898465Y1161197D01*
X900013Y1162745D01*
X900850Y1164766D01*
Y1166954D01*
X900013Y1168976D01*
X898465Y1170523D01*
X896444Y1171360D01*
X895257D01*
X891704Y1174914D01*
X890463Y1175742D01*
X889000Y1176033D01*
X852070D01*
X851242Y1178033D01*
X851473Y1178264D01*
X852310Y1180286D01*
Y1180542D01*
X853440Y1182357D01*
X871075D01*
X871915Y1181517D01*
X873936Y1180680D01*
X876124D01*
X878146Y1181517D01*
X879693Y1183064D01*
X880530Y1185086D01*
Y1187274D01*
X879693Y1189296D01*
X878146Y1190843D01*
X876124Y1191680D01*
X873936D01*
X871915Y1190843D01*
X871075Y1190003D01*
X855024D01*
X850913Y1194114D01*
Y1196340D01*
X850622Y1197803D01*
X849794Y1199044D01*
X843704Y1205134D01*
X842463Y1205962D01*
X841000Y1206253D01*
X840915D01*
X839484Y1207660D01*
X829100D01*
X819044D01*
X819265Y1206549D01*
X819870Y1205644D01*
X819303Y1204796D01*
X819031Y1203430D01*
Y1201430D01*
X817326Y1199753D01*
X814794D01*
X802453Y1212094D01*
Y1230790D01*
X805880D01*
Y1250790D01*
X791380D01*
Y1250790D01*
X789755Y1250790D01*
X789380Y1250790D01*
X782505D01*
X779880Y1248165D01*
X777255Y1250790D01*
X770005D01*
X767410Y1248195D01*
X764775Y1250830D01*
X762400D01*
Y1240790D01*
Y1230750D01*
X764775D01*
X767410Y1233385D01*
X770005Y1230790D01*
X777255D01*
X779880Y1233415D01*
X782307Y1230988D01*
Y1212786D01*
X780307Y1212179D01*
X780123Y1212453D01*
X778966Y1213227D01*
X777600Y1213499D01*
X764600D01*
X764553Y1213537D01*
Y1216515D01*
X765393Y1217355D01*
X766230Y1219376D01*
Y1221564D01*
X765393Y1223586D01*
X763846Y1225133D01*
X761824Y1225970D01*
X759636D01*
X757615Y1225133D01*
X755663Y1226010D01*
Y1229995D01*
X757485Y1230750D01*
X759860D01*
Y1240790D01*
Y1250830D01*
X757485D01*
X755663Y1251584D01*
Y1256986D01*
X801534Y1302856D01*
X802362Y1304097D01*
X802433Y1304450D01*
X806080D01*
Y1324450D01*
X791580D01*
Y1324450D01*
X789955Y1324450D01*
X789580Y1324450D01*
X782705D01*
X780080Y1321825D01*
X777455Y1324450D01*
X770205D01*
X767610Y1321855D01*
X764975Y1324490D01*
D02*
G37*
G36*
X462900Y1181180D02*
X455880D01*
Y1171410D01*
X462900D01*
Y1181180D01*
D02*
G37*
G36*
X453340D02*
X446320D01*
Y1171410D01*
X453340D01*
Y1181180D01*
D02*
G37*
G36*
X461130Y1168590D02*
X453360D01*
Y1158320D01*
X461130D01*
Y1168590D01*
D02*
G37*
G36*
X450820D02*
X443050D01*
Y1158320D01*
X450820D01*
Y1168590D01*
D02*
G37*
G36*
X461130Y1155780D02*
X453360D01*
Y1145510D01*
X461130D01*
Y1155780D01*
D02*
G37*
G36*
X450820D02*
X443050D01*
Y1145510D01*
X450820D01*
Y1155780D01*
D02*
G37*
G36*
X535320Y1148000D02*
Y1141730D01*
X540590D01*
Y1148000D01*
X535320D01*
D02*
G37*
G36*
X557149Y1147002D02*
X554380D01*
X553082Y1146744D01*
X551982Y1146009D01*
X551246Y1144908D01*
X550988Y1143610D01*
Y1141730D01*
X557149D01*
Y1147002D01*
D02*
G37*
G36*
Y1139190D02*
X550988D01*
Y1137310D01*
X551246Y1136012D01*
X551982Y1134911D01*
X553082Y1134176D01*
X554380Y1133918D01*
X557149D01*
Y1139190D01*
D02*
G37*
G36*
X540590D02*
X535320D01*
Y1132920D01*
X540590D01*
Y1139190D01*
D02*
G37*
G36*
X459630Y1141530D02*
X452360D01*
Y1127760D01*
X459630D01*
Y1141530D01*
D02*
G37*
G36*
X449820D02*
X442550D01*
Y1127760D01*
X449820D01*
Y1141530D01*
D02*
G37*
G36*
X316300Y1134670D02*
X303530D01*
Y1120900D01*
X316300D01*
Y1134670D01*
D02*
G37*
G36*
X300990D02*
X288220D01*
Y1120900D01*
X300990D01*
Y1134670D01*
D02*
G37*
G36*
X674116Y1131316D02*
X657860D01*
Y1119632D01*
X674116D01*
Y1131316D01*
D02*
G37*
G36*
X655320D02*
X639064D01*
Y1119632D01*
X655320D01*
Y1131316D01*
D02*
G37*
G36*
X633476D02*
X617220D01*
Y1119632D01*
X633476D01*
Y1131316D01*
D02*
G37*
G36*
X614680D02*
X598424D01*
Y1119632D01*
X614680D01*
Y1131316D01*
D02*
G37*
G36*
X695960D02*
X679704D01*
Y1119632D01*
X695960D01*
Y1131316D01*
D02*
G37*
G36*
X838170Y1122100D02*
X833400D01*
Y1116330D01*
X838170D01*
Y1122100D01*
D02*
G37*
G36*
X459630Y1125220D02*
X452360D01*
Y1111450D01*
X459630D01*
Y1125220D01*
D02*
G37*
G36*
X449820D02*
X442550D01*
Y1111450D01*
X449820D01*
Y1125220D01*
D02*
G37*
G36*
X838170Y1113790D02*
X833400D01*
Y1108020D01*
X838170D01*
Y1113790D01*
D02*
G37*
G36*
X316300Y1118360D02*
X303530D01*
Y1104590D01*
X316300D01*
Y1118360D01*
D02*
G37*
G36*
X300990D02*
X288220D01*
Y1104590D01*
X300990D01*
Y1118360D01*
D02*
G37*
G36*
X708060Y1108050D02*
X699290D01*
Y1097280D01*
X708060D01*
Y1108050D01*
D02*
G37*
G36*
X696750D02*
X687980D01*
Y1097280D01*
X696750D01*
Y1108050D01*
D02*
G37*
G36*
X849490Y1103580D02*
X839470D01*
Y1096310D01*
X849490D01*
Y1103580D01*
D02*
G37*
G36*
X836930D02*
X826910D01*
Y1096310D01*
X836930D01*
Y1103580D01*
D02*
G37*
G36*
X461130Y1104240D02*
X452360D01*
Y1093470D01*
X461130D01*
Y1104240D01*
D02*
G37*
G36*
X449820D02*
X441050D01*
Y1093470D01*
X449820D01*
Y1104240D01*
D02*
G37*
G36*
X820280Y1099170D02*
X810260D01*
Y1091900D01*
X820280D01*
Y1099170D01*
D02*
G37*
G36*
X849490Y1093770D02*
X839470D01*
Y1086500D01*
X849490D01*
Y1093770D01*
D02*
G37*
G36*
X836930D02*
X826910D01*
Y1086500D01*
X836930D01*
Y1093770D01*
D02*
G37*
G36*
X314300Y1094380D02*
X303530D01*
Y1085610D01*
X314300D01*
Y1094380D01*
D02*
G37*
G36*
X300990D02*
X290220D01*
Y1085610D01*
X300990D01*
Y1094380D01*
D02*
G37*
G36*
X708060Y1094740D02*
X699290D01*
Y1083970D01*
X708060D01*
Y1094740D01*
D02*
G37*
G36*
X696750D02*
X687980D01*
Y1083970D01*
X696750D01*
Y1094740D01*
D02*
G37*
G36*
X820280Y1089360D02*
X810260D01*
Y1082090D01*
X820280D01*
Y1089360D01*
D02*
G37*
G36*
X807720D02*
X797700D01*
Y1082090D01*
X807720D01*
Y1089360D01*
D02*
G37*
G36*
X461130Y1090930D02*
X452360D01*
Y1080160D01*
X461130D01*
Y1090930D01*
D02*
G37*
G36*
X449820D02*
X441050D01*
Y1080160D01*
X449820D01*
Y1090930D01*
D02*
G37*
G36*
X314300Y1083070D02*
X303530D01*
Y1074300D01*
X314300D01*
Y1083070D01*
D02*
G37*
G36*
X300990D02*
X290220D01*
Y1074300D01*
X300990D01*
Y1083070D01*
D02*
G37*
G36*
X803510Y1076880D02*
X797740D01*
Y1070610D01*
X803510D01*
Y1076880D01*
D02*
G37*
G36*
X733910Y1073150D02*
X729640D01*
Y1067880D01*
X733910D01*
Y1073150D01*
D02*
G37*
G36*
X645740Y1110010D02*
X624240D01*
Y1082010D01*
X645740D01*
Y1087437D01*
X658020D01*
Y1084010D01*
X659447D01*
Y1074420D01*
X659739Y1072201D01*
X660595Y1070133D01*
X661958Y1068358D01*
X663733Y1066995D01*
X665801Y1066139D01*
X668020Y1065847D01*
X670239Y1066139D01*
X672307Y1066995D01*
X674082Y1068358D01*
X675445Y1070133D01*
X676301Y1072201D01*
X676593Y1074420D01*
Y1084010D01*
X678020D01*
Y1108010D01*
X658020D01*
Y1104583D01*
X645740D01*
Y1110010D01*
D02*
G37*
G36*
X794510Y1068730D02*
X788240D01*
Y1063960D01*
X794510D01*
Y1068730D01*
D02*
G37*
G36*
X803510Y1068070D02*
X797740D01*
Y1061800D01*
X803510D01*
Y1068070D01*
D02*
G37*
G36*
X678860Y1028500D02*
X671590D01*
Y1014730D01*
X678860D01*
Y1028500D01*
D02*
G37*
G36*
X669050D02*
X661780D01*
Y1014730D01*
X669050D01*
Y1028500D01*
D02*
G37*
G36*
X849490Y1020430D02*
X839470D01*
Y1013160D01*
X849490D01*
Y1020430D01*
D02*
G37*
G36*
X836930D02*
X826910D01*
Y1013160D01*
X836930D01*
Y1020430D01*
D02*
G37*
G36*
X849490Y1010620D02*
X839470D01*
Y1003350D01*
X849490D01*
Y1010620D01*
D02*
G37*
G36*
X836930D02*
X826910D01*
Y1003350D01*
X836930D01*
Y1010620D01*
D02*
G37*
G36*
X352954Y907540D02*
X351270D01*
Y871270D01*
X387540D01*
Y872954D01*
X386616Y878791D01*
X384790Y884410D01*
X382107Y889675D01*
X378634Y894456D01*
X374456Y898634D01*
X369675Y902107D01*
X364410Y904790D01*
X358791Y906616D01*
X352954Y907540D01*
D02*
G37*
G36*
X348730D02*
X347046D01*
X341209Y906616D01*
X335590Y904790D01*
X330325Y902107D01*
X325544Y898634D01*
X321366Y894456D01*
X317893Y889675D01*
X315210Y884410D01*
X313384Y878791D01*
X312460Y872954D01*
Y871270D01*
X348730D01*
Y907540D01*
D02*
G37*
G36*
X387540Y868730D02*
X351270D01*
Y832460D01*
X352954D01*
X358791Y833384D01*
X364410Y835210D01*
X369675Y837893D01*
X374456Y841366D01*
X378634Y845544D01*
X382107Y850325D01*
X384790Y855590D01*
X386616Y861209D01*
X387540Y867046D01*
Y868730D01*
D02*
G37*
G36*
X348730D02*
X312460D01*
Y867046D01*
X313384Y861209D01*
X315210Y855590D01*
X317893Y850325D01*
X321366Y845544D01*
X325544Y841366D01*
X330325Y837893D01*
X335590Y835210D01*
X341209Y833384D01*
X347046Y832460D01*
X348730D01*
Y868730D01*
D02*
G37*
%LPD*%
G36*
X507564Y1172646D02*
X522042D01*
X522026Y1166666D01*
X510076D01*
X506730Y1163320D01*
Y1132840D01*
X522287Y1117283D01*
Y1077699D01*
X522243Y1077742D01*
X475468D01*
X473710Y1079500D01*
Y1184910D01*
X479761Y1190961D01*
X489249D01*
X507564Y1172646D01*
D02*
G37*
G36*
X798254Y1191677D02*
X800276Y1190840D01*
X801463D01*
X805576Y1186726D01*
X806817Y1185898D01*
X808280Y1185607D01*
X817326D01*
X819031Y1183930D01*
Y1181930D01*
X817825Y1179962D01*
X816585Y1179134D01*
X805016Y1167565D01*
X804188Y1166325D01*
X803897Y1164862D01*
Y1151569D01*
X797881Y1145553D01*
X791030D01*
Y1149350D01*
X783990D01*
Y1150620D01*
X782720D01*
Y1158160D01*
X781109D01*
X780582Y1159095D01*
X780293Y1160160D01*
X780897Y1161064D01*
X781169Y1162430D01*
Y1162766D01*
X783006Y1164170D01*
X785194D01*
X787215Y1165007D01*
X788763Y1166554D01*
X789600Y1168576D01*
Y1170764D01*
X788763Y1172785D01*
X787215Y1174333D01*
X785194Y1175170D01*
X783104D01*
X782985Y1175186D01*
X781169Y1176574D01*
Y1177430D01*
X780897Y1178796D01*
X780306Y1179680D01*
X780897Y1180564D01*
X781169Y1181930D01*
Y1183930D01*
X780897Y1185296D01*
X780306Y1186180D01*
X780897Y1187064D01*
X781169Y1188430D01*
Y1190276D01*
X782662Y1191653D01*
X783529Y1191547D01*
X784518Y1191249D01*
X785277Y1189415D01*
X786824Y1187867D01*
X788846Y1187030D01*
X791034D01*
X793055Y1187867D01*
X794603Y1189415D01*
X795440Y1191436D01*
Y1191663D01*
X797440Y1192492D01*
X798254Y1191677D01*
D02*
G37*
%LPC*%
G36*
X791030Y1158160D02*
X785260D01*
Y1151890D01*
X791030D01*
Y1158160D01*
D02*
G37*
G36*
X314300Y1053070D02*
X303530D01*
Y1044300D01*
X314300D01*
Y1053070D01*
D02*
G37*
G36*
X300990D02*
X290220D01*
Y1044300D01*
X300990D01*
Y1053070D01*
D02*
G37*
G36*
X639050Y1028500D02*
X631780D01*
Y1014730D01*
X639050D01*
Y1028500D01*
D02*
G37*
G36*
X648860Y1012190D02*
X641590D01*
Y998420D01*
X648860D01*
Y1012190D01*
D02*
G37*
G36*
X639050D02*
X631780D01*
Y998420D01*
X639050D01*
Y1012190D01*
D02*
G37*
G36*
X1075690Y1008226D02*
Y1002030D01*
X1081886D01*
X1081446Y1003670D01*
X1080453Y1005390D01*
X1079050Y1006794D01*
X1077330Y1007786D01*
X1075690Y1008226D01*
D02*
G37*
G36*
X1073150D02*
X1071510Y1007786D01*
X1069790Y1006794D01*
X1068387Y1005390D01*
X1067394Y1003670D01*
X1066954Y1002030D01*
X1073150D01*
Y1008226D01*
D02*
G37*
G36*
X1081886Y999490D02*
X1075690D01*
Y993294D01*
X1077330Y993734D01*
X1079050Y994726D01*
X1080453Y996130D01*
X1081446Y997850D01*
X1081886Y999490D01*
D02*
G37*
G36*
X1073150D02*
X1066954D01*
X1067394Y997850D01*
X1068387Y996130D01*
X1069790Y994726D01*
X1071510Y993734D01*
X1073150Y993294D01*
Y999490D01*
D02*
G37*
G36*
X900150Y844616D02*
X892530D01*
X890541Y844354D01*
X889873Y844077D01*
X896340Y837610D01*
X902807Y844077D01*
X902139Y844354D01*
X900150Y844616D01*
D02*
G37*
G36*
X986230D02*
X978610D01*
X976621Y844354D01*
X975953Y844077D01*
X982420Y837610D01*
X988887Y844077D01*
X988219Y844354D01*
X986230Y844616D01*
D02*
G37*
G36*
X971463Y839587D02*
X971186Y838919D01*
X970924Y836930D01*
Y829310D01*
X971186Y827321D01*
X971463Y826653D01*
X977930Y833120D01*
X971463Y839587D01*
D02*
G37*
G36*
X885383Y839587D02*
X885106Y838919D01*
X884844Y836930D01*
Y829310D01*
X885106Y827321D01*
X885383Y826653D01*
X891850Y833120D01*
X885383Y839587D01*
D02*
G37*
G36*
X907297D02*
X900830Y833120D01*
X907297Y826653D01*
X907574Y827321D01*
X907836Y829310D01*
Y836930D01*
X907574Y838919D01*
X907297Y839587D01*
D02*
G37*
G36*
X993377Y839587D02*
X986910Y833120D01*
X993377Y826653D01*
X993654Y827321D01*
X993916Y829310D01*
Y836930D01*
X993654Y838919D01*
X993377Y839587D01*
D02*
G37*
G36*
X699060Y833186D02*
X691440D01*
X689451Y832924D01*
X688783Y832647D01*
X695250Y826180D01*
X701717Y832647D01*
X701049Y832924D01*
X699060Y833186D01*
D02*
G37*
G36*
X613970D02*
X606350D01*
X604361Y832924D01*
X603693Y832647D01*
X610160Y826180D01*
X616627Y832647D01*
X615959Y832924D01*
X613970Y833186D01*
D02*
G37*
G36*
X948752Y843240D02*
X946088D01*
X943514Y842550D01*
X941206Y841218D01*
X939322Y839334D01*
X937990Y837026D01*
X937300Y834452D01*
Y831788D01*
X937990Y829214D01*
X939322Y826906D01*
X941206Y825022D01*
X943514Y823690D01*
X946088Y823000D01*
X948752D01*
X951326Y823690D01*
X953634Y825022D01*
X955518Y826906D01*
X956850Y829214D01*
X957540Y831788D01*
Y834452D01*
X956850Y837026D01*
X955518Y839334D01*
X953634Y841218D01*
X951326Y842550D01*
X948752Y843240D01*
D02*
G37*
G36*
X862672D02*
X860008D01*
X857434Y842550D01*
X855126Y841218D01*
X853242Y839334D01*
X851910Y837026D01*
X851220Y834452D01*
Y831788D01*
X851910Y829214D01*
X853242Y826906D01*
X855126Y825022D01*
X857434Y823690D01*
X860008Y823000D01*
X862672D01*
X865246Y823690D01*
X867554Y825022D01*
X869438Y826906D01*
X870770Y829214D01*
X871460Y831788D01*
Y834452D01*
X870770Y837026D01*
X869438Y839334D01*
X867554Y841218D01*
X865246Y842550D01*
X862672Y843240D01*
D02*
G37*
G36*
X982420Y828630D02*
X975953Y822163D01*
X976621Y821886D01*
X978610Y821624D01*
X986230D01*
X988219Y821886D01*
X988887Y822163D01*
X982420Y828630D01*
D02*
G37*
G36*
X896340D02*
X889873Y822163D01*
X890541Y821886D01*
X892530Y821624D01*
X900150D01*
X902139Y821886D01*
X902807Y822163D01*
X896340Y828630D01*
D02*
G37*
G36*
X706207Y828157D02*
X699740Y821690D01*
X706207Y815223D01*
X706484Y815891D01*
X706746Y817880D01*
Y825500D01*
X706484Y827489D01*
X706207Y828157D01*
D02*
G37*
G36*
X621117D02*
X614650Y821690D01*
X621117Y815223D01*
X621394Y815891D01*
X621656Y817880D01*
Y825500D01*
X621394Y827489D01*
X621117Y828157D01*
D02*
G37*
G36*
X684293Y828157D02*
X684016Y827489D01*
X683754Y825500D01*
Y817880D01*
X684016Y815891D01*
X684293Y815223D01*
X690760Y821690D01*
X684293Y828157D01*
D02*
G37*
G36*
X599203D02*
X598926Y827489D01*
X598664Y825500D01*
Y817880D01*
X598926Y815891D01*
X599203Y815223D01*
X605670Y821690D01*
X599203Y828157D01*
D02*
G37*
G36*
X731582Y831810D02*
X728918D01*
X726344Y831120D01*
X724036Y829788D01*
X722152Y827904D01*
X720820Y825596D01*
X720130Y823022D01*
Y820358D01*
X720820Y817784D01*
X722152Y815476D01*
X724036Y813592D01*
X726344Y812260D01*
X728918Y811570D01*
X731582D01*
X734156Y812260D01*
X736464Y813592D01*
X738348Y815476D01*
X739680Y817784D01*
X740370Y820358D01*
Y823022D01*
X739680Y825596D01*
X738348Y827904D01*
X736464Y829788D01*
X734156Y831120D01*
X731582Y831810D01*
D02*
G37*
G36*
X646492D02*
X643828D01*
X641254Y831120D01*
X638946Y829788D01*
X637062Y827904D01*
X635730Y825596D01*
X635040Y823022D01*
Y820358D01*
X635730Y817784D01*
X637062Y815476D01*
X638946Y813592D01*
X641254Y812260D01*
X643828Y811570D01*
X646492D01*
X649066Y812260D01*
X651374Y813592D01*
X653258Y815476D01*
X654590Y817784D01*
X655280Y820358D01*
Y823022D01*
X654590Y825596D01*
X653258Y827904D01*
X651374Y829788D01*
X649066Y831120D01*
X646492Y831810D01*
D02*
G37*
G36*
X695250Y817200D02*
X688783Y810733D01*
X689451Y810456D01*
X691440Y810194D01*
X699060D01*
X701049Y810456D01*
X701717Y810733D01*
X695250Y817200D01*
D02*
G37*
G36*
X610160D02*
X603693Y810733D01*
X604361Y810456D01*
X606350Y810194D01*
X613970D01*
X615959Y810456D01*
X616627Y810733D01*
X610160Y817200D01*
D02*
G37*
G36*
X953460Y786190D02*
X941595D01*
Y780825D01*
X953460D01*
Y786190D01*
D02*
G37*
G36*
X935245D02*
X923380D01*
Y780825D01*
X935245D01*
Y786190D01*
D02*
G37*
G36*
X989497D02*
X975727D01*
Y778920D01*
X989497D01*
Y786190D01*
D02*
G37*
G36*
X1045260D02*
X1031490D01*
Y778920D01*
X1045260D01*
Y786190D01*
D02*
G37*
G36*
X973187D02*
X959417D01*
Y778920D01*
X973187D01*
Y786190D01*
D02*
G37*
G36*
X1025533D02*
X1011763D01*
Y778920D01*
X1025533D01*
Y786190D01*
D02*
G37*
G36*
X1009223D02*
X995453D01*
Y778920D01*
X1009223D01*
Y786190D01*
D02*
G37*
G36*
X882650Y778576D02*
X875030D01*
X873041Y778314D01*
X872373Y778037D01*
X878840Y771570D01*
X885307Y778037D01*
X884639Y778314D01*
X882650Y778576D01*
D02*
G37*
G36*
X735330Y767856D02*
X727710D01*
X725721Y767594D01*
X725053Y767317D01*
X731520Y760850D01*
X737987Y767317D01*
X737319Y767594D01*
X735330Y767856D01*
D02*
G37*
G36*
X889797Y773547D02*
X883330Y767080D01*
X889797Y760613D01*
X890074Y761281D01*
X890336Y763270D01*
Y770890D01*
X890074Y772879D01*
X889797Y773547D01*
D02*
G37*
G36*
X867883Y773547D02*
X867606Y772879D01*
X867344Y770890D01*
Y763270D01*
X867606Y761281D01*
X867883Y760613D01*
X874350Y767080D01*
X867883Y773547D01*
D02*
G37*
G36*
X878840Y762590D02*
X872373Y756123D01*
X873041Y755846D01*
X875030Y755584D01*
X882650D01*
X884639Y755846D01*
X885307Y756123D01*
X878840Y762590D01*
D02*
G37*
G36*
X849630Y614000D02*
X844109Y608479D01*
X845218Y607839D01*
X848125Y607060D01*
X851135D01*
X854042Y607839D01*
X855151Y608479D01*
X849630Y614000D01*
D02*
G37*
G36*
X866602Y578680D02*
X863938D01*
X861364Y577990D01*
X859056Y576658D01*
X857172Y574774D01*
X855840Y572466D01*
X855150Y569892D01*
Y567228D01*
X855840Y564654D01*
X857172Y562346D01*
X859056Y560462D01*
X861364Y559130D01*
X863938Y558440D01*
X866602D01*
X869176Y559130D01*
X871484Y560462D01*
X873368Y562346D01*
X874700Y564654D01*
X875390Y567228D01*
Y569892D01*
X874700Y572466D01*
X873368Y574774D01*
X871484Y576658D01*
X869176Y577990D01*
X866602Y578680D01*
D02*
G37*
G36*
X866775Y529990D02*
X863765D01*
X860858Y529211D01*
X859749Y528571D01*
X865270Y523050D01*
X870791Y528571D01*
X869682Y529211D01*
X866775Y529990D01*
D02*
G37*
G36*
X760965Y529590D02*
X757955D01*
X755048Y528811D01*
X753939Y528171D01*
X759460Y522650D01*
X764981Y528171D01*
X763872Y528811D01*
X760965Y529590D01*
D02*
G37*
G36*
X855259Y524081D02*
X854619Y522972D01*
X853840Y520065D01*
Y517055D01*
X854619Y514148D01*
X855259Y513039D01*
X860780Y518560D01*
X855259Y524081D01*
D02*
G37*
G36*
X875281Y524081D02*
X869760Y518560D01*
X875281Y513039D01*
X875921Y514148D01*
X876700Y517055D01*
Y520065D01*
X875921Y522972D01*
X875281Y524081D01*
D02*
G37*
G36*
X749449Y523681D02*
X748809Y522572D01*
X748030Y519665D01*
Y516655D01*
X748809Y513748D01*
X749449Y512639D01*
X754970Y518160D01*
X749449Y523681D01*
D02*
G37*
G36*
X769471Y523681D02*
X763950Y518160D01*
X769471Y512639D01*
X770111Y513748D01*
X770890Y516655D01*
Y519665D01*
X770111Y522572D01*
X769471Y523681D01*
D02*
G37*
G36*
X865270Y514070D02*
X859749Y508549D01*
X860858Y507909D01*
X863765Y507130D01*
X866775D01*
X869682Y507909D01*
X870791Y508549D01*
X865270Y514070D01*
D02*
G37*
G36*
X759460Y513670D02*
X753939Y508149D01*
X755048Y507509D01*
X757955Y506730D01*
X760965D01*
X763872Y507509D01*
X764981Y508149D01*
X759460Y513670D01*
D02*
G37*
G36*
X905510Y496416D02*
Y490220D01*
X911706D01*
X911266Y491860D01*
X910274Y493580D01*
X908870Y494983D01*
X907150Y495976D01*
X905510Y496416D01*
D02*
G37*
G36*
X902970D02*
X901330Y495976D01*
X899610Y494983D01*
X898206Y493580D01*
X897214Y491860D01*
X896774Y490220D01*
X902970D01*
Y496416D01*
D02*
G37*
G36*
X953460Y756190D02*
X941595D01*
Y750825D01*
X953460D01*
Y756190D01*
D02*
G37*
G36*
X935245D02*
X923380D01*
Y750825D01*
X935245D01*
Y756190D01*
D02*
G37*
G36*
X1061570D02*
X1047800D01*
Y748920D01*
X1061570D01*
Y756190D01*
D02*
G37*
G36*
X989497D02*
X975727D01*
Y748920D01*
X989497D01*
Y756190D01*
D02*
G37*
G36*
X1045260D02*
X1031490D01*
Y748920D01*
X1045260D01*
Y756190D01*
D02*
G37*
G36*
X973187D02*
X959417D01*
Y748920D01*
X973187D01*
Y756190D01*
D02*
G37*
G36*
X1025533D02*
X1011763D01*
Y748920D01*
X1025533D01*
Y756190D01*
D02*
G37*
G36*
X1009223D02*
X995453D01*
Y748920D01*
X1009223D01*
Y756190D01*
D02*
G37*
G36*
X1061570Y746380D02*
X1047800D01*
Y739110D01*
X1061570D01*
Y746380D01*
D02*
G37*
G36*
X1045260D02*
X1031490D01*
Y739110D01*
X1045260D01*
Y746380D01*
D02*
G37*
G36*
X1025533Y746380D02*
X1011763D01*
Y739110D01*
X1025533D01*
Y746380D01*
D02*
G37*
G36*
X1009223D02*
X995453D01*
Y739110D01*
X1009223D01*
Y746380D01*
D02*
G37*
G36*
X989497Y746380D02*
X975727D01*
Y739110D01*
X989497D01*
Y746380D01*
D02*
G37*
G36*
X973187D02*
X959417D01*
Y739110D01*
X973187D01*
Y746380D01*
D02*
G37*
G36*
X953460Y744475D02*
X941595D01*
Y739110D01*
X953460D01*
Y744475D01*
D02*
G37*
G36*
X935245D02*
X923380D01*
Y739110D01*
X935245D01*
Y744475D01*
D02*
G37*
G36*
X880345Y743510D02*
X877335D01*
X874428Y742731D01*
X873319Y742091D01*
X878840Y736570D01*
X884361Y742091D01*
X883252Y742731D01*
X880345Y743510D01*
D02*
G37*
G36*
X868829Y737601D02*
X868189Y736492D01*
X867410Y733585D01*
Y730575D01*
X868189Y727668D01*
X868829Y726559D01*
X874350Y732080D01*
X868829Y737601D01*
D02*
G37*
G36*
X888851Y737601D02*
X883330Y732080D01*
X888851Y726559D01*
X889491Y727668D01*
X890270Y730575D01*
Y733585D01*
X889491Y736492D01*
X888851Y737601D01*
D02*
G37*
G36*
X733025Y732790D02*
X730015D01*
X727108Y732011D01*
X725999Y731371D01*
X731520Y725850D01*
X737041Y731371D01*
X735932Y732011D01*
X733025Y732790D01*
D02*
G37*
G36*
X878840Y727590D02*
X873319Y722069D01*
X874428Y721429D01*
X877335Y720650D01*
X880345D01*
X883252Y721429D01*
X884361Y722069D01*
X878840Y727590D01*
D02*
G37*
G36*
X741531Y726881D02*
X736010Y721360D01*
X741531Y715839D01*
X742171Y716948D01*
X742950Y719855D01*
Y722865D01*
X742171Y725772D01*
X741531Y726881D01*
D02*
G37*
G36*
X721509D02*
X720869Y725772D01*
X720090Y722865D01*
Y719855D01*
X720869Y716948D01*
X721509Y715839D01*
X727030Y721360D01*
X721509Y726881D01*
D02*
G37*
G36*
X731520Y716870D02*
X725999Y711349D01*
X727108Y710709D01*
X730015Y709930D01*
X733025D01*
X735932Y710709D01*
X737041Y711349D01*
X731520Y716870D01*
D02*
G37*
G36*
X851135Y679920D02*
X848125D01*
X845218Y679141D01*
X844109Y678501D01*
X849630Y672980D01*
X855151Y678501D01*
X854042Y679141D01*
X851135Y679920D01*
D02*
G37*
G36*
X839619Y674011D02*
X838979Y672902D01*
X838200Y669995D01*
Y666985D01*
X838979Y664078D01*
X839619Y662969D01*
X845140Y668490D01*
X839619Y674011D01*
D02*
G37*
G36*
X859641Y674011D02*
X854120Y668490D01*
X859641Y662969D01*
X860281Y664078D01*
X861060Y666985D01*
Y669995D01*
X860281Y672902D01*
X859641Y674011D01*
D02*
G37*
G36*
X849630Y664000D02*
X844109Y658479D01*
X845218Y657839D01*
X848125Y657060D01*
X851135D01*
X854042Y657839D01*
X855151Y658479D01*
X849630Y664000D01*
D02*
G37*
G36*
X760965Y579590D02*
X757955D01*
X755048Y578811D01*
X753939Y578171D01*
X759460Y572650D01*
X764981Y578171D01*
X763872Y578811D01*
X760965Y579590D01*
D02*
G37*
G36*
X749449Y573681D02*
X748809Y572572D01*
X748030Y569665D01*
Y566655D01*
X748809Y563748D01*
X749449Y562639D01*
X754970Y568160D01*
X749449Y573681D01*
D02*
G37*
G36*
X769471Y573681D02*
X763950Y568160D01*
X769471Y562639D01*
X770111Y563748D01*
X770890Y566655D01*
Y569665D01*
X770111Y572572D01*
X769471Y573681D01*
D02*
G37*
G36*
X759460Y563670D02*
X753939Y558149D01*
X755048Y557509D01*
X757955Y556730D01*
X760965D01*
X763872Y557509D01*
X764981Y558149D01*
X759460Y563670D01*
D02*
G37*
G36*
X411480Y570076D02*
Y563880D01*
X417676D01*
X417236Y565520D01*
X416244Y567240D01*
X414840Y568643D01*
X413120Y569636D01*
X411480Y570076D01*
D02*
G37*
G36*
X408940D02*
X407300Y569636D01*
X405580Y568643D01*
X404176Y567240D01*
X403184Y565520D01*
X402744Y563880D01*
X408940D01*
Y570076D01*
D02*
G37*
G36*
X417676Y561340D02*
X411480D01*
Y555144D01*
X413120Y555584D01*
X414840Y556576D01*
X416244Y557980D01*
X417236Y559700D01*
X417676Y561340D01*
D02*
G37*
G36*
X408940D02*
X402744D01*
X403184Y559700D01*
X404176Y557980D01*
X405580Y556576D01*
X407300Y555584D01*
X408940Y555144D01*
Y561340D01*
D02*
G37*
G36*
X1214120Y507846D02*
Y501650D01*
X1220316D01*
X1219876Y503290D01*
X1218884Y505010D01*
X1217480Y506413D01*
X1215760Y507406D01*
X1214120Y507846D01*
D02*
G37*
G36*
X1211580D02*
X1209940Y507406D01*
X1208220Y506413D01*
X1206816Y505010D01*
X1205824Y503290D01*
X1205384Y501650D01*
X1211580D01*
Y507846D01*
D02*
G37*
G36*
X1220316Y499110D02*
X1214120D01*
Y492914D01*
X1215760Y493354D01*
X1217480Y494347D01*
X1218884Y495750D01*
X1219876Y497470D01*
X1220316Y499110D01*
D02*
G37*
G36*
X1211580D02*
X1205384D01*
X1205824Y497470D01*
X1206816Y495750D01*
X1208220Y494347D01*
X1209940Y493354D01*
X1211580Y492914D01*
Y499110D01*
D02*
G37*
G36*
X865270Y408025D02*
X859749Y402504D01*
X860858Y401864D01*
X863765Y401085D01*
X866775D01*
X869682Y401864D01*
X870791Y402504D01*
X865270Y408025D01*
D02*
G37*
G36*
X890505Y341630D02*
X887495D01*
X884588Y340851D01*
X883479Y340211D01*
X889000Y334690D01*
X894521Y340211D01*
X893412Y340851D01*
X890505Y341630D01*
D02*
G37*
G36*
X878989Y335721D02*
X878349Y334612D01*
X877570Y331705D01*
Y328695D01*
X878349Y325788D01*
X878989Y324679D01*
X884510Y330200D01*
X878989Y335721D01*
D02*
G37*
G36*
X899011D02*
X893490Y330200D01*
X899011Y324679D01*
X899651Y325788D01*
X900430Y328695D01*
Y331705D01*
X899651Y334612D01*
X899011Y335721D01*
D02*
G37*
G36*
X840332Y340320D02*
X837668D01*
X835094Y339630D01*
X832786Y338298D01*
X830902Y336414D01*
X829570Y334106D01*
X828880Y331532D01*
Y328868D01*
X829570Y326294D01*
X830902Y323986D01*
X832786Y322102D01*
X835094Y320770D01*
X837668Y320080D01*
X840332D01*
X842906Y320770D01*
X845214Y322102D01*
X847098Y323986D01*
X848430Y326294D01*
X849120Y328868D01*
Y331532D01*
X848430Y334106D01*
X847098Y336414D01*
X845214Y338298D01*
X842906Y339630D01*
X840332Y340320D01*
D02*
G37*
G36*
X889000Y325710D02*
X883479Y320189D01*
X884588Y319549D01*
X887495Y318770D01*
X890505D01*
X893412Y319549D01*
X894521Y320189D01*
X889000Y325710D01*
D02*
G37*
G36*
X135552Y477760D02*
X132888D01*
X130314Y477070D01*
X128006Y475738D01*
X126122Y473854D01*
X124790Y471546D01*
X124100Y468972D01*
Y466308D01*
X124790Y463734D01*
X126122Y461426D01*
X128006Y459542D01*
X130314Y458210D01*
X132888Y457520D01*
X135552D01*
X138126Y458210D01*
X140434Y459542D01*
X142318Y461426D01*
X143650Y463734D01*
X144340Y466308D01*
Y468972D01*
X143650Y471546D01*
X142318Y473854D01*
X140434Y475738D01*
X138126Y477070D01*
X135552Y477760D01*
D02*
G37*
G36*
X229705Y437750D02*
X226695D01*
X223788Y436971D01*
X222679Y436331D01*
X228200Y430810D01*
X233721Y436331D01*
X232612Y436971D01*
X229705Y437750D01*
D02*
G37*
G36*
X135725Y429070D02*
X132715D01*
X129808Y428291D01*
X128699Y427651D01*
X134220Y422130D01*
X139741Y427651D01*
X138632Y428291D01*
X135725Y429070D01*
D02*
G37*
G36*
X238211Y431841D02*
X232690Y426320D01*
X238211Y420799D01*
X238851Y421908D01*
X239630Y424815D01*
Y427825D01*
X238851Y430732D01*
X238211Y431841D01*
D02*
G37*
G36*
X218189D02*
X217549Y430732D01*
X216770Y427825D01*
Y424815D01*
X217549Y421908D01*
X218189Y420799D01*
X223710Y426320D01*
X218189Y431841D01*
D02*
G37*
G36*
X228200Y421830D02*
X222679Y416309D01*
X223788Y415669D01*
X226695Y414890D01*
X229705D01*
X232612Y415669D01*
X233721Y416309D01*
X228200Y421830D01*
D02*
G37*
G36*
X124209Y423161D02*
X123569Y422052D01*
X122790Y419145D01*
Y416135D01*
X123569Y413228D01*
X124209Y412119D01*
X129730Y417640D01*
X124209Y423161D01*
D02*
G37*
G36*
X144231Y423161D02*
X138710Y417640D01*
X144231Y412119D01*
X144871Y413228D01*
X145650Y416135D01*
Y419145D01*
X144871Y422052D01*
X144231Y423161D01*
D02*
G37*
G36*
X134220Y413150D02*
X128699Y407629D01*
X129808Y406989D01*
X132715Y406210D01*
X135725D01*
X138632Y406989D01*
X139741Y407629D01*
X134220Y413150D01*
D02*
G37*
G36*
X229532Y386440D02*
X226868D01*
X224294Y385750D01*
X221986Y384418D01*
X220102Y382534D01*
X218770Y380226D01*
X218080Y377652D01*
Y374988D01*
X218770Y372414D01*
X220102Y370106D01*
X221986Y368222D01*
X224294Y366890D01*
X226868Y366200D01*
X229532D01*
X232106Y366890D01*
X234414Y368222D01*
X236298Y370106D01*
X237630Y372414D01*
X238320Y374988D01*
Y377652D01*
X237630Y380226D01*
X236298Y382534D01*
X234414Y384418D01*
X232106Y385750D01*
X229532Y386440D01*
D02*
G37*
G36*
X218205Y311150D02*
X215195D01*
X212288Y310371D01*
X211179Y309731D01*
X216700Y304210D01*
X222221Y309731D01*
X221112Y310371D01*
X218205Y311150D01*
D02*
G37*
%LPD*%
D11*
X894080Y1229360D02*
X896620Y1226820D01*
X889570Y1229360D02*
X894080D01*
X887900Y1231030D02*
X889570Y1229360D01*
X889960Y1219590D02*
X932640D01*
X1244257Y1247308D02*
X1252180Y1239385D01*
X1234272Y1247308D02*
X1244257D01*
X1229360Y1252220D02*
X1234272Y1247308D01*
X1242596Y1241524D02*
X1247180Y1236940D01*
X1222426Y1241524D02*
X1242596D01*
X1220470Y1243480D02*
X1222426Y1241524D01*
X954920Y1317841D02*
X1021031D01*
X1022350Y1319160D01*
X914400Y1160780D02*
Y1189990D01*
X994140Y1180090D02*
X1012149D01*
X1078230Y1200150D02*
Y1208240D01*
X1027968Y1177828D02*
X1050324D01*
X1052919Y1177490D02*
X1060250D01*
X783840Y1169930D02*
X784100Y1169670D01*
X771100Y1169930D02*
X783840D01*
X845260Y1182930D02*
X846810Y1181380D01*
Y1181380D01*
X853440Y1186180D02*
X875030D01*
X847090Y1192530D02*
X853440Y1186180D01*
X967740Y1297940D02*
Y1303020D01*
X972306Y1268884D02*
X972666D01*
X974140Y1267410D01*
Y1251090D02*
Y1267410D01*
X965200Y1275080D02*
X967740Y1277620D01*
X965200Y1263650D02*
Y1275080D01*
Y1263650D02*
X969140Y1259710D01*
Y1251090D02*
Y1259710D01*
X960120Y1280160D02*
X972185Y1292225D01*
X960120Y1261110D02*
Y1280160D01*
Y1261110D02*
X964140Y1257090D01*
Y1251090D02*
Y1257090D01*
X954140Y1284340D02*
X967740Y1297940D01*
X954140Y1251090D02*
Y1284340D01*
X819288Y1176430D02*
X829100D01*
X807720Y1164862D02*
X819288Y1176430D01*
X807720Y1149985D02*
Y1164862D01*
X786540Y1195930D02*
X789940Y1192530D01*
X771100Y1195930D02*
X786540D01*
X760730Y1211580D02*
Y1220470D01*
Y1211580D02*
X763380Y1208930D01*
X771100D01*
X847090Y1192530D02*
Y1196340D01*
X841000Y1202430D02*
X847090Y1196340D01*
X829100Y1202430D02*
X841000D01*
X829100Y1182930D02*
X845260D01*
X947420Y1164590D02*
X954140Y1171310D01*
X889000Y1172210D02*
X895350Y1165860D01*
X849630Y1172210D02*
X889000D01*
X847350Y1169930D02*
X849630Y1172210D01*
X829100Y1169930D02*
X847350D01*
X798630Y1210510D02*
Y1240790D01*
Y1210510D02*
X813210Y1195930D01*
X760730Y1153160D02*
X763270Y1150620D01*
X770490D01*
X771100Y1151230D01*
Y1163430D01*
X799465Y1141730D02*
X807720Y1149985D01*
X780790Y1202430D02*
X786130Y1207770D01*
X829100Y1163430D02*
X829210Y1163320D01*
X801370Y1196340D02*
X808280Y1189430D01*
X761290D02*
X771100D01*
Y1202430D02*
X780790D01*
X829210Y1163320D02*
X853440D01*
X751840Y1198880D02*
X761290Y1189430D01*
X808280D02*
X829100D01*
X813210Y1195930D02*
X829100D01*
X760730Y1141730D02*
X799465D01*
X1053979Y1235589D02*
X1059381D01*
X1047980Y1229590D02*
X1053979Y1235589D01*
X1076885Y1282370D02*
X1088550D01*
X1065220D02*
X1076885D01*
X1076960Y1134110D02*
Y1144650D01*
Y1127100D02*
Y1134110D01*
X711200Y1059180D02*
X718820Y1066800D01*
X401920Y1059180D02*
X711200D01*
X371820Y1089280D02*
X401920Y1059180D01*
X371820Y1089280D02*
Y1097670D01*
X1055060Y1224590D02*
X1056640Y1223010D01*
X1000640Y1224590D02*
X1055060D01*
X1000640Y1229590D02*
X1047980D01*
X1041550Y1234590D02*
X1045210Y1238250D01*
X1000640Y1234590D02*
X1041550D01*
X1037061Y1203431D02*
X1042670Y1209040D01*
X1023091Y1203431D02*
X1037061D01*
X1019250Y1199590D02*
X1023091Y1203431D01*
X1025623Y1198343D02*
X1044477D01*
X1021870Y1194590D02*
X1025623Y1198343D01*
X1044477D02*
X1049020Y1193800D01*
X1019151Y1242671D02*
Y1249599D01*
X1016070Y1239590D02*
X1019151Y1242671D01*
X1000640Y1239590D02*
X1016070D01*
X1036389Y1219590D02*
X1038251Y1217728D01*
X1000640Y1219590D02*
X1036389D01*
X1026881Y1214590D02*
X1029060Y1212411D01*
X1000640Y1214590D02*
X1026881D01*
X1014090Y1204590D02*
X1016000Y1206500D01*
X1000640Y1204590D02*
X1014090D01*
X1000640Y1199590D02*
X1019250D01*
X1000640Y1194590D02*
X1021870D01*
X1022350Y1187168D02*
Y1187920D01*
X1020680Y1189590D02*
X1022350Y1187920D01*
X1000640Y1189590D02*
X1020680D01*
X1012149Y1180090D02*
X1013919Y1181860D01*
X888600Y1304690D02*
Y1314450D01*
Y1304690D02*
X902970Y1290320D01*
X937260D01*
X944140Y1283440D01*
Y1251090D02*
Y1283440D01*
X938410Y1301839D02*
X954920D01*
X949140Y1296059D02*
X954920Y1301839D01*
X949140Y1251090D02*
Y1296059D01*
X798830Y1305560D02*
Y1314450D01*
X751840Y1258570D02*
X798830Y1305560D01*
X751840Y1198880D02*
Y1258570D01*
X786330Y1300680D02*
Y1314450D01*
X746130Y1260480D02*
X786330Y1300680D01*
X746130Y1156330D02*
Y1260480D01*
Y1156330D02*
X760730Y1141730D01*
X786130Y1207770D02*
Y1240790D01*
X906780Y1271270D02*
X916540D01*
Y1265320D02*
Y1271270D01*
Y1265320D02*
X920750Y1261110D01*
X932180D01*
X1019151Y1249599D02*
X1024171Y1254619D01*
X1024755D01*
X1050370Y1262380D02*
X1060530Y1252220D01*
X1021941Y1262380D02*
X1049735D01*
X1004151Y1244590D02*
X1021941Y1262380D01*
X1000640Y1244590D02*
X1004151D01*
X1017669Y1274930D02*
X1022350D01*
X1005199Y1262460D02*
X1017669Y1274930D01*
X990680Y1262460D02*
X1005199D01*
X1017270Y1267460D02*
X1096090D01*
X1007270Y1257460D02*
X1017270Y1267460D01*
X994570Y1257460D02*
X1007270D01*
X906991Y1252620D02*
X916940D01*
X932180Y1261110D02*
X939140Y1254150D01*
Y1251090D02*
Y1254150D01*
X919140Y1250077D02*
X922893D01*
X928380Y1244590D01*
X932640D01*
X1142130Y1215790D02*
Y1223010D01*
X1132840Y1206500D02*
X1142130Y1215790D01*
X1132840Y1199642D02*
Y1206500D01*
X988060Y1158240D02*
X1029570D01*
X1031240Y1159910D02*
X1032320Y1160990D01*
X1052919D01*
X1024890Y1174750D02*
X1027968Y1177828D01*
X991870Y1174750D02*
X1024890D01*
X992383Y1166617D02*
X1000590D01*
X979140Y1167160D02*
X988060Y1158240D01*
X979140Y1167160D02*
Y1183090D01*
X1029570Y1158240D02*
X1031240Y1159910D01*
X1076070Y1145540D02*
X1076960Y1144650D01*
X979685Y1148835D02*
X983550D01*
X988060Y1037869D02*
Y1083310D01*
X969140Y1102230D02*
X988060Y1083310D01*
X969140Y1102230D02*
Y1183090D01*
X978020Y932180D02*
Y1085730D01*
X940670Y1123080D02*
X978020Y1085730D01*
X940670Y1123080D02*
Y1169270D01*
X972034Y1007594D02*
Y1084096D01*
X927100Y1129030D02*
X972034Y1084096D01*
X966470Y1014730D02*
Y1082040D01*
X922020Y1126490D02*
X966470Y1082040D01*
X927100Y1129030D02*
Y1187450D01*
X922020Y1126490D02*
Y1189842D01*
X914736Y1124884D02*
X960120Y1079500D01*
X914736Y1124884D02*
Y1147146D01*
X960120Y1017270D02*
Y1079500D01*
X955040Y1021080D02*
Y1074420D01*
X906780Y1122680D02*
X955040Y1074420D01*
X906780Y1122680D02*
Y1206500D01*
X979685Y1148835D02*
X979930Y1148590D01*
X974140Y1154380D02*
X979685Y1148835D01*
X979060D02*
X979685D01*
X1051720Y1308890D02*
X1053470Y1310640D01*
X1051720Y1282370D02*
Y1308890D01*
X1096090Y1267460D02*
X1111330Y1252220D01*
X994140Y1257030D02*
X994570Y1257460D01*
X994140Y1251090D02*
Y1257030D01*
X1204360Y1244600D02*
X1205480Y1243480D01*
X1220470Y1200270D02*
X1227575Y1193165D01*
X1235075D01*
X1220470Y1230480D02*
X1225860Y1235870D01*
X1229360Y1252220D02*
Y1257300D01*
X1238400Y1156160D02*
X1240130Y1154430D01*
X1238400Y1169670D02*
X1244590Y1175860D01*
X1254760Y1180807D02*
X1255203Y1180365D01*
X1242180Y1192650D02*
Y1199370D01*
X1252180Y1193760D02*
Y1199370D01*
X1244590Y1186170D02*
X1252180Y1193760D01*
X1247180Y1211620D02*
X1249680Y1214120D01*
X1240630Y1235870D02*
X1242180Y1234320D01*
Y1228870D02*
Y1234320D01*
X1252180Y1228870D02*
Y1239385D01*
X1247180Y1228870D02*
Y1236940D01*
X1238400Y1156160D02*
Y1169670D01*
X1244590Y1175860D02*
Y1186170D01*
X1254760Y1180807D02*
Y1187450D01*
X1247180Y1199370D02*
Y1211620D01*
X1205480Y1243480D02*
X1220470D01*
X1202960Y1230480D02*
X1220470D01*
X1235075Y1193165D02*
X1237180Y1195270D01*
Y1199370D01*
X1254760Y1187450D02*
X1257180Y1189870D01*
Y1199370D01*
X1236014Y1186484D02*
X1242180Y1192650D01*
X1249680Y1214120D02*
X1257180Y1221620D01*
X1236014Y1183595D02*
Y1186484D01*
X1255203Y1165365D02*
X1267955D01*
X1257180Y1221620D02*
Y1228870D01*
X1225860Y1235870D02*
X1240630D01*
X1022350Y1287930D02*
Y1304660D01*
X1003300Y1287930D02*
Y1304660D01*
X984250Y1287930D02*
Y1304660D01*
X989140Y1260920D02*
X990680Y1262460D01*
X989140Y1251090D02*
Y1260920D01*
X995830Y1267460D02*
X1003300Y1274930D01*
X986790Y1267460D02*
X995830D01*
X984140Y1264810D02*
X986790Y1267460D01*
X984140Y1251090D02*
Y1264810D01*
X979140Y1269820D02*
X984250Y1274930D01*
X979140Y1251090D02*
Y1269820D01*
X994140Y1180090D02*
Y1183090D01*
X984140Y1174860D02*
X992383Y1166617D01*
X984140Y1174860D02*
Y1183090D01*
X989140Y1177480D02*
X991870Y1174750D01*
X989140Y1177480D02*
Y1183090D01*
X974140Y1154380D02*
Y1183090D01*
X996950Y1104300D02*
Y1117720D01*
X878840Y996950D02*
X920750D01*
X866140Y984250D02*
X878840Y996950D01*
X866140Y925830D02*
Y984250D01*
X862330Y988060D02*
X876220Y1001950D01*
X918130D01*
X925830Y1009650D01*
X920750Y996950D02*
X928370Y1004570D01*
X941070Y1145540D02*
X957580D01*
X964140Y1152100D01*
X940670Y1169270D02*
X949140Y1177740D01*
X959140Y1160435D02*
Y1183090D01*
X955040Y1156335D02*
X959140Y1160435D01*
X964140Y1152100D02*
Y1183090D01*
X954140Y1171310D02*
Y1183090D01*
X949140Y1177740D02*
Y1183090D01*
X914400Y1189990D02*
X924000Y1199590D01*
X914690Y1202035D02*
X917245Y1204590D01*
X932640D01*
X909870Y1209590D02*
X932640D01*
X906780Y1206500D02*
X909870Y1209590D01*
X901046Y1211585D02*
X904051Y1214590D01*
X932640D01*
X859790Y1230780D02*
X860040Y1231030D01*
X877400D01*
Y1236810D01*
X881370Y1240780D01*
X892820D01*
X909010Y1224590D01*
X932640D01*
X887880Y1217510D02*
X887900Y1217530D01*
X887880Y1201420D02*
Y1217510D01*
X887900Y1217530D02*
X889960Y1219590D01*
X924000Y1199590D02*
X932640D01*
X926768Y1194590D02*
X932640D01*
X922020Y1189842D02*
X926768Y1194590D01*
X946150Y994410D02*
X966470Y1014730D01*
X934720Y994410D02*
X946150D01*
X969010Y1004570D02*
X972034Y1007594D01*
X947420Y1004570D02*
X960120Y1017270D01*
X927100Y1187450D02*
X929240Y1189590D01*
X932640D01*
X928370Y1004570D02*
X947420D01*
X943610Y1009650D02*
X955040Y1021080D01*
X925830Y1009650D02*
X943610D01*
X713740Y1148080D02*
X718820Y1143000D01*
Y1093309D02*
Y1143000D01*
Y1093309D02*
X729467Y1082663D01*
X599440Y1148080D02*
X713740D01*
X866140Y925830D02*
X873760Y918210D01*
X814070Y988060D02*
X862330D01*
X803910Y977900D02*
X814070Y988060D01*
X729467Y1082663D02*
X746634D01*
X595630Y1151890D02*
X599440Y1148080D01*
X595630Y1151890D02*
Y1165860D01*
X591820Y1169670D02*
X595630Y1165860D01*
X578410Y1169670D02*
X591820D01*
D13*
X636270Y527439D02*
Y548000D01*
X513740Y848436D02*
Y882500D01*
X506044Y840740D02*
X513740Y848436D01*
X484620Y840740D02*
X506044D01*
X530860D02*
X546620D01*
X523240Y848360D02*
X530860Y840740D01*
X1041400Y860540D02*
Y887730D01*
X1036320Y892810D02*
X1041400Y887730D01*
X1012190Y892810D02*
X1036320D01*
X1041400Y904240D02*
Y922540D01*
X1037590Y900430D02*
X1041400Y904240D01*
X1016000Y900430D02*
X1037590D01*
X1142110Y1107440D02*
Y1136270D01*
X1149350Y1096850D02*
Y1100200D01*
X1142110Y1107440D02*
X1149350Y1100200D01*
X1132840Y1145540D02*
X1142110Y1136270D01*
X1109110Y1223010D02*
X1128630D01*
X1162840Y1180230D02*
X1164590Y1181980D01*
X1148080Y1180230D02*
X1162840D01*
X1164590Y1181980D02*
Y1204350D01*
X1173870Y1221350D02*
X1186180Y1209040D01*
Y1092400D02*
Y1209040D01*
Y1092400D02*
X1188720Y1089860D01*
X1164590Y1221350D02*
X1173870D01*
X1142130Y1223010D02*
X1143790Y1221350D01*
X1164590D01*
X1163600Y1061720D02*
X1163960Y1061360D01*
X1188720D01*
X1127350Y1085850D02*
X1135100D01*
X1135380Y1086130D01*
X1117600Y1061720D02*
X1135100D01*
X1164590Y1089940D02*
Y1108430D01*
X1162840Y1166730D02*
X1164590Y1164980D01*
X1148080Y1166730D02*
X1162840D01*
X1164590Y1136930D02*
Y1164980D01*
X947820Y977900D02*
X956310D01*
X884623Y985353D02*
Y985492D01*
X877570Y978300D02*
X884623Y985353D01*
X877529Y978259D02*
X877570Y978300D01*
X1201039Y905891D02*
X1207770D01*
X1193800Y913130D02*
X1201039Y905891D01*
X1108710Y913130D02*
X1193800D01*
X1097190Y901610D02*
X1108710Y913130D01*
X1097190Y883590D02*
Y901610D01*
X1189990Y905510D02*
X1205611Y889889D01*
X1113790Y905510D02*
X1189990D01*
X1109190Y900910D02*
X1113790Y905510D01*
X1109190Y883590D02*
Y900910D01*
X910590Y889000D02*
X916940D01*
X919480Y886460D01*
Y880980D02*
Y886460D01*
Y880980D02*
X920350Y880110D01*
X877570Y933050D02*
X877970Y933450D01*
X933450Y904160D02*
X933850Y903760D01*
Y880110D02*
Y903760D01*
X707759Y874630D02*
X712470D01*
X699755Y882635D02*
X707759Y874630D01*
X699755Y882635D02*
Y889563D01*
X730250Y875030D02*
X746379D01*
X712870D02*
X730250D01*
X712470Y874630D02*
X712870Y875030D01*
X701040Y904360D02*
X735210D01*
X736600Y897128D02*
Y902970D01*
X735210Y904360D02*
X736600Y902970D01*
X566420Y900550D02*
X579000D01*
X637390Y925980D02*
X664870D01*
X637390Y912980D02*
X664870D01*
X631190Y932180D02*
X637390Y925980D01*
X631190Y906780D02*
X637390Y912980D01*
X631190Y888480D02*
Y906780D01*
X947420Y928370D02*
Y957580D01*
Y928370D02*
X954170Y921620D01*
X962430D01*
X946738Y958262D02*
X947420Y957580D01*
X933450Y958262D02*
X946738D01*
X934320Y994010D02*
X934720Y994410D01*
X934320Y977900D02*
Y994010D01*
X914781Y977900D02*
X934320D01*
X908050Y958262D02*
X920750D01*
X898779Y977900D02*
X908050Y968629D01*
Y958262D02*
Y968629D01*
X877570Y964800D02*
X888812D01*
X895350Y958262D01*
X877570Y946550D02*
Y964800D01*
X899160Y880110D02*
X920350D01*
X884809D02*
X899160D01*
X877570Y887349D02*
X884809Y880110D01*
X877570Y903351D02*
X907241D01*
X908050Y904160D01*
X998600Y914550D02*
X1001880D01*
X1016000Y900430D01*
X998600Y901550D02*
X1003450D01*
X574421Y1140460D02*
X578410Y1144449D01*
X571620Y1137659D02*
X574421Y1140460D01*
X571620Y1123950D02*
Y1137659D01*
X578410Y1144449D02*
Y1156970D01*
X972955Y932180D02*
X978020D01*
X970015Y935120D02*
X972955Y932180D01*
X962430Y935120D02*
X970015D01*
X952447Y903099D02*
X962618D01*
X962660Y903140D01*
X976000Y886460D02*
Y886690D01*
X962430Y889870D02*
X978770D01*
X979600Y890700D02*
Y901550D01*
X978770Y889870D02*
X979600Y890700D01*
X713774Y930944D02*
Y943231D01*
X713740Y943196D02*
X713774Y943231D01*
X502520Y905910D02*
Y915670D01*
X546500Y913306D02*
Y915670D01*
X541830Y908636D02*
X546500Y913306D01*
X541830Y891080D02*
Y908636D01*
X539750Y889000D02*
X541830Y891080D01*
X532740Y889000D02*
X539750D01*
X533400Y668020D02*
Y687187D01*
X520817Y699770D02*
X533400Y687187D01*
X448310Y699770D02*
X520817D01*
X537591Y663829D02*
X544830D01*
X533400Y668020D02*
X537591Y663829D01*
X371820Y1049310D02*
Y1071470D01*
Y1049310D02*
X375920Y1045210D01*
X352320Y1025630D02*
Y1071470D01*
X358820Y1040720D02*
Y1071470D01*
X338213Y1090676D02*
X349897D01*
X352320Y1093100D01*
Y1097670D01*
X338213Y1077176D02*
X350833D01*
X352320Y1075690D01*
Y1071470D02*
Y1075690D01*
X375920Y1045210D02*
X423250D01*
X363610Y1035930D02*
X379730D01*
X358820Y1040720D02*
X363610Y1035930D01*
X495300Y882650D02*
X495450Y882500D01*
X513740D01*
X629531Y520700D02*
X636270Y527439D01*
X552069Y520700D02*
X629531D01*
X546100Y526669D02*
X552069Y520700D01*
X1438670Y900720D02*
X1438910Y900960D01*
X700201Y943158D02*
X700274Y943231D01*
X683344Y943158D02*
X700201D01*
X683344D02*
X683870Y942632D01*
Y925980D02*
Y942632D01*
X680460Y912980D02*
X683870D01*
X673100Y905620D02*
X680460Y912980D01*
X673100Y897890D02*
Y905620D01*
X694570Y897890D02*
X701040Y904360D01*
X686600Y897890D02*
X694570D01*
X631190Y932180D02*
Y950480D01*
X516020Y915670D02*
X533000D01*
Y895760D02*
Y915670D01*
X532740Y895500D02*
X533000Y895760D01*
X552570Y900550D02*
X566420D01*
X566820Y900150D01*
Y882650D02*
Y900150D01*
X553170Y882500D02*
X553320Y882650D01*
X532740Y882500D02*
X553170D01*
X484620Y840740D02*
X492240Y848360D01*
X523240D02*
Y891540D01*
X519280Y895500D02*
X523240Y891540D01*
X513740Y895500D02*
X519280D01*
X539000Y848360D02*
X546620Y840740D01*
X538099Y534670D02*
X546100Y526669D01*
X447040Y534670D02*
X538099D01*
X442440Y530070D02*
X447040Y534670D01*
X442440Y514350D02*
Y530070D01*
X438531Y542671D02*
X546100D01*
X430440Y534580D02*
X438531Y542671D01*
X430440Y514350D02*
Y534580D01*
X442440Y693900D02*
X448310Y699770D01*
X442440Y676080D02*
Y693900D01*
X544830Y679831D02*
Y688340D01*
X525780Y707390D02*
X544830Y688340D01*
X440690Y707390D02*
X525780D01*
X430440Y697140D02*
X440690Y707390D01*
X430440Y676080D02*
Y697140D01*
X1003450Y901550D02*
X1012190Y892810D01*
X962810Y921640D02*
X969900Y914550D01*
X979600D01*
X591820Y1182370D02*
X596900Y1187450D01*
X520050Y1155610D02*
X521410Y1156970D01*
X520050Y1140460D02*
Y1155610D01*
X480110Y1182450D02*
Y1183590D01*
X457320Y1206380D02*
X480110Y1183590D01*
X457320Y1206380D02*
Y1207770D01*
X472440Y1207890D02*
X473209Y1208659D01*
X472320Y1207770D02*
X472440Y1207890D01*
Y1216660D01*
X466750Y1222350D02*
X472440Y1216660D01*
X466750Y1222350D02*
Y1253630D01*
X473209Y1208659D02*
X496570D01*
Y1191260D02*
Y1208659D01*
Y1191260D02*
X505460Y1182370D01*
X521410D01*
X578410D02*
X591820D01*
D17*
X757790Y1036320D02*
X776210D01*
X748030Y1046080D02*
X757790Y1036320D01*
X1522730Y1253490D02*
X1524000Y1254760D01*
X1541780D01*
X1521460Y1287780D02*
X1522730Y1286510D01*
X1521460Y1287780D02*
Y1303020D01*
X1181190Y608330D02*
X1195070D01*
X1079500Y811530D02*
X1090248D01*
X1253465Y906780D02*
X1256447Y909762D01*
X1216279Y735711D02*
X1221740Y730250D01*
X1209040Y735711D02*
X1216279D01*
X1209040Y708660D02*
Y719709D01*
X1279307Y957972D02*
X1279699Y957580D01*
X877570Y933050D02*
X891140D01*
X933450Y904160D02*
Y922020D01*
X815340Y907180D02*
X828910D01*
X762000Y951230D02*
X774700D01*
X773030Y977900D02*
X774700Y976230D01*
Y951230D02*
Y976230D01*
X786530Y977900D02*
X803910D01*
Y962280D02*
Y977900D01*
Y962280D02*
X804800Y961390D01*
X747680Y1077460D02*
X748180Y1076960D01*
X747680Y1077460D02*
Y1090930D01*
X748180Y1076960D02*
X750720Y1079500D01*
X762889Y1106170D02*
X764159Y1107440D01*
X747410Y1106170D02*
X762889D01*
X764159Y1107440D02*
X764970Y1106629D01*
Y1089000D02*
Y1106629D01*
X750720Y1079500D02*
X764970D01*
X748030Y1059580D02*
X754550D01*
X764970Y1070000D01*
X1223010Y607060D02*
Y628650D01*
X1209040Y615061D02*
Y635000D01*
X1215009Y599059D02*
X1223010Y607060D01*
X1209040Y599059D02*
X1215009D01*
X1201801Y615061D02*
X1209040D01*
X1195070Y608330D02*
X1201801Y615061D01*
X1181190Y608330D02*
Y613740D01*
X1208659Y599440D02*
X1209040Y599059D01*
X1196340Y599440D02*
X1208659D01*
X1187450Y590550D02*
X1196340Y599440D01*
X1176020Y590550D02*
X1187450D01*
X1169190Y597380D02*
X1176020Y590550D01*
X1169190Y597380D02*
Y613740D01*
X1193419Y735330D02*
X1209040Y719709D01*
X1116330Y735330D02*
X1193419D01*
X1109190Y728190D02*
X1116330Y735330D01*
X1109190Y712140D02*
Y728190D01*
X1201801Y742950D02*
X1209040Y735711D01*
X1109980Y742950D02*
X1201801D01*
X1097190Y730160D02*
X1109980Y742950D01*
X1097190Y712140D02*
Y730160D01*
X1281949Y957870D02*
X1314790D01*
D18*
X1246160Y403118D02*
Y420190D01*
X1236110Y430240D02*
X1246160Y420190D01*
Y386370D02*
Y403118D01*
X1502410Y1227255D02*
X1503245Y1228090D01*
X1521460D02*
X1522730Y1229360D01*
X1502410Y1213612D02*
Y1227255D01*
X1503245Y1228090D02*
X1521460D01*
X1485030D02*
X1503245D01*
X899160Y1089660D02*
X900251Y1088569D01*
X1278517Y958762D02*
X1279307Y957972D01*
X1256447Y958762D02*
X1278517D01*
X792080Y893680D02*
X815340D01*
X791169Y892769D02*
X792080Y893680D01*
X775929Y892769D02*
X791169D01*
X835940Y950240D02*
X852170D01*
X828920Y943220D02*
X835940Y950240D01*
X816610Y943220D02*
X828920D01*
X752987Y935766D02*
X781805D01*
X749300Y939453D02*
X752987Y935766D01*
X749300Y939453D02*
Y951230D01*
X783699Y937660D02*
X795020D01*
X781805Y935766D02*
X783699Y937660D01*
X852170Y903250D02*
Y921740D01*
X800580Y943220D02*
X816610D01*
X795020Y937660D02*
X800580Y943220D01*
X762000Y874649D02*
X762889Y873760D01*
X762000Y874649D02*
Y897128D01*
X749300D02*
X762000D01*
X1406550Y900720D02*
X1438670D01*
X1120521Y455549D02*
X1134110D01*
X1113790Y462280D02*
X1120521Y455549D01*
X1079500Y462280D02*
X1113790D01*
X1192530Y377190D02*
X1236980D01*
X1169670Y400050D02*
X1192530Y377190D01*
X1149350Y400050D02*
X1169670D01*
X1143000Y406400D02*
X1149350Y400050D01*
X1143000Y406400D02*
Y446659D01*
X1134110Y455549D02*
X1143000Y446659D01*
X1236980Y377190D02*
X1246160Y386370D01*
X1165860Y466830D02*
X1168019Y468989D01*
X1168041Y469011D01*
X1168019Y467920D02*
Y468989D01*
X1161139Y471551D02*
X1165860Y466830D01*
X1173480Y466090D02*
X1186815Y452755D01*
X1170890Y417830D02*
X1187450Y434390D01*
X1084961Y472059D02*
X1134110D01*
Y471551D02*
X1161139D01*
X1064242Y477538D02*
X1079500Y462280D01*
X1027803Y477538D02*
X1064242D01*
X1022350Y482990D02*
X1027803Y477538D01*
X1022350Y482990D02*
Y496570D01*
X1028960Y503180D01*
X1046810D01*
X1049911Y491180D02*
X1065840D01*
X1084961Y472059D01*
D27*
X772160Y462280D02*
D03*
X716660Y348280D02*
D03*
D28*
X803910Y977900D02*
D03*
X822910D02*
D03*
X1124610Y1122680D02*
D03*
X1143610D02*
D03*
X1240130Y1154430D02*
D03*
X1221130D02*
D03*
D29*
X804800Y961390D02*
D03*
X820800D02*
D03*
X1126110Y1107440D02*
D03*
X1142110D02*
D03*
X1060070Y1145540D02*
D03*
X1076070D02*
D03*
D30*
X457320Y1207770D02*
D03*
X472320D02*
D03*
X534050Y1140460D02*
D03*
X520050D02*
D03*
D31*
X438150Y1208659D02*
D03*
Y1224661D02*
D03*
X496570D02*
D03*
Y1208659D02*
D03*
X877570Y903351D02*
D03*
Y887349D02*
D03*
X938410Y1301839D02*
D03*
Y1317841D02*
D03*
X954920D02*
D03*
Y1301839D02*
D03*
X546100Y542671D02*
D03*
Y526669D02*
D03*
X544830Y679831D02*
D03*
Y663829D02*
D03*
X1134110Y455549D02*
D03*
Y471551D02*
D03*
X1209040Y599059D02*
D03*
Y615061D02*
D03*
Y719709D02*
D03*
Y735711D02*
D03*
X1207770Y889889D02*
D03*
Y905891D02*
D03*
X1502410Y1197610D02*
D03*
Y1213612D02*
D03*
Y1140079D02*
D03*
Y1156081D02*
D03*
Y1256919D02*
D03*
Y1272921D02*
D03*
D32*
X419100Y1208660D02*
D03*
Y1224660D02*
D03*
D33*
X433070Y1245070D02*
D03*
Y1258570D02*
D03*
X962430Y935120D02*
D03*
Y921620D02*
D03*
X1078230Y1178960D02*
D03*
Y1165460D02*
D03*
D34*
X457250Y1230630D02*
D03*
X476250D02*
D03*
X466750Y1253630D02*
D03*
D35*
X578410Y1156970D02*
D03*
Y1169670D02*
D03*
Y1182370D02*
D03*
Y1195070D02*
D03*
X521410Y1156970D02*
D03*
Y1169670D02*
D03*
Y1182370D02*
D03*
Y1195070D02*
D03*
D36*
X549910Y1176020D02*
D03*
D37*
X632210Y1275080D02*
D03*
X537210D02*
D03*
D38*
X601990Y1096010D02*
D03*
X634990D02*
D03*
D39*
X668020D02*
D03*
X698020D02*
D03*
X481090Y1092200D02*
D03*
X451090D02*
D03*
X866140Y1089660D02*
D03*
X899160D02*
D03*
X1329400Y938820D02*
D03*
X1362420D02*
D03*
D40*
X697230Y1163574D02*
D03*
Y1132586D02*
D03*
X656590Y1163574D02*
D03*
Y1132586D02*
D03*
X615950Y1163574D02*
D03*
Y1132586D02*
D03*
D41*
X586620Y1123950D02*
D03*
X571620D02*
D03*
X1205110Y1230630D02*
D03*
X1190110D02*
D03*
D42*
X558419Y1140460D02*
D03*
X574421D02*
D03*
X914781Y977900D02*
D03*
X898779D02*
D03*
X762381Y875030D02*
D03*
X746379D02*
D03*
X1220012Y1183595D02*
D03*
X1236014D02*
D03*
X764159Y1107440D02*
D03*
X780161D02*
D03*
D43*
X454610Y1182450D02*
D03*
X480110D02*
D03*
D44*
X480090Y1157050D02*
D03*
X452090D02*
D03*
D45*
X451090Y1126490D02*
D03*
X481090D02*
D03*
X640320Y1013460D02*
D03*
X670320D02*
D03*
D46*
X571040Y1094740D02*
D03*
X513540D02*
D03*
D47*
X371820Y1097670D02*
D03*
X365320D02*
D03*
X358820D02*
D03*
X352320D02*
D03*
Y1071470D02*
D03*
X358820D02*
D03*
X365320D02*
D03*
X371820D02*
D03*
D48*
X338213Y1077176D02*
D03*
Y1090676D02*
D03*
X795020Y937660D02*
D03*
Y924160D02*
D03*
X792480Y905910D02*
D03*
Y892410D02*
D03*
X712470Y888130D02*
D03*
Y874630D02*
D03*
X916940Y1252620D02*
D03*
Y1239120D02*
D03*
X748030Y1059580D02*
D03*
Y1046080D02*
D03*
X1016000Y1159910D02*
D03*
Y1146410D02*
D03*
X1148080Y1180230D02*
D03*
Y1166730D02*
D03*
X1034136Y1189317D02*
D03*
Y1175817D02*
D03*
X877570Y933050D02*
D03*
Y946550D02*
D03*
D49*
X302260Y1163830D02*
D03*
Y1119630D02*
D03*
D50*
X877570Y964800D02*
D03*
Y978300D02*
D03*
X962660Y889640D02*
D03*
Y903140D02*
D03*
X815340Y907180D02*
D03*
Y893680D02*
D03*
X1078230Y1221740D02*
D03*
Y1208240D02*
D03*
D51*
X934320Y977900D02*
D03*
X947820D02*
D03*
X977500Y886460D02*
D03*
X991000D02*
D03*
X933850Y880110D02*
D03*
X920350D02*
D03*
X683344Y943158D02*
D03*
X669844D02*
D03*
X533000Y915670D02*
D03*
X546500D02*
D03*
X770490Y1150620D02*
D03*
X783990D02*
D03*
X1020402Y1244133D02*
D03*
X1033902D02*
D03*
X916540Y1271270D02*
D03*
X930040D02*
D03*
X818280Y1069340D02*
D03*
X804780D02*
D03*
X1095610Y1223010D02*
D03*
X1109110D02*
D03*
X1128630D02*
D03*
X1142130D02*
D03*
X1088550Y1282370D02*
D03*
X1102050D02*
D03*
X1190860Y1244600D02*
D03*
X1204360D02*
D03*
D52*
X978020Y932180D02*
D03*
X993020D02*
D03*
D53*
X998600Y914550D02*
D03*
Y901550D02*
D03*
X979600D02*
D03*
Y908050D02*
D03*
Y914550D02*
D03*
X683870Y912980D02*
D03*
Y919480D02*
D03*
Y925980D02*
D03*
X664870D02*
D03*
Y912980D02*
D03*
X513740Y882500D02*
D03*
Y895500D02*
D03*
X532740D02*
D03*
Y889000D02*
D03*
Y882500D02*
D03*
D54*
X895350Y904160D02*
D03*
X908050D02*
D03*
X920750D02*
D03*
X933450D02*
D03*
X895350Y958262D02*
D03*
X908050D02*
D03*
X920750D02*
D03*
X933450D02*
D03*
X774700Y951230D02*
D03*
X762000D02*
D03*
X749300D02*
D03*
X736600D02*
D03*
X774700Y897128D02*
D03*
X762000D02*
D03*
X749300D02*
D03*
X736600D02*
D03*
X1094740Y1145540D02*
D03*
X1107440D02*
D03*
X1120140D02*
D03*
X1132840D02*
D03*
X1094740Y1199642D02*
D03*
X1107440D02*
D03*
X1120140D02*
D03*
X1132840D02*
D03*
D55*
X852170Y874750D02*
D03*
Y903250D02*
D03*
Y921740D02*
D03*
Y950240D02*
D03*
X1164590Y1136930D02*
D03*
Y1108430D02*
D03*
X1188720Y1089860D02*
D03*
Y1061360D02*
D03*
D56*
X816610Y926220D02*
D03*
Y943220D02*
D03*
X1164590Y1204350D02*
D03*
Y1221350D02*
D03*
Y1181980D02*
D03*
Y1164980D02*
D03*
D57*
X773030Y977900D02*
D03*
X786530D02*
D03*
X673100Y897890D02*
D03*
X686600D02*
D03*
X566820Y882650D02*
D03*
X553320D02*
D03*
X1107840Y1122680D02*
D03*
X1094340D02*
D03*
X1051720Y1282370D02*
D03*
X1065220D02*
D03*
D58*
X701040Y919360D02*
D03*
Y904360D02*
D03*
X566420Y900550D02*
D03*
Y915550D02*
D03*
D59*
X700274Y943231D02*
D03*
X713774D02*
D03*
X516020Y915670D02*
D03*
X502520D02*
D03*
X1485030Y1169670D02*
D03*
X1471530D02*
D03*
X1485030Y1228090D02*
D03*
X1471530D02*
D03*
X1485030Y1285240D02*
D03*
X1471530D02*
D03*
D60*
X877400Y1217530D02*
D03*
X735680Y1090930D02*
D03*
X747680D02*
D03*
D61*
X877400Y1231030D02*
D03*
X887900Y1217530D02*
D03*
Y1231030D02*
D03*
D62*
X874880Y1201420D02*
D03*
X887880D02*
D03*
D63*
X859790Y1217780D02*
D03*
Y1230780D02*
D03*
D64*
X1003300Y1304660D02*
D03*
Y1319160D02*
D03*
X1022350Y1304660D02*
D03*
Y1319160D02*
D03*
X984250D02*
D03*
Y1304660D02*
D03*
D65*
Y1274930D02*
D03*
Y1287930D02*
D03*
X1003300Y1274930D02*
D03*
Y1287930D02*
D03*
X1022350Y1274930D02*
D03*
Y1287930D02*
D03*
X1220470Y1243480D02*
D03*
Y1230480D02*
D03*
D66*
X853440Y1115060D02*
D03*
X839440D02*
D03*
X1225400Y1169670D02*
D03*
X1238400D02*
D03*
D67*
X808990Y1116630D02*
D03*
Y1090630D02*
D03*
X838200Y1095040D02*
D03*
Y1069040D02*
D03*
Y1037890D02*
D03*
Y1011890D02*
D03*
X1261110Y1253190D02*
D03*
Y1279190D02*
D03*
D68*
X764970Y1070000D02*
D03*
Y1079500D02*
D03*
Y1089000D02*
D03*
X786970D02*
D03*
Y1079500D02*
D03*
Y1070000D02*
D03*
D69*
X733410Y1106170D02*
D03*
X747410D02*
D03*
D70*
X748180Y1074420D02*
D03*
X735180D02*
D03*
D71*
X806210Y1036320D02*
D03*
X776210D02*
D03*
D72*
X872700Y1060590D02*
D03*
Y1037590D02*
D03*
Y1014590D02*
D03*
D73*
X930700Y1037590D02*
D03*
D74*
X1052919Y1177490D02*
D03*
Y1160990D02*
D03*
X984850Y1104900D02*
D03*
X996350D02*
D03*
D75*
X1031240Y1159910D02*
D03*
Y1146410D02*
D03*
D76*
X1052070Y1123230D02*
D03*
X1039370D02*
D03*
X1026670D02*
D03*
X1013970D02*
D03*
X1052070Y1076230D02*
D03*
X1039370D02*
D03*
X1026670D02*
D03*
X1013970D02*
D03*
D77*
X996950Y1132720D02*
D03*
Y1117720D02*
D03*
X1220470Y1200270D02*
D03*
Y1215270D02*
D03*
D78*
X1029850Y1054100D02*
D03*
X1014850D02*
D03*
D79*
X1076960Y1123290D02*
D03*
Y1104290D02*
D03*
D80*
X1163600Y1085850D02*
D03*
X1135100D02*
D03*
X1163600Y1061720D02*
D03*
X1135100D02*
D03*
D81*
X1133470Y1310640D02*
D03*
X1053470D02*
D03*
D82*
X1255203Y1180365D02*
D03*
Y1165365D02*
D03*
D83*
X1249680Y1214120D02*
D03*
D84*
X1247180Y1228870D02*
D03*
X1242180D02*
D03*
X1237180D02*
D03*
X1252180D02*
D03*
X1257180D02*
D03*
X1262180D02*
D03*
Y1199370D02*
D03*
X1257180D02*
D03*
X1252180D02*
D03*
X1237180D02*
D03*
X1242180D02*
D03*
X1247180D02*
D03*
D85*
X1208930Y1262380D02*
D03*
X1226930D02*
D03*
X630030Y626110D02*
D03*
X612030D02*
D03*
X1236110Y430240D02*
D03*
X1218110D02*
D03*
X1383900Y969300D02*
D03*
X1401900D02*
D03*
D86*
X1041400Y860540D02*
D03*
Y922540D02*
D03*
X631190Y888480D02*
D03*
Y950480D02*
D03*
D87*
X484620Y840740D02*
D03*
X546620D02*
D03*
D88*
X671860Y760490D02*
D03*
Y730490D02*
D03*
X636723Y760490D02*
D03*
Y730490D02*
D03*
X601587Y760490D02*
D03*
Y730490D02*
D03*
X566450Y760490D02*
D03*
Y730490D02*
D03*
X921510Y644030D02*
D03*
Y614030D02*
D03*
X957677Y644030D02*
D03*
Y614030D02*
D03*
X993843Y644030D02*
D03*
Y614030D02*
D03*
X1030010Y644030D02*
D03*
Y614030D02*
D03*
X1046530Y747650D02*
D03*
Y777650D02*
D03*
X1010493Y747650D02*
D03*
Y777650D02*
D03*
X974457Y747650D02*
D03*
Y777650D02*
D03*
X938420Y747650D02*
D03*
Y777650D02*
D03*
X287020Y467120D02*
D03*
Y437120D02*
D03*
X320040Y467120D02*
D03*
Y437120D02*
D03*
X353060Y467120D02*
D03*
Y437120D02*
D03*
X386080Y467120D02*
D03*
Y437120D02*
D03*
D89*
X574040Y673840D02*
D03*
Y624840D02*
D03*
Y541020D02*
D03*
Y590020D02*
D03*
X1165860Y466830D02*
D03*
Y417830D02*
D03*
X1438910Y900960D02*
D03*
Y949960D02*
D03*
X1256447Y958762D02*
D03*
Y909762D02*
D03*
D90*
X669290Y563880D02*
D03*
Y596900D02*
D03*
X1280450Y370550D02*
D03*
Y403570D02*
D03*
X1522730Y1139190D02*
D03*
Y1172210D02*
D03*
Y1196340D02*
D03*
Y1229360D02*
D03*
Y1253490D02*
D03*
Y1286510D02*
D03*
X302260Y1084340D02*
D03*
Y1054340D02*
D03*
D91*
X610870Y548000D02*
D03*
Y595178D02*
D03*
X623570D02*
D03*
X636270D02*
D03*
X648970D02*
D03*
Y548000D02*
D03*
X636270D02*
D03*
X623570D02*
D03*
X1220760Y355940D02*
D03*
Y403118D02*
D03*
X1233460D02*
D03*
X1246160D02*
D03*
X1258860D02*
D03*
Y355940D02*
D03*
X1246160D02*
D03*
X1233460D02*
D03*
D92*
X546100Y560070D02*
D03*
Y642570D02*
D03*
X1187450Y453390D02*
D03*
X1281430Y934720D02*
D03*
D93*
X546100Y579070D02*
D03*
Y623570D02*
D03*
X1187450Y434390D02*
D03*
X1281430Y953720D02*
D03*
D94*
X356870Y392430D02*
D03*
Y311430D02*
D03*
D95*
X1144800Y350520D02*
D03*
X1193800D02*
D03*
X1291060Y459740D02*
D03*
X1242060D02*
D03*
X1337633Y896178D02*
D03*
X1288633D02*
D03*
D96*
X1191210Y326390D02*
D03*
X1306780Y920750D02*
D03*
D97*
X1172210Y326390D02*
D03*
X1287780Y920750D02*
D03*
D98*
X1330670Y459130D02*
D03*
Y419130D02*
D03*
D99*
X1314790Y995970D02*
D03*
X1361968D02*
D03*
Y983270D02*
D03*
Y970570D02*
D03*
Y957870D02*
D03*
X1314790D02*
D03*
Y970570D02*
D03*
Y983270D02*
D03*
D100*
X1406550Y900720D02*
D03*
X1366550D02*
D03*
D101*
X1456180Y1197610D02*
D03*
X1487680D02*
D03*
X1456180Y1140460D02*
D03*
X1487680D02*
D03*
X1456180Y1256030D02*
D03*
X1487680D02*
D03*
D102*
X979960Y1148325D02*
D03*
X996960D02*
D03*
D103*
X932640Y1189590D02*
D03*
Y1214590D02*
D03*
Y1209590D02*
D03*
Y1204590D02*
D03*
Y1199590D02*
D03*
Y1234590D02*
D03*
Y1229590D02*
D03*
Y1224590D02*
D03*
Y1219590D02*
D03*
X1000640Y1189590D02*
D03*
Y1199590D02*
D03*
Y1204590D02*
D03*
Y1209590D02*
D03*
Y1214590D02*
D03*
Y1219590D02*
D03*
Y1224590D02*
D03*
Y1229590D02*
D03*
Y1234590D02*
D03*
Y1244590D02*
D03*
X932640Y1194590D02*
D03*
Y1239590D02*
D03*
X1000640Y1194590D02*
D03*
Y1239590D02*
D03*
D104*
X939140Y1183090D02*
D03*
Y1251090D02*
D03*
X949140Y1183090D02*
D03*
X954140D02*
D03*
X959140D02*
D03*
X964140D02*
D03*
Y1251090D02*
D03*
X959140D02*
D03*
X954140D02*
D03*
X949140D02*
D03*
X969140Y1183090D02*
D03*
X974140D02*
D03*
X979140D02*
D03*
X984140D02*
D03*
Y1251090D02*
D03*
X979140D02*
D03*
X974140D02*
D03*
X969140D02*
D03*
X994140Y1183090D02*
D03*
Y1251090D02*
D03*
X944140Y1183090D02*
D03*
Y1251090D02*
D03*
X989140Y1183090D02*
D03*
Y1251090D02*
D03*
D105*
X932640Y1244590D02*
D03*
D106*
X966640Y1217090D02*
D03*
D107*
X1583690Y374650D02*
D03*
X233680Y1342390D02*
D03*
X410210Y562610D02*
D03*
X720090Y905510D02*
D03*
X730250Y875030D02*
D03*
X551330Y900476D02*
D03*
X934720Y994410D02*
D03*
X899160Y880110D02*
D03*
X495300Y882650D02*
D03*
X947420Y957580D02*
D03*
X904240Y488950D02*
D03*
X1074420Y1000760D02*
D03*
X1212850Y500380D02*
D03*
X1079500Y811530D02*
D03*
X276860Y379730D02*
D03*
X648970Y339090D02*
D03*
Y353060D02*
D03*
Y381000D02*
D03*
Y394970D02*
D03*
Y325120D02*
D03*
Y367030D02*
D03*
X659218Y360081D02*
D03*
Y318171D02*
D03*
Y388021D02*
D03*
Y374051D02*
D03*
Y346111D02*
D03*
Y332141D02*
D03*
X638810Y359410D02*
D03*
Y317500D02*
D03*
Y387350D02*
D03*
Y373380D02*
D03*
Y345440D02*
D03*
Y331470D02*
D03*
X745490Y662940D02*
D03*
X759460D02*
D03*
X787400D02*
D03*
X801370D02*
D03*
X731520D02*
D03*
X773430D02*
D03*
X766481Y652692D02*
D03*
X724571D02*
D03*
X794421D02*
D03*
X780451D02*
D03*
X752511D02*
D03*
X738541D02*
D03*
X765810Y673100D02*
D03*
X723900D02*
D03*
X793750D02*
D03*
X779780D02*
D03*
X751840D02*
D03*
X737870D02*
D03*
X965200Y692150D02*
D03*
X979170D02*
D03*
X1007110D02*
D03*
X1021080D02*
D03*
X951230D02*
D03*
X993140D02*
D03*
X986191Y681902D02*
D03*
X944281D02*
D03*
X1014131D02*
D03*
X1000161D02*
D03*
X972221D02*
D03*
X958251D02*
D03*
X985520Y702310D02*
D03*
X943610D02*
D03*
X1013460D02*
D03*
X999490D02*
D03*
X971550D02*
D03*
X957580D02*
D03*
X1125878Y670106D02*
D03*
X1153818D02*
D03*
X1167788D02*
D03*
X1097938D02*
D03*
X1139848D02*
D03*
X1126549Y649698D02*
D03*
X1154489D02*
D03*
X1168459D02*
D03*
X1098609D02*
D03*
X1140519D02*
D03*
X595300Y976720D02*
D03*
Y962750D02*
D03*
X609270Y976720D02*
D03*
X595300Y990690D02*
D03*
X609270D02*
D03*
X595300Y1004660D02*
D03*
X609270D02*
D03*
X595300Y1018630D02*
D03*
X609270D02*
D03*
X1541780Y1254760D02*
D03*
X1521460Y1303020D02*
D03*
X1280450Y420080D02*
D03*
X707390Y1182370D02*
D03*
X685800D02*
D03*
X1147468Y659946D02*
D03*
X1105558D02*
D03*
X1175408D02*
D03*
X1161438D02*
D03*
X1133498D02*
D03*
X1119528D02*
D03*
X516890Y483870D02*
D03*
X502920D02*
D03*
X474980D02*
D03*
X461010D02*
D03*
X530860D02*
D03*
X488950D02*
D03*
X447040D02*
D03*
X516890Y469900D02*
D03*
X502920D02*
D03*
X474980D02*
D03*
X530860D02*
D03*
X488950D02*
D03*
X447040D02*
D03*
X461010D02*
D03*
X590550Y708660D02*
D03*
Y697230D02*
D03*
X579120D02*
D03*
X567690D02*
D03*
Y708660D02*
D03*
X511810Y616280D02*
D03*
Y630250D02*
D03*
X497840Y616280D02*
D03*
X483870D02*
D03*
Y630250D02*
D03*
X513300Y652280D02*
D03*
X499330D02*
D03*
X579120Y708660D02*
D03*
X601980D02*
D03*
X613410D02*
D03*
X601980Y697230D02*
D03*
X613410D02*
D03*
X668020Y1074420D02*
D03*
X407670Y326390D02*
D03*
Y340360D02*
D03*
Y298450D02*
D03*
Y312420D02*
D03*
X421640Y340360D02*
D03*
X435610D02*
D03*
Y298450D02*
D03*
X421640D02*
D03*
X435610Y326390D02*
D03*
X421640D02*
D03*
Y312420D02*
D03*
X435610D02*
D03*
X745490Y388620D02*
D03*
X756920D02*
D03*
X768350D02*
D03*
X791210D02*
D03*
X779780D02*
D03*
X791210Y377190D02*
D03*
X779780D02*
D03*
X768350D02*
D03*
X756920D02*
D03*
X745490D02*
D03*
X734060Y388620D02*
D03*
Y377190D02*
D03*
X722630D02*
D03*
X1026160Y838200D02*
D03*
X1054100D02*
D03*
X1040130D02*
D03*
X971550Y802640D02*
D03*
X999490D02*
D03*
X985520D02*
D03*
X793750Y769620D02*
D03*
X821690D02*
D03*
X807720D02*
D03*
X605790Y783590D02*
D03*
X633730D02*
D03*
X619760D02*
D03*
X618490Y869950D02*
D03*
X646430D02*
D03*
X632460D02*
D03*
X563880Y808990D02*
D03*
Y781050D02*
D03*
Y795020D02*
D03*
X276860Y393700D02*
D03*
X290830D02*
D03*
Y379730D02*
D03*
X262890Y393700D02*
D03*
Y379730D02*
D03*
X304800D02*
D03*
Y393700D02*
D03*
X276860Y407670D02*
D03*
X262890D02*
D03*
X304800D02*
D03*
X290830D02*
D03*
X431800Y835660D02*
D03*
Y821690D02*
D03*
X445770Y835660D02*
D03*
Y821690D02*
D03*
X459740Y835660D02*
D03*
Y821690D02*
D03*
Y849630D02*
D03*
X431800D02*
D03*
X445770D02*
D03*
X471390Y652280D02*
D03*
X443450D02*
D03*
X457420D02*
D03*
X485360D02*
D03*
X842010Y500380D02*
D03*
X830580D02*
D03*
Y488950D02*
D03*
X819150Y500380D02*
D03*
X807720D02*
D03*
X796290D02*
D03*
X784860D02*
D03*
X773430D02*
D03*
X784860Y488950D02*
D03*
X773430D02*
D03*
X796290D02*
D03*
X807720D02*
D03*
X819150D02*
D03*
X1021630Y603250D02*
D03*
X985463D02*
D03*
X1002223D02*
D03*
X949297D02*
D03*
X966057D02*
D03*
X929890D02*
D03*
X913130D02*
D03*
X1180050Y853440D02*
D03*
X1138140D02*
D03*
X1110200D02*
D03*
X1124170D02*
D03*
X1152110D02*
D03*
X1166080D02*
D03*
X266700Y502920D02*
D03*
X252730D02*
D03*
X294640D02*
D03*
X336550D02*
D03*
X280670D02*
D03*
X308610D02*
D03*
X322580D02*
D03*
X252730Y516890D02*
D03*
Y530860D02*
D03*
X294640D02*
D03*
Y516890D02*
D03*
X336550D02*
D03*
Y530860D02*
D03*
X266700D02*
D03*
Y516890D02*
D03*
X280670D02*
D03*
Y530860D02*
D03*
X322580D02*
D03*
X308610Y516890D02*
D03*
Y530860D02*
D03*
X322580Y516890D02*
D03*
X316230Y952500D02*
D03*
X330200Y966470D02*
D03*
X316230D02*
D03*
X330200Y952500D02*
D03*
Y994410D02*
D03*
X316230D02*
D03*
Y1008380D02*
D03*
X330200D02*
D03*
Y938530D02*
D03*
X316230D02*
D03*
Y980440D02*
D03*
X330200D02*
D03*
Y1022350D02*
D03*
X316230D02*
D03*
X302260Y952500D02*
D03*
Y966470D02*
D03*
Y994410D02*
D03*
Y938530D02*
D03*
Y980440D02*
D03*
Y1022350D02*
D03*
Y1008380D02*
D03*
X595300Y948780D02*
D03*
Y1032600D02*
D03*
X637210Y990690D02*
D03*
Y976720D02*
D03*
X567360Y948780D02*
D03*
X581330D02*
D03*
Y990690D02*
D03*
X567360D02*
D03*
Y1032600D02*
D03*
X581330D02*
D03*
X623240Y990690D02*
D03*
X581330Y962750D02*
D03*
X567360D02*
D03*
Y976720D02*
D03*
X581330D02*
D03*
Y1018630D02*
D03*
X567360D02*
D03*
Y1004660D02*
D03*
X581330D02*
D03*
X623240Y976720D02*
D03*
Y1004660D02*
D03*
X425780Y1024410D02*
D03*
X467690Y1038380D02*
D03*
Y996470D02*
D03*
Y954560D02*
D03*
X425780Y1038380D02*
D03*
Y996470D02*
D03*
Y954560D02*
D03*
X467690Y1024410D02*
D03*
Y1010440D02*
D03*
Y982500D02*
D03*
Y968530D02*
D03*
X425780Y1010440D02*
D03*
Y982500D02*
D03*
Y968530D02*
D03*
X495630Y1038380D02*
D03*
X481660D02*
D03*
Y996470D02*
D03*
X495630D02*
D03*
Y954560D02*
D03*
X481660D02*
D03*
X439750Y1038380D02*
D03*
X453720D02*
D03*
Y996470D02*
D03*
X439750D02*
D03*
Y954560D02*
D03*
X453720D02*
D03*
X481660Y1024410D02*
D03*
X495630D02*
D03*
Y1010440D02*
D03*
X481660D02*
D03*
Y968530D02*
D03*
X495630D02*
D03*
Y982500D02*
D03*
X481660D02*
D03*
X453720Y1024410D02*
D03*
X439750D02*
D03*
Y1010440D02*
D03*
X453720D02*
D03*
Y968530D02*
D03*
X439750Y982500D02*
D03*
X453720D02*
D03*
X439750Y968530D02*
D03*
X497840Y574370D02*
D03*
X483870Y588340D02*
D03*
Y574370D02*
D03*
X497840Y588340D02*
D03*
X455930D02*
D03*
Y574370D02*
D03*
X441960D02*
D03*
Y588340D02*
D03*
X497840Y630250D02*
D03*
X455930Y616280D02*
D03*
Y630250D02*
D03*
X441960D02*
D03*
Y616280D02*
D03*
X511810Y588340D02*
D03*
Y574370D02*
D03*
X469900D02*
D03*
Y588340D02*
D03*
X427990D02*
D03*
Y574370D02*
D03*
X469900Y630250D02*
D03*
Y616280D02*
D03*
X427990D02*
D03*
Y630250D02*
D03*
X497840Y560400D02*
D03*
X483870D02*
D03*
X455930D02*
D03*
X497840Y602310D02*
D03*
X483870D02*
D03*
X455930D02*
D03*
X441960D02*
D03*
X511810Y560400D02*
D03*
X469900D02*
D03*
X427990D02*
D03*
X511810Y602310D02*
D03*
X469900D02*
D03*
X427990D02*
D03*
X441960Y560400D02*
D03*
X497840Y736100D02*
D03*
X483870Y750070D02*
D03*
Y736100D02*
D03*
X497840Y750070D02*
D03*
X455930D02*
D03*
Y736100D02*
D03*
X441960D02*
D03*
Y750070D02*
D03*
X483870Y778010D02*
D03*
Y791980D02*
D03*
X497840D02*
D03*
Y778010D02*
D03*
X455930D02*
D03*
Y791980D02*
D03*
X441960D02*
D03*
Y778010D02*
D03*
X511810Y750070D02*
D03*
Y736100D02*
D03*
X469900D02*
D03*
Y750070D02*
D03*
X427990D02*
D03*
Y736100D02*
D03*
X511810Y778010D02*
D03*
Y791980D02*
D03*
X469900D02*
D03*
Y778010D02*
D03*
X427990D02*
D03*
Y791980D02*
D03*
X497840Y722130D02*
D03*
X483870D02*
D03*
X455930D02*
D03*
X497840Y764040D02*
D03*
X483870D02*
D03*
X455930D02*
D03*
X441960D02*
D03*
X511810Y722130D02*
D03*
X469900D02*
D03*
X427990D02*
D03*
X511810Y764040D02*
D03*
X469900D02*
D03*
X427990D02*
D03*
X441960Y722130D02*
D03*
X1108710Y929640D02*
D03*
X1052830Y957580D02*
D03*
X1038860D02*
D03*
X1024890D02*
D03*
X1052830Y971550D02*
D03*
X1038860D02*
D03*
X1024890D02*
D03*
X1052830Y985520D02*
D03*
X1038860D02*
D03*
X1024890D02*
D03*
X1052830Y999490D02*
D03*
X1038860D02*
D03*
X1024890D02*
D03*
X1070610Y560070D02*
D03*
Y546100D02*
D03*
Y518160D02*
D03*
Y504190D02*
D03*
Y532130D02*
D03*
Y574040D02*
D03*
X1097280Y758588D02*
D03*
X1139190D02*
D03*
X1181100D02*
D03*
X1111250D02*
D03*
X1167130D02*
D03*
X1153160D02*
D03*
X1125220D02*
D03*
X1094740Y971550D02*
D03*
X1136650D02*
D03*
X1178560D02*
D03*
X1094740Y929640D02*
D03*
X1136650D02*
D03*
X1178560D02*
D03*
X1097280Y800498D02*
D03*
X1139190D02*
D03*
X1181100D02*
D03*
X1108710Y971550D02*
D03*
X1122680D02*
D03*
X1150620D02*
D03*
X1164590D02*
D03*
X1122680Y929640D02*
D03*
X1150620D02*
D03*
X1164590D02*
D03*
X1097280Y786528D02*
D03*
Y828438D02*
D03*
Y814468D02*
D03*
Y772558D02*
D03*
X1139190Y828438D02*
D03*
Y786528D02*
D03*
Y814468D02*
D03*
Y772558D02*
D03*
X1181100Y786528D02*
D03*
Y828438D02*
D03*
Y814468D02*
D03*
Y772558D02*
D03*
X1094740Y999490D02*
D03*
Y985520D02*
D03*
X1136650D02*
D03*
Y999490D02*
D03*
X1178560D02*
D03*
Y985520D02*
D03*
X1094740Y943610D02*
D03*
Y957580D02*
D03*
X1136650D02*
D03*
Y943610D02*
D03*
X1178560D02*
D03*
Y957580D02*
D03*
X1111250Y800498D02*
D03*
X1167130D02*
D03*
X1153160D02*
D03*
X1108710Y985520D02*
D03*
Y999490D02*
D03*
X1122680D02*
D03*
Y985520D02*
D03*
X1164590D02*
D03*
Y999490D02*
D03*
X1150620D02*
D03*
Y985520D02*
D03*
X1108710Y957580D02*
D03*
Y943610D02*
D03*
X1122680D02*
D03*
Y957580D02*
D03*
X1164590D02*
D03*
X1150620Y943610D02*
D03*
Y957580D02*
D03*
X1164590Y943610D02*
D03*
X1111250Y828438D02*
D03*
Y786528D02*
D03*
Y814468D02*
D03*
Y772558D02*
D03*
X1153160Y786528D02*
D03*
Y828438D02*
D03*
X1167130D02*
D03*
Y786528D02*
D03*
X1153160Y814468D02*
D03*
X1167130D02*
D03*
Y772558D02*
D03*
X1153160D02*
D03*
X1125220Y800498D02*
D03*
Y786528D02*
D03*
Y828438D02*
D03*
Y814468D02*
D03*
Y772558D02*
D03*
X1181100Y509270D02*
D03*
X1167130Y523240D02*
D03*
X1181100D02*
D03*
Y537210D02*
D03*
Y565150D02*
D03*
Y551180D02*
D03*
X1167130Y565150D02*
D03*
Y551180D02*
D03*
X1139190Y565150D02*
D03*
X1153160D02*
D03*
X1139190Y551180D02*
D03*
X1153160Y537210D02*
D03*
X1139190Y523240D02*
D03*
X1153160Y509270D02*
D03*
X1125220D02*
D03*
X1111250Y523240D02*
D03*
X1125220Y537210D02*
D03*
X1111250Y551180D02*
D03*
Y565150D02*
D03*
X1125220D02*
D03*
X1097280Y509270D02*
D03*
Y523240D02*
D03*
Y537210D02*
D03*
Y551180D02*
D03*
Y565150D02*
D03*
Y495300D02*
D03*
X1125220D02*
D03*
X1111250D02*
D03*
X1153160D02*
D03*
X1139190D02*
D03*
X1181100D02*
D03*
X1167130D02*
D03*
Y537210D02*
D03*
Y509270D02*
D03*
X1153160Y551180D02*
D03*
Y523240D02*
D03*
X1139190Y537210D02*
D03*
Y509270D02*
D03*
X1125220Y551180D02*
D03*
Y523240D02*
D03*
X1111250Y537210D02*
D03*
Y509270D02*
D03*
X942340Y491270D02*
D03*
X956310Y505240D02*
D03*
Y491270D02*
D03*
X970280D02*
D03*
X998220D02*
D03*
X984250D02*
D03*
X998220Y505240D02*
D03*
X984250D02*
D03*
X998220Y533180D02*
D03*
Y519210D02*
D03*
X984250Y533180D02*
D03*
X970280Y519210D02*
D03*
X956310Y533180D02*
D03*
X942340Y519210D02*
D03*
Y547150D02*
D03*
X956310Y561120D02*
D03*
X970280Y547150D02*
D03*
X984250Y561120D02*
D03*
X998220D02*
D03*
Y547150D02*
D03*
X942340Y575090D02*
D03*
X956310D02*
D03*
X970280D02*
D03*
X984250D02*
D03*
X998220D02*
D03*
X928370D02*
D03*
Y547150D02*
D03*
Y561120D02*
D03*
Y519210D02*
D03*
Y533180D02*
D03*
Y491270D02*
D03*
Y505240D02*
D03*
X970280D02*
D03*
X942340D02*
D03*
X984250Y519210D02*
D03*
X956310D02*
D03*
X970280Y533180D02*
D03*
X942340D02*
D03*
X984250Y547150D02*
D03*
X956310D02*
D03*
X970280Y561120D02*
D03*
X942340D02*
D03*
D108*
X379730Y951930D02*
D03*
Y963930D02*
D03*
Y975930D02*
D03*
Y987930D02*
D03*
Y999930D02*
D03*
Y1011930D02*
D03*
Y1023930D02*
D03*
Y1035930D02*
D03*
X1046810Y491180D02*
D03*
Y503180D02*
D03*
Y515180D02*
D03*
Y527180D02*
D03*
Y539180D02*
D03*
Y551180D02*
D03*
Y563180D02*
D03*
Y575180D02*
D03*
D109*
X458030Y993930D02*
D03*
X968510Y533180D02*
D03*
D110*
X514440Y514350D02*
D03*
X502440D02*
D03*
X490440D02*
D03*
X478440D02*
D03*
X466440D02*
D03*
X454440D02*
D03*
X442440D02*
D03*
X430440D02*
D03*
X514440Y676080D02*
D03*
X502440D02*
D03*
X490440D02*
D03*
X478440D02*
D03*
X466440D02*
D03*
X454440D02*
D03*
X442440D02*
D03*
X430440D02*
D03*
X1181190Y712140D02*
D03*
X1169190D02*
D03*
X1157190D02*
D03*
X1145190D02*
D03*
X1133190D02*
D03*
X1121190D02*
D03*
X1109190D02*
D03*
X1097190D02*
D03*
X1181190Y883590D02*
D03*
X1169190D02*
D03*
X1157190D02*
D03*
X1145190D02*
D03*
X1133190D02*
D03*
X1121190D02*
D03*
X1109190D02*
D03*
X1097190D02*
D03*
X1181190Y613740D02*
D03*
X1169190D02*
D03*
X1157190D02*
D03*
X1145190D02*
D03*
X1133190D02*
D03*
X1121190D02*
D03*
X1109190D02*
D03*
X1097190D02*
D03*
D111*
X472440Y592650D02*
D03*
Y754380D02*
D03*
X1139190Y790440D02*
D03*
Y961890D02*
D03*
Y535440D02*
D03*
D112*
X829100Y1163430D02*
D03*
Y1169930D02*
D03*
Y1176430D02*
D03*
Y1182930D02*
D03*
Y1189430D02*
D03*
Y1195930D02*
D03*
Y1202430D02*
D03*
X771100D02*
D03*
Y1195930D02*
D03*
Y1189430D02*
D03*
Y1182930D02*
D03*
Y1176430D02*
D03*
Y1169930D02*
D03*
X829100Y1208930D02*
D03*
X771100D02*
D03*
Y1163430D02*
D03*
D222*
X662940Y546100D02*
X669290Y552450D01*
X1144800Y350520D02*
Y369040D01*
X669290Y552450D02*
Y563880D01*
X557050Y590020D02*
X574040D01*
X546100Y579070D02*
X557050Y590020D01*
X546100Y542671D02*
X572770D01*
X546100D02*
Y560070D01*
X574040Y657860D02*
Y673840D01*
X558750Y642570D02*
X574040Y657860D01*
X546100Y642570D02*
X558750D01*
X546100Y623570D02*
X572770D01*
X568049Y679831D02*
X574040Y673840D01*
X544830Y679831D02*
X568049D01*
D223*
X1279998Y403118D02*
X1280450Y403570D01*
X1258860Y403118D02*
X1279998D01*
X1487680Y1256030D02*
X1521460D01*
X1502610Y1169670D02*
X1520190D01*
X1485030D02*
X1502610D01*
X1502410Y1169470D02*
X1502610Y1169670D01*
X1502410Y1156081D02*
Y1169470D01*
X1520190Y1169670D02*
X1522730Y1172210D01*
X1487680Y1140460D02*
X1521460D01*
X1522730Y1139190D01*
X1243484Y1259234D02*
X1247958Y1254760D01*
X713486Y1163574D02*
X744220Y1132840D01*
X697230Y1163574D02*
X713486D01*
X1540510Y1196340D02*
X1554902Y1181947D01*
Y593512D02*
Y1181947D01*
X1456690Y495300D02*
X1554902Y593512D01*
X1528949Y1165991D02*
X1543050Y1151890D01*
Y1012190D02*
Y1151890D01*
X1457540Y926680D02*
X1543050Y1012190D01*
X1438910Y949960D02*
X1522730Y1033780D01*
Y1131045D01*
X1385280Y926680D02*
Y967920D01*
Y891830D02*
Y926680D01*
X1457540D01*
X1245870Y464820D02*
X1276350Y495300D01*
X1238110Y434060D02*
X1254480D01*
X1267460Y447040D01*
Y471170D01*
X1281430Y485140D01*
X1460898D01*
X1276350Y495300D02*
X1456690D01*
X1460898Y485140D02*
X1567180Y591422D01*
Y1191260D01*
X1529080Y1229360D02*
X1567180Y1191260D01*
X1522730Y1229360D02*
X1529080D01*
X1522730Y1196340D02*
X1540510D01*
X1362420Y904850D02*
Y919770D01*
X1280450Y403570D02*
Y420080D01*
Y403570D02*
X1297650D01*
X1313210Y419130D01*
X1330670D01*
X1245870Y326390D02*
X1258860Y339380D01*
X1191210Y326390D02*
X1245870D01*
X1191210D02*
Y347930D01*
X1163320Y326390D02*
X1172210D01*
X1144800Y344910D02*
X1163320Y326390D01*
X1450340Y1197610D02*
X1456180D01*
X1446530Y1256030D02*
X1456180D01*
X1440180Y1262380D02*
X1446530Y1256030D01*
X1521460Y1197610D02*
X1522730Y1196340D01*
X1502410Y1197610D02*
X1521460D01*
X1487680D02*
X1502410D01*
X1338580Y1136650D02*
X1357630Y1155700D01*
X1440940D02*
X1456180Y1140460D01*
X1442720Y1289050D02*
X1446530Y1285240D01*
X1414780Y1289050D02*
X1442720D01*
X1501340Y1285240D02*
X1502410Y1284170D01*
X1501340Y1285240D02*
X1517650D01*
X1485030D02*
X1501340D01*
X1438910Y1209040D02*
X1450340Y1197610D01*
X1502410Y1272921D02*
Y1284170D01*
X1357630Y1155700D02*
X1440940D01*
X1457960Y1169670D02*
X1471530D01*
X1437640Y1228090D02*
X1471530D01*
X1446530Y1285240D02*
X1471530D01*
X1376680Y1289050D02*
X1437640Y1228090D01*
X1338580Y1289050D02*
X1457960Y1169670D01*
X1247958Y1254760D02*
X1257300D01*
X816220Y925830D02*
X829310D01*
X747145Y924175D02*
X814565D01*
X822910Y963500D02*
Y977900D01*
X820800Y961390D02*
X822910Y963500D01*
X630030Y626110D02*
Y636160D01*
X610870Y655320D02*
X630030Y636160D01*
X601980Y655320D02*
X610870D01*
X1218110Y430240D02*
Y449760D01*
X1228090Y459740D01*
X1242060D01*
X1291060D02*
X1330060D01*
X1330670Y459130D01*
X1236980Y906780D02*
X1253465D01*
X1368480Y875030D02*
X1385280Y891830D01*
X1222629Y875030D02*
X1368480D01*
X1207770Y889889D02*
X1222629Y875030D01*
X1282725Y890270D02*
X1288633Y896178D01*
X1230630Y890270D02*
X1282725D01*
X1215009Y905891D02*
X1230630Y890270D01*
X1207770Y905891D02*
X1215009D01*
X1270000Y934720D02*
X1281430D01*
X1333381Y900430D02*
X1337633Y896178D01*
X1318260Y900430D02*
X1333381D01*
X1256447Y909762D02*
X1258570Y911885D01*
X1306780Y911910D02*
X1318260Y900430D01*
X1287780Y908050D02*
Y918210D01*
X1306780Y911910D02*
Y920750D01*
X1258570Y923290D02*
X1270000Y934720D01*
X1258570Y911885D02*
Y923290D01*
X717150Y892810D02*
X723900D01*
X712470Y888130D02*
X717150Y892810D01*
X793750Y905910D02*
X802240D01*
X820800Y961390D02*
X833120D01*
X814565Y924175D02*
X816220Y925830D01*
X736600Y934720D02*
X747145Y924175D01*
X736600Y934720D02*
Y951230D01*
X991000Y886460D02*
X1000760D01*
X669844Y943158D02*
Y954486D01*
X546500Y915670D02*
Y924160D01*
X566300Y915670D02*
X566420Y915550D01*
X546500Y915670D02*
X566300D01*
X599530Y638610D02*
X612030Y626110D01*
X806835Y1116630D02*
X808990D01*
X786970Y1096765D02*
X806835Y1116630D01*
X786970Y1089000D02*
Y1096765D01*
X744220Y1132840D02*
X750570Y1126490D01*
X799130D01*
X808990Y1116630D01*
X1401900Y969300D02*
X1421240Y949960D01*
X1438910D01*
X1316065Y937550D02*
X1328130D01*
X1304000D02*
X1316065D01*
X1280450Y355310D02*
Y370550D01*
Y346420D02*
Y355310D01*
X1258860Y339380D02*
Y355940D01*
X1198880Y387350D02*
X1229360D01*
X1174750Y411480D02*
X1198880Y387350D01*
X1172210Y411480D02*
X1174750D01*
X1165860Y417830D02*
X1172210Y411480D01*
X1229360Y387350D02*
X1233460Y391450D01*
Y403118D01*
X665480Y614680D02*
X669290Y610870D01*
Y596900D02*
Y610870D01*
X667568Y595178D02*
X669290Y596900D01*
X648970Y595178D02*
X667568D01*
X630030Y626110D02*
X636270Y619870D01*
Y595178D02*
Y619870D01*
X610870Y624950D02*
X612030Y626110D01*
X610870Y595178D02*
Y624950D01*
X574040Y590020D02*
X596370Y567690D01*
X641350D01*
X648970Y560070D01*
Y548000D02*
Y560070D01*
X623570Y582930D02*
Y595178D01*
X619760Y579120D02*
X623570Y582930D01*
X603250Y579120D02*
X619760D01*
X596900Y585470D02*
X603250Y579120D01*
X596900Y585470D02*
Y617220D01*
X589280Y624840D02*
X596900Y617220D01*
X574040Y624840D02*
X589280D01*
X572770Y623570D02*
X574040Y624840D01*
X1277910Y373090D02*
X1280450Y370550D01*
X1251240Y373090D02*
X1277910D01*
X1246160Y368010D02*
X1251240Y373090D01*
X1246160Y355940D02*
Y368010D01*
X1218110Y430240D02*
X1220760Y427590D01*
Y403118D02*
Y427590D01*
X1385280Y995970D02*
X1401900Y979350D01*
Y969300D02*
Y979350D01*
X1361968Y995970D02*
X1385280D01*
X1383900Y969300D02*
X1385280Y967920D01*
X1382630Y970570D02*
X1383900Y969300D01*
X1361968Y970570D02*
X1382630D01*
X1328130Y937550D02*
X1329400Y938820D01*
X1314790Y970570D02*
X1325590D01*
X1329690Y966470D01*
Y939110D02*
Y966470D01*
X1329400Y938820D02*
X1329690Y939110D01*
X1362420Y919770D02*
Y938820D01*
X1361968Y939272D02*
X1362420Y938820D01*
X1361968Y939272D02*
Y957870D01*
X1343370Y900720D02*
Y978190D01*
X1348450Y983270D01*
X1359428D01*
X1276060Y976920D02*
X1292570D01*
X1298920Y970570D01*
X1314790D01*
D224*
X623570Y548000D02*
X623938Y547632D01*
Y533488D02*
Y547632D01*
X610478Y547608D02*
X610870Y548000D01*
X610478Y533852D02*
Y547608D01*
X1112520Y1107440D02*
X1126110D01*
X586620Y1136530D02*
X589280Y1139190D01*
X586620Y1123950D02*
Y1136530D01*
X1221130Y1143660D02*
Y1154430D01*
X433070Y1258570D02*
X448310D01*
X433070Y1229741D02*
X438150Y1224661D01*
X433070Y1229741D02*
Y1245070D01*
X438150Y1224661D02*
X444119Y1230630D01*
X457250D01*
X438149Y1224660D02*
X438150Y1224661D01*
X419100Y1224660D02*
X438149D01*
X741680Y1132840D02*
X744220D01*
X1281430Y1002030D02*
X1287490Y995970D01*
X1314790D01*
X1281430Y989330D02*
X1297940D01*
X1304000Y983270D01*
X1314790D01*
X1233460Y342610D02*
X1236980Y339090D01*
X1233460Y342610D02*
Y355940D01*
X1219200Y340360D02*
X1220760Y341920D01*
Y355940D01*
X1013970Y1076230D02*
Y1087630D01*
X1018540Y1092200D01*
X1033780D01*
X1039370Y1086610D01*
Y1076230D02*
Y1086610D01*
X1003300Y1054100D02*
X1014850D01*
X1013970Y1054980D02*
Y1076230D01*
X1003300Y1096010D02*
X1013970Y1106680D01*
Y1123230D01*
X984850Y1104900D02*
Y1113190D01*
X980830Y1117210D02*
X984850Y1113190D01*
X980830Y1117210D02*
Y1148080D01*
X989330Y1096010D02*
X1003300Y1096010D01*
X984850Y1100490D02*
X989330Y1096010D01*
X984850Y1100490D02*
Y1104900D01*
X1013970Y1054980D02*
X1014850Y1054100D01*
X1013970Y1123230D02*
X1026670D01*
X724070Y1097519D02*
X730659Y1090930D01*
X724070Y1097519D02*
Y1115230D01*
X741680Y1132840D01*
X1094340Y1221740D02*
X1094740Y1222140D01*
X1078230Y1221740D02*
X1094340D01*
X1094740Y1199642D02*
Y1222140D01*
X1107440Y1199642D02*
X1120140D01*
X1107440Y1189990D02*
Y1199642D01*
X1096410Y1178960D02*
X1107440Y1189990D01*
X1078230Y1178960D02*
X1096410D01*
X1078230Y1148080D02*
Y1165460D01*
X1094340Y1122680D02*
X1094740Y1123080D01*
Y1145540D01*
X1107440D01*
X1107840Y1122680D02*
X1124610D01*
Y1108940D02*
X1126110Y1107440D01*
X1124610Y1108940D02*
Y1122680D01*
X1129900Y1166730D02*
X1148080D01*
X1120140Y1156970D02*
X1129900Y1166730D01*
X1120140Y1145540D02*
Y1156970D01*
X867410Y911860D02*
X873760Y918210D01*
X867410Y896620D02*
Y911860D01*
X920750Y904160D02*
Y915670D01*
X918210Y918210D02*
X920750Y915670D01*
X873760Y918210D02*
X918210D01*
X862330Y891540D02*
X867410Y896620D01*
X841130Y891540D02*
X862330D01*
X838200Y894470D02*
X841130Y891540D01*
X838200Y894470D02*
Y910610D01*
X833130Y915680D02*
X838200Y910610D01*
X801697Y915680D02*
X833130D01*
X801677Y915660D02*
X801697Y915680D01*
X727720Y915660D02*
X801677D01*
X727710Y915670D02*
X727720Y915660D01*
X730659Y1090930D02*
X735680D01*
X733410Y1113140D02*
X737870Y1117600D01*
X733410Y1106170D02*
Y1113140D01*
D225*
X695960Y1176020D02*
Y1291590D01*
X745490Y1341120D01*
X1177887D01*
X1233170Y1285837D01*
D226*
X1243484Y1275523D01*
X900251Y1088569D02*
X901341Y1089660D01*
X919480D01*
X852170Y857250D02*
Y874750D01*
X838200Y1053465D02*
Y1069040D01*
Y1037890D02*
Y1053465D01*
X899160Y1028700D02*
Y1089660D01*
X885050Y1014590D02*
X899160Y1028700D01*
X838200Y1037890D02*
X838500Y1037590D01*
X872700D01*
D227*
X1243484Y1259234D02*
Y1275523D01*
D228*
X250500Y1194000D02*
X272090D01*
X302260Y1163830D01*
D229*
X668020Y1074420D02*
Y1096010D01*
X571040D02*
X601990D01*
X634990D02*
X668020D01*
D230*
X870585Y1087755D02*
D03*
D231*
X438030Y993930D02*
D03*
X988510Y533180D02*
D03*
D232*
X490269Y993924D02*
D03*
X936251Y533164D02*
D03*
D233*
X472440Y572650D02*
D03*
X472440Y734380D02*
D03*
X1139190Y770440D02*
D03*
X1139190Y941890D02*
D03*
Y555440D02*
D03*
D234*
X472448Y624891D02*
D03*
X472447Y786620D02*
D03*
X1139189Y822697D02*
D03*
X1139219Y994138D02*
D03*
X1139182Y503196D02*
D03*
D235*
X963295Y532765D02*
D03*
D236*
X982420Y833120D02*
D03*
X896340D02*
D03*
X695250Y821690D02*
D03*
X610160D02*
D03*
D237*
X947420Y833120D02*
D03*
X861340D02*
D03*
X730250Y821690D02*
D03*
X645160D02*
D03*
X731520Y721360D02*
D03*
X878840Y732080D02*
D03*
X849630Y668490D02*
D03*
Y618490D02*
D03*
X865270Y518560D02*
D03*
Y568560D02*
D03*
X759460Y568160D02*
D03*
Y518160D02*
D03*
X865270Y462515D02*
D03*
Y412515D02*
D03*
X889000Y330200D02*
D03*
X839000D02*
D03*
X228200Y376320D02*
D03*
Y426320D02*
D03*
X266700Y299720D02*
D03*
X216700D02*
D03*
X134220Y467640D02*
D03*
Y417640D02*
D03*
D238*
X731520Y756360D02*
D03*
X878840Y767080D02*
D03*
D239*
X1300480Y1289050D02*
D03*
X1338580D02*
D03*
X1376680D02*
D03*
X1414780D02*
D03*
Y1136650D02*
D03*
X1376680D02*
D03*
X1338580D02*
D03*
X1300480D02*
D03*
D240*
X798630Y1240790D02*
D03*
X798830Y1314450D02*
D03*
D241*
X786130Y1240790D02*
D03*
X773630D02*
D03*
X761130D02*
D03*
X773830Y1314450D02*
D03*
X761330D02*
D03*
X786330D02*
D03*
D242*
X838600D02*
D03*
X851100D02*
D03*
X863600D02*
D03*
X876100D02*
D03*
X888600D02*
D03*
D243*
X901100D02*
D03*
D244*
X250500Y889200D02*
D03*
X148900D02*
D03*
Y990800D02*
D03*
X250500D02*
D03*
Y1092400D02*
D03*
X148900D02*
D03*
Y1194000D02*
D03*
X250500D02*
D03*
X966070Y434200D02*
D03*
Y332600D02*
D03*
X1067670D02*
D03*
Y434200D02*
D03*
X469900D02*
D03*
Y332600D02*
D03*
X571500D02*
D03*
Y434200D02*
D03*
D245*
X1400000Y1050000D02*
D03*
X95000Y1330000D02*
D03*
X1575000Y280000D02*
D03*
Y1330000D02*
D03*
X350000Y870000D02*
D03*
X95000Y280000D02*
D03*
D246*
X1312860Y611680D02*
D03*
X1292860Y741680D02*
D03*
D247*
X1299710Y818660D02*
D03*
X1425710Y598660D02*
D03*
D248*
X130030Y594860D02*
D03*
X350030Y720860D02*
D03*
D249*
X1060530Y1252220D02*
D03*
X1085930D02*
D03*
X1111330D02*
D03*
D250*
X1136730D02*
D03*
D251*
X556410Y1163020D02*
D03*
Y1189020D02*
D03*
Y1176020D02*
D03*
X543410Y1163020D02*
D03*
Y1189020D02*
D03*
Y1176020D02*
D03*
X974690Y1209040D02*
D03*
X958590Y1225140D02*
D03*
X974690D02*
D03*
X958590Y1209040D02*
D03*
D252*
X186494Y254750D02*
D03*
X286316D02*
D03*
X386138D02*
D03*
X485960Y271260D02*
D03*
X685604Y254750D02*
D03*
X585782Y271260D02*
D03*
X1384358Y254750D02*
D03*
X1484180D02*
D03*
X1084892Y273800D02*
D03*
X1184714Y254750D02*
D03*
X1284536D02*
D03*
X985070Y272530D02*
D03*
X885248Y254750D02*
D03*
X785426D02*
D03*
X1600250Y440604D02*
D03*
Y340782D02*
D03*
Y540426D02*
D03*
Y640248D02*
D03*
Y740070D02*
D03*
Y1039536D02*
D03*
Y939714D02*
D03*
Y839892D02*
D03*
Y1239180D02*
D03*
Y1139358D02*
D03*
X1383684Y1357790D02*
D03*
X1483506Y1355250D02*
D03*
X1283862Y1357790D02*
D03*
X69750Y340782D02*
D03*
Y440604D02*
D03*
Y540426D02*
D03*
Y640248D02*
D03*
Y740070D02*
D03*
Y1039536D02*
D03*
X87530Y939714D02*
D03*
X69750Y839892D02*
D03*
Y1239180D02*
D03*
X87530Y1139358D02*
D03*
X285642Y1355250D02*
D03*
X185820D02*
D03*
X585108D02*
D03*
X485286D02*
D03*
X385464D02*
D03*
X895452Y1227462D02*
D03*
X797560Y1079500D02*
D03*
X448310Y1219200D02*
D03*
X487680Y1236980D02*
D03*
X521970Y1211580D02*
D03*
X466090Y1168550D02*
D03*
X464820Y1144270D02*
D03*
X466090Y1108710D02*
D03*
X434340Y1089660D02*
D03*
Y1112838D02*
D03*
Y1136015D02*
D03*
Y1159193D02*
D03*
Y1182370D02*
D03*
X684930Y1355250D02*
D03*
X784752Y1357790D02*
D03*
X884574D02*
D03*
X984396D02*
D03*
X1184040D02*
D03*
X1084218D02*
D03*
X1250950Y1295400D02*
D03*
X1271270Y1292860D02*
D03*
X1178560Y1256030D02*
D03*
X1191260Y1268730D02*
D03*
X1206500Y1280160D02*
D03*
X1272540Y1202690D02*
D03*
Y1224280D02*
D03*
X1206500Y1200150D02*
D03*
Y1164590D02*
D03*
X927100Y1322070D02*
D03*
Y1311910D02*
D03*
X969010Y1316990D02*
D03*
X820420Y1272540D02*
D03*
X741680Y1283970D02*
D03*
X725611Y1231817D02*
D03*
X727710Y1184910D02*
D03*
X546100Y1126490D02*
D03*
X539750Y1093470D02*
D03*
X652004Y1112265D02*
D03*
X618490Y1113790D02*
D03*
Y1073760D02*
D03*
X684530Y1074420D02*
D03*
X683260Y1113790D02*
D03*
X764094Y1003432D02*
D03*
X817880Y1003300D02*
D03*
X911860Y1035050D02*
D03*
X897890Y1109980D02*
D03*
Y1258570D02*
D03*
X892983Y1279924D02*
D03*
X835660Y1233170D02*
D03*
X885549Y1186262D02*
D03*
X833120Y1127760D02*
D03*
X830580Y1150620D02*
D03*
X800100Y1176020D02*
D03*
X797560Y1155700D02*
D03*
X1042670Y1254760D02*
D03*
X1078230Y1200150D02*
D03*
X1069340Y1155700D02*
D03*
X1060250Y1177490D02*
D03*
X1112520Y1107440D02*
D03*
X1149350Y1096850D02*
D03*
X684530Y1023620D02*
D03*
X680720Y1033780D02*
D03*
X684530Y1003300D02*
D03*
Y1013460D02*
D03*
X670420Y1033812D02*
D03*
X932180Y1068070D02*
D03*
X851864Y1049571D02*
D03*
X791388Y1052301D02*
D03*
X808990Y1103630D02*
D03*
X757932Y1117015D02*
D03*
X790142Y1115481D02*
D03*
X589280Y1139190D02*
D03*
X1221130Y1143660D02*
D03*
X1243484Y1259234D02*
D03*
X448310Y1258570D02*
D03*
X1047750Y1055370D02*
D03*
X1005840Y1139190D02*
D03*
X1045210Y1141730D02*
D03*
X1050290Y1104900D02*
D03*
X1142110Y1136270D02*
D03*
X1118870Y1223010D02*
D03*
X1164590Y1193165D02*
D03*
X784100Y1169670D02*
D03*
X846810Y1181380D02*
D03*
X875030Y1186180D02*
D03*
X967740Y1303020D02*
D03*
X972185Y1292225D02*
D03*
X972306Y1268884D02*
D03*
X967740Y1277620D02*
D03*
X789940Y1192530D02*
D03*
X760730Y1220470D02*
D03*
X895350Y1165860D02*
D03*
X760730Y1153160D02*
D03*
X801370Y1196340D02*
D03*
X853440Y1163320D02*
D03*
X1059381Y1235589D02*
D03*
X718820Y1066800D02*
D03*
X1056640Y1223010D02*
D03*
X1045210Y1238250D02*
D03*
X1030033Y1210611D02*
D03*
X1038251Y1217728D02*
D03*
X1016420Y1207187D02*
D03*
X1022350Y1187168D02*
D03*
X1013919Y1181860D02*
D03*
X1049020Y1193800D02*
D03*
X1042670Y1209040D02*
D03*
X906780Y1271270D02*
D03*
X1003300Y1054100D02*
D03*
X1024755Y1254619D02*
D03*
X906991Y1252620D02*
D03*
X1127350Y1085850D02*
D03*
X1000590Y1166617D02*
D03*
X1076960Y1134110D02*
D03*
X1076885Y1282370D02*
D03*
X1043987Y1177601D02*
D03*
X988133Y1037869D02*
D03*
X955040Y1156335D02*
D03*
X947420Y1164659D02*
D03*
X914690Y1202035D02*
D03*
X901046Y1211585D02*
D03*
X914736Y1160789D02*
D03*
X969010Y1004570D02*
D03*
X914736Y1147216D02*
D03*
X1117600Y1061720D02*
D03*
X956310Y977900D02*
D03*
X884623Y985492D02*
D03*
X910590Y889000D02*
D03*
X933450Y922020D02*
D03*
X891140Y933050D02*
D03*
X802240Y905910D02*
D03*
X727710Y915670D02*
D03*
X879941Y1073150D02*
D03*
X871220D02*
D03*
X862498D02*
D03*
X862667Y1106122D02*
D03*
X871388D02*
D03*
X880110D02*
D03*
X952447Y903099D02*
D03*
D253*
X590694Y1295426D02*
D03*
X597024Y1204389D02*
D03*
X674500Y1243826D02*
D03*
X676019Y1210155D02*
D03*
X362030Y1084580D02*
D03*
X1281430Y1002030D02*
D03*
Y989330D02*
D03*
X1236980Y339090D02*
D03*
X1219200Y340360D02*
D03*
X1144800Y369040D02*
D03*
X919480Y1089660D02*
D03*
X1440180Y1262380D02*
D03*
X1438910Y1209040D02*
D03*
X601980Y655320D02*
D03*
X1236980Y906780D02*
D03*
X1221740Y730250D02*
D03*
X1209040Y708660D02*
D03*
X699755Y889563D02*
D03*
X723900Y892810D02*
D03*
X828910Y907180D02*
D03*
X579000Y900550D02*
D03*
X833120Y961390D02*
D03*
X829310Y925830D02*
D03*
X747145Y924175D02*
D03*
X1000760Y886460D02*
D03*
X713774Y930944D02*
D03*
X669844Y954486D02*
D03*
X502520Y905910D02*
D03*
X546366Y926966D02*
D03*
X599530Y638610D02*
D03*
X838200Y1053465D02*
D03*
X737870Y1116282D02*
D03*
X663308Y546100D02*
D03*
X636638Y527439D02*
D03*
X610478Y533852D02*
D03*
X623938Y533488D02*
D03*
X321310Y1099820D02*
D03*
X308610D02*
D03*
X295910D02*
D03*
X283210D02*
D03*
X1223010Y628650D02*
D03*
X1209040Y635000D02*
D03*
X665480Y614680D02*
D03*
X1280450Y355310D02*
D03*
Y346420D02*
D03*
X1316065Y937550D02*
D03*
X1304000D02*
D03*
X1362420Y919770D02*
D03*
X1292570Y976920D02*
D03*
X1276060D02*
D03*
X596900Y1187450D02*
D03*
M02*
